<svg id="Layer_1" data-name="Layer 1" xmlns="http://www.w3.org/2000/svg" viewBox="0 0 65 50"><title>icon_Camera</title><path d="M32.6,8.6A6.5,6.5,0,1,0,39,15.2s0-.07,0-0.1A6.47,6.47,0,0,0,32.6,8.6ZM48,3.2H41.2L38.5,0.5h0A1.61,1.61,0,0,0,37.4,0H27.8a2,2,0,0,0-1.3.6L23.9,3.2H17.1a1.58,1.58,0,0,0-1.6,1.56s0,0,0,0V26.3a1.58,1.58,0,0,0,1.56,1.6H47.9a1.58,1.58,0,0,0,1.6-1.56s0,0,0,0V4.8a1.49,1.49,0,0,0-1.38-1.6H48ZM32.6,24.8A9.62,9.62,0,0,1,23,15.16V15.1A9.6,9.6,0,1,1,32.6,24.8Z" fill="#1d2331"/></svg>