<svg id="Layer_1" data-name="Layer 1" xmlns="http://www.w3.org/2000/svg" viewBox="0 0 65 50"><title>icon_4stars</title><path d="M20,0L17.3,8.4H8.5l7.1,5.2L12.9,22,20,16.8,27.1,22l-2.7-8.4,7.1-5.2H22.7ZM37.9,22L45,16.8,52.1,22l-2.7-8.4,7.1-5.2H47.7L45,0,42.3,8.4H33.5l7.1,5.2ZM22.7,35.4L20,27l-2.7,8.4H8.5l7.1,5.2L12.9,49,20,43.8,27.1,49l-2.7-8.4,7.1-5.2H22.7Zm33.8,0H47.7L45,27l-2.7,8.4H33.5l7.1,5.2L37.9,49,45,43.8,52.1,49l-2.7-8.4ZM50.2,46.3L45.6,43a1,1,0,0,0-1.2,0l-4.6,3.3,1.7-5.4a1,1,0,0,0-.4-1.1l-4.6-3.3h5.7a1.2,1.2,0,0,0,1-.7l1.7-5.4,1.7,5.4a1,1,0,0,0,1,.7h5.7l-4.6,3.3a1,1,0,0,0-.4,1.1Z" fill="#1c2431"/></svg>