<svg xmlns="http://www.w3.org/2000/svg" viewBox="0 0 65 50"><path d="M32.5,0a15,15,0,1,0,15,15A14.962,14.962,0,0,0,32.5,0Zm0,26.4A11.4,11.4,0,1,1,43.9,15,11.45,11.45,0,0,1,32.5,26.4Z"/><path d="M42.657,12.851a12.441,12.441,0,0,1-5.631-1.365,9.427,9.427,0,0,0-4.543-.943,9.563,9.563,0,0,0-4.543.943,12.406,12.406,0,0,1-5.6,1.363A10.41,10.41,0,0,0,22.113,15a10.261,10.261,0,0,0,.474,3.086H26.74a3.358,3.358,0,0,1,3.429,3.428v3.6a9.947,9.947,0,0,0,4.629.008v-3.6a3.358,3.358,0,0,1,3.429-3.428h4.158a10.586,10.586,0,0,0,.5-3.086A10.272,10.272,0,0,0,42.657,12.851ZM32.569,18.257a3,3,0,1,1,3-3A3.037,3.037,0,0,1,32.569,18.257Z"/></svg>