<svg version="1.1" xmlns="http://www.w3.org/2000/svg" xmlns:xlink="http://www.w3.org/1999/xlink" x="0px" y="0px" viewBox="0 0 65 50" style="enable-background:new 0 0 65 50;" xml:space="preserve"><path d="M33,41.3c-9.9,0-18-8.1-18-18s8.1-18,18-18s18,8.1,18,18S42.9,41.3,33,41.3z M33,7.3c-8.8,0-16,7.2-16,16s7.2,16,16,16s16-7.2,16-16S41.8,7.3,33,7.3z"/><path d="M32.8,11.3L32.8,11.3c-2.8,0-5-2.2-5-5l0,0c0-2.7,2.2-5,5-5l0,0c2.7,0,5,2.2,5,5l0,0C37.8,9.1,35.5,11.3,32.8,11.3z"/><path d="M16.1,28.3L16.1,28.3c-2.8,0-5-2.2-5-5l0,0c0-2.7,2.2-5,5-5l0,0c2.7,0,5,2.2,5,5l0,0C21.1,26.1,18.8,28.3,16.1,28.3z"/><path d="M50,28.3L50,28.3c-2.8,0-5-2.2-5-5l0,0c0-2.7,2.2-5,5-5l0,0c2.8,0,5,2.2,5,5l0,0C55,26.1,52.7,28.3,50,28.3z"/><path d="M33.1,44.3L33.1,44.3c-2.8,0-5-2.2-5-5l0,0c0-2.8,2.2-5,5-5l0,0c2.7,0,5,2.2,5,5l0,0C38.1,42.1,35.8,44.3,33.1,44.3z"/></svg>