<svg xmlns="http://www.w3.org/2000/svg" viewBox="0 0 65 50"><path d="M25.1,34.1H43.4a1.75241,1.75241,0,0,1-1.7,1.7H22.2a3.372,3.372,0,0,1-3.4-3.34377q-.00023-.02812,0-.05624V5a1.75237,1.75237,0,0,1,1.7-1.7V30.7a3.37194,3.37194,0,0,0,3.34365,3.4q.02818.00023.05635,0Zm11-22.9H46.7L34.4,0V9.5A1.7524,1.7524,0,0,0,36.1,11.2Zm0,1.7H46.7V30.8a1.52175,1.52175,0,0,1-1.6,1.6H23.8a1.7524,1.7524,0,0,1-1.7-1.7V1.7A1.75241,1.75241,0,0,1,23.8,0h8.9V9.5a3.37192,3.37192,0,0,0,3.34361,3.4Q36.0718,12.90024,36.1,12.9Zm3.8,3.4-7.3,7.3-3.8-3.8a1.06066,1.06066,0,0,0-1.5,1.5l4.5,4.5a1.08745,1.08745,0,0,0,1.5,0l8-8a1.07092,1.07092,0,0,0,.1-1.4A1.093,1.093,0,0,0,39.9,16.3Z"/></svg>