<svg version="1.1" xmlns="http://www.w3.org/2000/svg" xmlns:xlink="http://www.w3.org/1999/xlink" x="0px" y="0px" viewBox="0 0 65 50" style="enable-background:new 0 0 65 50;" xml:space="preserve">
<style type="text/css">
  .st0{fill:#1C2431;}
</style>
<path class="st0" d="M47.5,23.2c0.3,0,0.6-0.3,0.6-0.6V2.4c0-0.3-0.3-0.6-0.6-0.6H18.5c-0.3,0-0.6,0.3-0.6,0.6v20.2
  c0,0.3,0.3,0.6,0.6,0.6h11.4c0.3-0.1,0.6,0.1,0.6,0.4c0.1,0.3-0.1,0.6-0.4,0.6c-0.1,0-0.2,0-0.2,0h-2.5c-0.3,0-0.6,0.3-0.6,0.6v1.3
  c0,0.3,0.3,0.6,0.6,0.6h11.4c0.3,0,0.6-0.3,0.6-0.6v-1.3c0-0.3-0.3-0.6-0.6-0.6h-2.5c-0.3,0.1-0.6-0.1-0.6-0.4
  c-0.1-0.3,0.1-0.6,0.4-0.6c0.1,0,0.2,0,0.2,0H47.5z M20.3,4.9c0-0.3,0.3-0.6,0.6-0.6h24c0.3,0,0.6,0.3,0.6,0.6v13.8
  c0,0.3-0.3,0.6-0.6,0.6H21c-0.3,0-0.6-0.3-0.6-0.6V4.9z"/>
</svg>
