<svg xmlns="http://www.w3.org/2000/svg" viewBox="0 0 65 50"><path d="M51.1,0H13.9a1.37,1.37,0,0,0-1.4,1.34s0,0,0,.06V25.6A1.37,1.37,0,0,0,13.84,27H51.1a1.39,1.39,0,0,0,1.4-1.38s0-.08,0-0.12V1.4A1.37,1.37,0,0,0,51.16,0H51.1ZM49.5,24h-13c0-.2-0.1-3.5-2.5-4.8-1.6-.8-1-0.2-2.9-1a23.74,23.74,0,0,1-2.4-1.1V15.2a4.13,4.13,0,0,0,1-2.4c0.5,0.1.6-.5,0.6-1s0.3-1.7-.3-1.6c0.1-.9.2-1.7,0.2-2.1A3.56,3.56,0,0,0,26.5,5a3.69,3.69,0,0,0-3.6,3.1,9.48,9.48,0,0,0,.2,2.1c-0.6-.1-0.3,1.2-0.3,1.6s0.2,1.1.6,1a3.48,3.48,0,0,0,1,2.4v1.9A23.74,23.74,0,0,1,22,18.2c-1.9.8-1.3,0.2-2.9,1-2.4,1.2-2.5,4.6-2.5,4.8h-1V3h34V24H49.5Zm-10-8h3V13h3V10h-3V7h-3v3h-3v3h3v3Z"/></svg>