<svg xmlns="http://www.w3.org/2000/svg" viewBox="0 0 65 50"><path d="M35.01764,19.04132a1.48953,1.48953,0,0,1,.132.64667,2.03744,2.03744,0,0,1-.52972,1.4632,2.53,2.53,0,0,1-1.56067.69513l.3313-3.94739a5.962,5.962,0,0,1,.69965.28186,2.3784,2.3784,0,0,1,.55768.36926A1.53755,1.53755,0,0,1,35.01764,19.04132ZM49.3,16.8A16.8,16.8,0,1,1,32.5,0,16.8,16.8,0,0,1,49.3,16.8ZM37.42439,19.3177a3.09412,3.09412,0,0,0-.33984-1.52222,3.21753,3.21753,0,0,0-.88953-1.016,4.99708,4.99708,0,0,0-1.23529-.66614q-.68665-.25781-1.38531-.47174l.33984-4.02734a3.91479,3.91479,0,0,1,.69165.22339c.20587.09094.39575.17987.56769.26733s.32379.16241.45776.22388a.84473.84473,0,0,0,.34381.09247.55832.55832,0,0,0,.33179-.09747,1.23552,1.23552,0,0,0,.27191-.29181l.58368-.88452a6.43244,6.43244,0,0,0-1.30334-.943,5.37169,5.37169,0,0,0-1.779-.58368l.166-1.9115H33.3606a.60121.60121,0,0,0-.45728.18689.69744.69744,0,0,0-.19385.4223l-.106,1.23834a4.70686,4.70686,0,0,0-1.897.36078,4.557,4.557,0,0,0-1.39026.917,3.861,3.861,0,0,0-.8606,1.26385,4.00572,4.00572,0,0,0,.034,3.10736,3.24637,3.24637,0,0,0,.87054,1.0979,4.58217,4.58217,0,0,0,1.21533.69763q.67621.26312,1.36627.45825l-.36975,4.3562a3.35136,3.35136,0,0,1-.94354-.30188,7.54131,7.54131,0,0,1-.70959-.40826q-.3111-.20389-.5542-.3548a.87476.87476,0,0,0-.45679-.15045.65807.65807,0,0,0-.33533.09247.75859.75859,0,0,0-.25781.23834l-.73914,1.09991a6.025,6.025,0,0,0,1.69708,1.15692,7.36524,7.36524,0,0,0,2.13336.62268l-.17389,2.0799h.88354a.59494.59494,0,0,0,.45776-.1889.69126.69126,0,0,0,.19385-.41382l.118-1.4292a5.70736,5.70736,0,0,0,1.93445-.45679,4.44358,4.44358,0,0,0,1.42322-.98749,4.13213,4.13213,0,0,0,.87958-1.40021A4.713,4.713,0,0,0,37.42439,19.3177Zm-6.533-7.11975a1.44755,1.44755,0,0,0-.3548.52026,1.6732,1.6732,0,0,0-.11194.60815,1.50822,1.50822,0,0,0,.48175,1.15289,2.50716,2.50716,0,0,0,.53967.38928,5.01867,5.01867,0,0,0,.67963.30634l.30188-3.59961a3.48288,3.48288,0,0,0-.91351.22839,2.0408,2.0408,0,0,0-.62271.39429Z"/></svg>