<svg xmlns="http://www.w3.org/2000/svg" viewBox="0 0 65 50"><path d="M32.474,26.159c0.087-.008,8.833-0.8,16.257,2.1a0.252,0.252,0,0,0,.089.017,0.248,0.248,0,0,0,.144-0.047,0.261,0.261,0,0,0,.107-0.216A31.207,31.207,0,0,0,32.553.9a0.244,0.244,0,0,0-.24.018,0.259,0.259,0,0,0-.115.217V25.9a0.261,0.261,0,0,0,.082.191A0.255,0.255,0,0,0,32.474,26.159Zm-13.1.8a0.339,0.339,0,0,0,.179.049A0.347,0.347,0,0,0,19.615,27a73.154,73.154,0,0,1,8.482-.866V3.688c0-3.042-9.313,12.122-8.838,23.091A0.226,0.226,0,0,0,19.373,26.956Zm29.284,4.211L31.1,31.133v-31a3.821,3.821,0,0,0-2,0v31l-11.931.034a1.239,1.239,0,0,0-1.238,1.239v1.267a1.241,1.241,0,0,0,.218.7l1.4,2.037a1.24,1.24,0,0,0,1.02.536H41.107a6.186,6.186,0,0,0,4.247-1.687l3.587-3.382A0.413,0.413,0,0,0,48.657,31.167Z"/></svg>