<svg version="1.1" xmlns="http://www.w3.org/2000/svg" xmlns:xlink="http://www.w3.org/1999/xlink" x="0px" y="0px" viewBox="0 0 65 50" style="enable-background:new 0 0 65 50;" xml:space="preserve"><g><path d="M42.2,4.1h-36c0,0,0,17.5,0,20.5c0,3,4,3.4,4,3.4c0.6-2,2.5-3.5,4.7-3.5s4,1.5,4.7,3.5L44,28V5.9C44,4.2,43.6,4.1,42.2,4.1z M25.6,23.7l1.4-7l-4.6,0.4c0.1,0,6.5-9.8,6.5-9.8l-1.4,7.4l4.5-0.4L25.6,23.7z"/><path d="M54.7,10.1H44.6V28c0,0,0.3,0,0.9,0c0.6-2,2.5-3.5,4.7-3.5c2.2,0,4.1,1.5,4.7,3.5c2.4,0,4.3,0,4.3,0V17.5L54.7,10.1z M46.9,17.1v-5.2h5.8l3.4,5.2C56.2,17.1,46.9,17.1,46.9,17.1z"/><circle cx="50.1" cy="29.5" r="4.1"/><circle cx="14.8" cy="29.5" r="4.1"/></g></svg>