<svg id="Layer_1" data-name="Layer 1" xmlns="http://www.w3.org/2000/svg" viewBox="0 0 65 50"><title>icon_PaymentCode-3</title><path d="M21.636,10.028a1.572,1.572,0,0,0-.62-0.6,1.636,1.636,0,0,0-.728-0.171,1.6,1.6,0,0,0-.718.171,1.558,1.558,0,0,0-.612.6,3.669,3.669,0,0,0-.423,1.148A8.74,8.74,0,0,0,18.378,13a8.738,8.738,0,0,0,.158,1.82,3.667,3.667,0,0,0,.423,1.148,1.557,1.557,0,0,0,.612.6,1.6,1.6,0,0,0,.718.171,1.634,1.634,0,0,0,.728-0.171,1.571,1.571,0,0,0,.62-0.6,3.664,3.664,0,0,0,.431-1.148A8.56,8.56,0,0,0,22.228,13a8.561,8.561,0,0,0-.161-1.82A3.666,3.666,0,0,0,21.636,10.028Z" fill="#1c2431" fill-rule="evenodd"/><path d="M54.679,9.7a1.569,1.569,0,0,0-.549-0.343,1.977,1.977,0,0,0-.7-0.119,1.844,1.844,0,0,0-.707.129,1.543,1.543,0,0,0-.882.91,1.974,1.974,0,0,0-.119.7,1.766,1.766,0,0,0,.438,1.292,1.665,1.665,0,0,0,1.242.445,1.985,1.985,0,0,0,.749-0.133,1.586,1.586,0,0,0,.553-0.364,1.532,1.532,0,0,0,.34-0.546,1.958,1.958,0,0,0,.115-0.679,2.034,2.034,0,0,0-.126-0.739A1.517,1.517,0,0,0,54.679,9.7Z" fill="#1c2431" fill-rule="evenodd"/><path d="M61.857,0H3.144A3.11,3.11,0,0,0,.006,3.081v19.83a3.109,3.109,0,0,0,3.138,3.08H61.857a3.109,3.109,0,0,0,3.137-3.08V3.081A3.109,3.109,0,0,0,61.857,0ZM14.8,16.17a2.965,2.965,0,0,1-.686,1.043,3.23,3.23,0,0,1-1.1.7,4.059,4.059,0,0,1-1.491.255,4.807,4.807,0,0,1-.952-0.094,5,5,0,0,1-.9-0.269,4.8,4.8,0,0,1-.808-0.42,3.893,3.893,0,0,1-.672-0.546l0.553-.9a0.588,0.588,0,0,1,.182-0.164A0.459,0.459,0,0,1,9.159,15.7a0.669,0.669,0,0,1,.378.143q0.2,0.144.483,0.319a3.78,3.78,0,0,0,.654.318,2.515,2.515,0,0,0,.9.143,1.846,1.846,0,0,0,1.246-.381,1.37,1.37,0,0,0,.441-1.1,1.017,1.017,0,0,0-.2-0.651,1.613,1.613,0,0,0-.529-0.424,3.959,3.959,0,0,0-.749-0.29q-0.42-.119-0.854-0.259a7.33,7.33,0,0,1-.854-0.336,2.76,2.76,0,0,1-.749-0.511A2.32,2.32,0,0,1,8.8,11.893a3,3,0,0,1-.2-1.166A2.8,2.8,0,0,1,9.46,8.719,3.138,3.138,0,0,1,10.5,8.068a3.8,3.8,0,0,1,1.414-.245,4.724,4.724,0,0,1,1.652.28,3.731,3.731,0,0,1,1.288.784l-0.469.889a0.65,0.65,0,0,1-.178.214,0.4,0.4,0,0,1-.234.066,0.6,0.6,0,0,1-.318-0.109q-0.172-.108-0.41-0.241a3.39,3.39,0,0,0-.556-0.242,2.341,2.341,0,0,0-.753-0.109,2.244,2.244,0,0,0-.686.095,1.44,1.44,0,0,0-.493.262,1.048,1.048,0,0,0-.3.4,1.318,1.318,0,0,0-.1.514,0.894,0.894,0,0,0,.2.6,1.663,1.663,0,0,0,.528.406,4.887,4.887,0,0,0,.749.3q0.42,0.133.861,0.284a8.122,8.122,0,0,1,.861.35,2.974,2.974,0,0,1,.749.5,2.287,2.287,0,0,1,.529.745,2.589,2.589,0,0,1,.2,1.071A3.491,3.491,0,0,1,14.8,16.17Zm8.932-.875a4.712,4.712,0,0,1-.784,1.614,3.17,3.17,0,0,1-1.183.948,3.508,3.508,0,0,1-1.474.311,3.46,3.46,0,0,1-1.466-.311,3.155,3.155,0,0,1-1.172-.948,4.7,4.7,0,0,1-.777-1.614,8.39,8.39,0,0,1-.28-2.3,8.382,8.382,0,0,1,.28-2.3,4.7,4.7,0,0,1,.777-1.61,3.157,3.157,0,0,1,1.172-.948,3.46,3.46,0,0,1,1.466-.311,3.508,3.508,0,0,1,1.474.311,3.172,3.172,0,0,1,1.183.948,4.716,4.716,0,0,1,.784,1.61,8.284,8.284,0,0,1,.284,2.3A8.293,8.293,0,0,1,23.729,15.3Zm8.809,2.761H25.595V17.483a1.03,1.03,0,0,1,.073-0.367,0.941,0.941,0,0,1,.234-0.346l3.073-3.08q0.385-.392.69-0.749a4.842,4.842,0,0,0,.508-0.707,3.338,3.338,0,0,0,.311-0.711,2.625,2.625,0,0,0,.109-0.759,1.8,1.8,0,0,0-.1-0.641,1.279,1.279,0,0,0-.3-0.466,1.233,1.233,0,0,0-.462-0.284,1.823,1.823,0,0,0-.606-0.094,1.8,1.8,0,0,0-.57.087,1.541,1.541,0,0,0-.808.612,1.589,1.589,0,0,0-.21.462,0.766,0.766,0,0,1-.308.427,0.863,0.863,0,0,1-.546.049l-0.91-.161a3.752,3.752,0,0,1,.406-1.278,3.061,3.061,0,0,1,.753-0.917,3.116,3.116,0,0,1,1.036-.553,4.133,4.133,0,0,1,1.256-.185,3.8,3.8,0,0,1,1.281.206,2.885,2.885,0,0,1,.994.584,2.648,2.648,0,0,1,.644.91,2.94,2.94,0,0,1,.231,1.183,3.156,3.156,0,0,1-.164,1.036,4.319,4.319,0,0,1-.441.91,6.144,6.144,0,0,1-.647.84q-0.371.406-.777,0.826L28.052,16.65a5.491,5.491,0,0,1,.661-0.151,3.9,3.9,0,0,1,.62-0.052h2.6a0.616,0.616,0,0,1,.445.158,0.551,0.551,0,0,1,.164.417v1.036Zm6.328-3.6a5.251,5.251,0,0,1-.21,1.54,3.2,3.2,0,0,1-.626,1.169,2.735,2.735,0,0,1-1.039.742,3.755,3.755,0,0,1-1.449.259,5.988,5.988,0,0,1-.742-0.045,6.684,6.684,0,0,1-.763-0.143q0.021-.28.049-0.56t0.049-.56a0.4,0.4,0,0,1,.122-0.249,0.411,0.411,0,0,1,.29-0.094,1.332,1.332,0,0,1,.312.049,2.3,2.3,0,0,0,1.193-.067,1.2,1.2,0,0,0,.515-0.367,1.694,1.694,0,0,0,.312-0.654,3.922,3.922,0,0,0,.1-0.977V7.935h1.883v6.524Zm8.974,3.6h-5.6V16.762h2.051v-5.9q0-.343.021-0.721l-1.456,1.218a0.6,0.6,0,0,1-.249.122,0.592,0.592,0,0,1-.231,0,0.558,0.558,0,0,1-.193-0.073,0.407,0.407,0,0,1-.126-0.115l-0.546-.749L44.6,7.921H46.02v8.841h1.82v1.295Zm8.893-6.006a4.867,4.867,0,0,1-.227.809,5.472,5.472,0,0,1-.357.759,8.422,8.422,0,0,1-.469.735l-2.317,3.3a0.914,0.914,0,0,1-.357.284,1.219,1.219,0,0,1-.539.115H50.878l3.143-3.927q0.119-.147.224-0.287t0.2-.28a2.791,2.791,0,0,1-.77.339,3.311,3.311,0,0,1-.882.115,3.007,3.007,0,0,1-1.029-.182,2.576,2.576,0,0,1-.9-0.549,2.776,2.776,0,0,1-.633-0.91A3.1,3.1,0,0,1,50,11.106a3.234,3.234,0,0,1,.252-1.274,3.2,3.2,0,0,1,.707-1.043,3.317,3.317,0,0,1,1.092-.707,3.7,3.7,0,0,1,1.407-.259,3.771,3.771,0,0,1,1.4.245,3.046,3.046,0,0,1,1.057.686,2.992,2.992,0,0,1,.672,1.057,3.769,3.769,0,0,1,.234,1.351A4.719,4.719,0,0,1,56.734,12.051Z" fill="#1c2431" fill-rule="evenodd"/></svg>