<svg xmlns="http://www.w3.org/2000/svg" viewBox="0 0 65 50"><circle cx="32.5" cy="17.011" r="3" fill="#1c2431"/><g opacity="0.3"><path d="M32.511,34.022a17,17,0,0,0,17-17h-17v17Z" fill="#1c2431"/></g><path d="M32.465,34.022a17.264,17.264,0,0,1-2.985-.267l0.171-.957a16.257,16.257,0,0,0,2.816.252Zm2.343-.156L34.677,32.9a16.147,16.147,0,0,0,2.756-.627l0.3,0.925A16.96,16.96,0,0,1,34.808,33.867Zm-7.6-.685A16.91,16.91,0,0,1,24.447,32l0.461-.856a15.8,15.8,0,0,0,2.6,1.114Zm12.707-.853-0.423-.875A16.129,16.129,0,0,0,41.91,30l0.571,0.786A17.024,17.024,0,0,1,39.91,32.328ZM22.458,30.744A17.223,17.223,0,0,1,20.2,28.767l0.7-.672a16.211,16.211,0,0,0,2.126,1.864ZM44.284,29.28l-0.674-.7a16.139,16.139,0,0,0,1.859-2.13l0.786,0.573A17.22,17.22,0,0,1,44.284,29.28ZM18.7,26.964a17.184,17.184,0,0,1-1.535-2.574l0.875-.423a16.193,16.193,0,0,0,1.448,2.427Zm28.8-1.931-0.856-.459a15.967,15.967,0,0,0,1.109-2.6l0.925,0.3A16.915,16.915,0,0,1,47.5,25.033ZM16.3,22.207a17,17,0,0,1-.658-2.925l0.964-.129a15.9,15.9,0,0,0,.62,2.758ZM49.25,19.995l-0.957-.169a16.235,16.235,0,0,0,.246-2.815h0.972A17.148,17.148,0,0,1,49.25,19.995ZM16.461,16.944l-0.972,0a17.134,17.134,0,0,1,.273-2.984l0.957,0.174A16.117,16.117,0,0,0,16.461,16.944Zm31.945-2.01a15.96,15.96,0,0,0-.608-2.759l0.927-.293a16.9,16.9,0,0,1,.646,2.928Zm-31.142-2.95-0.923-.3a16.884,16.884,0,0,1,1.188-2.753l0.854,0.462A16.029,16.029,0,0,0,17.264,11.983Zm29.721-1.869a16.084,16.084,0,0,0-1.436-2.433l0.79-.566A16.89,16.89,0,0,1,47.862,9.7Zm-27.414-2.6-0.782-.576A17.16,17.16,0,0,1,20.77,4.692l0.67,0.7A16.241,16.241,0,0,0,19.571,7.517ZM44.139,5.974A16.217,16.217,0,0,0,42.021,4.1L42.6,3.319A17.148,17.148,0,0,1,44.844,5.3Zm-21-1.992-0.568-.789a17.112,17.112,0,0,1,2.576-1.529L25.574,2.54A16.161,16.161,0,0,0,23.144,3.982ZM40.152,2.911a16,16,0,0,0-2.592-1.125l0.306-.923a16.947,16.947,0,0,1,2.751,1.194ZM27.632,1.723L27.338,0.8A16.968,16.968,0,0,1,30.263.145L30.39,1.108A16,16,0,0,0,27.632,1.723Zm7.782-.488A16.2,16.2,0,0,0,32.6.972L32.606,0a17.156,17.156,0,0,1,2.983.28Z" fill="#1c2431"/></svg>