<svg version="1.1" xmlns="http://www.w3.org/2000/svg" xmlns:xlink="http://www.w3.org/1999/xlink" x="0px" y="0px" viewBox="0 0 65 50" style="enable-background:new 0 0 65 50;" xml:space="preserve"><g><circle cx="32.5" cy="20.3" r="16.8"/><g><path d="M31.4,26.8c-0.8-0.1-1.5-0.3-2.1-0.6c-0.7-0.3-1.2-0.7-1.7-1.1l0.7-1.1c0.1-0.1,0.1-0.2,0.3-0.2c0.1-0.1,0.2-0.1,0.3-0.1c0.1,0,0.3,0,0.5,0.1s0.3,0.2,0.5,0.4c0.2,0.1,0.4,0.3,0.7,0.4c0.3,0.1,0.6,0.2,0.9,0.3l0.4-4.3c-0.5-0.1-0.9-0.3-1.4-0.5c-0.4-0.2-0.8-0.4-1.2-0.7c-0.4-0.3-0.6-0.6-0.9-1.1c-0.2-0.4-0.3-1-0.3-1.6c0-0.5,0.1-1,0.3-1.4c0.2-0.5,0.5-0.9,0.9-1.2c0.4-0.4,0.8-0.7,1.4-0.9s1.2-0.4,1.9-0.4l0.1-1.2c0-0.2,0.1-0.3,0.2-0.4c0.1-0.1,0.3-0.2,0.5-0.2h0.9L34,12.7c0.7,0.1,1.3,0.3,1.8,0.6c0.5,0.3,0.9,0.6,1.3,0.9l-0.6,0.9c-0.1,0.1-0.2,0.2-0.3,0.3c-0.1,0.1-0.2,0.1-0.3,0.1c-0.1,0-0.2,0-0.3-0.1c-0.1-0.1-0.3-0.1-0.5-0.2C35,15.1,34.8,15,34.6,15c-0.2-0.1-0.4-0.2-0.7-0.2l-0.3,4c0.5,0.1,0.9,0.3,1.4,0.5c0.5,0.2,0.9,0.4,1.2,0.7c0.4,0.3,0.7,0.6,0.9,1c0.2,0.4,0.3,0.9,0.3,1.5c0,0.6-0.1,1.2-0.3,1.7c-0.2,0.5-0.5,1-0.9,1.4s-0.9,0.7-1.4,1c-0.6,0.3-1.2,0.4-1.9,0.4l-0.1,1.4c0,0.1-0.1,0.3-0.2,0.4c-0.1,0.1-0.3,0.2-0.4,0.2h-0.9L31.4,26.8z M30.4,16.4c0,0.2,0,0.5,0.1,0.6c0.1,0.2,0.2,0.4,0.4,0.5c0.2,0.1,0.3,0.3,0.5,0.4c0.2,0.1,0.4,0.2,0.7,0.3l0.3-3.6c-0.4,0-0.7,0.1-0.9,0.2c-0.3,0.1-0.5,0.2-0.6,0.4s-0.3,0.3-0.4,0.5C30.5,16,30.4,16.2,30.4,16.4z M35.1,22.7c0-0.2,0-0.5-0.1-0.6c-0.1-0.2-0.2-0.3-0.4-0.5c-0.2-0.1-0.3-0.3-0.6-0.4c-0.2-0.1-0.4-0.2-0.7-0.3L33,24.9c0.7-0.1,1.2-0.3,1.5-0.7C34.9,23.8,35.1,23.3,35.1,22.7z"/></g></g></svg>