<svg version="1.1" xmlns="http://www.w3.org/2000/svg" xmlns:xlink="http://www.w3.org/1999/xlink" x="0px" y="0px" viewBox="0 0 65 50" style="enable-background:new 0 0 65 50;" xml:space="preserve"><g><circle cx="17.5" cy="17.8" r="3.4"/><circle cx="43.5" cy="17.8" r="3.4"/><rect x="25.2" width="28.1" height="13.4"/><path d="M40.9,14.4H23.4v-11l-9,0.7c0,0-2,4.9-2.7,6.6V17c0,0.5,0.4,0.9,0.9,0.9l0,0h0.6c0-2.4,1.9-4.3,4.3-4.3s4.3,1.9,4.3,4.3l0,0h17.3C39.2,16.5,39.8,15.2,40.9,14.4z M19.9,9.8L13,10.7l2-5.2l4.9-0.4V9.8L19.9,9.8z"/><path d="M53.3,14.4h-7.1c1.1,0.8,1.7,2.1,1.7,3.4h2.8l2.6-0.9V14.4z"/></g></svg>
