<svg version="1.1" xmlns="http://www.w3.org/2000/svg" xmlns:xlink="http://www.w3.org/1999/xlink" x="0px" y="0px" viewBox="0 0 65 50" style="enable-background:new 0 0 65 50;" xml:space="preserve"><path d="M28.3,10h9.1V0.9C37.4,0.4,37,0,36.5,0c0,0,0,0,0,0H18.3c-0.5,0-0.9,0.4-0.9,0.9v18.3c0,0.5,0.4,0.9,0.9,0.9h9.1V11C27.4,10.5,27.8,10,28.3,10C28.3,10,28.3,10,28.3,10z M30.4,20h6.1c0.5,0,0.9-0.4,0.9-0.9c0,0,0,0,0,0V13h-7V20z M46.5,10h-9.1v3h7v14h-14v-7h-3v9.1c0,0.5,0.4,0.9,0.9,0.9h18.3c0.5,0,0.9-0.4,0.9-0.9c0,0,0,0,0,0V10.9C47.5,10.4,47.1,10,46.5,10z"/></svg>
