<svg xmlns="http://www.w3.org/2000/svg" viewBox="0 0 65 50"><path d="M22.55,12.227a11.29,11.29,0,0,1,1.2-4.2h-6.6a1.58,1.58,0,0,0-1.6,1.56q0,0.02,0,.04v4.7h7.2A14.92,14.92,0,0,1,22.55,12.227Z" fill="#1c2431"/><path d="M47.95,8.027h-6.6a10.81,10.81,0,0,1,1.2,4.2,14.92,14.92,0,0,1-.2,2.1h7.2v-4.7a1.58,1.58,0,0,0-1.56-1.6H47.95Z" fill="#1c2431"/><path d="M32.55,22.027a10,10,0,0,1-8.5-4.6h-8.6v12a1.58,1.58,0,0,0,1.56,1.6H47.85a1.58,1.58,0,0,0,1.6-1.56q0-.02,0-0.04v-12h-8.4A10,10,0,0,1,32.55,22.027Zm-7.4,5.9h-6.4v-1.6h6.4v1.6Zm9.5-3.2H18.75v-1.6h15.9v1.6Z" fill="#1c2431"/><path d="M32.55,19.027a7.07,7.07,0,0,0,7-7.138V11.827c0-3.8-6.3-11.3-6.6-11.6a0.56,0.56,0,0,0-.9,0c-0.3.3-6.6,7.8-6.6,11.6A7.21,7.21,0,0,0,32.55,19.027Z" fill="#1c2431"/></svg>