<svg width="65px" height="50px" viewBox="0 0 65 50" version="1.1" xmlns="http://www.w3.org/2000/svg" xmlns:xlink="http://www.w3.org/1999/xlink">
    <g id="Page-1" stroke="none" stroke-width="1" fill="none" fill-rule="evenodd">
        <g id="ArtBoard">
            <g id="Page-1" transform="translate(10.000000, 0.000000)">
                <g id="Group">
                    <path d="M36,15 C34.9,15 34,14.1 34,13 C34,11.9 34.9,11 36,11 C37.1,11 38,11.9 38,13 C38,14.1 37.1,15 36,15 M43.9,10.3 L34.9,1.1 C34.2,0.4 33.3,0 32.3,0 L3.9,0 C1.7,0 0,1.7 0,3.9 L0,22.2 C0,24.4 1.7,26.1 3.9,26.1 L32.3,26.1 C33.3,26.1 34.2,25.7 34.9,25 L43.9,15.8 C45.4,14.3 45.4,11.8 43.9,10.3" id="Fill-1" fill="#1C2431"></path>
                    <path d="M21.2731403,16.7256581 C21.0681403,17.4346581 20.2131403,17.8406581 19.5671403,17.3716581 C18.9831403,16.9476581 18.9811403,15.8236581 19.1651403,15.1976581 C19.3661403,14.5126581 20.0861403,14.0736581 20.7601403,14.4736581 C21.4501403,14.8826581 21.4721403,16.0406581 21.2731403,16.7256581 C21.2141403,16.9286581 21.3321403,16.5236581 21.2731403,16.7256581 L21.2731403,16.7256581 Z M22.6851403,14.7576581 C22.1551403,13.3436581 20.5411403,12.6746581 19.1451403,13.2576581 C17.7201403,13.8526581 17.2501403,15.6366581 17.7011403,17.0216581 C18.1771403,18.4826581 19.7931403,19.2316581 21.2251403,18.6336581 C22.7101403,18.0136581 23.2251403,16.1976581 22.6851403,14.7576581 L22.6851403,14.7576581 Z M11.6171403,18.6936581 L13.0891403,18.6936581 C13.3301403,18.6936581 13.5341403,18.5876581 13.6891403,18.3976581 L22.2811403,7.12565812 L20.8411403,7.12565812 C20.5691403,7.12565812 20.3811403,7.22965812 20.2011403,7.43765812 L11.6171403,18.6936581 Z M14.7411403,10.6736581 C14.5261403,11.3746581 13.6791403,11.7866581 13.0321403,11.3156581 C12.4481403,10.8906581 12.4471403,9.77365812 12.6331403,9.14965812 C12.8371403,8.46565812 13.5471403,8.02465812 14.2241403,8.42565812 C14.9121403,8.83265812 14.9511403,9.98965812 14.7411403,10.6736581 L14.7411403,10.6736581 Z M16.1531403,8.70965812 C15.6321403,7.29265812 13.9981403,6.62965812 12.6091403,7.20965812 C11.1841403,7.80565812 10.7141403,9.58865812 11.1651403,10.9736581 C11.6411403,12.4366581 13.2561403,13.1716581 14.6891403,12.5816581 C16.1801403,11.9676581 16.6811403,10.1486581 16.1531403,8.70965812 C16.0201403,8.34665812 16.2861403,9.07265812 16.1531403,8.70965812 L16.1531403,8.70965812 Z" id="Fill-3" fill="#F4F4F4"></path>
                </g>
            </g>
        </g>
    </g>
</svg>