<svg version="1.1" xmlns="http://www.w3.org/2000/svg" xmlns:xlink="http://www.w3.org/1999/xlink" x="0px" y="0px"
	 viewBox="0 0 65 50" style="enable-background:new 0 0 65 50;" xml:space="preserve">
<path d="M34.1,13.5l-1.6-4.8l-1.6,4.8h-5l4.1,3l-1.6,4.8l4.1-3l4.1,3L35,16.5l4.1-3H34.1z M32.5,0c-8.3,0-15,6.7-15,15
	s6.7,15,15,15s15-6.7,15-15S40.8,0,32.5,0z M32.5,28.1c-7.2,0-13.1-5.9-13.1-13.1c0-7.2,5.9-13.1,13.1-13.1S45.6,7.8,45.6,15
	c0,0,0,0,0,0C45.6,22.2,39.7,28.1,32.5,28.1z" fill="#1C2431"/>
</svg>
