<svg xmlns="http://www.w3.org/2000/svg" viewBox="0 0 65 50"><path d="M40.8,16.939a1.971,1.971,0,0,0-.46-0.3,4.873,4.873,0,0,0-.575-0.232L39.49,19.648a2.079,2.079,0,0,0,1.283-.572,1.677,1.677,0,0,0,.436-1.2,1.23,1.23,0,0,0-.108-0.532A1.272,1.272,0,0,0,40.8,16.939Z"/><path d="M37.708,11.72a1.192,1.192,0,0,0-.292.428,1.363,1.363,0,0,0-.092.5,1.246,1.246,0,0,0,.4.947,2.031,2.031,0,0,0,.448.319,4.359,4.359,0,0,0,.563.252l0.248-2.957a2.882,2.882,0,0,0-.759.188A1.666,1.666,0,0,0,37.708,11.72Z"/><path d="M39.135,0h-0.1A15.45,15.45,0,1,0,39.135,0Zm3.7,18.965a3.376,3.376,0,0,1-.727,1.151,3.757,3.757,0,0,1-1.175.815,4.5,4.5,0,0,1-1.59.372l-0.1,1.175a0.52,0.52,0,0,1-.156.34,0.491,0.491,0,0,1-.372.156H38l0.144-1.71a6.1,6.1,0,0,1-1.758-.511,4.944,4.944,0,0,1-1.4-.951l0.607-.9a0.625,0.625,0,0,1,.212-0.2,0.558,0.558,0,0,1,.284-0.076,0.72,0.72,0,0,1,.376.124q0.2,0.124.456,0.292a6.307,6.307,0,0,0,.583.336,2.757,2.757,0,0,0,.775.247l0.3-3.572q-0.568-.168-1.123-0.38a3.681,3.681,0,0,1-1-.568,2.653,2.653,0,0,1-.715-0.9,3.044,3.044,0,0,1-.272-1.367,3.1,3.1,0,0,1,.947-2.222,3.791,3.791,0,0,1,1.147-.751,4.379,4.379,0,0,1,1.558-.336L39.2,8.523a0.558,0.558,0,0,1,.16-0.344,0.494,0.494,0,0,1,.376-0.152h0.727L40.33,9.594a4.368,4.368,0,0,1,1.471.484,5.218,5.218,0,0,1,1.063.779l-0.48.727a0.88,0.88,0,0,1-.216.24,0.457,0.457,0,0,1-.272.08,0.724,0.724,0,0,1-.288-0.076q-0.168-.076-0.376-0.184t-0.468-.22a3.348,3.348,0,0,0-.571-0.184l-0.28,3.309q0.575,0.176,1.143.388a4.088,4.088,0,0,1,1.019.547,2.628,2.628,0,0,1,.731.835,2.534,2.534,0,0,1,.28,1.251A3.89,3.89,0,0,1,42.839,18.965Z"/><path d="M22.334,19.45H13.3a1,1,0,0,0,0,2h9.68A17.174,17.174,0,0,1,22.334,19.45Z"/><path d="M13.2,11.55h8.9a17.166,17.166,0,0,1,.548-2H13.3a0.945,0.945,0,0,0-1,1A0.987,0.987,0,0,0,13.2,11.55Z"/><path d="M21.754,15.05c0-.2.023-0.4,0.03-0.6H11.5a1,1,0,0,0,0,2H21.824C21.787,15.987,21.754,15.523,21.754,15.05Z"/></svg>