<svg id="Layer_1" data-name="Layer 1" xmlns="http://www.w3.org/2000/svg" viewBox="0 0 65 50"><title>icon_PriceTag_Overpaying-3</title><path d="M20.62042,14.0401a1.35888,1.35888,0,0,0-.31628-0.20911,3.30856,3.30856,0,0,0-.396-0.15936l-0.187,2.23315a1.433,1.433,0,0,0,.88269-0.39337,1.15377,1.15377,0,0,0,.2998-0.82782,0.84535,0.84535,0,0,0-.07416-0.36572A0.87745,0.87745,0,0,0,20.62042,14.0401Z" fill="#1d2331"/><path d="M28.10022,14.0401a1.35631,1.35631,0,0,0-.31628-0.20911,3.31061,3.31061,0,0,0-.39587-0.15936l-0.18713,2.23315a1.43336,1.43336,0,0,0,.88281-0.39337,1.1543,1.1543,0,0,0,.2998-0.82782,0.84534,0.84534,0,0,0-.07428-0.36572A0.87474,0.87474,0,0,0,28.10022,14.0401Z" fill="#1d2331"/><path d="M18.49463,10.44849a0.82284,0.82284,0,0,0-.20081.29419,0.93948,0.93948,0,0,0-.06317.34393,0.85711,0.85711,0,0,0,.27216.65179,1.40885,1.40885,0,0,0,.308.22,3.0383,3.0383,0,0,0,.38776.17322l0.17053-2.035a1.97753,1.97753,0,0,0-.52252.12921A1.14621,1.14621,0,0,0,18.49463,10.44849Z" fill="#1d2331"/><path d="M25.97455,10.44849a0.8205,0.8205,0,0,0-.20081.29419,0.93952,0.93952,0,0,0-.06323.34393,0.8563,0.8563,0,0,0,.27222.65179,1.404,1.404,0,0,0,.308.22,3.0383,3.0383,0,0,0,.38776.17322l0.17047-2.035a1.97533,1.97533,0,0,0-.5224.12921A1.14474,1.14474,0,0,0,25.97455,10.44849Z" fill="#1d2331"/><path d="M35.58014,14.0401a1.35888,1.35888,0,0,0-.31628-0.20911,3.31268,3.31268,0,0,0-.396-0.15936l-0.187,2.23315a1.43368,1.43368,0,0,0,.88281-0.39337,1.15448,1.15448,0,0,0,.29968-0.82782,0.84535,0.84535,0,0,0-.07422-0.36572A0.87635,0.87635,0,0,0,35.58014,14.0401Z" fill="#1d2331"/><path d="M53.88751,10.3l-9-9.2a3.63123,3.63123,0,0,0-2.6-1.1h-28.4a3.9048,3.9048,0,0,0-3.9,3.9V22.2a3.84249,3.84249,0,0,0,3.9,3.9h28.4a3.63123,3.63123,0,0,0,2.6-1.1l9-9.2A3.92361,3.92361,0,0,0,53.88751,10.3ZM22.02563,15.43451a2.32767,2.32767,0,0,1-.50049.79187,2.5881,2.5881,0,0,1-.80853.56091,3.09335,3.09335,0,0,1-1.09448.2558l-0.066.80853a0.35754,0.35754,0,0,1-.1073.23358,0.33679,0.33679,0,0,1-.25574.1073H18.69263l0.099-1.177a4.18691,4.18691,0,0,1-1.21-.352,3.39428,3.39428,0,0,1-.96252-0.65454l0.418-.62128a0.42874,0.42874,0,0,1,.14575-0.13489,0.38684,0.38684,0,0,1,.19525-0.05212,0.49638,0.49638,0,0,1,.25854.08521q0.13733,0.08505.31348,0.20062a4.2738,4.2738,0,0,0,.40149.23108,1.8879,1.8879,0,0,0,.53351.17041l0.20349-2.45831q-0.39056-.11581-0.77271-0.26141a2.52981,2.52981,0,0,1-.6875-0.39038,1.82563,1.82563,0,0,1-.49231-0.6189,2.09446,2.09446,0,0,1-.187-0.94049,2.13326,2.13326,0,0,1,.65167-1.52893,2.606,2.606,0,0,1,.78931-0.51691,3.01062,3.01062,0,0,1,1.07251-.231l0.06049-.69305a0.38357,0.38357,0,0,1,.11-0.23651,0.34018,0.34018,0,0,1,.25854-0.10461h0.50049l-0.09351,1.078a3.00669,3.00669,0,0,1,1.012.33282,3.59885,3.59885,0,0,1,.73151.53619l-0.33.50073a0.60371,0.60371,0,0,1-.1485.16486,0.31308,0.31308,0,0,1-.187.05493,0.49508,0.49508,0,0,1-.198-0.05231q-0.11554-.05191-0.25848-0.1264-0.1431-.07443-0.32184-0.15118a2.28861,2.28861,0,0,0-.39319-0.1264l-0.1925,2.277q0.396,0.12094.7865,0.2666a2.82058,2.82058,0,0,1,.70123.37683,1.80878,1.80878,0,0,1,.5033.57471,1.74424,1.74424,0,0,1,.1925.86066A2.68022,2.68022,0,0,1,22.02563,15.43451Zm7.47992,0a2.32614,2.32614,0,0,1-.50061.79187,2.5881,2.5881,0,0,1-.80853.56091,3.09271,3.09271,0,0,1-1.09448.2558l-0.066.80853a0.35687,0.35687,0,0,1-.10724.23358,0.33683,0.33683,0,0,1-.2558.1073H26.17255l0.099-1.177a4.18563,4.18563,0,0,1-1.21-.352,3.39374,3.39374,0,0,1-.96259-0.65454l0.418-.62128a0.42874,0.42874,0,0,1,.14575-0.13489,0.38689,0.38689,0,0,1,.19531-0.05212,0.496,0.496,0,0,1,.25848.08521q0.13742,0.08505.31354,0.20062a4.28655,4.28655,0,0,0,.40137.23108,1.88918,1.88918,0,0,0,.53351.17041l0.20349-2.45831q-0.39038-.11581-0.77271-0.26141a2.53072,2.53072,0,0,1-.6875-0.39038A1.82694,1.82694,0,0,1,24.616,12.159a2.09529,2.09529,0,0,1-.187-0.94049,2.13365,2.13365,0,0,1,.65173-1.52893,2.606,2.606,0,0,1,.78931-0.51691,3.00935,3.00935,0,0,1,1.07239-.231l0.06049-.69305a0.38357,0.38357,0,0,1,.11-0.23651,0.34046,0.34046,0,0,1,.25854-0.10461H27.872l-0.09357,1.078a3.007,3.007,0,0,1,1.012.33282,3.59669,3.59669,0,0,1,.73145.53619l-0.3299.50073a0.60091,0.60091,0,0,1-.14856.16486,0.31257,0.31257,0,0,1-.18689.05493,0.49484,0.49484,0,0,1-.19806-0.05231Q28.54288,10.47079,28.4,10.3963q-0.1431-.07443-0.32178-0.15118a2.2935,2.2935,0,0,0-.39331-0.1264l-0.19238,2.277q0.396,0.12094.7865,0.2666a2.82234,2.82234,0,0,1,.70117.37683,1.80785,1.80785,0,0,1,.50323.57471,1.74358,1.74358,0,0,1,.1925.86066A2.68016,2.68016,0,0,1,29.50555,15.43451Zm7.4798,0a2.32767,2.32767,0,0,1-.50049.79187,2.5881,2.5881,0,0,1-.80853.56091,3.09335,3.09335,0,0,1-1.09448.2558l-0.066.80853a0.35707,0.35707,0,0,1-.10718.23358,0.337,0.337,0,0,1-.2558.1073H33.65234l0.099-1.177a4.18786,4.18786,0,0,1-1.21-.352,3.39481,3.39481,0,0,1-.96246-0.65454l0.418-.62128a0.42838,0.42838,0,0,1,.14581-0.13489,0.38661,0.38661,0,0,1,.19519-0.05212,0.496,0.496,0,0,1,.25848.08521q0.13742,0.08505.31354,0.20062a4.2738,4.2738,0,0,0,.40149.23108,1.88726,1.88726,0,0,0,.53351.17041l0.20349-2.45831q-0.39056-.11581-0.77283-0.26141a2.53255,2.53255,0,0,1-.6875-0.39038,1.826,1.826,0,0,1-.49219-0.6189,2.09443,2.09443,0,0,1-.187-0.94049,2.13339,2.13339,0,0,1,.65179-1.52893,2.60641,2.60641,0,0,1,.78925-0.51691,3.01033,3.01033,0,0,1,1.07251-.231l0.06049-.69305a0.38324,0.38324,0,0,1,.11-0.23651,0.34,0.34,0,0,1,.25848-0.10461h0.50055l-0.09351,1.078a3.00715,3.00715,0,0,1,1.012.33282,3.60054,3.60054,0,0,1,.73151.53619l-0.33.50073a0.60177,0.60177,0,0,1-.1485.16486,0.31289,0.31289,0,0,1-.187.05493,0.49484,0.49484,0,0,1-.198-0.05231q-0.11554-.05191-0.25854-0.1264T35.558,10.24512a2.29207,2.29207,0,0,0-.39319-0.1264l-0.1925,2.277q0.396,0.12094.7865,0.2666a2.82315,2.82315,0,0,1,.70129.37683,1.8099,1.8099,0,0,1,.50317.57471,1.74424,1.74424,0,0,1,.1925.86066A2.68019,2.68019,0,0,1,36.98535,15.43451ZM45.98749,15a2,2,0,1,1,2-2A2.00591,2.00591,0,0,1,45.98749,15Z" fill="#1d2331"/><path d="M33.45435,10.44849a0.81858,0.81858,0,0,0-.20068.29419,0.93834,0.93834,0,0,0-.06335.34393,0.857,0.857,0,0,0,.27234.65179,1.40464,1.40464,0,0,0,.30786.22,3.03921,3.03921,0,0,0,.38782.17322l0.17053-2.035a1.97692,1.97692,0,0,0-.52252.12921A1.14621,1.14621,0,0,0,33.45435,10.44849Z" fill="#1d2331"/></svg>