<svg xmlns="http://www.w3.org/2000/svg" viewBox="0 0 65 50"><path d="M36.275,24.27a2.634,2.634,0,0,0-.732-0.836,4.106,4.106,0,0,0-1.02-.548q-0.568-.212-1.144-0.388l0.28-3.311a3.34,3.34,0,0,1,.572.184q0.26,0.112.468,0.22t0.376,0.184a0.719,0.719,0,0,0,.288.076,0.455,0.455,0,0,0,.272-0.08,0.877,0.877,0,0,0,.216-0.24l0.48-.728a5.235,5.235,0,0,0-1.064-.78,4.373,4.373,0,0,0-1.472-.484l0.136-1.568H33.2a0.494,0.494,0,0,0-.376.152,0.558,0.558,0,0,0-.16.344L32.58,17.476a4.375,4.375,0,0,0-1.56.336,3.79,3.79,0,0,0-1.148.752,3.1,3.1,0,0,0-.948,2.223,3.046,3.046,0,0,0,.272,1.368,2.655,2.655,0,0,0,.716.9,3.68,3.68,0,0,0,1,.568q0.556,0.212,1.124.38l-0.3,3.575a2.746,2.746,0,0,1-.776-0.248,6.241,6.241,0,0,1-.584-0.336q-0.256-.168-0.456-0.292a0.721,0.721,0,0,0-.376-0.124,0.562,0.562,0,0,0-.284.076,0.622,0.622,0,0,0-.212.2l-0.608.9a4.938,4.938,0,0,0,1.4.952,6.086,6.086,0,0,0,1.76.512L31.46,30.928h0.728a0.49,0.49,0,0,0,.372-0.156,0.52,0.52,0,0,0,.156-0.34l0.1-1.176a4.5,4.5,0,0,0,1.592-.372,3.763,3.763,0,0,0,1.176-.816,3.384,3.384,0,0,0,.728-1.152,3.9,3.9,0,0,0,.248-1.4A2.537,2.537,0,0,0,36.275,24.27ZM32.2,22.114a4.414,4.414,0,0,1-.564-0.252,2.04,2.04,0,0,1-.448-0.32,1.246,1.246,0,0,1-.4-0.948,1.366,1.366,0,0,1,.092-0.5,1.192,1.192,0,0,1,.292-0.428,1.668,1.668,0,0,1,.512-0.324,2.878,2.878,0,0,1,.76-0.188Zm2.044,4.915a2.085,2.085,0,0,1-1.284.572l0.272-3.248a4.818,4.818,0,0,1,.576.232,1.977,1.977,0,0,1,.46.3,1.275,1.275,0,0,1,.3.4,1.229,1.229,0,0,1,.108.532A1.679,1.679,0,0,1,34.24,27.029Z" fill="#1c2431"/><path d="M42.9,0H22.1A3.12,3.12,0,0,0,19,3.1V43.8a3.12,3.12,0,0,0,3.1,3.1H42.9A3.12,3.12,0,0,0,46,43.8V3.1A3.12,3.12,0,0,0,42.9,0Zm-13,3.4V3.1a0.47,0.47,0,0,1,.438-0.5H36.5A0.47,0.47,0,0,1,37,3a0.48,0.48,0,0,1,0,.06V3.4a0.47,0.47,0,0,1-.438.5H30.4a0.47,0.47,0,0,1-.5-0.438v0A0.459,0.459,0,0,1,29.9,3.4ZM28,3.4V3.1a0.47,0.47,0,0,1,.438-0.5H28.8a0.47,0.47,0,0,1,.5.438v0a0.46,0.46,0,0,1,0,.06V3.4a0.47,0.47,0,0,1-.438.5H28.5A0.47,0.47,0,0,1,28,3.462v0A0.48,0.48,0,0,1,28,3.4Zm4.5,42.3a1.8,1.8,0,1,1,1.8-1.8h0A1.86,1.86,0,0,1,32.5,45.7Zm11-6.2A1.54,1.54,0,0,1,42,41H23a1.54,1.54,0,0,1-1.5-1.5V7.5A1.47,1.47,0,0,1,22.939,6H42a1.54,1.54,0,0,1,1.5,1.5v32Z" fill="#1c2431"/></svg>