<svg xmlns="http://www.w3.org/2000/svg" viewBox="0 0 65 50"><path d="M53.46,30.91H45.6a5.07,5.07,0,0,0,1.26-.4,7.59,7.59,0,0,0,5.1-.4,6.48,6.48,0,0,0,2-1.7c0.1-.2.3-0.5,0.4-0.7a1.25,1.25,0,0,0-.3-1.6,1.49,1.49,0,0,0-.9-0.2,0.37,0.37,0,0,0-.3.1l-0.3.3a0.53,0.53,0,0,0-.2.3,3.57,3.57,0,0,1-3.4,1.8,1.36,1.36,0,0,0,.3-0.6c0.9-3.4-.6-4.3-1.5-7.7,0.1-.2.9-2.2,1.2-3.2A1.44,1.44,0,0,0,48.32,15l-0.16-.07c-0.9-.3-3.4.8-3.7,2a2.79,2.79,0,0,0,.1,1.8v0.1c-0.1,0-.1.1-0.2,0.1a15,15,0,0,0-2.3,2.2,3.27,3.27,0,0,0-.8-2.7c-1.5-1.7-4.1-.6-5-0.2a21,21,0,0,0-2.6,1.3l0.6-3a5,5,0,0,0,.2-1.2,14.73,14.73,0,0,0,5.1-3.9c3.9-5.4,3.5-8.3,2.9-9.6A2.53,2.53,0,0,0,39.86,0c-1.9,0-3.8,1.5-4.9,3.8-0.9,1.8-1.7,5.4-2.6,9.6-3.2,1.6-7,2.8-8.9,2.8a1.4,1.4,0,0,0,0,2.8,24,24,0,0,0,8.2-2.2c-0.3,1.6-.7,3.2-1,4.9-3.7,2.7-7.4,6.3-9,9.2H11.56a0.9,0.9,0,0,0,0,1.8h9.2c-1.1,2.5-2.6,6.8-1.1,9a2.94,2.94,0,0,0,2.6,1.2,3.75,3.75,0,0,0,1-.1c3.2-.6,5.5-4.7,7.3-10.1h22.9A0.9,0.9,0,0,0,53.46,30.91ZM37.36,5.11c0.8-1.6,1.8-2.3,2.5-2.3,0.3,0,.4.1,0.4,0.2,0.3,0.7.2,2.9-2.6,6.6a8.8,8.8,0,0,1-2.2,1.9A40.12,40.12,0,0,1,37.36,5.11Zm-14.6,35.1a1.69,1.69,0,0,1-.8,0c-0.5-.7.2-4,1.9-7.3h3.9C26.26,36.81,24.66,39.81,22.76,40.21Zm5.5-9.3H25a30.19,30.19,0,0,1,4.7-4.9C29.16,27.71,28.76,29.41,28.26,30.91ZM46,21.31c0.8,1.6,1.6,3.4,1.1,5.5-0.2.9-.8,1-1.3,1.4-1.4-.4-3.4-2.4-4.5-3.3C43,23.51,45.26,22,46,21.31Zm-12.9,2a22.78,22.78,0,0,1,4.4-2.5,6.85,6.85,0,0,1,1.8-.5h0.1a28.87,28.87,0,0,0-3.7,6.1c-0.4,1.1-.3,1.9.4,2.4,1,0.7,1.6.2,3.2-1.9a4.28,4.28,0,0,0,.5,1.3,6.61,6.61,0,0,0,3.4,2.6,5.06,5.06,0,0,0,.5.1H31.16C31.86,28.51,32.46,26,33.06,23.31Z"/><path d="M10.47,26a0.71,0.71,0,0,0,.3.6,0.85,0.85,0,0,0,1.2.1l0.1-.1,2.14-2.1,2.15,2.15a0.86,0.86,0,0,0,.6.3,0.71,0.71,0,0,0,.6-0.3,0.85,0.85,0,0,0,.1-1.2l-0.1-.1L15.49,23.2l2.18-2.14a0.92,0.92,0,0,0-1.3-1.3L14.22,21.9l-2.16-2.2a0.92,0.92,0,0,0-1.3,1.3l2.18,2.18-2.17,2.17A0.86,0.86,0,0,0,10.47,26Z"/></svg>