<svg version="1.1" xmlns="http://www.w3.org/2000/svg" xmlns:xlink="http://www.w3.org/1999/xlink" x="0px" y="0px" viewBox="0 0 65 50" style="enable-background:new 0 0 65 50;" xml:space="preserve">
<style type="text/css">
  .st0{fill:#1C2431;}
</style>
<path class="st0" d="M53.7,32.1c0.4,0,0.8-0.4,0.8-0.8V2.6c0-0.4-0.4-0.8-0.8-0.8h-41c-0.4,0-0.8,0.4-0.8,0.8v28.6
  c0,0.4,0.4,0.8,0.8,0.8h16.1c0.4-0.1,0.8,0.1,0.8,0.6c0.1,0.4-0.1,0.8-0.6,0.8c-0.1,0-0.3,0-0.3,0h-3.5c-0.4,0-0.8,0.4-0.8,0.8v1.8
  c0,0.4,0.4,0.8,0.8,0.8h16.1c0.4,0,0.8-0.4,0.8-0.8v-1.8c0-0.4-0.4-0.8-0.8-0.8h-3.5c-0.4,0.1-0.8-0.1-0.8-0.6
  c-0.1-0.4,0.1-0.8,0.6-0.8c0.1,0,0.3,0,0.3,0H53.7z M15.2,6.2c0-0.4,0.4-0.8,0.8-0.8h34c0.4,0,0.8,0.4,0.8,0.8v19.5
  c0,0.4-0.4,0.8-0.8,0.8H16.2c-0.4,0-0.8-0.4-0.8-0.8V6.2H15.2z"/>
</svg>
