<svg version="1.1" xmlns="http://www.w3.org/2000/svg" xmlns:xlink="http://www.w3.org/1999/xlink" x="0px" y="0px" viewBox="0 0 65 50" style="enable-background:new 0 0 65 50;" xml:space="preserve"><path d="M45.1,33.6H23.8c-0.9,0-1.7-0.8-1.7-1.7v-29c0-0.9,0.8-1.7,1.7-1.7h8.9v9.5c0,1.9,1.5,3.4,3.4,3.4h10.6v17.9C46.8,32.9,46,33.6,45.1,33.6C45.1,33.6,45.1,33.6,45.1,33.6z M36.1,12.4c-0.9,0-1.7-0.8-1.7-1.7V1.2l12.3,11.2L36.1,12.4L36.1,12.4z M25.1,35.3h18.3c0,0.9-0.8,1.7-1.7,1.7H22.2c-1.9,0-3.4-1.5-3.4-3.4l0,0V6.2c0-0.9,0.8-1.7,1.7-1.7v27.4c0,1.9,1.5,3.4,3.4,3.4C23.8,35.3,25.1,35.3,25.1,35.3z"/><path d="M41.3,19L41.3,19l-8,8l0,0c-0.4,0.4-1.1,0.4-1.5,0c0,0,0,0,0,0l0,0l-4.5-4.5l0,0c-0.4-0.4-0.4-1.1,0-1.5c0.4-0.4,1.1-0.4,1.5,0l0,0l3.8,3.8l7.3-7.3l0,0c0.4-0.4,1.1-0.3,1.5,0.1C41.7,18,41.7,18.6,41.3,19z"/></svg>