<svg version="1.1" xmlns="http://www.w3.org/2000/svg" xmlns:xlink="http://www.w3.org/1999/xlink" x="0px" y="0px"
	 viewBox="0 0 65 50" style="enable-background:new 0 0 65 50;" xml:space="preserve">
<style type="text/css">
	.st0{fill:#1D2331;}
</style>
<path class="st0" d="M32.5,0c-8.3,0-15,6.7-15,15s6.7,15,15,15s15-6.7,15-15S40.8,0,32.5,0z M32.5,22.9c-0.8,0-1.4-0.6-1.4-1.4
	c0-0.8,0.6-1.4,1.4-1.4c0.8,0,1.4,0.6,1.4,1.4C33.9,22.3,33.3,22.9,32.5,22.9z M33.9,16.6c0,0.8-0.6,1.4-1.4,1.4
	c-0.8,0-1.4-0.6-1.4-1.4V8.5c0-0.8,0.6-1.4,1.4-1.4c0.8,0,1.4,0.6,1.4,1.4C33.9,8.5,33.9,16.6,33.9,16.6z"/>
</svg>
