<svg xmlns="http://www.w3.org/2000/svg" viewBox="0 0 65 50"><path d="M34.48,9.365L26.849,5.142l-4.545,8.1,7.631,4.224Zm10.533,16.9H18.337A1.333,1.333,0,0,0,17,27.591v2.517a1.333,1.333,0,0,0,1.334,1.324H45.014a1.333,1.333,0,0,0,1.334-1.324V27.591A1.333,1.333,0,0,0,45.014,26.266Zm2.149-7.152L34.309,11.98l-2.156,3.83,12.853,7.134a1.452,1.452,0,0,0,1.986-.415l0.854-1.518A1.432,1.432,0,0,0,47.163,19.114ZM19.138,17.193l9.07,5.033a1.656,1.656,0,0,0,2.268-.662l0.133-.265a1.639,1.639,0,0,0,.133-1.258,1.694,1.694,0,0,0-.8-0.994L23.406,15.4l-2.534-1.391a1.788,1.788,0,0,0-.8-0.2,1.74,1.74,0,0,0-1.467.861l-0.133.265a1.639,1.639,0,0,0-.133,1.258A1.52,1.52,0,0,0,19.138,17.193ZM26.9,3.424l9.146,5.1a1.666,1.666,0,0,0,2.286-.671l0.134-.268A1.67,1.67,0,0,0,38.6,6.311,1.715,1.715,0,0,0,37.79,5.3L31.2,1.611,28.644,0.2,27.836,0a1.753,1.753,0,0,0-1.479.873l-0.135.268a1.67,1.67,0,0,0-.135,1.276A1.54,1.54,0,0,0,26.9,3.424Z" fill="#1c2431"/></svg>