<svg xmlns="http://www.w3.org/2000/svg" viewBox="0 0 65 50"><path d="M22.875,20.267a1.323,1.323,0,1,1-1.344,1.323,1.335,1.335,0,0,1,1.344-1.323m0-2.074a3.4,3.4,0,1,0,3.452,3.4,3.425,3.425,0,0,0-3.452-3.4h0Z" fill="#1c2431"/><path d="M52.384,11.4L48.5,6a4.549,4.549,0,0,0-1-1h-9V15h-26v6.033a1.554,1.554,0,0,0,1,.967h4.915c-0.013-.137-0.042-0.27-0.042-0.411a4.5,4.5,0,0,1,9,0c0,0.141-.029.273-0.042,0.411h14.21c-0.013-.137-0.042-0.27-0.042-0.411a4.5,4.5,0,0,1,9,0c0,0.141-.029.273-0.042,0.411H51.5a1.551,1.551,0,0,0,1-.967v-9.3A0.55,0.55,0,0,0,52.384,11.4ZM48.5,11h-6V7h3.845l0.17,0.22,2.352,3.053h0L49.5,11h-1Z" fill="#1c2431"/><path d="M46,20.267a1.323,1.323,0,1,1-1.344,1.323A1.335,1.335,0,0,1,46,20.267m0-2.074a3.4,3.4,0,1,0,3.452,3.4A3.424,3.424,0,0,0,46,18.193h0Z" fill="#1c2431"/><path d="M36.5,0h-24V13h24V0Z" fill="#1c2431"/></svg>