<svg version="1.1" xmlns="http://www.w3.org/2000/svg" xmlns:xlink="http://www.w3.org/1999/xlink" x="0px" y="0px" viewBox="0 0 65 50" style="enable-background:new 0 0 65 50;" xml:space="preserve"><path d="M48.1,11.3c-0.5-0.7-1.4-0.8-2.1-0.3l-12.2,8.4L27.2,15c-0.5-0.3-1.1-0.3-1.6,0c-0.9,0.5-1.8,1-2.7,1.6c-0.9,0.5-1.8,1.1-2.7,1.6c-0.8,0.5-1.9,0.9-2.3,1.8c-0.2,0.5-0.1,1.4,0.3,1.8c0.6,0.7,1.6,0,2.3-0.3c0.9-0.4,1.7-1,2.5-1.5c0.3-0.2,3.1-2.1,3.3-2c0,0,6.7,4.5,6.7,4.5c0.5,0.3,1.2,0.3,1.7,0c0,0,13-9,13-9c0,0,0.1,0,0.1-0.1C48.5,12.9,48.6,12,48.1,11.3z"/><path d="M53.3,33.8c0.4,0,0.8-0.4,0.8-0.8V4.3c0-0.4-0.4-0.8-0.8-0.8h-41c-0.4,0-0.8,0.4-0.8,0.8v28.6c0,0.4,0.4,0.8,0.8,0.8h16.1c0.4-0.1,0.8,0.1,0.8,0.6c0.1,0.4-0.1,0.8-0.6,0.8c-0.1,0-0.3,0-0.3,0h-3.5c-0.4,0-0.8,0.4-0.8,0.8v1.8c0,0.4,0.4,0.8,0.8,0.8h16.1c0.4,0,0.8-0.4,0.8-0.8v-1.8c0-0.4-0.4-0.8-0.8-0.8h-3.5c-0.4,0.1-0.8-0.1-0.8-0.6c-0.1-0.4,0.1-0.8,0.6-0.8c0.1,0,0.3,0,0.3,0L53.3,33.8L53.3,33.8z M14.8,7.9c0-0.4,0.4-0.8,0.8-0.8h34c0.4,0,0.8,0.4,0.8,0.8v19.5c0,0.4-0.4,0.8-0.8,0.8H15.8c-0.4,0-0.8-0.4-0.8-0.8V7.9H14.8z"/></svg>