<svg version="1.1" xmlns="http://www.w3.org/2000/svg" xmlns:xlink="http://www.w3.org/1999/xlink" x="0px" y="0px"
   viewBox="0 0 65 50" style="enable-background:new 0 0 65 50;" xml:space="preserve">
<g>
  <circle cx="15" cy="16.7" r="4" fill="#1C2431"/>
  <circle cx="45.2" cy="16.7" r="4" fill="#1C2431"/>
  <path d="M24.1,3.4H32c0.1,0,0.2,0.1,0.2,0.2v7.8c0,0.1-0.1,0.2-0.2,0.2h-7.9c-0.1,0-0.2-0.1-0.2-0.2V3.7
    C23.9,3.5,24,3.4,24.1,3.4z" fill="none" stroke="#1C2431" stroke-miterlimit="10"/>
  <path d="M42.1,12.8H21.8V1c0-0.2,0-0.4,0-0.6c0-0.4,0-0.4-0.4-0.4l-1,0.1l-1.6,0.1l-5.3,0.4c-0.4,0-0.9,0.1-1.3,0.1
    c-0.3,0-0.7,0-0.9,0.3L11,1.8l-1,2.6L9,6.7l-0.4,1C8.5,7.9,8.4,8.1,8.3,8.4v7.3c0,0.6,0.4,1,1,1l0,0H10c0-2.8,2.3-5,5-5s5,2.3,5,5
    l0,0h20.1C40.1,15.2,40.9,13.7,42.1,12.8z M17.8,7.5l-8,1l2.3-6l5.7-0.4V7.5L17.8,7.5z" fill="#1C2431"/>
  <path d="M56.4,12.8h-8.2c1.2,1,1.9,2.4,1.9,4h3.3l3-1.1V12.8z" fill="#1C2431"/>
  <path d="M35.1,3.4H43c0.1,0,0.2,0.1,0.2,0.2v7.8c0,0.1-0.1,0.2-0.2,0.2h-7.9c-0.1,0-0.2-0.1-0.2-0.2V3.7
    C34.9,3.5,35,3.4,35.1,3.4z" fill="none" stroke="#1C2431" stroke-miterlimit="10"/>
  <path d="M46.1,3.4H54c0.1,0,0.2,0.1,0.2,0.2v7.8c0,0.1-0.1,0.2-0.2,0.2h-7.9c-0.1,0-0.2-0.1-0.2-0.2V3.7
    C45.9,3.5,46,3.4,46.1,3.4z" fill="none" stroke="#1C2431" stroke-miterlimit="10"/>
</g>
</svg>
