<svg xmlns="http://www.w3.org/2000/svg" viewBox="0 0 65 50"><path d="M35.01764,22.54132a1.48951,1.48951,0,0,1,.132.64667,2.03745,2.03745,0,0,1-.52972,1.4632,2.53,2.53,0,0,1-1.56067.69513l.3313-3.94739a5.96215,5.96215,0,0,1,.69965.28186,2.37836,2.37836,0,0,1,.55768.36926A1.53758,1.53758,0,0,1,35.01764,22.54132ZM49.3,20.3A16.8,16.8,0,1,1,32.5,3.5,16.8,16.8,0,0,1,49.3,20.3Zm-11.87561,2.5177a3.09412,3.09412,0,0,0-.33984-1.52222,3.21753,3.21753,0,0,0-.88953-1.016,4.9971,4.9971,0,0,0-1.23529-.66614q-.68665-.25781-1.38531-.47174l.33984-4.02734a3.91479,3.91479,0,0,1,.69165.22339c.20587.09094.39575.17987.56769.26733s.32379.16241.45776.22388a.84473.84473,0,0,0,.34381.09247.55831.55831,0,0,0,.33179-.09747,1.23554,1.23554,0,0,0,.27191-.29181l.58368-.88452a6.43246,6.43246,0,0,0-1.30334-.943,5.37168,5.37168,0,0,0-1.77905-.58368l.166-1.9115h-.88556a.60121.60121,0,0,0-.45728.18689.69745.69745,0,0,0-.19385.4223l-.106,1.23834a4.70685,4.70685,0,0,0-1.897.36078,4.557,4.557,0,0,0-1.39026.917,3.861,3.861,0,0,0-.8606,1.26385,4.00572,4.00572,0,0,0,.034,3.10736,3.24638,3.24638,0,0,0,.87054,1.0979,4.58211,4.58211,0,0,0,1.21533.69763q.67621.26312,1.36627.45825l-.36975,4.3562a3.35132,3.35132,0,0,1-.94354-.30188,7.54114,7.54114,0,0,1-.70959-.40826q-.3111-.20389-.5542-.3548a.87477.87477,0,0,0-.45679-.15045.65808.65808,0,0,0-.33533.09247.75859.75859,0,0,0-.25781.23834l-.73914,1.09991a6.025,6.025,0,0,0,1.69708,1.15692,7.36526,7.36526,0,0,0,2.13336.62268l-.17389,2.0799h.88354a.59494.59494,0,0,0,.45776-.1889.69127.69127,0,0,0,.19385-.41382l.118-1.4292a5.7073,5.7073,0,0,0,1.93445-.45679,4.4436,4.4436,0,0,0,1.42322-.98749,4.13218,4.13218,0,0,0,.87958-1.40021A4.71293,4.71293,0,0,0,37.42438,22.81769Zm-6.533-7.11975a1.44755,1.44755,0,0,0-.3548.52026,1.67323,1.67323,0,0,0-.11194.60815,1.50822,1.50822,0,0,0,.48175,1.15289,2.50724,2.50724,0,0,0,.53967.38928,5.01855,5.01855,0,0,0,.67963.30634l.30188-3.59961a3.48287,3.48287,0,0,0-.91351.22839A2.04081,2.04081,0,0,0,30.89136,15.69794Z"/></svg>