<svg xmlns="http://www.w3.org/2000/svg" viewBox="0 0 65 50"><path d="M42.9,0H22.1A3.12,3.12,0,0,0,19,3.1V43.8a3.12,3.12,0,0,0,3.1,3.1H42.9A3.12,3.12,0,0,0,46,43.8V3.1A3.12,3.12,0,0,0,42.9,0Zm-13,3.1a0.47,0.47,0,0,1,.44-0.5H36.5a0.47,0.47,0,0,1,.5.5V3.4a0.47,0.47,0,0,1-.44.5H30.4a0.47,0.47,0,0,1-.5-0.5V3.1ZM28,3.1a0.47,0.47,0,0,1,.44-0.5H28.8a0.47,0.47,0,0,1,.5.5V3.4a0.47,0.47,0,0,1-.44.5H28.5A0.47,0.47,0,0,1,28,3.4V3.1Zm4.5,42.6a1.8,1.8,0,1,1,1.8-1.8h0A1.86,1.86,0,0,1,32.5,45.7Zm11-6.2A1.54,1.54,0,0,1,42,41H23a1.54,1.54,0,0,1-1.5-1.5V7.5A1.47,1.47,0,0,1,22.94,6H42a1.54,1.54,0,0,1,1.5,1.5v32Z"/></svg>