<svg id="Layer_1" data-name="Layer 1" xmlns="http://www.w3.org/2000/svg" viewBox="0 0 65 50"><title>icon_TrustShield</title><path d="M45.95,4.6a2,2,0,0,0-2-2H43.75a36.71,36.71,0,0,1-5.2.5A6.65,6.65,0,0,1,33.85.6,1.82,1.82,0,0,0,31.28.47l-0.13.13a6.65,6.65,0,0,1-4.7,2.5,26.2,26.2,0,0,1-5.2-.5,1.94,1.94,0,0,0-2.2,2c-0.1,3.7.1,12.3,2.7,16.6,2.8,4.6,7.6,7,9.8,8.4a2,2,0,0,0,2.1,0c2.1-1.5,7-3.9,9.8-8.4C45.85,16.9,46,8.4,45.95,4.6ZM31.15,19.9l-4.5-4.6,1.6-1.7,2.6,2.6,5.5-6.2,1.8,1.7Z" fill="#1d2331"/></svg>