<svg version="1.1" id="Layer_1" xmlns="http://www.w3.org/2000/svg" xmlns:xlink="http://www.w3.org/1999/xlink" x="0px" y="0px"
	 viewBox="0 0 65 50" style="enable-background:new 0 0 65 50;" xml:space="preserve">
<path d="M32.5,0c-8.4,0.2-15.1,7.1-15,15.5c-0.1,8.4,6.6,15.3,15,15.5c8.4-0.2,15.1-7.1,15-15.5
	C47.6,7.1,40.9,0.2,32.5,0z M42.3,24.6c-0.4-0.5-0.8-0.9-1.4-1.2c-1.8-0.9-1.1-0.2-3.3-1.1c-0.9-0.3-1.8-0.7-2.7-1.2V19
	c0.7-0.7,1.1-1.6,1.1-2.6c0.5,0.2,0.7-0.6,0.7-1.1s0.3-1.9-0.3-1.8c0.1-1,0.2-1.9,0.2-2.3c-0.2-2.1-1.9-3.6-4-3.5
	c-2,0-3.8,1.5-4.1,3.5c0,0.8,0.1,1.5,0.2,2.3c-0.6-0.1-0.4,1.3-0.3,1.8s0.2,1.3,0.7,1.1c0.1,1,0.4,1.9,1.1,2.7v2.1
	c-0.9,0.5-1.8,0.9-2.7,1.2c-2.2,0.9-1.5,0.2-3.3,1.1c-0.6,0.3-1.1,0.7-1.4,1.2c-2.2-2.5-3.4-5.8-3.4-9.1c0-7.5,5.9-13.7,13.2-13.7
	C40,2,45.9,8.1,45.8,15.6c0,0,0,0,0,0C45.7,18.9,44.5,22.1,42.3,24.6z" fill="#1C2431"/>
</svg>
