<svg xmlns="http://www.w3.org/2000/svg" viewBox="0 0 65 50"><path d="M32.5,2.1a8.16,8.16,0,0,0,6.1,3A35.56,35.56,0,0,0,44,4.6h0c0.1,5.3-.4,12.2-2.4,15.5s-5.4,5.5-7.7,6.9c-0.5.3-1,.6-1.4,0.9-0.4-.3-0.9-0.6-1.4-0.9-2.3-1.4-5.7-3.5-7.7-6.9S20.9,9.9,21,4.6h0a38.33,38.33,0,0,0,5.4.5,8.16,8.16,0,0,0,6.1-3m0-2.1a2,2,0,0,0-1.4.6,6.65,6.65,0,0,1-4.7,2.5,26.2,26.2,0,0,1-5.2-.5H20.9a2,2,0,0,0-1.9,2c-0.1,3.7.1,12.3,2.7,16.6,2.8,4.6,7.6,7,9.8,8.4a1.93,1.93,0,0,0,1,.3,1.69,1.69,0,0,0,1-.3c2.1-1.5,7-3.9,9.8-8.4C45.9,16.9,46.1,8.4,46,4.6a2,2,0,0,0-1.9-2H43.8a36.71,36.71,0,0,1-5.2.5A6.65,6.65,0,0,1,33.9.6,2,2,0,0,0,32.5,0h0Z"/><path d="M32.5,2.1V27.9s-0.9-.6-1.4-0.9c-2.3-1.4-5.7-3.5-7.7-6.9S20.9,9.9,21,4.6h0a38.33,38.33,0,0,0,5.4.5,8.16,8.16,0,0,0,6.1-3" fill="#ffde00"/><path d="M32.5,2.1a8.16,8.16,0,0,0,6.1,3A38.33,38.33,0,0,0,44,4.6h0c0.1,5.3-.4,12.2-2.4,15.5s-5.4,5.5-7.7,6.9c-0.5.3-1.4,0.9-1.4,0.9V2.1" fill="#ffef80"/></svg>