<svg xmlns="http://www.w3.org/2000/svg" viewBox="0 0 65 50"><path d="M25.1,35.3H43.4A1.75241,1.75241,0,0,1,41.7,37H22.2a3.372,3.372,0,0,1-3.4-3.4V6.2a1.75237,1.75237,0,0,1,1.7-1.7V31.9a3.37194,3.37194,0,0,0,3.4,3.4Zm11-22.9H46.7L34.4,1.2v9.5A1.7524,1.7524,0,0,0,36.1,12.4Zm0,1.7H46.7V32a1.52175,1.52175,0,0,1-1.6,1.6H23.8a1.7524,1.7524,0,0,1-1.7-1.7V2.9a1.75241,1.75241,0,0,1,1.7-1.7h8.9v9.5A3.37192,3.37192,0,0,0,36.1,14.1Zm3.8,3.4-7.3,7.3L28.8,21a1.06066,1.06066,0,0,0-1.5,1.5L31.8,27a1.08745,1.08745,0,0,0,1.5,0l8-8a1.07092,1.07092,0,0,0,.1-1.4A1.093,1.093,0,0,0,39.9,17.5Z"/></svg>