<svg version="1.1" xmlns="http://www.w3.org/2000/svg" xmlns:xlink="http://www.w3.org/1999/xlink" x="0px" y="0px" viewBox="0 0 1280 800" enable-background="new 0 0 1280 800" xml:space="preserve">
<path fill="#02AAF3" d="M240,400c0,220.9,179.1,400,400,400c220.9,0,400-179.1,400-400S860.9,0,640,0C419.1,0,240,179.1,240,400z
	 M987.8,400c0,192.1-155.7,347.8-347.8,347.8c-192.1,0-347.8-155.7-347.8-347.8c0-192.1,155.7-347.8,347.8-347.8c0,0,0,0,0,0
	C832.1,52.2,987.8,207.9,987.8,400z"/>
<path fill="#02AAF3" d="M615.5,473.5l-99.2-99.2c-13.2-12.8-13.5-33.9-0.7-47.1c0.2-0.2,0.5-0.5,0.7-0.7l0,0
	c12.8-13.2,33.9-13.5,47.1-0.7c0.2,0.2,0.5,0.5,0.7,0.7l75.8,75.7l75.7-75.7c12.8-13.2,33.9-13.5,47.1-0.7c0.2,0.2,0.5,0.5,0.7,0.7
	l0,0c13.2,12.8,13.5,33.9,0.7,47.1c-0.2,0.2-0.5,0.5-0.7,0.7l-99.2,99.2C650.7,486.6,629.1,486.6,615.5,473.5z"/>
</svg>
