<svg version="1.1" class="circledArrow" xmlns="http://www.w3.org/2000/svg" xmlns:xlink="http://www.w3.org/1999/xlink" x="0px" y="0px" viewBox="620 380 40 40" enable-background="new 620 380 40 40" xml:space="preserve" fill="#262626">
  <path d="M640,380c-11,0-20,9-20,20s9,20,20,20s20-9,20-20S651,380,640,380z M640,417.4c-9.6,0-17.4-7.8-17.4-17.4 s7.8-17.4,17.4-17.4s17.4,7.8,17.4,17.4l0,0C657.4,409.6,649.6,417.4,640,417.4z"></path>
  <path d="M643.7,398.8l-5-5c-0.6-0.7-1.7-0.7-2.4,0c0,0,0,0,0,0l0,0c-0.7,0.6-0.7,1.7,0,2.4c0,0,0,0,0,0l3.8,3.8 l-3.8,3.8c-0.7,0.6-0.7,1.7,0,2.4c0,0,0,0,0,0l0,0c0.6,0.7,1.7,0.7,2.4,0c0,0,0,0,0,0l5-5C644.3,400.5,644.3,399.5,643.7,398.8z"></path>
</svg>