<?xml version="1.0" encoding="utf-8"?>
<!-- Generator: Adobe Illustrator 18.1.0, SVG Export Plug-In . SVG Version: 6.00 Build 0)  -->
<svg version="1.1" id="Layer_1" xmlns="http://www.w3.org/2000/svg" xmlns:xlink="http://www.w3.org/1999/xlink" x="0px" y="0px"
	 viewBox="0 0 1280 800" enable-background="new 0 0 1280 800" xml:space="preserve">
<path fill="#02AAF3" d="M640,0C420,0,240,180,240,400s180,400,400,400s400-180,400-400S860,0,640,0z M726.7,396.7H670V600h-80V400
	h-43.3v-70H590c0,0,0-10,0-53.3c0-50,26.7-76.7,86.7-76.7c10,0,56.7,0,56.7,0v70c0,0-30,0-43.3,0c-16.7,0-20,6.7-20,23.3
	c0,13.3,0,40,0,40h63.3L726.7,396.7z"/>
</svg>
