<svg id="Layer_1" data-name="Layer 1" xmlns="http://www.w3.org/2000/svg" viewBox="0 0 48 48"><defs><style>.cls-1,.cls-2{fill:#010101;}.cls-1{fill-rule:evenodd;}</style></defs><title>forward_2x</title><path class="cls-1" d="M24,0A24,24,0,1,0,48,24,24,24,0,0,0,24,0Zm0,44.87A20.87,20.87,0,1,1,44.87,24,20.87,20.87,0,0,1,24,44.87Z" transform="translate(0 0)"/><path class="cls-2" d="M28.41,22.53l-5.95-5.95a2,2,0,0,0-2.87,0h0a2,2,0,0,0,0,2.87L24.13,24l-4.54,4.54a2,2,0,0,0,0,2.87h0a2,2,0,0,0,2.87,0l5.95-5.95A2.11,2.11,0,0,0,28.41,22.53Z" transform="translate(0 0)"/></svg>