<?xml version="1.0" encoding="utf-8"?>
<!-- Generator: Adobe Illustrator 18.1.0, SVG Export Plug-In . SVG Version: 6.00 Build 0)  -->
<svg version="1.1" id="Layer_1" xmlns="http://www.w3.org/2000/svg" xmlns:xlink="http://www.w3.org/1999/xlink" x="0px" y="0px"
	 viewBox="0 0 1280 800" enable-background="new 0 0 1280 800" xml:space="preserve">
<title>forward_2x</title>
<path fill="#FFFFFF" d="M640,0C419.1,0,240,179.1,240,400s179.1,400,400,400s400-179.1,400-400S860.9,0,640,0z M640,747.8
	c-192.1,0-347.8-155.7-347.8-347.8c0-192.1,155.7-347.8,347.8-347.8S987.8,207.9,987.8,400c0,0,0,0,0,0
	C987.8,592.1,832.1,747.8,640,747.8z"/>
<path fill="#FFFFFF" d="M713.5,375.5l-99.2-99.2c-12.8-13.2-33.9-13.5-47.1-0.7c-0.2,0.2-0.5,0.5-0.7,0.7l0,0
	c-13.2,12.8-13.5,33.9-0.7,47.1c0.2,0.2,0.5,0.5,0.7,0.7l75.7,75.8l-75.7,75.7c-13.2,12.8-13.5,33.9-0.7,47.1
	c0.2,0.2,0.5,0.5,0.7,0.7l0,0c12.8,13.2,33.9,13.5,47.1,0.7c0.2-0.2,0.5-0.5,0.7-0.7l99.2-99.2C726.6,410.7,726.6,389.1,713.5,375.5
	z"/>
</svg>
