<?xml version="1.0" encoding="utf-8"?>
<!-- Generator: Adobe Illustrator 18.1.0, SVG Export Plug-In . SVG Version: 6.00 Build 0)  -->
<svg version="1.1" id="Layer_1" xmlns="http://www.w3.org/2000/svg" xmlns:xlink="http://www.w3.org/1999/xlink" x="0px" y="0px"
	 viewBox="0 0 1280 800" enable-background="new 0 0 1280 800" xml:space="preserve">
<path fill="#02AAF3" d="M640,0C420,0,240,180,240,400s180,400,400,400s400-180,400-400S860,0,640,0z M550,566.7h-70V343.3h70
	L550,566.7L550,566.7z M513.3,316.7c-23.3,0-40-20-40-43.3c0-20,16.7-40,40-40s40,20,40,40C553.3,296.7,536.7,316.7,513.3,316.7z
	 M806.7,566.7h-70c0,0,0-83.3,0-116.7s-13.3-50-36.7-50c-26.7,0-43.3,20-43.3,50c0,33.3,0,116.7,0,116.7H590V343.3h66.7v30
	c0,0,20-36.7,66.7-36.7c46.7,0,80,30,80,86.7S806.7,566.7,806.7,566.7z"/>
</svg>
