<?xml version="1.0" encoding="utf-8"?>
<!-- Generator: Adobe Illustrator 19.2.0, SVG Export Plug-In . SVG Version: 6.00 Build 0)  -->
<svg version="1.1" id="fatter_wiggles" xmlns="http://www.w3.org/2000/svg" xmlns:xlink="http://www.w3.org/1999/xlink" x="0px"
	 y="0px" viewBox="0 0 2400 1100" style="enable-background:new 0 0 2400 1100;" xml:space="preserve">
<style type="text/css">
	.st0{fill:none;stroke:#FEFFFF;stroke-width:2;stroke-linecap:round;stroke-linejoin:round;}
	.st1{fill:none;stroke:#FEFFFF;stroke-width:1.5;stroke-linecap:round;stroke-linejoin:round;}
	.st2{fill:none;stroke:#FBFCFC;stroke-linecap:round;stroke-linejoin:round;}
	.st3{fill:none;stroke:#FBFCFC;stroke-miterlimit:10;}
	.st4{fill:#FEFFFF;}
	.st5{fill:none;stroke:#FBFCFC;stroke-miterlimit:10;stroke-dasharray:12.19,12.19;}
	.st6{fill:none;stroke:#FBFCFC;stroke-miterlimit:10;stroke-dasharray:12.04,12.04;}
	.st7{fill:none;stroke:#FBFCFC;stroke-miterlimit:10;stroke-dasharray:12.1,12.1;}
	.st8{fill:none;stroke:#FBFCFC;stroke-miterlimit:10;stroke-dasharray:12.24,12.24;}
</style>
<title>map_lightlines</title>
<path class="st0" d="M1326.9-39.7c0,0-19.3,35.3-28,40.3s-10.7,5-14.7,11.7s-2,12.7-6.7,19.3s-9.3,14.7-10.7,23.3s-8.7,18.7-12,25.3
	s0,8,0,15.3s0.4,17.3-1.5,22.7s-7.2,6.7-7.8,14.7l-0.7,8"/>
<path class="st0" d="M1197.1,276.7c0,0,3-10,5-13.5s9.5-9,10-12c0.5-3.9,2.2-7.6,5-10.5c3.5-3.5,4-3.5,4-6s3-13,7-18.5
	s6-17.5,7.5-22.5s6-15,6.5-20.3s0.5-10.7-2.5-15.7s0-14.5,0-14.5"/>
<path class="st0" d="M1140.9,1110.3c0-5.7-0.7-8.7-5.7-16.7s-5.7-6.3-5-12.7s9-42.3,8.7-53.7s-5.3-14-3.3-28s-2.7-12-4.7-23.7
	s-1.3-31.7-1.3-39.7s-1-17.3,3-22s4-5,2.7-13.3s-1.3-15-0.3-20s3-8,1.3-20.7s1.3-18,3.7-27.7s2.3-7,1-13s-1-12.7-1.7-21
	s-1.7-15.7,2.7-20.7s5.3-15,8-23s8-13.3,13-19.3s0-2.7,3.3-8.7s-1-13,0-22.3s3.7-13,4-18s-2.7-16.3-2.7-22.6s0.7-24.3,0.7-34.3
	s-8-16.7-13.7-24.3s-8.3-7.6-11-18s-16.3-58.3-17.3-66s-2.3-14-1.7-19.7s1.7-6,2.3-11.7s-6-11.3-8-19.7s2.7-8.3,4.1-18
	s1.9-4.7,0.6-14.3s0-19.3,0-25.7s0.3-7.3,4-10.3s5.7-8.3,5.7-15.7s1.3-7.3,4-13s7-8.3,8.6-19.7s2.1-7.7,3.8-12.7s9.3-13.3,9.7-18.3
	s6-13,9.3-19.3s1-3.7-0.3-10.2s-2.7-4.1-1.5-7s2.5,0.8,6.6,0.8s0.2,0.7,5.2,0s6.3-3.3,11-7.3s11.3-4.7,17.2-5.1s12.8,3.1,17.8,5.8
	s5,3,7.3,3.5s3-2.5,8.3-3.5s3,2.3,10,6.6s6.3,4.7,9.7,4.4s3.3-0.7,8,0.7s4.7,1.7,8,0s4.3-5,8.3-5.8s8.3,0.2,11,0s3.3-5.2,7-7.4
	s4.3,4.6,8,4.2s4.7-2.3,6.7-6s4.3-1.7,8-2.3s7,1.7,10.3,4.9s5.4,0,5.4,0c0.9-2.6-2.9-15.1-13.7-19.1s-13.3-1.5-17.3-9.5
	s-6.5-10.5-12.5-13s-10.3-2-11.2-11s-12.3-19-10.8-26.5s5.9-10.2,2-18.8s-12.4-9.2-11.9-19.2s4-15-2-25.5s-13.5-10.5-15-17
	s-4.8-11.9-0.5-18s0.8-6.7,6.7-9.3s8.8,3.7,13.8-4s8.5-12.2,11-12.7"/>
<path class="st0" d="M-20.1,599.3c7,0,15.3,0,24,2s9.7,4.3,24.3,4s16-2.3,25.7,0s14,5,29.3,6s17.3,2,31.7,4.3s12.3,5,28,4.3
	c15.7-0.7,14-2.1,26.7,0.1c12.7,2.2,23.7,4.6,38,4.6c14.3,0,39,2,50,3.3s22.3,5,34.7,4.7s42.7-1.7,50.3-1.3s7.3,6,25,6.3
	s23.7,6.3,29.7,0s0-12.3,12.7-11.3s17.7-0.7,25-2s16.7,0.7,22.3-7.3s13.3-13.1,23.7-13.9s18.3-3.2,24.7,0c6.3,3.2,20,11.9,28.7,12.6
	s50.3-1,64-1s14.3,1.1,29-4s26.3-11.7,36-11.4s18.3-3.4,31,0s26.7,6.3,35.7,5.7s7,1,16.7,1.3s16-3,21.3,1s1.3,3.7,16.7,3.4
	s22-1,34.7,4s10.3,1,23,6s58.7,26.3,75.7,31s33.7,7,43.7,12.7s0.7,8.7,16.7,10.3s14.3-4.7,23.7,2.7s19.3,7.3,34.7,9
	c15.3,1.7,21.3-5,37.3-6.3s44.3-2.3,53.3-1.7s9,0,21,0s16.3,2.3,22-1s12.4-8,15.1-12s-0.3-3,0-11.3s-2.7-9,1.1-15s6.2-5.3,3.8-16
	s-4.3-9.1-3.3-19.9s2.1-16.2,2.1-16.2"/>
<path class="st0" d="M778.9-43c0,0,1.7,1.7,0,8.7s-1,2.7-1.7,11s0,12.7,4,19s6.3,2.3,6.3,13s-1,9.3,0,18.7s5,23.7,4,29.3
	s1,9.3,2.3,15.3c1.4,6,2,12.2,1.7,18.3c-0.3,6.3,2.7,7.7,5.7,24s0.7,29.3,0,36c-0.6,8.3-0.1,16.5,1.5,24.7c1.5,6.7,0.8,11,7.5,15.3
	s6,4,9.7,8.7s15.7,11.7,24.3,19.7s6.7,9,13.7,17.3s17.7,14.7,24.3,22s15.7,19.3,17.7,33.7s6,15.3,4.3,24s-6.3,7.3-2.3,15.3
	s6,9.8,5.7,15.9s-2,4.8,3.3,11.8s13,8.7,13.3,17s4,16,6.7,21.7s6,8.3,5.7,16.7s6.3,24,11.7,30.7s9.7,8.3,12.3,14s2,6.3,8,10
	s13.3,10.7,17.3,12.7s3,1,3.3,5s-3.7,7.7,0,13.7s2.7,7,3.7,13.7s0.3,8.3,2,15s1.3,4.3,2.7,13.7s3.3,10.7,6.7,17s11.7,5.3,18.3,12.3
	c6.7,7,10.3,12,12.3,20.7s4.3,10.4,2.3,18.4s-1.3,14-1.3,17.3s1.7,6,3.7,11.7s2,8.7,7,15s7.7,2,9.7,11s1.3,15.7,10,20.7
	s10.7,5.3,12.7,8.8s6,4.5,6,12.8s-5,9.3,0,15.7s10.7,11,14.3,14.7s11.7,12.3,11.7,20s-3.3,7.3,4,14.3s7.5,7.3,15.7,10.7l8.1,3.4"/>
<path class="st0" d="M1063.9,682.3c0,0,7.2-4.7,6.1-15.5s-1.4-26.1-1.4-32.8s-4.4-13.3,1.5-23.3s8.8-12.7,8.5-15.4s-6.3-11-5-14.7
	s5.4-4.7,5-11.7s4.3-27.7,10-33.7s8.4-4.7,18.2-12s17.6-10.6,17.7-16.3"/>
<path class="st0" d="M2435.3,350.7c0,0-8,2-13,6s-4.3,5-8.3,2.7s-1-5.1-7-3.7s-12.7,3.9-17,5s-7.3,3.1-11,7.8s-3.7,7-8.3,8.7
	s-22.3,5.7-30.7,6.7s-14,5.7-21,7.7s-19.3,5-22.7,7.3s-3.3-0.3-7.3,0s-13,4.3-15.3,8.3s-5.3,6.3-11,6.3s-12.3,4-21,10.3
	s-4,8-13.7,12s-13.7,4.7-20.7,9s-6.3,10.7-15.3,11.7s-13.3,7.7-19.7,10s-14.7,4.7-22.3,10.3s-9.3,6.7-18,10.3s-14,1-18,6.7
	s-5.3,13.7-15,18.3s-13.3,4.6-20.3,9.6s-7,6.7-11.3,8.3s-1.7-0.7-9,2s-19.7,4.3-27.3,10.7s-11.7,7.3-16.7,10s-1.7,2.3-4,5.3
	s-0.7,3-10,2.7s-24.7,1.7-29.3,4.7s-14.3,2.7-19,4.7s-1,3.7-7.3,5.7s-30.3,2.3-35.7,4.7s-7.3,10-10.7,10.7s-26.3,2.7-35.7,2.3
	s-13.7,1.3-24.7,3.3s-25,3.5-32.3,6.4s-6.3,1.9-14,2.2s-8.7,6-14.7,7.7s-18,4.3-22.7,1.7s-5,0.6-15.7,1.1s-10-0.1-17.3-2.1
	s-7.3-2.3-14-2.3s-5.7-3-17.3-4s-20.7-2.3-26.3-2s-20,2.7-26,0c-6.7-3-13.7-5.2-21-6.3c-8.3-1.3-26-0.7-29.7-4.7s-11.7-1.7-21-3.7
	s-13.7-7.3-20-5.3s-11.3,2-22.3,2s-36-0.9-44-0.4s-12.3,1.4-17.7,5.8s-10.3,10.2-17.3,10.4s-8.7,5.6-12.3,7.6s-9,2-14.3,3.3
	s-5.3,2-8.3,3.7s-1.3,0.3-9.3,0s-8-0.7-15.3,0.8s-7.3,2.2-17,6.2c-5.5,2.2-10.8,5-15.7,8.3c-2.7,1.7-4-1.3-8,0s-20.7,7.3-26.3,13
	s-5.7,7.7-13.3,12.3s-14.3,9.3-19.3,11.3s-5.7,1.7-14.3,1.7s-17.3,5.3-22,6s-10-0.7-14.7-1.7s-11.3-1.7-15.3-5.3s-2.7-8-7.7-8
	s-7.7,3.7-11.7,0.7s-15-5.7-18-3.3s-8.3,0.3-9-2.3s-6.7-0.3-11.7,0s-7-2-9.3,1s-5.7,2-10.7-4.3s-5-10.8-10-17.2s0.5-7.4-6.4-11.8
	s-18.5-8.9-17.7-14.3c0,0-1.2,0.5-4.2,4.6s-2.7,15-7.3,21.7s-21.7,26-26.7,31.3s-4.7,14-4.7,14s-6.7,14-5.7,29.3s-2,5.7-5.3,11
	s-5.3,7.7-6.3,14.3s-2,7-5.3,12.3s-7.7,22.3-8.7,29s-2.3,15-6,18.3c-3.7,3.3-5.3,7.3-5.7,18.3c-0.2,6.7-0.7,13.4-1.7,20
	c-0.3,2.7,7.3,9.7,9,13.7s-1,9.3-4,14.7c-3,5.3-1.7,9,0,12.7c1.7,3.7,0.7,10.3,2.3,12.7s4,8.3,4,8.3"/>
<path class="st0" d="M1386.6,1105c0-2.7,0.7-8.7,0-15c-0.7-7.4-0.7-14.9,0-22.3c0.7-6.3,0.7-12.7,1.7-17.3s1-8.3,3.7-12.6
	s6-6.4,8.7-11.7s3.7-11.7,6.7-16.7s5-6,7.3-10.7s3.7-8,2-14.7s-1.3-9.2-5.3-16.6s-4.7-5.1-8-11.1s-0.7-10-6.7-10
	c-6.5,0.2-12.9-0.9-19-3c-8-2.7-21.3-4.3-26.7-9.7s-10-9.3-16-12s-4.3-4-10-12.3s-11.3-18.7-19-22.7s-14.3-5.3-20.3-11.3
	s-9.5-6.8-9.5-6.8"/>
<path class="st0" d="M1411.3,967.4c5,4.3,13.3,4.6,20,2.6s13-5.5,22.7-2.6s16.3,5.6,22.7,11.6s10.3,3.5,19.7,7.8s19.3,8.9,25.3,15.2
	s11,7.3,11,7.3"/>
<path class="st0" d="M2064.6,1104c-0.5-2.8-2.5-5.3-2.5-10.8s0.5-15,0-20s-4-13-8-18s-4.2-12.9-4.8-17.5s-0.2-4,3.8-8
	s4.4-11.5,3.7-16.5s-3.2-7.5,7.8-14s10.8-5,11.7-14.5s-0.3-42.7,0-45.9s-3.3,0.9-4-7.1s0.7-24,0-31s-4.3-8,0-13.5s4-12.8,4-12.8"/>
<path class="st0" d="M2438.1,260.2c-6.5-0.5-13-0.5-21.5-2.5s-14,1-19.5-3.5s-21-5-33-6s-28-7.7-44.5-8.8s-27.7,0.2-38.3,0
	s-8.2,1.7-22.2-0.5s-20-5.2-34-7.2s-17.5-0.7-31.5,3.7c-14,4.3-15,6.2-22,4s-5-6.8-15-4c-10,2.8-31,6.5-41-4.6s-10-13.1-17-16.6
	s-16-12.5-24-13s-21-4-27,0s-10,6.5-22,2.5s-11,0.5-17-6.5s-10.5-7.5-22-8s-8,0-19.5,0s-10,4.5-25.5,4.5s-22,2.6-37.5-4.7
	s-17-12.3-26.5-13.8c-7.3-1.3-14.7-1.3-22,0c-5,1-12.9-3.5-15.2-7s-2.8-5-11.8-5s-19.5-0.5-27.5-4.5s-20.5-12-27-15.5
	s-8-5.5-20.5-6.5s-25.5,2-33,6.5s-10,5.5-17.5,4.5s-16.5-2.5-19.5,1.5s-7,4-14.5,4s-18-11-24-21.2s-12-4.8-15-7.3s-5.5-8-8-12.5
	s-8.5-12.7-14.5-15.8s-14.5-6.2-19.5-13.7s-13.5-8.5-21.5-10s-12.5-1.5-17-7.5s-6.5-13-16-14.5s-11.5,1-20.5-4.5s-12.5-4.1-19-12
	s-2-11-11.5-16s-13-4.5-17-11.5s-7.5-11-9.5-21s-2.5-7.5-10.5-13.5s-13-8.5-13-13.5"/>
<path class="st0" d="M1977.1-41.3c0,0.5-1,1,3.5,5s6,2,5.5,7.5s1.2,3,0.1,7.5s0.4,2,4.4,0s2.5,0.5,7,2.5s1,1,8,0s5.5-3.2,9.5,1.1
	s7.5,1.9,10-2.1s4-7.4,9-5.9s7,5.4,16.5,6.4s7,1.5,14.5,1s16-1.1,24.5,2.9s9.5,8.4,18,5.2c5-1.9,10.2-3.1,15.5-3.6c0,0,6-4,16.5,4.7
	s11.5,10.3,16.5,9.8s-2.9,0.2,10.5,3c6,1.2,13.5,2,15-3c3.7-12.2-5.5-16.4,7-17.5s8-2,19.5,0s11,9,20.5,0s3-6.9,14.5-9
	s14,3.9,16-4.6c1.2-5.1,1.2-10.4,0-15.5"/>
<path class="st0" d="M1265.1,141c0,0,0.8-4.2-6.8,0s-8,4.3-10.7,2.2s-4-0.5-10.5,0s-8.5,2-12.5,0"/>
<path class="st0" d="M1266.9,55c0,0-2.5,1.2-8.7-2.3s-5.5-3-13.3-2s-7.8-1-8.3,6s-3,10-7,14s-3.5,8-2.5,12.5s-2,8.5-5,13.5
	s-4.2,6.9-2.4,12.9c1.9,6.1-1.4,17.1,0,22.3s0.6,6,0,12.6s-0.6,16.6,2.4,23.6s10,5.8,9.5,13.2s-0.6,10.8,1,14.3s2,1.8,2,1.8"/>
<path class="st0" d="M238.3,1106.7c0.3-4.5,2.8-10.5,10.8-16.5s28.5-18,29.5-25s15-22.2,21.5-28.8s18-15.7,22.5-29.7
	s14.5-33.5,25-42s44.5-32,59.5-48s29.3-26.5,46.2-30.5s19.8-7,21.8-12s10-10.5,17.5-16.5s3.5-8,10-3s0.5,5,6.5,5s4-2.7,10.5-7.8
	s20-4.7,27.5-3.7s10.5,3.5,20.5,1.5s8.4-1.8,18-2.1s19,2.1,32.5-11.9s20-25,27.5-27s22.5-5,30.5-13s21-16.5,29.5-19s9.5,0,23,0
	s45.5,7.5,51.5,2s10.5-8,22-8s20-1,23.5-5.5s8.5-5,17-2.5s11,5.5,18.5,5.5s40-1,48,0s8,5,11.5-1s9.5-11.5,14-15.5s6.5-10,16-15.5
	s16-2,20.5-5.5s4.5-11.5,13-13.5s15.5-10,23-13s6.5-3,16.5-7c10-4,16.5-6.6,18-10.6s4.5-6.1,7-8.3s12,3,12,3s-11-2.2-17.5-11.2
	s-5.5-9.5-15-11c-9.5-1.5-12.5-6-18-8.5s-10.5-3-16-3s-5.5-0.5-8-3c-2-2.3-5-3.5-8-3.5c-3,0-2.5,3.5-6,0s-8.5-8-9-10s-6.5-20-12-26
	s-7.5-6.8-12-12.2s-9.5-4.4-14-6.1s-5.5-4.2-9-8.7s-24.5-12.5-29-17.5s-10-4-11-10c-0.7-3.9-1.7-7.8-3-11.5"/>
<path class="st0" d="M1148.3,738.3c0,0-1.2-3.7-6.2-4.2s-5.7-2.5-8.8-7s-4.4-7-8.8-7s-9.9-0.5-12.4,0s-3,2.5-8-2.5s-6.8-2-9.9-10.5
	s0.9-7-6.1-12s-9.2,0-9.2,0"/>
<path class="st0" d="M1199.6,663c0.6,4.8,0.6,9.6,0,14.3c-1,7.8-1.8,11.8-8.4,12.8s-8.1,0.5-13.6,5s-13.5,7.5-21.5,4.5
	s-18.2-2.5-26.8-2.5s-19.7-0.5-30.7,0s-6.6,1.4-6.6,1.4"/>
<path class="st0" d="M1170.3,677.3c0,0-3.2,4.2-10.7,9s-4,4.9-14,6.6s-11.2,3.6-16.3,7.9s-4.8,6.3-4.8,12.8s-12.4,6.5-12.4,6.5
	s-1,11-3.5,12.5s-3-1-6.5,0s-7.4,6.5-10.9,11.5s-12.6,10-17.6,11s-15,7-22.5,11s-17.3,5.3-18.1,9.8"/>
<path class="st0" d="M507.6,830.7c0,0,1.5-2.5-2.5-7.8s-5-6.8-10-10.2s-7.5-0.5-10.5-7.5s-7.5-8.2-6.5-15.8s-1.5-14.2,3-16.7
	s5.5-4,4.5-7.5s-2-8.5-0.5-12.5s-1.5-9.5-2-14s1-4.5,1.5-9s-1.5-17.2-4-18.3s-3.3-4.2-2.6-10.2s6.1-12.5,4.1-20.5s-10-18.5-9.5-24.5
	s5.5-8,0-15.5s-19-9-19.3-14.3s-0.3-22.7,0-28.7s0.7-24.5-0.2-32s-0.4-10-6.9-15s-16.5-14-20-22s-9-13.5-12.5-18.5s-2.5-10-5.5-12.5
	s-18.5-3-22.5-13.5s-4.5-11-11.5-14s-18-6.5-21.5-11s-12-15-18-25.5s-15-30-22.5-33s-9-2.5-15-7.5s-6-8.5-12.5-9.5
	s-11.5-4.5-16.5-8.5s-9,2.4-13-3.3s-7.5-13.7-14-17.2s-2-3.5-13-5.5s-14,1-21.5-2.5s-13-6-13.5-10s-1.5-8.5-2.5-13.5s4.5-5,6.5-7.5
	s3-4.5,1-9.5s-9.7-6-7.6-13.5c2.1-7.5,3.1-9.5-0.4-15.5c-3.5-6-13-11.5-17-12.5s-7-2-10.5-8s-6-12-11-15.5s-6-3.5-5-9
	s4.8-11-0.4-15.5c-5.2-4.5-17.7-12.5-20.2-18c-2.5-5.5-13-12-14-18.5s-0.5-20.5,3-26s6.5-14,3-19s-8.9-8.5-6.4-14s-0.6-19.5-3-26.5
	s0.5-10.5-5.5-17.5S91.1,60,90.6,52.3s2.5-7.2-3.5-16.7s-18.5-13.5-26-16.5s-15-2-22.5-8.5c-5-4.4-9.6-9-14-14"/>
<path class="st0" d="M919.1,56.7c0,0-2.5-1.7-10-4.3s-11-1.8-16.5-4s-17.5-2.2-21-8.2s-5.5-7-12.5-9s-12.5-4-19.5-9s-15-12-22-17
	s-14.5-13.5-22-18.5s-16-9-25-18S757.1-43,757.1-43"/>
<path class="st0" d="M862.6-43c0,0,2,4.7-4,6.2s-17.5-3.5-29,0s-23,3.5-34,4.5s-17.5,11.5-28,13s-17,0.5-27.5,0s-33,6-43.5,8
	s-39,9.5-49,8s-50-4-58-4.5s-5-1.5-11.5,4.5s-13.5,13.5-21.5,18.5s-15,11.4-18,19c-2,4.6-5.7,8.3-10.3,10.2c0,0-0.8,4.7-4,0
	s-2.7-1.7-6.7-4.2s-9.5-4-9.7-8s-2.8-7-7.3-10s-17-18-18-25.5s9-30.3-3.5-39.7"/>
<path class="st0" d="M-20.4,131.7c0,0,1.5-6,15.5-9.5s32-5,40-8s23.5-10.5,37-13.5s49.5-4.5,59-9s16,0.5,27-2.5
	c11.9-3.1,24.2-4.7,36.5-5c10,0,22-4,34,0c12.1,4,24.9,5.5,37.6,4.5c12.9-1,22.4-2,35.9-2s16.5,3,29.5,1s6-3,17.5-2.5
	s12.5,3.5,17.5-0.5s11,0.4,20.5-2.3s20-4.2,30-8.7s12-4.2,19-9.3s8-8.2,14-7.7s10,0,17,3s3,5.8,19.5,4.7s23-2.2,28-7.7
	s5.7-4.3,9.7-4.3s-2.2-1.7,21.8-5.9s53-8.7,60.5-9.7s30.5,0.5,41.5,3.5s24.5,3.5,33,0s9-8,16.5-13s10.5-4.2,16-14.8
	s15-9.2,23.5-15.7s10.5-6,23.5-10.5s16.7-9.5,16.7-9.5s-7.7,13.5-7.7,20s0,10.5-5.5,18s-3,12.5-7,25.5s-1.5,14.5-9.5,26.5
	s-19.5,28.5-24,39s-4.5,17.5-10.5,26s-8,7-10,15s-7,13-8.5,16s-0.5,6.8-0.5,18.7s-1,13.3-3,14.3"/>
<path class="st0" d="M971.3,177.3c0,0-5.7,1.7-7.7-4s0.5-8.7-9-17.7s-14.2-6-24.3-16.5s-10.7-16.5-11.2-20"/>
<path class="st0" d="M193.1,336.7c0,0,3-3,6.5-11.5s9-13.5,7.5-27s-3.5-19,5-30s22.5-40,29.5-60.5s42-84.5,49-98s11.5-23,11.5-23"/>
<path class="st0" d="M2435.3,1078.7c0,0-20.2,3-29.7,0s-40-5.5-52.5-5.5s-29.5,2-36,0s-25.5-15-31-19.5c-4.2-3.4-9.2-5.6-14.5-6.5
	c-3-0.5-27.5-19-30.5-23s-51.5-47.5-58-56.8s-11-13.7-16.5-15.2s-24-17-34-27.5s-15.5-14-29.5-24s-30.7-25-30.8-32.5s-5.8-8.5-9.5-9
	s-24.7-7-28.2-16.5s-3-9.5-8-14.5s-15-7.5-18.5-16s-14-24.5-22-28s-10-7-15-13s-17.5-17-24.5-24.5s-15.5-8-22-18.5s-5.5-13-8.5-20.5
	s-11.5-8.5-18-22s-13.7-17-13.7-17s0.7,4,4.7-4.5s6-16.5,12-23.5s13-15.5,26-20s14,2.3,31.5-11.3s21-27.7,35-36.2
	s18.8-10.8,16.7-15.2"/>
<path class="st1" d="M106.6,772.7c3,0.4,6,0.4,9,0c5.3-0.7,6.7,0.3,11.3,0c4.7-0.3,7.3,2.1,11.7,0s5.7-3,12-4.7
	c6.3-1.7,9,0.7,12.7-2c3.7-2.7,9-6.3,11-6.3s4.7,5,9.3,5s8.3-0.1,13.3,1.9s6,3.5,14,6.9s13.7,6.5,17,7.8c3.3,1.3,14.3,6.3,20.7,6.3
	h17.6c6,0,6.4,2.7,14.9,1.7s12.2-0.3,18.2,2.7s10,6,21.3,5.7s18.7-2.6,26,0s11,1.3,14,4.6s0.3,11.3,7.7,15s14,7.2,20,5.6
	s9.7,0.7,17.3,0.4s5-2.3,14.3-2.3s21-0.8,24.3,1.9s8,2.8,9,4.4s0.3,9.3,5.7,9.3s30.7,4.4,38.7,3.4s19.7,0.7,23.7-1.7s21-7,26.7-11
	s7.3-7.3,18.3-9.7s22-4,25.3-3s5.3,7,11.7,5.3s-0.3-1.3,8-5.3s18.7-9.8,21-14.8s-2-13.2,12.3-15.9s11.3,0.7,23.7-1.7
	s31.7-0.2,35.3,4.4s7.3,6.1,12.3,13.2s6.3,21.8,10,26.4s5,8.3,15,16.3s17.3,10,23.3,17.3s24.8,17.7,29.6,23.3s0.8,4.4,10.8,9.7
	s17.7,10.3,19.7,5.3s3-5,8-5.7s11,2.3,16.3-1.7s7-1.7,11.3-5.3s5.7-4.3,14.7-5.7s13.7,1,21.7,1s11,0.7,18.7,0.7s17.3-3,27.3-0.3
	s11.3,2.7,24.3,4s15.5-2,24.1,2.7s20.7,6,28.6,9s13.3,0.7,17,0c5.5-1.2,11.2-1.2,16.7,0c8.3,1.7,7,3.1,17.3,1.6s8-1.9,19-4.6
	s18-2.7,29.2,0.2s22.2,2.8,31.8,0s17-3.5,24.7-2.8s23.1,6.4,30,9.1s1.7,3.3,12.7,9.3s20.3,9.7,25,13.7s14.3,4.3,19.7,4.3
	c6.1,0.2,12,1.4,17.7,3.7c4.7,2,9,5,23.3,3.7s16-3.3,26.7-3.3s18.5-0.5,18.5-0.5"/>
<path class="st1" d="M1789.5,1106.7c-3.3-2.7-7.5-9.5-11.4-9.4s-11.9-2.1-14.2-6.2s-12-10.1-15-11.1s-9.3-1.3-14.7-4
	s-34.7-13-34.7-13s-16.3-1.1-22-5.2s-9.7-8.8-16-11.1s-27.3-3.7-27.3-3.7s-17.3-5.6-24.7-5.3s-15.8-4.4-20.2-5s-15.8-4.2-20.1-5.3
	s-12.7-2.7-20-5.1s-10.3-9.8-16.7-13"/>
<path class="st1" d="M1965.6,1104c0,0,5-13.2,3.3-17.8s-4-31.2-3.3-38.6s1.2-33.3,1.8-41.3s4.6-5.7,4.6-9.3s-0.3-10,0-15.7
	s6-9.8,5-15.1s-5.7-13.4-2.3-19.5s8-21.1,7.7-31.8s3.7-56,3.7-60s-6.7-10-5.3-27.7s3.7-44,3.7-44"/>
<path class="st1" d="M2435.3,619.7c0,0-18.7,6.8-25.7,4.2s-11.5-13-24.5-14.1s-19.5,1.7-26.5-0.4s-6.5-5.8-14-6.2
	s-25.5,0.6-33.5-3.9s-58-19.5-70-20.5s-32-7-39.5-6.5s-32.5,6-44,5s-26-3-33.5-3s-41.5-2.2-54-4.8s-24-2.7-35.5-5.2
	s-19.2-4.6-23.9-4"/>
<path class="st1" d="M2095.3,670.7c0.4-4.5,0.4-9.1,0-13.6c-0.7-6-9.2-23.1-10.2-30.3s-3.5-15.9-2.5-21.5s3-16.2,1.5-18.4
	s-7.5-16.2-8.5-22.7s-13.3-58.2-17.4-64.8s-6.8-5.2-8.9-16.7s-22.2-80.1-23.7-85.3s3.5-1.4,0-14.3s3-18.5-4-25.4s-8-10-13-10.7
	s-7.5-6.2-7-12.8s4.4-8.5-0.1-14.5s-3.9-23-3.4-30.5s0.9-22-0.3-29s0-16.7,0-16.7l-13.2-0.3c0,0-6.5-9.1-11-14.6s-9.5-4-15.5-14
	s-11.7-13.6-11.7-13.6"/>
<path class="st1" d="M1146.3,386.2c0,0,7.2-1.8,11.8,3.4s-1.7,3.1,8.2,8.1s14.6,16.5,22.7,18s19.8,6,21.9,8s3.4,18,8.8,23.8
	s6.9,5.8,7.4,10.2s3.8,12.9,7.4,17.8s7.2,7.7,14.6,10.2s20.5,4,25.5,8.5s14,6.8,20,4.2s16.1-3.1,16-2.5s5,5.3,9,7.8s10,6.5,19.2,8
	s10.8,2,15.8,5.5s4,2.6,12.5,2.8s7.5-2.2,13.5,0s11.5-2.2,16.5,0s8,7.6,15,9.1s8.5,7.6,13.5,10.1s12.5,5.1,15.5,9.3s6,2.2,15.5,6.2
	s16.5,12.5,15,20.5s0.2,12.6,0.2,12.6"/>
<path class="st1" d="M2435.3,822.9c0,0-13.7-3.9-23.7-10.6s-24-13.3-30.7-14s-58,0-64.7,0s0.7-5.6-16.7-9.2s-22.3-7.9-34.2-8.4
	s-122.5,0.5-131.8,0s-14.7-4.5-28.7-4.8s-62,0.3-74,0s-13.3,5.3-38.7,4.8s-36.5,8.6-45.9,8.4s-25.4-10.2-37.4-11.2s-18.7,4.3-27.3,0
	s-24.4-9-41.2-9.7s-100.8-0.7-113.1,0s-18.3,11.6-26.3,12.5s-30.2,0.2-39.9-2.8s-17.5,1.9-31.5,2.8s-50,0.9-59.3,1.2
	s-91.3,0.6-102-1.2s-12,2.9-23.3,1.2s-9.6-4.8-19.3-8.4l-9.7-3.6"/>
<path class="st1" d="M1879.6,592.2c0,0-0.4-3.3,4.8-9.9s9.9-13.3,11.9-19.3s6.7-8,9.3-12.3s6.7-24.3,5.3-35.7s-1.5-14.4,0.3-25.9
	s5.7-16.8,17.7-22.8s16.7-14.9,27.3-16.1s20,6.1,34.7,12.1s31.3,8.7,36.7,8s16,2.7,27.3,5s23.3,7.3,33.3,11.5s20.7,6.3,30,10.3
	s11.4,5.2,21.7,2.2s16.1-1.7,19.9-9.7c2.6-5.2,5.7-10.2,9.4-14.7"/>
<path class="st1" d="M1727.3,51.7c0,0,3.7-0.9-9-1.8s-21.3,3.6-28.7,0s-5.3-9.7-10.7-9s-9.4,5.4-22.7,5.4s-10,7.1-26,11.9
	s-15.6,9.9-32.6,14s-23,2.1-23,2.1"/>
<path class="st1" d="M1869.5,668.7c0,0-8.6-5.7-10.6-14.3s-17.2-21.3-23.6-32.7s-24.5-20.3-29.7-18.6"/>
<path class="st1" d="M2433.6,710.3c0,0-20,11.3-24.7,12.3s-28.7-0.3-33.7,0S2274.2,782,2274.2,782"/>
<path class="st1" d="M691.6,357.7c0,0-6,13.7-12.7,14.2s-14,3.9-20,11.2s-16.7,18-24.7,20s-34.7,4.6-42.7,10.6s-8,8.3-18,11.5
	s-10,1.8-21.3,10.8s-16,21-20,26.3s-11.3,22.3-15.3,24.5s-10,0.2-16,2.8c-6,2.7-21.3,3.3-28.7,4s-6.7,3.3-15,5.3
	s-15.1,10.7-19.4,10.7s-31.6,12.6-35,10.3s-9.3,21-20.7,23s-21.3-3.3-28.7,0s-22,20.7-30,20.7s-24.7-0.7-31.3-4.7s-7.3-0.7-16-4.7
	s-13.3-4.7-22.7-0.7s-18-0.7-31.3,6c-13.3,6.7-25.6,16.7-29.1,12.7s-9.5-16-16.8-16c-7.3,0-18.7-6-20-5.7c-1.3,0.3-3.3-4-12.7-11.5
	s-16-12.8-19.3-12.8c-2.5,0.1-4.9,0.3-7.3,0.7"/>
<path class="st1" d="M340.6,85.6c0,0,4.4,6.7,5,20.7s6,16.4,6,38.2s3.3,69.1,3.3,75.8s-0.3,6,23.5,6s26.5,1.3,28.5-6s4-7.1,16-7.6
	s16.3-5.4,21.3,7.6s8.7,10.7,21.3,14.3c12.7,3.7,18,6,26.7,8.8s13.3-3.5,21.3-4.3s24.7-7.5,32-12.8s18-1.3,27.3-8.7
	s13.3-13.8,24-12.9s29.3-6.7,36-6.9s2-4.3,20.7-4.3s27.3-5.1,47.3,11.2s20.7,19.6,28.7,20.9s8-2,18,9s9.3,13.1,16.7,12.7
	s14.9,0,14.9,0"/>
<path class="st1" d="M-15.4,153c1.7,1.7,3.8,3.1,6,4c3,1,2,3.7,8.3,3.3s10.3-0.6,16.7,0s6.7,0.4,15,0s14.3,3.5,22.7,0.4
	s8.7-4.1,16.7-3.3s17,1.2,17,1.2s11.8,0.9,19.7-1.2s13.7-2.8,18.3-2.1c4.7,0.7,13,2,18.3-2.3c5.3-4.3,8.7-4.3,16.7-4.3
	s11.7,0.7,15.3-1.3s13.7,2.3,17.8,0s6.5-3.7,12.5-4.3s21.3,1.3,25.7,0s13-0.3,23.3-0.1c10.3,0.1,11.8-0.6,17.6,1.6
	s23.8,7.8,34.8,7.7s19,1.8,28.3,0c5.4-1.1,10.9-1.7,16.4-1.8"/>
<path class="st1" d="M64.9,157.2c0,0,38,52.1,47.7,59.5s31.3,40.7,33,44c1.7,3.3,32,12.3,35.7,21.3c3.7,9,9.3,39.3,9.3,39.3"/>
<path class="st1" d="M151.6,1105c-1.5-2.9-3.3-5.5-5.3-8c-3-3.3-3-4-3-9.3s-0.7-13.7-3-17.3c-2.3-3.7-6.7-10-6.7-13s0.7-5.7-3.3-8.3
	c-4-2.7-3.7-6.3-6-9.3s-2.3-2.7-3.7-3.3s1.7-2,0-4c-0.9-1.2-2.2-2.1-3.5-2.7c0-1.8-0.6-3.6-1.8-5c-1.3-1.7-3.1-3.1-5-4
	c0,0-7.8,0.2-9,0s-11.7,2.7-13.3,0s-0.7-4.3-2-7.3c-1-2-2.3-3.8-4-5.3c0,0-3-12.3-8.3-13s-9.7,0-8-5s-1.3-9.7,0-12.3s3.3-4,4.3-10
	s2-8.3,2.7-14.3s2.3-16,0.3-20.3s-5-11.3-5.7-17s-7-22-5.3-24.7s0.3-8.3,0-13s-4.7-7,0-10.7s7.3-12.7,8.3-16s4.7-14.7,3.7-19
	s-3.7-5.2-3.7-9.8s-1.7-21.6-4.7-23.6s-4.3-3-3.7-8s3-9.7,3.7-13s0.7-13,3.3-16.3s3-5.7,3-14s-1.3-11.3,0.7-21.7s2.3-17,3.7-20.7
	s3.7-7.7,5.3-12.7s1-13,4.3-17.7s5.7-7.3,4.7-13.3s-4-11.3-1.3-14s5.7-4.3,8-6.3s3.3-4,5-7.7s8.3-12,12.7-11.7s6.2,0,6.3-2.7
	s-1-8-0.7-12s3.3-6.3,3.7-12.3s4.7-10.3,2-13.7c-2.7-3.3-6.3-7.7-6.3-10.7s3.3-12,4.3-17s1.7-8.7-1-11.7s-2.7-2-3-6.7
	s-6.7-9.3-3.2-14.3c3.5-5,8.1-11.3,10.7-15c2.5-3.7,1.9-5,4.9-8.7s4-4.3,5.7-8.7c1.7-4.3,0.3-4.6,4.3-6.8c4.6-2.8,8.2-6.8,10.7-11.5
	c2.3-4.7,5.7-8.3,8.7-10s8.3-9,14.3-10.7s8-19.7,8.3-22.3c0.3-2.7,3.3-21.7,0-33.7c-3.3-12-5-21-3.3-26.3c1.7-5.3,2,0.7,2.7-11.7
	c0.7-12.3,6.7-18.7,7.6-19.3"/>
<path class="st1" d="M966.6,668.8c3.1-1.6,6.3-2.9,9.6-3.8c5.7-1.7,12-2.7,17.4-2s16,1.7,23,2c7,0.3,9.7-0.4,16.4,0s7.9,2,7.9,2"/>
<path class="st1" d="M1069.3,789.2c0,0,5.3-7.8,4-12.8s-3.3-3.1-4-8.6s0.7-14.1,0-21.8s-2.7-20.7-3-28.7s2-10,0-17.7
	c-1.2-4.4-1.9-8.8-2.3-13.3"/>
<path class="st1" d="M1037.3,702.7c0,0,2.7,6.2,8,9.1s7.1,5.5,15.4,6.2s2.8,2.8,12.8,0s10.1-2.1,16.1-2.4s9.4-3,12-8.6
	s6.3-10.4,6.6-15.5s8-23.5,1.3-28.7c-5.2-4.2-11.8-6.4-18.4-6.1c-5.9,0-13.5-5-16.4-5.7s-3.5-2.3-10.9,0s-15.1,7.7-23,9.5
	s-12,0.5-12.3,8.3s1,16.4,2,22.6S1033.3,702,1037.3,702.7z"/>
<path class="st1" d="M1218.9,670.3c0,0-2.3-3.7-8-1.5s-8.3,4.2-14.3,4.5s-18-1.5-18-1.5"/>
<path class="st1" d="M1124.5,713.7c0,0-8.9-9.3-8.9-14s-2-11.1,0-16.3s5.3-7.7,2.8-17.5s-2.2-8.8,0-18.2s7.4-21.8,7.4-21.8"/>
<path class="st1" d="M1091.2,717c0,0-1.2,5.3-2.2,9.6s-2,5-6.7,6.2s-4.1,5.4-8.8,6.8s-11.2-0.8-15.2-1.9s-9.7-0.2-14,0
	s-8.5-0.1-11.2-4.9s-7.8-4.9-11.1-6.2c-3.3-1.3-9-6-9-11s1.8-14.8,1.8-14.8"/>
<path class="st1" d="M1092,698.5c-2.4-0.8-4-3.1-3.8-5.6c0-4.6-1.3-7.5,0-13.9s-1.2-14.1,1.6-18.2s4.3-4.1,4.3-4.1"/>
<path class="st1" d="M856.1-41.3c0,0,4,8.5,4,14s-2,13-4,18s-0.1,24.4,0,32s4.7,15.1-0.9,19.3s-13.1,4-19.6,2.4s-7.5,1.4-9.5-2.4
	s-4.5-13.8-9.5-18.3s-9.7-9.6-13.8-11.1s-15.2-3.9-15.2-3.9"/>
<path class="st1" d="M734.6-43c0,0-2,20.3-2,26s3.5,7.9,6.5,19s-2.5,13.2,7,14.7s39.6-1,49.3,0s20.7-1.1,19.7-4.1s5.5-7.4,4.5-15.9
	s-4-39.7-4-39.7"/>
<path class="st2" d="M1197.1,417.2c0,0-1.5-18-2.5-20.3s-4-10.4-3.5-14s-1.5-8.2-3.5-12.3s-6-10.7-6-13.8s2.5-10.7,0-14.8
	s-11.5-2.5-7-10.2s16-29.6,16-33.2s8-13.8,6.5-17.9l-1.5-4.1"/>
<path class="st2" d="M1397.1-39.7c0,0-7,11.3-7,16.3s-1.5,10-2.5,17s-2.5,11.5,0,17.5s-4.2,12-1.4,28s1.7,16.5-0.7,20
	s-5.4,13.5-5.4,17.5s2,12.3,3.5,15.7l1.5,3.3c0,0-0.5,7.5-5,18.5s-8.5,19.5-9.5,23s-3,9-5,12s-6.5,7.5-6.5,10.5s1,5,0,11.5
	s0,11-2.5,18.5s-5,11-5.5,16s-1.5,13.5,0,20.5s-1.1,8.5-0.8,14s1.2,9.5,0,12s-8.7,8-8.7,13.5s2.5,6.5,0,11s0,9.5,0,16.5
	s-5.5,15.5-5,21.5s0.9,12.5,0,18s4.5,16,3.5,23.5s-0.3,14.5-3.7,19s-2.2,17.8,0,22.2s-0.9,15.8-2.1,19.8s-3.8,4.5-4.8,12.5
	s4,13.5,0,24.5s-1,15-7,21.5s-6,6.5-9.5,13s-2,11-6,17s-5.5,11.5-11,18.5s-10,10.5-13,14.5s-7.5,5-13.5,5.5s-6,1-9,6.5
	s-9,9-18.5,11.5s-13,4.5-22,7s-10.5,4-17,4s-11.5,0.5-11.5,3.5s5,8,0,9.5s-5.1,1-6.3,3.5s-4.2-1.5-12,0s-12.2,6.5-21.7,7.5
	s-17.2-1.5-22.3,2s-12.7,4-17.7,8s-6.5,5-8,3.5s-4.5-2-7-1.5s-5,1-6.5-2s-0.5-3.1-5.5-4.1s-8-0.9-10.5-4.4s-4.7-11.5-7.8-13.5
	s-5.7-7.5-11.7-7.5c-5.2,0-10.4-0.6-15.5-2c-3-1-4-0.5-8.5-5s-10-4.5-12-3.5l-2,1"/>
<path class="st2" d="M1126.1-39.7c0,0-0.7,6.3,3.2,9.8s5.7,2.5,8,6.5s5.8,6,7.8,9.5s-0.5,0.5,0,6s-0.9,4,0.8,8.5s-1.8,2.5-2.8,5.5
	s1,4.5,0.5,9s-2,1-4,8.5s-5.7,13-2.3,14.5"/>
<path class="st2" d="M1167.6,56.7c0,0,1.5,0.5,0,4s-0.5,1,0,7s1.8,3.5,0.7,10.5s-2.9,2.3,0.5,10.2s2.4,8.8,4.6,15.3s3.2,5,5.7,8
	s1,4,0,8.5s-4.8,5,1.4,12.5s5.1,7,4.9,13.5s-3.3,6,0,10s1.3,9.5,2.8,15s3.5,1.3,3.5,10.2v22.3c0,6.5,1,6.5,0,14s-3.1,8.5-6.3,13.5
	s-6.1,8.5-5.9,12.5s-1.8-3.5-3.8,6.5s-3,8-2.2,12s3.3,10.5,0,12s-1.3-3-3.3,1.5s-2.2,7.8-3.3,10.2s-1.2-1.2-5.2-3.2s-5.5-8-10.5-6
	s-5,2.5-8.5,0s-4.8-5.5-6.4-3.5c-1.8,2.4-4.2,4.3-6.9,5.5c-4.2,2-5.7,3-10.2,2s-6-1.5-10-1s-6.5,1-8,2.5l-1.5,1.5"/>
<path class="st2" d="M1083.6-39.7c0,0-1.5,1.3,0,7.8s-2.5,7.5,0,10.5s-0.3,6.5,0.3,12s4,4.2-1.2,9.6s-4.2,5.9-4.2,11.9
	s-0.1,8.5,3.5,17s6.5,14,6,21.5s-3.4,10,0.1,16.5s4.4,0.5,3.4,6.5s-0.8,7.3,0.4,14.7s5,4.3,3.3,8s0.5,4.7,0.4,7.3s2.9,10.7,5.2,15
	c1.4,2.3,2.6,4.6,3.7,7c2,4.3,2.3,3.3,1.3,7.3c-0.9,4.4-2.2,8.8-3.7,13c-2,5.3-1,6.7,0.3,10s3,8.3,2.3,12.7s-1,9.3-3.3,11
	s-3.3,4-2,9s1,6.3,1.7,11.3s1,4.3,0.3,7.3s0,5.7-4,8.7c-1.8,1.3-3.5,2.7-5.1,4.3"/>
<path class="st2" d="M1065.6,131.3c0.5,1.8,1.5,3.5,3,4.7c2.3,1.7,3.7-0.3,5.7,0s2.3-3.3,6-2s3,0.3,8.7-2.7s7.3-3.7,10.7-4
	c1.9-0.2,3.9-0.2,5.8,0"/>
<path class="st2" d="M1016.6-41.3c-0.7,5.5,1.7,10.9,6.3,14c8,5.7,8.7,5,12.3,9.7s19,15.7,21.7,21s3.7,5.7,8.7,5.7s5,0.8,9,2
	c4,1.2,5.8,4.3,10.9,1.7s7.4-3.6,12.1,1s9.7,5,13.3,5s4.3-2.7,8.3,0s1,10.3,11.3,15.5s10.3,8.9,17.3,12.9s3.7,5,12.7,7.7
	s8.7,2.3,18.7,2s12,3.7,17.8,0s3.4-5.7,9.3-6s6.8,1.3,13.4-2.7s6.9-6.7,12.9-7.8s15-0.8,17.7-4.5c4.4-6,9.6-11.5,15.3-16.3
	c6.7-5.3,12.3-12.7,16.3-14c0.8-0.2,1.6-0.4,2.3-0.6c2.6-0.4,5.2-0.5,7.9-0.3c0,0-9.2,0.5-11.2-2.5s-3.3-3.3-5.3-3.7
	s-5.7-0.3-8.3-4.3s-4.7-16.3-9-21.3s-5.3-5-10.3-7.7c-5-2.7-14.7-4.7-13.3-6.3c0.2,2.4,0.2,4.9,0,7.3c-0.3,4.7-1,7,0.2,10.7
	c1,2.8,1.8,5.7,2.5,8.7c0.7,3,0.3,4.7,0,9s-1.2,3,0.4,9.7s3.6,7.3,2.6,11s-2.3,3.3-1.3,10s4.2,8.3,3.4,15.2s-0.7,9.2,0.1,12.5
	s0.9,5.7,0,12.3s0.6,7-0.1,12s-4.1,1.7-1.8,6.7s3.7,4-0.3,8.7s-4.3,4-4,9.3c0.3,5.3-2,9,2.3,7.7s7.7-4.7,8-2"/>
<path class="st2" d="M930.3-39.7c0,0,4.7,10.7,3.3,14s-3.2,4,0.2,9s1.4,2.3,3.4,7.7s3,7.3,6.3,11.3s7,3.3,7.7,8.3s0,3.7,3.3,8
	s6.7,5.3,7.7,8.7c1.3,4.4,3,8.7,5,12.8c2.7,5.5,3.3,9.2,8,11.8s7.7,2.3,7.7,6.3v6c0,0,0.7,12.3,5,16.3s10.7,9.7,14.3,15.7
	s3.7,9.6,7,15.6s4,7.4,7.3,10.1c4.5,3.6,9.2,6.9,14,9.9c5,3.1,6.3,2.4,7.3,11.2s3.7,14.2,10,19.2s17,13.4,20.7,21.9s3.7,8.8,6,11.5"
	/>
<path class="st2" d="M1336.3-41.3c0,0,2,1.3,1.7,4.7c-0.3,3.3-5.9,3.3,0,6s5.6,1,7.6,3.7s1.7,4.3,6.7,4.3c3.7-0.1,7.4,0.3,11,1.3
	c3.7,1,6.7,4,11,6.3s3,3,8,2s10,1.3,12.7-1s3.3-2.7,8.3-0.7s5.7,3.7,12.7,4.3s10-1,13.7-2.7s8.3-4.3,12-4s5,2.3,7.7,1s3-4.3,8.7-5.7
	c2.6-0.7,5.3-1.2,8-1.3c0,0,9-5,9.3-8s3.7-2.3,5.7-4s5.3-1.3,9.3,0.7s1,5.3,11.3,5s14.7,0.3,16.3-2.7l0,0"/>
<path class="st2" d="M1657.3-39.7c0,0-1-0.7,0,3c1,3.7,0.7,2.7,0,5.3s1,3.1-3.3,5.6s-4.7,1.4-4.7,4.8s3.7,3.7,0,5s-4,1-4.3,3
	s-0.7,1-2.7,2.8s-4,3.9-2.7,5.5s7.3,8.7,6.3,12.3s-2,1-0.7,6s-1.3,4-1.7,14s-1,23-0.3,27.3s4,6.7,8.7,10.7s7.6-0.3,6,6
	s-2.6,1-1.6,6.3s5.8,4,2.1,7.7s-1.1,3.7-5.8,8s-7,3-7,11.3s4.4,20.3,3.9,25s0.5,10.7,3.1,13.2c1.7,1.6,3.6,2.8,5.7,3.8
	c0,0-7,6-12.7,8.7s-9.7,3.7-12.3,8s-2.7,8.7-7,13s-5,11.3-6.3,13.3s-3.7,1.3-7.7,3.7s-2.3,4-6.7,9s-7.3,7.5-8.7,7.2s-5.3,1.2-9.3,0
	s-9.3-2.6-12.7-1.6s-6.3,0.8-11,2.1s-8.7-2.8-11-4.1s-2-1.3-6-1.3s-6.3-3.3-9.7-3.3s-7,2.7-12.7,2c-5-0.8-10-1-15-0.7
	c-8.7,0.3-10.3-0.7-20,0.3s-9.7-0.7-15.3,1.7s-5.7,5.8-12,4.9s-8.7,0.6-15.3,0s-6-1.9-9.3-2.2s-6.7,2.8-11,2.2s-7.7,1.7-10.7,0.7
	s-4.3-5.7-7-7.3s-5-3-9.3-2.3s-14,5.3-15.3,3.7s-4,1-7.3,2.7s-3,4.2-10.3,2.6s-10.4-2.4-15.7-2.5s-9,0.9-17.3-0.4s-16,0.3-21-5.7
	c-5.4-6.3-12.5-10.9-20.5-13.3c-7.2-2-16.9-9.3-25.2-9s-6.3,1.7-12.7-0.3s-4.5-3.3-11.9-2s-14.4,2.7-17.8,3.7s-5.3,0.7-10.7-0.3
	s-9.3-1.7-14.7-0.3s-7.7,1.7-7.7,1.7"/>
<path class="st2" d="M1709.9-41.3c0,0-2,4.7,0,7.3c2,2.7,1.3,3.3,5.7,6s5.3,2.7,5.3,5.3s-1.7,3.3,0,7.3s2,7.7,4.7,9s5.3,1,3.7,4
	s-3.6,5.3,0.5,7s5.8,5.7,6.8,10.3s3.7,5.3,5.3,12s0.7,7.3,4.7,10.3s5.7,7,12.7,8.3s9.7,0.3,13.3,3s3.3-1.3,6.3,2s11.3,9.3,13,15.7
	s5,11.7,10.3,13.7s10,3.3,12,7.7s2.7,4,9,5.7s11.3,3.3,11.3,3.3"/>
<path class="st2" d="M1874.9-41.3c-1,2.7-4,4.3-4.7,6.7c-0.8,2.9-1.2,5.9-1.3,8.9c0,2.1,2,6.1,0,9.4s-4.7,4.7-3.7,9s1.6,4.7-0.2,7
	s-0.8,4-3.1,6.3s-1.3,1.7-1.3,5.7s-4.3,3-4.3,6.3s1.3,4.3,0,9.7s-3.3,5-4,10.3s1.3,6.3-3.3,12.7s-4.3,5-5,13.3s1.7,10-2.3,17.3
	s-8.7,8-7,21s5,9.3,5,14.7s0.3,4.3,3.3,10s4.7,8.7,2.3,12.7s-5.3,2.7-5.7,7.7s1.7,5.7-0.3,9s-3.3,2.3-4.7,5.3s-4.7,8.3-3,15.3
	s4.7,8.7,3,14.7s-1.6,4.7-3.5,10.7s0.9,8,0,15.3s-0.2,6.3-3.9,12.3c-3.7,6-6.3,8.3-6.3,17.7s5,10.3,0,14s-8.7,6.3-10.7,12
	s-1.7,7.7-1.3,15s3.5,13.7-0.2,20.7s-5.8,11.7-9.4,18.3s-7,12.3-7,18.3v20.3c0,4.3,1,8.3,0,12.3s0.3,5,0,10.3s1.6,9.3-0.4,15.7
	s-3,6.7-2,13.7s3.7,6.7,3.3,12s-2.3,9.3,1.3,22.3s3.3,15.3,6.3,20.3s7,7.3,9.7,15.7c2.7,8.3,0.3,13.3,7.7,19s11.7,7.3,17.7,8.7
	s6.7,1,11,6s12.7,20,16.3,31.7s5,16,6.3,22.3s2.7,9.7,3.7,17.3s6,20.3,6.7,28.7s0.3,5,1.3,12.7s5.3,4.3,1.7,14s-6.7,6.7-2.7,14.7
	s8.7,4,8.7,13.3s1,10.3,0,19s-0.4,3.3,0.4,12.3s3.8,5.3,0,12s-1.4,8.7-4.4,10.7s-4,0.3-4.7,4.3s-0.3,3.7-1.3,7s-0.7,4-3,8
	s1.3,4.7-1.3,6s-3.7-3.3-4.7,3.3s1,7.3-2.3,8.7s-5-0.3-8.7,4.7s-4.3,3.7-4,8.7c0.2,4.6,1.1,9.1,2.7,13.3c1.7,4.3,4,4.7,2.7,10.3
	s-2.7,3-1,9s4.7,6.3,4.3,11s-2,5-1.3,9s1.3,8.3,1.3,8.3"/>
<path class="st2" d="M1891.3,1104c0-5.3,2.3-11.3,0-13.7s-8-9.3-6.7-11.7s-3.7-3-2-9.3s2.7-12.3,2.7-15.3s-4.3-6.3-3-11.7
	s5-42,1.7-43.7s-3-2-6.3-5.7s-4.7-2.7-4.7-6s2.7-7.7,0-10.3s-5.3-6.3-2-9s2.7-5.7,3-9.3s-3-65.7-1.3-72.7s1-23,3-28s2.3-7,0.3-8.3
	s-1.3-2-9-5s-11.7-4-17.7-8s-4.3,0-6-4s-2-8-5.7-11s-8-5.3-8.7-8.3s-2.7-6-6-9.3s-4.3-4.7-3-8s3-5,4.7-10.7s2.7-7.7,8-9.3
	s8-2.7,11.7-1.7s8.5,6.6,11.6,2.8"/>
<path class="st2" d="M1745.9,1104c0,0-1,0.3,0-4.3s3-1,3-7.3s-1.7-7.7,2-11s1.3-5.7,4.7-10s7.3-5,7.3-9.7s-2.7-8,0-10s2.7-2.7,2-7
	s-3.3-3-2.3-5.3s5.3-7,4.3-10s-6-7.3-5-14.7s4.3-8.7,3.7-14.3s-2.3-5.7-2-12.7s1.6-9,3.5-11.3s3.2-2,3.2-6.7s-1-18.7,0-22
	s-2-10.3,0-16.3s4-13,2.7-18s0.2-3,0.4-9s1.4-5.3,0-9.7s-3.1-8-3.1-13.3s-1.3-12.3-4.7-21s-5.7-14.3-5.8-20.3s-2.8-10-5.5-13.3
	s-4-3-2.7-7s3.3-2.7,3.3-8.7s-1.3-7.7,0-12.7s1.3-6.7,1.3-12V781l-1.7-3"/>
<path class="st2" d="M2251.6,1031.7c0,0-26.3,2.3-39.3,1.7s-45.3-1-48-1.7s-2-2-5.7-6.3s-2.3-3.3-10.3-3.3s-93.7-2-101-1.7
	s-16.3-2-21-3.7s-19-10-26.3-10.7s-7.7-1.7-10.7-5s-9-13.7-10-17.7s-3.7-12.3-7.7-12.3s-14-1.3-19.7,0c-7.8,1.7-15.9,1.5-23.7-0.6
	c-8.7-2.4-11.7-4.4-15.7-1.7s-5,0.3-10,4s-2,3.7-7.7,1.7s-11.3-2-14.3,1s-10.3,5.7-15.7,4s-9.7-2-15-0.3s-9.3,1.7-14,0s-4-1.7-6-3.3
	s-2.3-1-6.3,0.3s-6,3-15,0.7s-11.3-4.7-15.3-5s-9,0.7-12,3.7s-12,2.6-14.7,5.7s3.7,3-11,6s-14.3,1.7-22.7,5s-12.7,10.3-20.7,6.3
	s-14.3-3.3-15-8s-1-5.7-5.3-8s-5-1.3-11.3-4s-6-3.7-12.7-3.7s-10-0.3-13-2.3s-5.3,0-12.7,0.3s-8.7,1-18.3-0.3s-11-3.7-13,0.3
	s-3.3,3-4,6s-3,4-6,6.7c-2.2,2.1-4.2,4.5-6,7c-1.3,1.7-0.7,0-6,1.7s-9,1-11,4c-2.2,3.4-4.1,7-5.7,10.7c-1.7,3.7,1,6-3.3,6
	s-3.7,3-9.3,0s-9.7-4-18.3-4.7s-5-2-8.7-0.7s-4.7,4.7-7.7,7.7s-3.3,2.7-3.3,9.3s5,6.7,0,12s-7,5-7,12.3s-0.7,7-3.7,12s-2.3,4-3,10.3
	s-0.3,4.7-3,14s-5,21-5,21"/>
<path class="st2" d="M2049.3,1105.7c0,0-5-3-9-5s-9-3-11-6.3s-3.3-3.3-8.3-3.3s-19.7-1.3-27.3,0s-16.3,2-23.3,1s-16-3.3-21.3-7
	s-13-4-15-8.7s-4.7-8.7-9-10.7s-14-1.3-23,0s-11,0.3-15.3,3.7s-8.3,5-10.8,11.3s-5.2,7-13.8,9.7s-14.3,3-17.7,2s-3.3,1-6.3,5
	s-20.7,11.7-25,10.7"/>
<path class="st2" d="M2251.6,1105.7c0-4.3-0.7-13.5,0-19.4s-0.7-6.9-2-9.6s0.7-7,0-13.3c-0.7-7-0.9-14-0.5-21
	c0.5-7.7,2.5-8.7,2.6-15.3s-0.5-15.3,0-22s-2.4-17.7,0-27.7s0.5-7.7,2.8-13.3s4-10.3,4-18.3v-39c0-8.7-2.3-10.7,1.3-14.3
	s8.7-10,10.7-14s0.3-11.7,0-47s-1-86.3-1-90.7s3.7-11.3-1-16s-5.3-6-4.7-13s1.7-4.7-1.7-9s-8.1-12-13.4-17.7s-6-8.3-10.3-12.3
	l-4.3-4"/>
<path class="st2" d="M2188.3,489.7c0,0,4,8.3,5,13.7s-2,4.7,0,10s5,7,5.3,13.3s4.7,13,7,19.3s7,16.3,7.7,22s4.7,13,7.3,21
	s6.7,31.7,9.3,36.3s4,7.7,4.3,15s0,54,0,60.3s-0.7,5.3-4.3,9s-64,61.5-65.7,63.9s0,4.4-3.7,11.7s-14,28.7-17,36.7s-1.7,11.3-5,15
	s-22.7,16-34.3,24.3s-18.7,13.7-28,13s-8.7,7.7-10.3,10s-8.3,3.7-15.7,7.7s-9.3,6.7-14.7,5.3s-13-0.6-17.3,0.3s-15.7-2.7-18-2.3
	s-11.7,2.7-15.3,2.5s-7.3-3.2-14.3-3.8s-14.3-3-25.7-0.3s-16.3,1.4-16.3,4.2s-4.3,2.8-9.3,2.8h-12.7c-3.3,0-4-2.3-6.3-4.3
	c-3.4-2.7-7.1-5-11-7c-4.3-2.3-7.3-5-12-4.3s-5.7,4-13.7,2.2s-10-2.5-21.7-2.8s-24.7-0.3-28.7-2s-3.3-1.7-7.7-1.3
	c-6.6,0.3-13.2,1.3-19.7,3c-10.7,2.7-13,7-17,0.3s-6.3-7-14-8.7s-14.3-3.3-21-5.3s-6.7-3.3-11.7-2c-5.7,1.7-11.2,3.7-16.7,6
	c-3,1.3-36.3,5.3-44.7,4s-8.3-3-17,0s-18.7,7.3-22.7,8.8s-3.7,1.2-10.3-0.2s-14.7-4.7-18.7-4.3s-6,1.3-11,0s-2.7-3-7.3-3.3
	c-3.8-0.4-7.5-0.6-11.3-0.7c-5.7,0-6.3-2-10.7-6s-14.7-11-17.7-11.3s-5.7-3.7-7.3-6s-4.3-0.3-11.7-0.3s-5,0.7-8.7-2.3s-7-5.3-11-6.3
	s-18-8.3-18.7-10.3s0-2.3-3-5.3s-2.7-1.7-8.3-3.3s-3.3-2-9.3-2s-7.7,1-10-1.7s-9-11.3-15.3-15.3c-5.6-3.5-11.7-6.3-18-8.3
	c-3.7-1-1-1-11.3-1h-28.3c-10,0-9,1-18-0.7s-9-1.7-14.3-6s-8-7.3-9.3-10s-1.3,0-4,0.3c-3.4,0.2-6.8-0.3-10-1.3c-3-1-5.7,0-10.3-1
	s-5,1-9-3s-3.3-3.7-6.7-2s-2.7,3.3-7.3,2s-9,0.3-13.3,3.3s-7,7.3-12,8.7s-4.7,0.7-11.3,2s-2.7,1.3-11,0.3s-10.3-1.7-13.7,1
	s-8.5,4-16.1,2s-6.9,0.3-12.2,1.7s-6,2-11.3,0s-21.3-6.3-25.7-5s-5,3.3-6.3,0.3s-2-1-6.3-0.7c-2.8,0.3-5.5,0.4-8.3,0.3
	c-5.3,0-4-1.3-12,0.3s-6,2.3-10.3,1.7s-12-3.3-17.7-4s-11.7,0.3-19.7,0.3s-15-0.3-18.7-2.3s-1.7-1.3-11-0.7s-14.7,2.3-19.7,1
	c-5-1.3-17.3-8.7-23-10.3s-23-2.7-28-2.7s-11.3,1.3-19-1.7s-20.7-5-23-4.7"/>
<path class="st2" d="M1297.6,1105c0,0-3-5.3-2-10.3s0.7-5.7,2-9.7s3.3-4.7,2.3-9.3s-2.9-6-2.1-9.3s0.5-6.7,0-10.7
	c-0.5-5-0.5-10,0-15c0.5-5.7,0.3-8,2.4-11.7s0.9-12.3,0-16.3s-4.3-5.3-4.8-11.3s3.8-12,3-15.3s-4.1-12.3-5.1-20.3s2.3-16,0-19
	s-4.3-3.7-3.3-6s2.7-7,2.7-9s-2.9-10-2.9-12.7s0.7-2.7,0-6.7s-1.4-4.3-3.1-7.7s-6.3-13.7-5.7-17.3s-3-18.3-6.3-20.7
	s-10.7-9.3-12.3-15.3s-5-11.3-11.3-17.7s-4.7-9.7-6-11.7s-4.7-1.7-7-5.3s-5.7-12-8-15s-8.3-9.3-9-13.3s-8-9.3-11-10.7
	s-8.3-4.3-9-9.3s-0.7-7.7-3.3-10.7s1.7-5.7,2-9.3s-2-6.7-6.3-5.7s-15,2.7-19,1.3s-6.7-0.7-12.3-1.5s-3.7,4.1-8.7,0l-5-4.1"/>
<path class="st2" d="M947.3,1105c0.7-3.3,0.3-10.7,0-14s-2-9.3-5.3-13s-8-4-11-8.3s-2.7-4.7-8.3-7s-20.3-11-22-13.3s-1.7-4-6-5
	s-7,0.3-14.7-2.3s-16.3-7.7-25.3-8s-7.3,0.7-16.3,0s-11.3,3-15.7-1.7s-4.3-7.7-11-8.3s-23,0.7-33.3,0s-13.7-1.7-16.7-2.3
	s-7,1-16.7,0s-16.7,0.3-25-2.7s-9.3-7.7-13.3-6.3s-5.2-1.3-5.9-2.9c-1.7-4.1-3.1-6.8-7.5-7.1s-2.7,1-9.3-3.3
	c-5.6-3.6-11.5-6.7-17.7-9.3c-5.3-2.3-9-5-12-6s-0.7-2.3-9.7,0s-6.3,1.3-18,2.3s-14.3,2-21.3,3.7s-14.3,4-15.3,1s-0.7-3.7-5.3-4.7
	s-8.7-2-11.3-1s-3.7,4-5,7.3s-1,2.3,0,5.7s0.6,1-0.9,5c-1.5,4-2.8,2.3-1.8,6s0,1-0.3,5.7s-1.3,1,1.3,5.7s0,8,2,11.7s2,2,2,8
	s-0.3,8,1,11.7s3.3,1,5,4s1,3.7,2.3,8.7s4,2.7,5,8.7s2.7,9.7-0.3,13.3s-7.3,3.7-9,8.7s-3.7,9.7-3.7,9.7"/>
<path class="st2" d="M169.6,1105c0,0,3.3-5.3,3-10c-0.2-2.4-0.2-4.9,0-7.3c0,0,6.3-5.7,6-11s-3-12.3,1.7-15.7
	c4.7-3.3,8.7-6.7,9-11.7c0.3-5,0-11.7-2.3-13c-2.3-1.3-3.3-3.3-2.3-8s2.7-6,0-10c-2.7-4-2-9-1.3-13.3c0.7-4.3,1.3-11.3,0.7-16.7
	s0.3-13,1.3-20s5-12,2-18s-6-6.3-3-10.3s0.9-3.3,5.1-6s7.2-4,7.9-11c0.7-7-0.3-9.3,0-12c0.2-1.4,0.3-2.9,0.2-4.3c0,0,2.3-6.7,0-11.7
	c-2.3-5,1.9-22.3,1-28.7s1.8-21,1.8-26.7s-2-6,3.3-11c5.3-5,13.5-15.8,19.3-21.7c5.8-5.8,15.3-17.7,15.3-19.7s0.3-2.7,4-6
	c3.7-3.3,6.7-4.3,11-4.3s6.7,1.3,9.7-6s10-11,15-17.3s7.3-6.3,16.7-11.3s11.7-7.3,17.7-10.3c6.2-3.1,12.8-5.2,19.7-6
	c7.7-1,9.3-2.7,16-4.3s8.3-1.3,15.3,0s6,3.7,10.7-1.1s6-3.2,9.7-3.9s6.3-4,7.7-4.7l1.3-0.7"/>
<path class="st2" d="M1608.6,1105c0,0,40-23.7,42.5-25s3-11.9,2.5-15.6s0.3-19.7,0.2-26.7s4.3-14,2.3-21.5s-8.5-19.8-7.5-29.4
	s-1-14.6,3-23.1s10-20.5,10.5-27s2-6.5,3.5-15s0-12.5,0-21s4.8-15.7,0.7-22.3s-6.7-8.7-3.7-14.2s5.7-7.5,5.4-14s-3.6-11,0-16.5
	s6.1-10.5,6.6-21.5s-2-10,3.5-22s7-18,7.5-25s0.5-16,0-19.5s-10-7.5-12.5-10.5s-7-7.5-9-12.5s-10.7-12.5-15.8-17
	s-22.7-17.2-27.2-23.3s-21-16.7-27-16.7s-20.5,3.5-29,5.5s-14,6.8-21.5,7.2s-30,2.7-38.5,3s-13.5,0.2-21.5-3s-3.3-3.2-11.7-3.2
	s-12.3,0.3-19.3-1.8s-5.5-4.2-12.5-4.7s-13,2.3-22.8,4.7s-13.4,3.2-18.1,0c-2.6-1.8-5.6-3.3-8.7-4.2c0,0,13.3,11.8,8.7,17.2
	s-8.7,9.8-11.7,14.5s5.5,8.3,0,12.3s-7,7-7,10s3.5,6.5,3.5,10s6.5,5.3,10.5,5.2s7.8-2.7,12.7,1.8s9.3,7,12.8,12.5s6,4,2.5,9.5
	s-10,10.2-13.5,15.8s-0.2,6.2-1.8,11.2s5.2,10.5,0,16.5s-12.2,11.5-12.2,17.2s5.5,21.8,2,29.2s-3.5,10.5-3.5,19s0,17.7,3.5,25.8
	s0.3,28.2,2.2,33.2s4,6.8,4,14.5v11.7c0,4,3.7,7.3,4,13.8s5.2,6.6,4,12.5s-0.7,18,6.1,18s21.8,2.5,25.8-1s6-4,14-3.5s25.5,4,33,2.5
	s19.6-5.4,18.7-5.8"/>
<path class="st2" d="M1533.3,894.2c-1.8,2-1.2,13-0.7,19s6,22.5,7,27.8s6,22.2,8,26.4s7,10.8,7,15.3s6,20.5,7.5,26.6
	s1,20.8,1.5,26.3s5.5,23.5,8.8,28.7s0.7,11.3,0.2,15.6s0,25,0,25"/>
<path class="st2" d="M1399.3,1106.7c4.8-4,7.8-9,18.1-18s10.8-6.8,16.8-8.7s7.5-6.9,7-15.6s0.1-31.7,0.1-31.7"/>
<path class="st2" d="M1523.4,1032.7c0,0-5.8,7.6-15.3,5s-28.8-2-36.2-2.3s-10.8-0.8-14.8-2.8s-13,3-22.5-3s-9.5-12.5-17.3-13
	s-13.7-2-20.2,0s-14.5,1.5-21.5,1s-26.5-0.5-32.5-2s-11.5,1-21.5,0s-29-0.5-41-0.5s-42-3.8-51-0.1s-17.5,2.1-42.5,2.1
	s-52.5-0.5-57,0s-15.5,3.5-23,4s-17.3-2-28.2-2.5s-14-4.7-16.7-9.3s-1.3-7.7-4-11.7s-2.2-3-3.2-6.5s-6-4.9-6-8.5v-6.5h-58.5
	c0,0,0-8-5-8.8s-8.5-1.2-12,2.3s0.5,5-4.5,6s-5.5-1-15-0.5s-13.5,5-19.5,5s-13-3.5-15.5-4s-8.5,4.6-10.5,6.5s-45.5,0.5-49,0
	s-12.5,4.2-15.5,4.1s-24,2.6-28,0s-1-5.6-3.5-8.1s-11-4.5-17.5-3.5s-11.1,1.5-18.1,3.5s-7.9,5.6-12.9,4s-14,1-19.5,0
	s-14.5-6.5-21-8.5s-16-3.5-23.5-6.8s-9.5-9.9-17-11.1s-12-11.7-19-9.2s-5,6.8-7,13.2s-9.3,7.8-7.6,11.8s-1.6,23.5,0,29.5
	s6.6,7,6.6,15s1,15.6,1.5,21s-7.3,6.5-8.1,15s5.4,7-0.5,14s-12.4,13-12.9,19.5s2.5,20.2,5,21.8"/>
<path class="st2" d="M1079.6,22.5c0,0-9,2.8-14,0s-5.5-3.8-9.5-2.3s-10-1-12.5-4s-2.5-6.5-4.5-6s-5.5,4.6-7,6.8s-4,7.4-6.5,6.8
	c-3.6-0.7-7.4-0.7-11,0c-4.5,0.8-10.5-0.8-15.5,0s-15.5,3.7-22,0.2s-19.5-5.4-24-2.4s-9,8.9-14,12.5s-8,4.9-12.5,10.2
	s-11.5,18.4-11.5,26.4s-1.5,10.8-2.5,21.7s0,10.2,2,17.3s4.5,9.6,4.5,9.6"/>
<path class="st2" d="M1380.1,76.7c0,0-2-3-6.5,0s-4,3-10,3s-8.5-2-11.5-4s-4.5-1.7-9-0.3s-8.5,5.8-12.5,4.3s1.7-4-3.7-4s0.2-2-5.3,0
	s-5,0.5-6.5,0s-7.5,1.4-9,1.4s-3,1.2-5,2.9s-4,7.6-7,5.6s-5.3,0.9-8.2,0s-5.8,0.1-8.3,0.6s-8.1,0-8.1,0s8.1-0.7,11.6,2.2
	s1.7,6.3,4.8,10.3s1.7,4.5,9.7,5.5s9.5,2.5,14,5.2s4-2.2,7,3.8s3.9,10,8.2,14s11.1,8,10.4,9.5s9.4,5.2,13.9,7.9
	c6.5,3.8,13.9,6,21.5,6.1c9,0,23,2,32,12s10,13.5,11.5,21s1,11.5,6,12s6.5,1.4,12.5,2.2s7.8,5.5,8.5,8.3s8,6,12.5,9s10.5,7,12,9.5
	s4,5.5,6,6.5s2.5,5,7.5,4.5s7.5-2.4,10.5,0s4.5,5.5,7.5,5.5s7.5-3,8.5,0s3,5.5,9,5.5s12.5,1,13.5,4.5s1,7.5,5,9s2,1,7.5,3.5
	s6,2,9.5,7.5s5.5,9.5,8.5,9.5s2.5,1.9,8,5.9s6,7.6,6,7.6"/>
<path class="st2" d="M1517.9-41.3v5c0,4.3,2.7,5,6.7,6s7.5,0,10,3s3.5,8,8,8s4,0,6.5,3s2,1,5.5,4s5,2.5,5.5,7.5s1.5,7,0,9
	s-5,3.8-7.5,8.2s-2,7.3-6,9.8s-10.5,6-11.5,9.5s1.5,3-1,8.5s-6,2.9-9,6.2c-2.5,2.9-4.1,6.5-4.5,10.3c-0.5,3.5,0.7,6-2.7,8
	s-9.8,5.7-12.8,9.6s-4.5,2.9-8,4.4s-10,2.5-11.5,7.5s-2.5,9.8-5,10.2s-8.5,2.3-11.5,6.3s-5.5,8-9.5,11.5s-8,5-8.5,13
	s-1.5,10.8-5,14.7s1,14.3,0,22.3s-0.2,14.6-1.4,20s1.4,14-3.6,16.5s-10,6-8.5,10.2c1.8,5.2,2.6,10.7,2.5,16.3c0,7-1.5,8.5,1,13
	s8,9,8.5,15s0,7.5,2.5,13.5s8,14,6.5,21s-4,9-5,14.5s2.5,11-1.5,15s-7.5,13-7.5,18.5s2,12-3.5,15.5s-4.8,10-10.4,12
	s-11.1,6.9-22.6,6.7s-56.5,3.3-59.5,5.3s-9.5,1.5-14,0s-16-3-19.5-2s-24-5.5-28-7.5s-11.3-1.5-15.2-1.5s-24.8,1.5-31.3-1
	s-12-3-21.5-2.5s-27,2-34,7s-6.5,6.1-17.5,8.8s-5,4.1-16.2,7.7s-19.4,13.3-21.8,11.2s-6.9-7.3-10.9-8s-14.5-3.2-17-4.7
	s-7-8.1-7-12.8s-5.5-20.2-8-25s-3.7-8.2-3.1-12.8s-2.9-10.5-7.4-12s-7.4-4.5-10.4-8.5c-3.4-4.3-6.4-8.8-9-13.5
	c-3-5.5-7.5-9.5-7-11.5"/>
<path class="st2" d="M1534.1,40.2c0,0,1-5.5-3-9s-5-4-4-9.5s-0.2-12.7-0.4-14.8s0.4-10.2-3.1-12.2s-9.3-5.5-5.7-12
	c2.3-4.3,3.6-9,3.8-13.8"/>
<path class="st2" d="M1480.2,16.9c0,0,1.4,10.6,4.4,17.2s6.5,9.5,5,19.5s-1.5,13.5-7,18s-2.8,8.7-2.4,16.7s2.8,5.8,4.4,12.3
	s-1.8,8,5.4,14s10.6,8,11.6,15s0.5,7,4,13.5s-1.5,17.5,0,21s15,12.3,15.5,17.2s2.5,6.3,11,9.3s12.2,6.3,16.5,11s12.5,10,16.5,13.5
	s20,11.5,26,15s6,4,13,4h55.7"/>
<path class="st2" d="M1869.5-31.2c0,0-5.4-2.3-8.4,0s-0.5,3.5-6.5,5.4s-7,1.4-10.5,5.1s-4,5.3-9.5,5.3s-8.5-1-11.5,2.5
	s-7,7-7.5,13.5s0,11.6-3,16.3s-0.5,11.7-4,13.2s-19.5,3.9-22.5,4s-6,2-12.5,0s-14.5,0-18.5,0c-5,0.1-9.7,2.2-13,6
	c-4,4.5-7.5,6-12,10.5s-2.5,7.5-6,10s-5.5,6.5-5.5,8.5s1,4-4,6.5s-3.6,8.9-5.6,9.9s-5.7,0.7-8.9,2.7s-5.8,6.4-8.5,8
	s-3.8,3.1-3.8,6.3s1,3.6-1,6.9s-3.2,5.8-3.2,8.6s0.5,3.5-2.8,5.7s-7,3.5-8.5,6.8s-4,6-8.2,8.5s-7,5.3-7.2,12.3
	c-0.1,5.7,1.5,11.2,4.5,16c1.8,2.5,3.2,6.9,1.6,10.7s-2.7,16.2-3.2,22.2s1.5,22-1.5,26.7s2.3,5.3,4,14s-1.3,15.3,1,19.2
	s9,10.8,7.7,18.2s-3,17.7-1,23.3s5,6.3,5,12.7s-1.3,14.7,0,22s13.7,38.3,14.7,42.6s-2,9.3-0.7,21.7s-0.3,17,1.7,24s3.3,7.3,3,11.3
	s-1.7,7.7-1.7,14.3s4,15.3,4.7,19.7s0.7,6,0.7,12s1.7,22.7-2.7,26s-10,15-10.7,17.3s-5,4.3-10.3,8s-4.7,2-6.3,8.7s0.3,7.3-3.7,8.7
	c-2.6,0.9-5.1,2.3-7.3,4"/>
<path class="st2" d="M1939.9-41.3c0.1,2.1-0.6,4.1-2,5.7c-2.3,2.3-2.3,7.8-4.3,9.9s-1.3,5.1,0,10.8s4.4,11,2.5,15.7
	s1.6,11.9-0.8,16.3s-1.2,5.7,0,8.7s5.9,8,4.6,9.7s3.2,5.7,0.2,7.7s-5.1-1.3-7.8,1.3s-6.1,7.7-5.4,13s1.2,6-0.1,11s1.2,6.3,0,11
	s0.1,5.7-4.9,11s-4.3,7.7,0,12.3c4.3,4.7,6,11.3,5.7,19c-0.3,7.5,1,15,3.7,22c2.3,5.7,6.7,4.3,6,10c-0.7,4.7-0.3,9.5,1,14
	c1.3,5.3,6.7,7.7,7,13.7s3.7,15.7,0,22.7s-7.7,21.7-8.3,28.3c-0.7,6.7-0.3,52.3,1,61.8s5.3,14.5,4,20.5s-4.3,9-5,13s2.2,7-1.6,12
	s-8.8,7.3-9.4,12.7s-3.7,22.3-2.7,29.3s2.3,5.3-0.7,13.7s-4.7,12.7-4.2,19.3s-0.5,10-3.2,15.7s2,7.7-3.7,15s-9,11.3-9.7,15
	s-5.3,8.7-6,13s-3.7,6.3-6.3,5.7s-10,0.9-12.7,0.1c-2.4-0.9-4.9-1.2-7.4-1.1c-3.9,0-9.9-1.7-11.9-3.3s-5.3,0-7,0.3s-9.3,4-15,1
	s-7.3,0.7-13-2.3s-8.7-8-11.3-7.3s-8,10.7-13.3,11s-13,0-13.3-2.3s-5.3-4-9-3.3s-6.7,4-10.3,2.3s-11-11.7-15-13s-9-3-13-3
	s-12.3,1-15.7,0s-16.3-5.3-17.3-7.7s-0.7-5.3-4.3-9.3s-6.3-5-6.3-5"/>
<path class="st2" d="M1988.1-19.9c0,0,2.8,5.2,6.5,6.2s8.7,0.3,13.7,1.7s10.3,3.3,16.3,3s10.3-2.3,12,0s5.7,8,11,12s8,7.3,11.7,6.3
	s7.7,0,9.7,0.2s9-1.5,12.3,0c3.3,1.5,4.3,5.2,12,6.8s12.7,4.3,16,8.7s5.8,8,9.2,8.7s4.8,1.7,8.1,4.7s0.7,4.7,0,8
	c-0.7,3.5-1.6,6.9-2.7,10.3c-1.3,4.3-0.2,6-5.4,12.3s-0.2,7.3-2.9,12s-3.7,11-10.7,13.3s-10.7,3.3-13,8.7s0.7,13.3-0.7,14.3
	s-5.3,1-7,2.7s-0.7,5.3-6,10s-7,5.3-7,8s3,4,6.3,6.7s4.7,6.7,7,9.3s1.3,4,2.3,8.7s3.7,5.7,4.3,9.3s-1,10.7-4.3,11.7s-11,2.3-13.3,4
	s-3.3,2-3,5s5.3,9.3,3.7,15s-1,11.7,1.3,18s3.7,3.3,5,9.7c1.3,6.3,3.3,8,3.3,8"/>
<path class="st2" d="M2105.6,308c0,0-1.7-6,0-9.3s1.7-8.3,1.7-13s3.3-12.3-1.2-17.3s-7.1-10.7-7.1-14.7s1.5-8.7,4.7-8.7
	s7.9,0.3,10.6-1.7s7.5-8,7.5-8"/>
<path class="st2" d="M2434.9,117c0,0-4-0.3-6.7,2s-3.3,4-7.3,2.3c-4.3-1.7-8.4-3.8-12.3-6.3c-3.3-2.3-8-2.7-9-7.7s-1-7.7-5-10.7
	s-10-10.3-16-12s-13-2.7-17.3-3.7s-5-3.7-9.7-3s-20,3-24.7,1.7s-15.3,3.3-19.7,1.7s-7.3-4.2-11.3-3.4s-18.7,0.8-22.7-2.6
	s-13.3-4.7-18.3-4.7s-12.7,2-16.7,0s-12.7-3.7-16-7.3s-9.7,0.3-12,2.7s-5.3,6.7-9.3,4.7s-8.7-7.7-12-7s-4.2,2.5-4.2,2.5"/>
<path class="st2" d="M2413.6,117.9c0,0-2,1.7-6.4,9.7s-12,22-13.3,23.3s-12.3,5.3-15.7,8s-17.7,15.7-20,18.3s-7.7,21.3-13.3,26
	s-4.7,1.7-9.3,10s-9.7,20.3-13,22c-1.8,0.8-3.4,2.2-4.3,4"/>
<path class="st2" d="M1310.6,1015.1c0,0,3.3-1.1,10.7-5.8s18.8-8.3,19.5-11s5.1-14,8.5-17s19.3-20.7,25.3-21s15.7-4.7,17.3-8
	s5.7-12.5,10.2-15.4s13.4-4.6,18.1-11.6s5-13.3,7.4-31.2s3-25.2,7.3-32.5s4.5-15.3,6.3-19.3s6.7-7,11.4-9.3s3.3-0.7,3.3-5.3
	s-0.3-5.7,5-8.7s22.7-8.3,24.7-10.3s2.7-2.3,2.7-4.3s3.3-1,14.3-3.7s10.7-3,14-6s11.7-4.5,16.7-7.9s7.3-4.7,7.3-4.7"/>
<path class="st2" d="M1487.6,999c0,0,1.7-8.1,2.3-12.2s-0.3-6.8,0-9.8s-7-15.7-8.7-20.7s-9.7-4.1-9.3-9.5s1.7-7.8,0-11.1
	s-9.3-7.3-9.3-11s-0.7-7.7-3.7-14s-16.5-28.3-17.7-29.7s-1.6-2-5.6-2s-5.3,3-10,0s-19.7-4.7-24-4.7h-8"/>
<path class="st2" d="M1404.9,954.7c0,0-2.3-2,2.3-4.3s16-2.3,23-7s14-11.7,20.7-14.7s19.3-6.3,27-10.3s19-12,22-15s7.3-4.5,15.3-4.8
	s22.3-5.9,25.3-7.6s11.9-7.1,15-10s7-13.7,3.7-22s-13-22-13-25.3s1.3-6.7,0.3-20.3s1.7-23.9-0.7-26.6s-6.7-5.5-6.7-10.8
	s3.3-25.3,3.3-30s-4-5.7-0.7-16.7s8.2-7,11.1-18s9.9-40.7,10.6-42.3s3.7-4,3.3-11.7s0.7-23.7,2.3-28s3.7-4.7,7.3-7s6-1.7,6-7v-36
	c0-6.3-2-12,0-15.7s0.8-5,1.9-9s6.8-9,6.8-13s1-36.3-1.7-41s-2.7-18.6-2.7-21.3s1-3.4,3-6.7s2.4-7,1.5-11.3s-3-4.3,0.4-11
	s7.4-6.7,14.4-8.7s7.3-3,21,0s26,3.7,30.7,6.7s2,2,4.7,3s3.7,0.7,4.7-0.7c1.6-1.7,3.5-3.1,5.7-4c1.7-0.7,9.1-0.7,13-3s7-8.3,9-11
	s8.7-0.7,16.7-10.3s8-9.7,17-14.3s44.3-15.7,47-19.7s1-9,6-11.3s10.3-2,14.7-4.7s7-3.7,10-6.7s15.7-6.3,21.7-12.7s6.7-8.3,16-10.3
	s16.3-2.7,20-7.3s7-6.7,7-12.3s0-5,5.7-10s5.3-5,13-6.3s29.3-3.7,34-4s7.5-6.3,11.8-8.5s6-2.5,11.6-1.2s39.3,12.3,45.3,13.3
	s21.7,5,26.7,7.3s18.3,4.3,36.7,4.3c18.3,0,28,0.7,31.3,0.7s23-13,28.3-16.7s5.6-4.3,13-2.7s14,2,26-4.3s46.7-27.3,51.7-31.7
	c4-3.5,8.5-6.3,13.3-8.3c5-2.3,4.7-1.3,7.7-6.3s9.7-14.8,9.7-14.8"/>
<path class="st2" d="M2355.2,78.2c0,0-0.2,4.8-5.2,9.8s-9,7-11,8.7s-4.3,0.3-6.7,3s-4,9.2-7.3,9.8c-4,0.7-7.7,2.5-10.7,5.2
	c-4,3.3-16.7,18-19.7,20.7s-6.3,2.7-4,6.3s3.7,4.3,3,8s-5.9,7.3-3.8,13.3s9.8,12,3.4,27.3s-7.7,16-8,21s-2.7,29.3-2.7,42.3
	s2,52.7,2.7,60.7s1.7,13.7-4,22.3s-3,25.7,0,34s6.3,19,5.7,22.3s1.3,9,4.3,13s5,8,10.3,10.7s9.7,6,12.3,16.3s6,23.3,8.7,29.3
	s7.3,7.3,7,14s-0.3,10,1.7,17.3c2,7.3,11.7,26.3,13,32s2.7,10,0.7,18.3s-3,14.7-2.7,20.3s-1.3,7.3-2.3,11s-8.7,21.7-9.7,24.7
	s-0.7,6.3-0.3,19s2,47,3,49.7s39,44.7,40.7,48c1,1.9,1.5,3.9,1.7,6"/>
<path class="st2" d="M2435.3,636c0,0-50,26.3-52.7,27.7s-39.7,0-45,0s-10,3.7-13,6.7s-172.3-6-183.3-6s-24,5.6-33.7,6.6
	s-12,1.7-12,1.7"/>
<path class="st2" d="M2049.3,678.7"/>
<path class="st2" d="M2190.9,471c0.8,2.9,1.9,5.7,3.3,8.4c2.3,4.4,1.7,3.6-2.3,7.6c-4,4-8,2-11.7-2.7s-8.7-4.3-11-9.3
	s-6.3-17.3-4-22.7s4.3-5.3,11-5.7s7.7-0.3,10,2s3.7,17.7,4,20.3s1,2.3,6.7,2.3s12.3,2,20.7,4s8.7,0.7,12,4s8.7,4,14,2.6
	s50.3-14.7,54.7-13.3s6.7,1,12-2.3s18-4.3,21.7-6.7s17.7-5.3,23.3-7.3s15-5.7,20-6.3s8,1.3,12,0s17.3-6.3,23.7-9s11.3-3,15.7-8.3
	s7-14,7-14c-0.9-4.9-2.6-9.6-5-14c-4-7-19-24.3-20.7-27.7s-6-17-8.7-20.3s-6.7-7.7-7.3-11.3s-13.7-12.7-18.7-22.3s-16.3-26-20-30.7
	s-33.3-23.3-40.7-28.2s-17.6-14.5-22.7-16.8s-9.6-4-12-11s-3.3-13-7-16.3s-13.3-10.3-15.3-16s-11.7-9.3-14.3-16.3s-14.7-15.3-19-18
	c-4.4-2.7-7.1-7.5-7-12.7c0-5.3,0-9.7-6.7-12.7s-14-6.7-14.3-15.3s0.7-10.9,0-13.3c-1-4.1-1.1-8.3-0.3-12.4c1-4.7-0.7-13-3.3-17
	s-2-7.7-4.3-12s-2-8.7-2.3-10s-4-4.3-7-8s-2.1-6.3-12.4-6.7s-12.3,0.3-20-2.3c-5.3-1.7-10.8-2.5-16.4-2.4"/>
<path class="st2" d="M2141.9,498.7c0,0,15.3,8.7,19.7,11s5.3,2.7,12,0s58.7-16.7,60.7-17s4.6-10,4.6-10"/>
<path class="st2" d="M2150.9,296.6c0,0,10.2,9,13.6,11.4s10,18.7,11.7,25.7s0.3,21.7,0,26.7s2.3,9.7,0.8,19.7s-8.1,22.3-6.5,33.3
	s9.7,33.2,9.7,33.2"/>
<path class="st2" d="M2100.2,247.5c0,0-2,0.2-5.7-1.8s-2.7-3-8-2.3s-5.3-3.3-9-4s-7.3,2-14.7,0s-24.7-6.7-27.7-7s-13.3,0.7-23.7,3
	c-10.3,2.3-11.7,8.3-16.3,8s-92,0.3-96.3,0s-16.8-6.5-29.4-11.1s-13.2-3.6-37.9-3.3s-37.7,3-40.3,5.2c-2.7,2.2-4.7,5.3-16.7,3.9
	s-52-4.4-60.7-4.2s-7.7,1.7-18,4.2s-19.3,7.9-24.7,9.4s-15.3,6.2-24,6.2s-12,1-28,6.5s-28.7,12.8-33.3,13.2s-5,0.7-7.7,7
	s-7.6,18.3-8.8,20.3s-8.5,19.3-13.2,26.3s-15.7,17.7-17.3,23.7s-1.3,17.1-1.3,21.2s-1,4.5-5,7.5s-19,23.3-22.7,32.3
	s-7,13.7-7.3,18.3s-5.3,12-7.7,17s-4.7,20.7-5.3,28s-1.7,18.7,0,25.7s7.7,10.3,8,18s-0.3,17-1.3,30.3s-1,24.8,0.3,31.3s6.7,9,6,14.3
	s-0.7,11,3.7,13s7.7,2.7,11.3,6.7s6,4,9.3,4s6.3,2,12,13s9,8.3,10.3,14.7s-1.3,4,4,9.7s5,1,6.3,7.3s3.2,8.8,3.2,8.8"/>
<path class="st2" d="M1591.3,665.7c0,0,2.3-2.3,4.7-8.3s1.3-7.7,5.7-13.3s15.7-15.3,19.7-17.3s8-4,12.7-10s6.7-6,10.7-15.3
	s6-8,7.7-12.3s4.3-11.7,4-17.3s0-11.3,0-24s2.7-11.3-4-22.3s-16-20.7-17-23.3s-12.7-2-18.3-7.7s-10.7-13.7-15-19.7
	s-28.7-25.7-29.3-30.7s0-9.7,0-18.3s1-10,4-13s2-72.7,2.7-78s2-16.3,1-23.3s-1.3-9.7-4-12c0,0-8.3-15.3-10.7-21.3s-8-12.3-7-17.8
	s4.3-12.8,3.7-19.8s0.4-9-3.8-16.7s-5.6-11.5-5.9-13.8c-0.2-1.2-0.1-2.4,0.3-3.6"/>
<path class="st2" d="M1611.5,99.1c0,0-118.1,0.7-122.8,0s-12.8,2.6-14.8-5.1s-4.7-11-9-11.3c-4.5-0.5-9.1-0.5-13.7,0
	c-4.7,0.7-9.3,2.2-15,2.9s-9.3-0.3-17,2.7s-34.2,7.3-34.2,7.3"/>
<path class="st2" d="M1192,58.2c0,0-4.1,6.4,6.9,9.8s13,4.2,18.7,6.2c5.2,1.8,10.5,2.8,16,3.1c4.7,0.3,1.7,10.2,4.3,8.3s4-2,9-3.3
	s4-2.7,11.3,0s11.3,3.9,11.3,3.9"/>
<path class="st2" d="M1163,55.4c0,0-4,6.9-8.7,9.3s-10.4,3.4-13,5s-4.3,7-7.3,10s-7,6.2-12,5.9s-5.3-0.4-9.3,0s-7-1.6-9.7,2.7
	s-9.5,7.1-10.4,11s-3.6,7.3-10.9,13s-16,20-20.3,24.3s-16.1,12-16.7,17s-5,13-9.3,14.7s-21.7,4-23.7,6.7s-2,6.3-12.7,7.7
	s-3,22-10.7,33.7s-10.3,24-15.7,27.3s-11.1,7-14.7,10.7s-7.5,7.7-12.7,7.3s-16.2,5.3-21.9,10s-5.3,8-9.7,8s-8-0.7-9.7,2.3
	s-6.7,6-11,3.8s-11.7-2.2-13.7-2.2s-9.3-1.7-12.7-5.3s-6.3-6.3-9-6.3c-1.7,0-3.4-0.2-5-0.7"/>
<path class="st2" d="M1236.3,101.7c0,0-5.7,1-8.7,5.3s-6.7,4.7-13.3,4.7s-36-1-38.7,0s-6.3-0.7-8-5s-4.3-3.3-9-5s-8.7-5-10.3-9.3
	s-6.1-8.7-9.5-9.7c-4.3-1.1-8.6-2.6-12.7-4.3c-8.5-3.3-11.8-6.3-17.8-6.1s-20.3,4.6-25,2.1c-5.7-2.9-11.6-5.3-17.7-7.3
	c-1.7-0.3-2-1-9-2.7s-20.7-1-25,0s-1.3,6.7-9.3,7.9c-8,1.1-14,4-21.7,2.1s-13-8.6-20.3-9.9s-23-0.7-30.7-1s-11.3,0.7-17.3-1.7
	s-9.7-0.4-13.2-5"/>
<path class="st2" d="M1022.3,234.7c0,0,7-8,11.3-11s13.3-10.7,23.7-18.3s26-12.7,31.7-15.3s16.7-6,23.3-8.7s16.7-4.7,25-8
	s38.3-7.3,41.7-9s2.3-5.7,7.6-6.2s7.4,4.5,10.8,2.5s10-2.7,16-2s14-5.3,17.2-6s8.1,1.9,8.1,1.9"/>
<path class="st2" d="M1079.6,193.8c0,0,0.6-2.5,3.3,5.5s2.7,12,7.3,18.7s4.3,10,9.3,11.7s12.7-2.3,21,0s29,16,33,20.3s3.2,14,9.4,19
	s7.2,7.7,12.2,10c3,1.4,5.7,3.4,8,5.9"/>
<path class="st2" d="M1101.4,230c0,0-2.4,0.6-1.8,7.3s0.9,17,1.8,25s-0.3,11-1.9,15.7s-0.7,7,2.2,13.7s17.9,36,18.6,39
	s-1.3,14.3,0,20s9.7,19.7,9,26s0,8.7,0,12.7s3.1,4.4,3.1,4.4"/>
<path class="st2" d="M1154,332.8c-2.3-1.9-5.3-2.8-8.2-2.5c-5.2,0.3-7.2,5.3-10.9,5s-14.1-6.7-19.4-5s-10.9,0.4-13.6-0.3
	s-12.7,4.3-15.3,5.3s-7.3-2-10,0s-12.2,3.6-16,2.3s-13-0.7-19.4,0.5s-13.3-3-19-4.1c-5.7-1.1-41-8-47-9.7s-12.7-2.3-21-2.3
	s-18.6,3.6-29.3,1.6s-17.3-4.7-30,2s-29.7,14-34.3,15.3s-6.3,0-16.3,0s-15,0-18.3-3.7s-6.7-4.3-14-4s-13.7,6-18.7,5
	c-6.4-1.2-13-1-19.3,0.7c-8,2-15.3,4.8-26.7,7.9s-13.7,6.8-15,8.4s-9,0.7-15.3,0s-19.3,3.3-25.3,2.3s-10.3-2.7-19-4.7
	s-19-7-23.1-9.3s-4.9-4.3-10.2-7.3s-12.7-7.3-16-7.3s-3.7-0.3-7.7-4.7s-4-9.3-13-13s-14.3-5.3-14-10.3s1.3-15.7,1.3-18.3
	s-9.3-8-7-21.7s6.3-41.7,6.3-43.7s-3.7-5.7-2-10.7s0.3-7.3-2.3-11s-6.3-8.7-4.3-12.7s7-7.3,5.3-14.7s-3.7-29.3-4-31.3
	s-9.3-8.3-13.3-12.3s-2.7-4-5.3-9s-8-10-11.3-13.7s-13.3-14.7-13.3-20.7s4-12-2.3-18.3s-5.8-9.5-5.9-11.3"/>
<path class="st2" d="M491.4,12.6c0,0-7.8,7.1-10.8,8.1s-3,5.7-4,9.7s-5.7,7.7-12.3,14s-10,6.3-10,17s4.3,17.3,4,22.7s3,7.7,4.7,15
	s1.3,9.3,1,15.7s-1.3,5.7,0.7,22s3.7,20,0.7,21.7s-5.3,3.7-3,9.3s7.7,11.3,5.7,15.7s0.3,9.3,1.3,12.3s-1,5.7-3.7,13
	s-1.7,10.3-5,12.7s-3.7,2.3-4.7,6.3s-5.7,5-8,6.3c-2.3,1.3-4.3,4.3-2.3,9.7s1.7,6-2.3,8.3s-5,4-5.3,8.7s2,4.3,4.7,9.7s1.7,9,4,13
	s3.3,5.3,3.3,9s0.7,5,1.7,7.7s0.7,3-0.3,8s-1.7,5,1.7,8.7s6.1,2.7,11.7,7.7s9.3,6.3,8.6,12.3s-6.7,16-7,19.3s-2.4,11.1,1.3,15.9
	c3.2,4.3,5.5,9,7,14.1c1.3,4.3,3,5,11.7,10.7s14,8,14,10.7s0.7,5.3,5.3,11.3s5,11,9.3,13.7s5.7,9.7,11.3,14s5,4.3,11,5
	s20.7,2.7,25.7,4.7s10,3.7,14.3,9.7s12,19.3,35,16s34-6.3,40.7-5.3s5.7,0.7,12-1.3s8,0,13-1.7s25-6.7,30.3-10s11.7-4.3,18-8.7
	s8.7-5.7,12.7-5s9.7,6.3,15.3,5.7s8.3-4,14.3-6.7s15.7-1.7,21-3s10.7-6.3,17-6.7s5.3-0.7,11.7,0.7l6.3,1.3c0,0-2.7,2.7,0,5.3
	s5.7,4.7,8.7,3s4-4,3.3-7.7s-1-6-5-5.7s-4.3-2-5,0.3c-0.5,1.7-1.3,3.2-2.3,4.7"/>
<path class="st2" d="M826.6,436.3c0,0-3-2-4.7-8s1-14,0-16.7s-4.7-4.3-9.3-7.3s-10.7-5.3-12.7-15.7s-4-15.9-3-16.8s2.3-2.2,2.3-7.5
	s-0.9-13.7-2.6-16.7s-1.9-11,0-15.3s5.6-18.7,3.6-22.3s-6.3-13.7-8.3-18s-3-20.3-3-25.7s-2-6.3-5.7-10s-4.3-3-4-6
	c0.3-4.2,0.2-8.5-0.1-12.7c-0.3-3,2.1-4.7,7.4-10s12.9-15,16.3-19.3s4.4-7,7.7-7.3s7,0.4,11.7-3.1s7.7-1.6,12.7-4.4s11-5.1,16.3-5.1
	s8-1.3,14.7-4s10.3-4.7,15.3-9.3s6-8,11.3-8.7s33.7,4.9,39.7,4.6s6.7,2.4,14.3,6.4s5.6,1.7,11.3,4s13.4-4,13.4-4
	c-1.6,2.8-1.6,6.2,0,9c2.7,4.7,2.3,6.7,6,9.3s4.7,3.3,11,6.3s6.7,3.8,11.7,8.9s25.7,24.6,30.3,36.5s8,13.9,11,17.9
	c3.3,4.4,5.3,9.8,5.7,15.3c0.3,6-5.3,11.3-6.7,18.7s-2.3,7.4-4.3,12.5s-1.3,7.5-2.7,12.5s-0.7,7.7-3.7,14.3s-11.7,20-10.3,24.7
	s2.3,9-2.7,15.7s-9.9,13.3-8.8,21.3s-5.2,22.3-7.5,29s-3.7,20-6,30.3s-3,12.7-5.7,16.3s-2.7,5.3-2.7,5.3"/>
<path class="st2" d="M1025.5,239.2c0,0-3.3,4.6-3.3,8.2s-2.7,3.9-7.3,7.6s-9.7,12-16.3,15.3s-9.3,5.7-11,11.3s-7.7,4.3-12.3,8
	s-5.7,13-9.7,15.7s-4-0.9-6,6.5s-6.3,17.5-11.3,23.1s-7,12.2-11.7,11.9s-3.7,1.1-7.7,7.4s-6,13.4-10,17.5
	c-6.8,6.8-14.4,12.6-22.7,17.5c-9,5-13,8-21,12.7s-8.3,7.3-10.3,13.7"/>
<path class="st2" d="M1001.8,268.3c0,0-8.5-1.3-10.5-6.9s0.3-10.2-2-13.9s-12.2-9.3-12.2-9.3"/>
<path class="st2" d="M925.9,375.3c0,0,0.7-1.3,6.7-1.3s20.2-2.7,25.3,1.3c6.2,5.1,13.9,8.1,22,8.3c10,0.3,22.9-0.6,27.9,0
	s6.7,6,17.7,5.7c11-0.3,23.7-0.3,32.7,2s8,2,13,0s6.3,1,14.7-2s8.8-6.3,8.8-6.3"/>
<path class="st2" d="M1001.8,425.2c0,0,4,3.5,8.5,7.8s4.9,4.7,13.6,5.7c8.7,1,9.7,1.3,15.3,6.7s11.7,8.7,16.3,10s13,7.3,15.3,13.3
	s14.5,9.7,20.2,13.5s12.4,6.8,18.1,11.8c5.7,5,8,7.7,13.3,10.7s14,7.3,20.3,16s11.3,12.7,13,20s5,22,10.3,25s10,1.7,12.7,7.7
	s9.3,11.4,14.7,21.3s16.7,8.7,25,18.3s10.7,12.7,15.7,15.7s5,2.2,6,8.1s6.7,12.2,10,14.2s-0.3,3,3.7,8.7s9.7,12.5,12.3,12.1"/>
<path class="st2" d="M1168.1,626.7c0,0,4.7,1.3,5.3-2.9s6.9-7.2,7.2-12.5s-2-9,0-13.7s2.7-4.7,2-9s-3.3-14.3-2-18s3.8-6,2.2-10.3
	s-6.2-11.7-3.6-16.3s7.2-8.7,11.9-9.3s8.7-2.3,11.1-5.7c2.1-3.3,4.9-6,8.3-8c4.7-3,11-3.7,11.3-8s1.7-8.3,6-13s9.7-6,9.7-10.3
	c-0.1-2.9-0.8-5.7-2-8.3"/>
<path class="st2" d="M1325.3,427.3c0,0-6.3,3.3-12,4c-5,0.6-9.7,2.9-13.3,6.3c-2.7,2.7-8.7,1.7-14.7,3.3s-12.5,1-15.7,4
	s-2.3,6.7-7.3,10.3s-10,8.3-14,11.3s-6.7,8-8.7,11.7s-3,2.7-8.7,3s-11-2-13-3.7s-15.6-6.3-20.7-9s-9.6-3-12-4s-0.7-1.7-7.7,3
	s-9.7,4-11.3,11.3s0.3,8.3-5,10.7c-5.3,2.3-10,2.7-15.7,5.7s-9.9,7.7-14.1,7s-13.9-3.9-17.9,0.1s-11.1,6.3-14.9,6.3
	s-26.8,7.3-30.8,9.3s-5,1.7-12.7,2.3s-9.7,3.3-19.7,3s-20.2,0.3-25.3-2.3c-2.5-1.2-4.9-2.7-7.1-4.3"/>
<path class="st2" d="M993.6,519.9c0,0-7.3-5-8.3-9.6s-4.7-5-12-6.3s-15.7-2.7-21.3-6s-11,4-17.3,2s-9.7-6.3-13-8s-9.7-2-17.3-2.3
	s-18.3-3.7-23.7-10s-4.7-11.3-13.3-16.7s-3.7-6-13.7-8s-15.6-3.1-16.8-5.3l-1.2-2.3"/>
<path class="st2" d="M1340.7,279.2c3.2,5.5,8.1,9.9,13.9,12.4c10,4.5,15.5,3,20.5,9s17.5,18,22,26.8s3.5,13.8,7.2,19.5
	s17.7,10.8,16.7,18.2s-1,10.8,4.5,17.9s14.6,8,16.3,14.3s2.2,11.8,9.7,18.3s15.5,5.8,23.5,11.7s6.2,8,13.6,8.7h12"/>
<path class="st2" d="M1421.1,374.8c0,0,0.5,0.6-3.5,8.2s-4,12.6-4,17.6s-9.5,14-9.2,19s3.8,6.5,4.2,13s-0.5,10,1.5,14.8
	s8.5,13.2,11,18.2s3.5,7.9,2,9.7s3,10.8,13.5,14.3s16,6.5,21.5,11.5s15.7,15.1,21.1,18.8s10.9,3.6,28.4,3.4s17.5,4.3,25,5.8
	s10.5,3,24.5,10s25.5,14,37,15.5s16,4,23,6s5.5,1.5,10,8s11.2,25.7,14.2,32.7s17.3,23.7,22.7,30s13.3,21.7,15.7,30s1.7,10.3,4.3,14
	s0,8,0,8"/>
<path class="st2" d="M1652.3,603.1c0,0,6.7-0.8,11-4.8s7.3-7.3,12.7-10.3s8.4-2.3,9.2-11s-0.8-10.7,8.5-14.7s13.3-5,17.7-9.7
	s4.7-3.7,10.3-11.3s3.3-12.6,8.3-18s9.1-3.7,15.6-7.7s9.4-3.7,12.1-8.7s2.2-7.7,2.2-7.7"/>
<path class="st2" d="M1774.1,569.3c0,0-7.5-0.7-9.5-7.3s-11-13.7-13.7-21s-10.3-12.3-14-14.7s-7-10.7-9.7-17s-5-15.7-9.3-19.7
	s-10.2,0.6-15.3,0s-11.2-0.3-16.6-4.7s-9.7-7.6-14-5.6s-6.7,6.3-13.3,2s-5.7-8-10.3-8s-1.3,1-11.7-3.7s-8.3-8.7-18.7-9.7
	s-14-5.2-17-9.8s0-7.6-4.3-9.9s-18.7,3-28.3,0s-17.4-5.7-23.5-6s-13.8,1-22.5,0s-12,0.3-14.7-1.7c-1.8-1.5-3.3-3.3-4.5-5.3"/>
<path class="st2" d="M1780.6,355.7c0,0-3.7,2.7-2,9.3s5.3,8.7,4.3,14.7s-3.7,15.3-3.7,18s-13,33-15,36.4s-3.1,8.8-1.4,16.2
	s4.2,4.9,2,13.4s-1.8,10-2.9,15.7s-4.9,23.6,0.8,31s9.4,4.7,8.6,13s1.5,16.6,0,25.6s3.4,18,2.6,25s1.9,9.7,5.5,16.3s2.7,4.3,3.5,9.3
	c0.4,2.6,1.2,5.2,2.6,7.5"/>
<path class="st2" d="M1778.6,611.3c0,0-0.3,7.3,2,12.5s0,12.5,0,18.5s-3.7,8.3-2,16.7s3.8,11.3,3.1,19.7s1,11.3,5.6,14.7
	s13.3,7,13.3,12.7s-1.7,12,1.7,15s7,2.3,7.7,6.3s0,6,3.3,8.3s6.2,2.7,6.1,7.3s-2.8,10,2.6,14.3s8.3,0.3,10.3,7s3,10.5,3,10.5"/>
<path class="st2" d="M1819.9,795.7c0,0-8.7-4.3-13.2-8s-8.7-2.7-12.3-1.7s-9.2-0.8-15.2-0.9s-16,4.1-19.5,0s-5.8-5.1-7.8-13.4
	s-0.3-14-2.3-17.3s-8-12.7-9.7-19.3s-2-13-6.7-22.3s-7.3-9.7-13-10s-11.8-2-14.2-6s-7.4-7.3-12.4-11s-10.7-3.7-12,0s-1.7,8-1.7,13.3
	s-1.3,12.3-5.3,15.7s-11,11-11.7,14.7s-10.3,35.7-10.7,41.3s-5.3,16-8.3,25s-0.3,7-2.3,16.3s-8.3,22.7-10,27.3s-5.7,4.3-20,9
	s-41.7,14.4-45.7,20.2s-3.3,10.1-3.3,10.1"/>
<path class="st2" d="M1621.1,682.3c2-2.4,4.6-4.4,7.5-5.7c4.3-1.7,63.7-2.3,71.3-2.3s14,5.3,19,4.3s16.3,0.3,28.7-0.3s18.7-3,39.7-4
	s31.7-0.7,39-1.7s12.7,1.9,23-0.9s38-3.1,47.3-3.1s23,3.9,30.3,3.1s22.3,0.5,31.3,3.7s8.3,4.2,21.7,3.2s19.7,2.3,34,1.7s28-6,41-7.7
	s33.3-8.7,33.3-8.7"/>
<path class="st2" d="M2110.9,630.3c2.8-2,6-3.3,9.3-4c6-1.3,5.7,3,17.3,0s44-24.2,50.7-32.1s13.3-14.3,18.3-17.6s10.3,2,23-12
	s10-16.3,21-21s21.7-7.3,25-14.7s9.7-15.3,14.7-22s10.3-20.4,13.3-24.4s10.3-6.6,14-9.6s15.1-6.3,16.7-10.7s5-17,4.3-22.7
	s0-10-2.3-14.7s-3.3-3-2.3-14.3s-3-15.3-3.3-17.7c-0.4-2-1.2-3.9-2.1-5.7"/>
<path class="st2" d="M2091.9,316.6c0,0-0.4,56.7,0,61.4s17.6,59.3,18.5,66s11,47.7,11.4,54.3s0.7,14.7,6.4,37s10.7,36.7,11.7,39.7
	s-41,79.3-43,84.3s-0.3,17.7-6.7,31.3s-18.7,40.3-21,44.3s-2.3,13-2.3,25.7s-3,13.3-2.7,17.3s4.7,9,4,24.7s-1.7,24.3,0,31
	s8.3,4.7,8,15.7s-5.2,21.4-2.6,23.2"/>
<path class="st2" d="M2093.3,877.3c-1.8,2.6-4.5,4.4-7.7,5c-5.3,1-16.7,5.7-19.7,2s-3.3-3-3.1-10s-1.5-9.7,3.1-12s12.7-0.3,18,0
	s5.3,8.3,8,13.3s2.3-2,10.2-1.3s105.5,5.7,115.8,6.3s29.3,23,35,27.7s11,5.3,21.4,7.7s8,4,14.7,4s16.7,1,24.7,0s123-5.3,123-5.3"/>
<path class="st2" d="M2165.6,1105c0,0-1.3-44,0-55.3s-4.7-36,0-40.3s7.3-25.7,6.7-37.7s-1.8-57.3,0.1-64s13.2-8.7,11.9-33.3
	s2-31.3-4-36s-12-5.3-11.3-13.3s3.3-16,0.7-22s-8.9-26.7-9.8-34s-13.6-24-23.6-38s-20-33.3-25.3-41.3s-20.7-24.7-30.7-35.3
	s-54-59.3-62.7-61.3s-6.9-6.3-10.7-16s-7.3-18.4-7.3-28.5s-2-16.6-7.3-19.4s-5.3,0.6-6.7-5.7s-0.7-9.9-5.3-11.8s-8.7,1.8-9.3-2.7
	s-13.3-17.8-20.7-19.2s-13.3-8-21.3-14.3s-7.3-5.7-14-9s-17.9-5.3-22.6-10.7s-20.9-7.3-22.8-14.7s-9.8-19.3-14.8-20.3
	s-7.1,2.5-10.6-3.5s-5.1-6.5-8.8-9.5s-10.7-4.5-11.2-7s1.7-4.4-4.2-7.7s-11.8-3-17.3-9.9s-12.1-10.4-13.1-15.4s-9-16.5-15.5-17
	s-14.5-1-18,0s-8.5,0-16.5-3.8s-10.5-0.2-16-4.8s-14-20-20-23.5s-9.5-1.6-17-2s-12-6-20-2.5s-25.1,6.5-28,4.5s-36-2.3-47.5-10.7
	s-27.5-11.3-33-6.8s-8.7,15.5-13.4,18s-6.5-0.2-10.8-0.2s-27,0.7-30.8,2.7s-7.2,7-10.5,4s-12.3-6.7-20.3-9.3s-12.3-6.3-19.3-8
	s-6.3-2-17,1.3s-15.3,6-21.7,5.7s-11,1.3-17.2,0.7c-4.2-0.6-8.3-2.1-12-4.3"/>
<path class="st2" d="M1254.3,289.2c0,0,3.7-7.3,4-9.9s0.3-8-2-11s0.7-4.9,2.2-8.1s3.8-15.2,4.5-18.8s2.3-10.3-2.3-17.3
	s-2-9.8-6.3-14.1s-19.8-12-19.8-12"/>
<path class="st2" d="M1189,303.6c2.4,3.5,5.1,6.7,8.1,9.7c4.5,4.3,6,4.6,9.3,10.5s4.8,9.5,13.4,10.5s9.4,3.3,14.8,9
	s10.1,5.8,11.1,14.5s2.7,12.5,6.3,19.2s21.3,19.7,23.3,24.7s9,5.7,16.7,9s15.3,9,24,12s13.7,5.7,18,9s0.4,8.7,6.9,13.3
	s14.1,5,16.8,10s6.3,7.7,12.3,8s10.7-4,18.3-1.7s24,9.3,24,9.3s11.3,5.7,16,4.7s5.3-4,10-5s7,2,11.7-2s0.3-6.7,9.3-11
	s16.4-6.7,22.4-12.3s7.2-3.3,7.1-9"/>
<path class="st2" d="M1589.4,462.2c0,0-1.8,6.5-6.8,8.1s-6.7,1-8.7,3.7s-10,14.3-15.3,19.3c-5.3,5-9.7,2-11,6s3.7,10,0,13.7
	s-6,3-8.3,8.7s0.7,13.3-6,17.7s-11.3,15-17.7,18.7s-9.3,4-9,11.3s2.3,17,0,20s-22.6,17.7-24.6,20s-1,14.3,0,23.3s5,22,5,30.3
	s-1.7,20.3,0,25.7s5,9.4,11,13.4s9,8,9,13s-2.7,1.3,2.3,13s5.3,12.7,12,16.7s20.1,12.7,20.1,12.7"/>
<path class="st2" d="M1476.3,675.2c0,0,1,3.4-1.7,4.1s-1,1-2.7,4s-2,7-4.3,7.7s-3.7,0.3-4,4.2s-3.7,4.6-6.7,5.7s-5.7,2.1-5.7,4.5
	c0,2.2-0.7,4.3-2,6c-1.3,2-8.4,9.7-7.4,12s-3,5-3,6.3s1,6.7-2,8.7s-5,2.7-5.3,6.7s-1,6.3-2.3,8.3s-5.7,8.3-9,9.3s-11.5,2.7-15.9,6.3
	s-4.8,5.6-12.4,5.8s-27.7,1.2-30,3.2s-12.4,1.7-15.2,5.3s-4.3,3.1-9.1,6.2s-4.1,7.8-12.4,13.5s-5-1-8.3,5.7s1,12.3-3.7,18.7
	s-4.7,7.7-4.7,13.3s1.7,9.7-3,11.7s-4.3-0.7-7.7,3.3s-3.7,7.7-8,7.7s-3.3-3.3-9.3,0s-7.7,8.3-12,11s-10.7,6.3-13.3,11
	s-3.3,13-8.7,11.7s-7.7-2.3-13.3,0s-9.7,5.7-15,6c-2.4,0.2-4.9,0.2-7.3,0"/>
<path class="st2" d="M1206.4,1105c0,0-0.2-23.3,0-26s-3.8-5-3.8-9.3c0-2.3,0.3-33.8,0-35c-0.7-2.7-2.3-2.2-3.3-7.3s0-7.4,0-7.4
	l-0.4-2.7"/>
<path class="st2" d="M1202.7,1050c0,0-1.1-1,5.2,0s11.7,1,16.7,1.3s13.3,2.3,17,5.3s4,3.9,15,4.5s19.7,0.1,23,0s5.3,2.5,7,4.2
	s13.7-0.3,16.7,0s102.2-0.9,114.1-0.9s23.8,0,23.8,0"/>
<path class="st2" d="M1441.2,1072c3,0.2,6.1,0.2,9.1,0c5.7-0.3,24.7,0.3,30.5,0s17.8,0.1,24.5-0.1s22.3,0.2,24.7,0s2,0.5,2.1,8.1
	s0.5,30.3,0.5,30.3"/>
<path class="st2" d="M1304.6,1106.7c0.4-2.7,0.4-5.3,0-8c-0.7-3.3-8,1.3-11.3-2s-7.3-11.7-14-12.3s-75,0.7-78.3,0s-4,11.3-18.3,12.7
	s-32.3,13.3-32.3,13.3"/>
<path class="st2" d="M760.9,1105c2-2.2,2-5.5,0-7.8c-3.3-4.2-4.4-5.6,1.5-8.6s15.8-4.3,18.5-11.3s7.7-8.3,8.7-11.3s0-0.4,3.7-4.9
	s10-7.1,16.7-9.8s5.8,1.8,12.7-7.5l6.9-9.3"/>
<path class="st2" d="M985.9,1105c0,0,0.7-1,0-4.3s5.7-4,4.7-12.7s-3.3-55.2-2.3-60.6s0-4.2-4.4-10.1s-5.7-6.9-5-11.9
	c0.7-3.7,0.6-7.6-0.2-11.3c-0.8-4.3-0.8-8.7,0-13c0.8-5-5.2-11.3-5.2-11.3"/>
<path class="st2" d="M910.3,1105c0,0-3.7-6,0-12s8.7-5.7,10.7-11.3s9-10,11.7-17.7s9.3-14.3,13.3-22s6.3-9.3,7.7-19s1-10,7-17.7
	c5.5-6.9,11.4-13.4,17.6-19.7c3.7-3.7,7.4-1.7,7.1-7.7s-0.5-11.7,5.4-17.7s13.6-8.3,18.2-18.7s5-11,3.3-18s-2-10.3,3-14
	s15.3-12.7,15.3-12.7"/>
<path class="st2" d="M1420.7,474.2c0,0-4.1,1.6-3.3,8s3.2,9.8,0,16.1s-4.2,16.9-4.2,21.6s6.6,10.2,2.8,15.7s-5.3,11.4-2.8,18.4
	s3.6,14.7,2.8,19.1s-1.8,12.4-4,16.4s2.1,9.8-0.6,15.7s-1.8,12.7-4,18.5s-3.3,16.3-8,23.3s-3.7,23.3-16.2,26.2s-31,6.7-32,10
	s-6,4.8-12.2,5.3s-25.2,8.6-28.2,4.3s-2-6.4-9.2-6.6s-9.8-0.1-17.8-3.4s-14-5.4-19.5-4.6c-3.2,0.5-6.5-0.7-8.7-3.1"/>
<path class="st2" d="M1286.6,535.7c0,0,9.5,1,14.8,0s11.2-2.5,19.7,3.5s13.5,6.1,17.8,9.3s6.4,15.7,4.8,18.7s0.8,13.5-2.9,19.7
	s-7.2,9.2-7.2,16.2s1,12.1-1.5,18.6s-5.2,19-6.8,26s2.3,9.7,2.3,15.3s-6.4,8.7-2.3,18.3s0.7,16.8,0,19.5s-4.2,13.8-5.7,22.3
	s-7.4,20.5-3.2,28s-0.3,15,5.7,21.5s9.5,9.7,9.5,9.7s-0.5,9.3,3.5,16.8s13.3,18.5,11.6,23.8s-6.2,15.2-5.9,22.2s2.5,58.5,2.9,67
	s-2.9,25.3,0,26.6s2.1,14.7,3.2,21.5s2.3,21,2.3,21"/>
<path class="st2" d="M1417.3,482.2c0,0-9.2-0.5-13,1.5s-2.7,4.5-10.7,9.5s-5,10.2-8.5,13.9s-3,4.6-8.5,7.6s-5,10.4-9,14.4
	s-8.5,18.7-15.5,19.4c-6.4,0.5-12.3,3.4-16.5,8.2c-4,4.5-4,7.8-6.5,12.7s-4.8,4.3-10.2,6.8s-18.3,8.8-20.8,11.6s-5.5,4-9.5,5.2
	s-15,7-16.5,8.3s-12.3,3.2-16.7,4s-16.8,9.8-21.8,14.3s-8.6,4-8.8,10.5s-3.7,10-7.7,13.5s-8,7.5-14.3,10s-8.4,6.8-8.4,6.8"/>
<path class="st2" d="M1322.5,505.5c-0.7,3.2-0.7,6.5,0,9.7c1.1,5.5,3.1,6.4,8.6,13.9s7.9,7.6,9.7,12.6c1.1,2.9,1,6.1-0.1,9"/>
<path class="st2" d="M1084,543.5c0,0-9.4,1.9-12.9,0s-21.6,11.1-26.5,15.1s-20.7,28-25.3,28.2s-9.3-1.2-16,3.8s-28,38.7-30,40
	s-7.3,4.7-11.3,10c-3.2,4.5-5.2,9.8-5.7,15.3c-0.3,3.7,5,7.3,3,14.3s-4.7,14.3-9.3,16s-12.7,10.4-15.4,14.5s-6,17.5-8,21.8
	s-0.2,24.8,0,30.7s2.2,11.3-0.9,16.7s-3.7,7-3.1,15.3s3.2,21.7-0.2,29.7s-2.1,12.3-5.4,15.7s-6.3,6-10.7,6s-9.3-4.7-11.3,0
	s-2.7,3.3-3,13.3s-0.7,10.7-2.7,16.3s-1.7,13.9-1.7,13.9"/>
<path class="st2" d="M942.3,881.3c1.6-6.4,4.1-12.6,7.3-18.3c5-8.3,6.7-10,9.7-13.3s7.7-7.3,10.3-7.7s6.3,0,10.7-3.7
	s5.7-15.3,15.7-21.3s17-11.3,20.3-13.3c1.8-1.1,3.7-2.1,5.7-3"/>
<path class="st2" d="M1011.3,915.3c0,0-6.9-7.7-9.5-10.7s-8.7-9.7-11.1-11.7s-4.7-3.5-4.9-12.8s-2.5-20.6-2.2-23.6
	c0.2-1.6,0.6-3.2,1-4.8c0.8-2.7,1.2-5.5,1.2-8.2c-0.2-4.3,2.9-25.3,0-28.3s-4.5-13.3-5.5-18s-5.3-9.7-3.7-14s4.7-9.7,7-15
	s-5.3-3.7,2.2-13s1.5-14.7,8-15s16.2-0.7,21.2-5.3s8.3-6.7,11.3-11.7c3-5,3.8-7.1,6.8-11.5c1.8-2.8,3.2-5.9,4.2-9.1"/>
<path class="st2" d="M14.3,1100.7c0,0-1.3-5,5-9.7s10-11,15-11.3s6.3,4,11.7,0s8.7-14.7,12.7-15.7s8.3-5.3,13-7.3s6-5.3,9-11.7
	s4-11.3,6.3-12.7s1.7-2.3,4.3-4s5.7-3,8-6.7c1.2-1.9,2.5-3.7,4-5.3c0,0-2-7.3-1.7-11s-3.7-7.7,1.7-9.3s7.7-3.7,8-9s0-18.7,0-22
	s-2.3-12.3-2.3-17c0-5.2-1.5-10.3-4.3-14.7c-3-4.3-3-14.3-3-14.3s3.7-11.7,7.7-17.7s7-6,7-13.7s0-6,0.7-10.7s-1.3-8.7-3.7-14.7
	s-6-11.7-6.7-17s4-14.7-1.7-17.3s-11.7,0.3-14.3-2s-6.7-2.7-6-7.3s3-18.3,3.7-22s-2.7-9.7-1.3-11.3s2.3-7.3,4.7-9.3s15-0.7,15-2
	s-0.3-5.7-4.7-6.3s-6.7-3-7.7-8s-2.7-19.3-7.3-30S79.3,713,75.3,714"/>
<path class="st2" d="M-15.4,865.3c0,0,6.3-3,7-7s3.3-18.7,6-24.3s3.7-7.7,4.3-15s-5.7-14.3,0-22.3s6.7-15,7.3-19.7s0-9.3,3-14.7
	s5-13.3,8.7-16.3s12-11.3,13-17.7s3.3-11.3,9-17S53.3,707,55.6,700s6.7-14,6.3-18.7s-2-8.7-2-13s-4.3-3-3.3-11s3.3-9.7,2-16
	c-1.3-7.6-1.9-15.3-1.7-23c0.3-4-5-15.3-2.3-20s5-7.7,4-15.3s2.3-9.7-0.3-13.7s-10.3-15.3-9.3-18.7s-1-5-2.7-11.5s-4-12.2-3.3-15.5
	s-0.3-3.7-4.7-10s-4.7-4.3-4.7-12.3s2-36.3,1.3-37.3s-6.7,1-10.3-3.7s-2.3,4-6.7-9S6.3,430.7,8.6,427s6.3-2,2.3-9s-10-12.7-13.3-16
	s-11-4.7-13-6"/>
<path class="st2" d="M-9.4,158.7c0,0-2.3,5.7-2.3,7.9s1,3.5,7.3,8.8s-3,13,0,17s9.7,2.3,14.3,3.3S23.6,205,24.6,208s16.3,26,17.3,32
	c1,6,3.7,8,8,11.7s10.7,7,20,8.7s12.3,2.7,17,6.3s3.7,7,11.7,7.7s17,4,18.3,9.3s2.3,11,6.7,14.7s9,2.3,12.3,0
	c3.3-2.3,6.3-7.7,15.3-3.7c7.7,3.3,14.6,8.2,20.3,14.3c5,5.3,9.7,18.7,14.3,22.3s4.7,5.7,10,5.3c5.3-0.3,6.7-4.3,11.3-4.7
	s13,2,19.7,0c6.7-2,15-4.3,20.7-5.7s9.3,2.3,15.3-1.7s6.3-5.7,12-6s6.7,0.3,11.3-2.3s5-3.7,11.3-4s11.7-1,18.3-3.7s4.3-4.3,14.7-5.7
	s17.3-1,18.3-2.3s4.3-1.7,11.3-2s11.7,4.7,15,1.7s5-6.7,10.3-10.7s10.7-7.7,16.7-7.7s13.7-1.3,16-4.3s6-4.3,10.7-7.3s8-6.3,13-6.7
	s14.7-4.7,23-5.7s6.7,0.7,17.3-3s10.7-5.6,13.3-7.3s5.3-8.4,16.7-4.7c11.3,3.7,11.7,6,15,11.3s-2.3,3.3,7.3,11s12.3,15,19.7,17.3
	s6.3,2,10.7,7.3s6,7,12.7,8.3s11,2.7,11,2.7s-10.3,2-14.3,5.7s-4.7,10.7-7.7,14s-1.8,5-6.7,11s-7.6,9.3-9.9,15.3
	c-1.1,3.1-2.5,6.1-4,9"/>
<path class="st2" d="M-17.7,521.7c0,0,1.7,2.7,6,2s1.3,0.3,6.3-2s4.7-2.7,10.7-1.3s3.7-0.9,8.7-0.8s5.7-0.9,9.3,2.1
	c2.3,1.9,4.3,4.2,6,6.7c0,0,2,7.3,7,8.3s10,2.5,10,2.5"/>
<path class="st3" d="M185.5,347c0,0,10.4,7.2,11.8,10.7s10.8,6.5,16.3,8.5s13.7,14.5,21.3,19.8s21.7,12.7,26,18s5,3.3,10.3,7
	s7.7,4.3,9,8s4,8,6.3,12s10.7,19,15.5,21.3s10.2,5.3,13.8,10s7,9.3,16.7,13.7s26,9.3,30.3,15.7s9,6.3,12.7,12.7
	c2.9,5.4,4.7,11.3,5.3,17.3c0.3,3.7,3.7,8.3,2,11.7s-0.7,7.3-0.7,9.7s3,7,5,9.7s4.7,3.7,9.3,6.7s14,6.8,15.7,13.9s16.3,26.8,24,35.1
	s18.8,13.1,17,15.3s-3.7,10.5-4,13.1s0.7,9.6,2,13.9s2,12.3,2,12.3c-1.1,4.3-2.4,8.5-4,12.7c-2.7,7-1.3,12.3-2.3,19
	s-3.7,10.7-3.3,16.7s-15.7,82-16.3,86s-11,22.7-10,29s4.7,13.7,8.3,17.3s7,4.7,5,7.3s-3,1-2.3,6.3s-1.3,18.7-3.3,25.3
	s-2,12.3-4,14.7s-3.7,4.3-7.3,5s-7.7,0-10.3,3s-3,13-6,13s-4-5.3-7.7,0s-8.3,10.7-11,14.7s-11.7,15-17.3,15.7s-22,7.7-24,7.7
	s-2.7,4-4.7,8.7s-5.3,9.3-7,15.3s0,10-4.7,15.3s-6.3,8-6.7,9.7s2,20,3.7,23s9,7.3,11.3,10s8.7,6.7,8.7,12s3,3.7,1.7,9s-2,7.3-7,8.7
	s-7.3,5.7-9.7,8.3s-1.7,9.3-5,12s-3.7,2.3-3.7,8s0.3,8.7,0.3,8.7"/>
<path class="st3" d="M212.3,1105c0,0,2.3-1,0-3c-2.3-2-2.3-3-2.3-5s1-3.7,0-7s-3.7-5.3-4.3-8.3s-2.3-5.7-3.7-9s-4-4-7-6.7
	s-7.3-11.9-7.3-11.9"/>
<path class="st3" d="M269.3,1078c0,0,0.7,2,4,3s6.7,0,7.8,3s-0.2,3.7,5.5,4.7s9.3-1.3,13.3,0s5.4,2.7,10,3s4.8-1,9.6-1.3
	s6.1,2.8,8.1,1.4s4.3-0.7,8-3.4s9.7-3.3,9.7-3.3h9c0,0,11.7-4.3,13.3-5.5s10.7-7.5,10.7-7.5s7-1.3,10.3-4.3s8-2.7,10.7-4.7
	s9-8.5,11.7-8.9s10,1.8,12,0s5.7-5.1,6.7-8.8s4.7-10.7,3.7-15s-3.7-8.7-3.3-13s-1.3-9,1-12.7s3.7-7.3,10.7-10.3s9.7-8.3,13.7-11.6
	c3.8-3.1,7.5-6.5,11-10c5-5,6.7-3.3,6.3-8s-6.6-3,0-6s9.6-1,10.3-5s5.7-6.4,3.7-6.9s-7.3-1.5-6-4.1s4.7-1,3-7.3s-3-15-1.7-17.7
	c1.2-2.4,1.1-5.3-0.3-7.7c-1.3-2.3-4.7-7.7-7.3-7.3s-4.3-0.7-4.3-3.3s1.7-7-0.3-8.3s-4.1-8.4-4.1-8.4"/>
<path class="st3" d="M421.9,903.3c0,0,7,2,9.3,4.8s1.7,2.5,3.3,6.2s2.7,1.7,5,5.7s4.7,7.3,4.7,9.3s-1,1.7,1.3,6s3.3,4.7,6.3,5.7
	s3.3,3,5.7,2s4.3-1.1,6,0.3s2.3,9.4,3.7,11.7s2.9,4.9,2.9,4.9"/>
<path class="st3" d="M482.5,912.2c0,0-0.6-4,4.5-4.9s9.2-1.3,10.5-4s-1-4,4.3-4s11.7,1.7,15.7,0s4.7-3,8-4.3s4.3-4.3,11-2
	s9.3,3.3,14.3,2.7s8.7-1.7,13.9-0.3s10.1,2.7,12.8,4.7c1.6,1.2,3.3,2.3,5,3.3"/>
<path class="st3" d="M582.6,908.2c0,0-0.7-6.8,0-8.8s0-12.3,0-15.3s-2.1-1,0.3-7.7s1.7-11,3-14.3s-2.1-8.7-2.1-8.7s2.4-11,2.4-13.7
	s-1.2-6-2.2-9s-1.7-2-1.4-6.3c0.3-3.2,0.8-6.5,1.4-9.7"/>
<path class="st3" d="M571.1,1050.3c0,0-9.1-0.6-10.8-2s-6-1.3-7.7-2s-8.7-2.7-12.3,0s-11.3,4-11.3,4s-11-3.3-13.3-5.3
	s-5-7.7-3.3-8.7s5.7-3,5.3-4c-0.6-1.4-1.4-2.8-2.3-4c-1.4-2.1-3.4-3.9-5.7-5c-2.5-1.2-4.5-3.3-5.3-6"/>
<path class="st3" d="M426.7,1050.3c0,0,15.1,0.4,20.8,1.4s7,4.8,12.4,2.4s6.7-5.5,12.3-3.8s7.1,2,10.2,2s6.4,1,9.4,0
	s11.3-2.8,12.3-2s0.5,2.3,3.6,0c2.1-1.8,3.8-4,5.1-6.4"/>
<path class="st3" d="M511.6,860.4c0.2,2.3,0.2,4.6,0,6.9c-0.3,3.3-2,4,1.3,8.3s7,7.7,9.7,11s10.2,9.7,10,13.7s0,14.3,0,19
	s-1,11.3,0,16s3.7,3.7,3.7,9s2.1,11,1.4,18.3s2.9,18.7,4.3,21.7"/>
<path class="st3" d="M570.8,987.3c0,0-7.5,1.7-13.2,0s-15.5-5.5-19.9,0.7s-5.8,11.3-11.3,10.9s-5.5-0.7-9.5,2
	c-4,2.7-3.1,2.7-9.1,3.7s-10.3,3-10.6,0s-0.7-5,0-7.7s-1.3-5-2.3-7.3s-3.3-8-3-10.3c0.5-3.8,0.5-7.6,0-11.3c-0.6-4-1.6-3.9-2.3-8.1
	s-3-13.1-3-13.1s4.3,0.1,6,0s7.3-0.5,9.3-1.5c1.9-0.9,3.9-1.7,5.9-2.3c3.7-1.3,4.7-3.3,11.4-3.3s4.2-1,9.4,0s5.8-0.4,5.8-0.4"/>
<path class="st3" d="M389.3,944c0,0,1,0.3,5.3,0s0.3-0.7,8.7,0.2s13-2.5,15.3,0s5.7,4.2,6.3,6.5s1.7,4.3,5.7,5s9.3,3.3,10.3,6
	s4.3,3,10.7,3s28.1-1.3,30.9,0s8.4-2.7,13.8,0s11.7,5,18,5s9.8-1,14.4-1.3c3.1-0.1,6.1,0.3,9,1.3"/>
<path class="st3" d="M440.9,1106.7c0.9-3.1,1.5-6.4,1.7-9.7c0-4-1.7-10.3-1.7-10.3s-8.7-3.7-10.7-5.7s-5.7-8.8-7-11.2
	s-7-6.4-7.7-7.4s-1.7-10.7-4-12s-7.7-4.3-10-6.4s-9-4.5-9-4.5s-9.3-5.7-13-7s-7.7,0-11-4s-9-5.7-12.7-6s-10.3-2.7-12.3-5
	s-0.7-5-6.3-6s-5-3.7-8.7-3.7s-3.9-3-9.1-2.7s-6.9,3.9-10.6,0s-0.7-7.3-3.7-9.3s-4.7-1.7-7-4.7s-3.3-7.3-7.3-6.7s-15,2-18.7,0
	s-11.7-2-13-3.7s-2.3-4.7-7.3-6s-11-1.5-15.7-1.9c-2.3-0.3-4.7-0.3-7,0"/>
<path class="st3" d="M266.2,1064c0,0-4.6-4.5-5.6-7.5s-0.5-4.3-1.8-5.8s-2.7-3.8-2.7-4.8s1.7-3,0-4.3s-1.8-2-3.8-3.7
	s-1.3-1.8-2.3-4.2s-1.8-5-3.3-5.3s-2-2.8-1.8-4c0.2-1.2-1-8.7-2.7-10.5c-1.7-1.8-4.3-2.8-3.8-5.5s-1.2-5.3-2.3-7.5
	s-7.4-12.7-7.4-13.5c0.3-2.2,0.3-4.3,0-6.5c-0.5-3.3,1.3-10.2,0.7-11.2s-3-3.8-2.5-5.2s1.5-5.3,2.5-7s14.3-17.8,15.2-21.3
	c0.8-3.5,1.3-29.2,1.3-32.8"/>
<path class="st3" d="M-17.1,896c0,0,5.7,3.4,7.7,6.2s4.3,4.9,4.3,10s2.7,20.6,3.3,27S7.6,959,11.6,965s3.3,14,13,19.3
	s25.3,15,29,17.3s3,12.3,8.3,13.3s8,1,13,4.3s4,4,10.7,5s14.3,2.7,17.7,2.7s5.7,1.3,8,0s0.9-6.7,5.8-9.7s13.2-17.3,18.9-21
	c5.7-3.7,5.7-4.3,6.3-9s2.7-27.1,4.7-30.9s8.7-13,13-13.2c4.3-0.2,9.7,1.9,13.7,0s6.2-1.8,12-4c5.7-2.2,15.4-6.6,16.7-10.6
	c1.3-4,3.3-5.3,8-9.3c4.7-4,5.7-5.9,14-7.1c8.3-1.2,24-9.2,26-12.9s5-7.7,8-12.3s4.6-15.3,8-15.3S274,872,277,870s11.7-3.3,13.3-7
	s-1.3-7.7,4-9.7s15-3.7,19.3-10s2.7-8,7.7-8.7s8.7,4,11,0s4-6.2,8.3-11.8s3.7-4.9,4.3-10.6s-0.7-7.3,3-8.3s14.7-0.7,18-3.7
	s28.3-25.3,29.3-28s2.3-34,2-37.3s-3.3-5.7-3.3-12.7s-1.7-12.7-1.3-14.3s-5-18.1-7-21.4s-7.2-14.3-7.4-19.6s1.4-11.3-2.9-17.3
	c-2.6-3.4-3.8-7.6-3.6-11.8"/>
<path class="st3" d="M362.9,637.8c0,0-3.3-13.5,0-17.2s-0.6-11-1.5-13.3s-3.9-24.7-3.5-32.3s1.3-35,1.3-39s11.7-29.3,16.3-31.7"/>
<path class="st3" d="M442.2,623.6c0,0-1.7,2.1,3.4,4.3s10.7,6.7,14.7,2.7s3.3-6,8.7-12.3s4.3-7,3.7-11.7s-0.7-8.3-6.7-8.3
	s-6.3,1.3-12.7-0.7s-5.7-4-8.3-3.7s-6.1,5.3-7,12S442.2,623.6,442.2,623.6z"/>
<path class="st3" d="M371.6,639.3c-2.1,1.6-4.5,2.8-7,3.7c-4,1.3-3,1.3-8.7,0s-5-1.6-12.7-5.2s-11.7-2.8-9.3-7.2"/>
<path class="st3" d="M319.5,677.7c0,0,3.1,0.3,6.8-3.3s5.3-3.3,11-10.3s2-7.3,11.3-11.7s12.9-5,12.3-8.3"/>
<path class="st3" d="M363.3,721.7c0,0-3.4-10.3-5.4-13.7s-4-6.7-8.3-7.7s-8.7-1.7-11-4.7s-2.3-4.3-5.3-5s-69.7-4.8-73.3-4.1
	s-6,8.1-8.3,6.7s-8-1.3-11.7-1.3c-3.7,0-10-0.3-12.7,1.7c-2.7,2-1,5.7-5.3,6.7c-4.3,1-5,4-6,7s-6,7-10.3,9.3
	c-4.3,2.3-5.3,5.7-5.3,11c0.1,3.7,0.5,7.4,1.3,11"/>
<path class="st3" d="M229.6,766.3c0,0-4-2.7-4.7-6.7c-0.7-4-4.7-10.3-4.7-14.3s1-7.7,2.7-9.7c1.7-2,1.7-6.7,2-9.7
	c0.2-2.2,0.2-4.4,0-6.7"/>
<path class="st3" d="M214.9,719.3c0,0-2,1.3,0,6.7s2.7,12,6.3,12.7"/>
<path class="st3" d="M234.3,717.7c0,0-19.7,5.3-23.7,0s-6.3-11.3-10.3-13c-4-1.5-7.5-4-10.1-7.3c-2.5-3.3-4.6-5.3-4.6-7.7
	s-0.7-4,0-7.3s0.4-3.7,2.4-7.3s5.7-10.7,8.3-12.3s0.7-7,4-9.7c3.3-2.7,10.9-9.3,13.8-9c2.9,0.3,6.6-4,9.2-6.2s4.7-5.5,6.3-10.2
	s5.3-6.7,8.7-8s6.7,1.7,12,2.7s2.7-0.7,10.3,0s7.3-1.7,12.7,1.7s1,3.3,7.8,3.7s13.5,4.8,17.2,9.1s7,4.6,7.7,9.9s1.7,6.7,3.7,10.3
	s5,5,5,8.7s6,11.7,6.3,15.3s-1.7,4.9-3.7,5.6s-3.3,2.4-2.7,5.7s6.4,9.3,6.4,12.7s-2.7,6.3,1.6,11.7s11.7,10.7,10.7,17
	s8.7,18.3,8.3,24.3c-0.3,6.1-0.3,12.2,0,18.3c0.3,4.7,6.7,10.7,6.7,14.7s4.7,16.3,6,21.3s5,7.3,6.7,9.3s2.7,9.7,0,15.3
	s2,12.3,1.6,18.7s-1,12.7-1.6,17.7s1.6,13.3,5.3,20.3s1.7,4.7,6.7,8.5s7.7,11.5,7.7,16.5s1.7,23.7,4.3,24.5s6,0.8,7.7,7.1
	s-1.3,11,0,16.7s3.3,7,6.7,12.3s7.7,11.7,16,15.7s27.3,1,29,6c1.7,5-1.3,5.7,1.7,12.7s2.7,6.3,3.7,12.3s3.9,7.8,3.9,7.8"/>
<path class="st3" d="M506.3,1006.2c0,0-3.3,5.4-2,7.4c1.3,2-1.7,9-5.3,10.3s-10.7,1-14.3,4.3s-11,3.6-18,5.5s-14.7-0.5-17.7,0
	s-7.3,4.2-10.7,4.2s-12.3-2-15.3-1.7s-9,3.6-15.3,3.3s-10.3,2.1-15,4.2s-8.3,0.8-9.7,2.2s4,9.3,0,10.3s-10.3-0.3-14.7,0
	s-10,0.4-10,0.4s-7.3-3-10.3-4.4s-13,0.5-16.7,1.8s-11.3,1.7-17.3,2.6s-8,3-16.7,1.6s-14.3-2-14.3-2"/>
<path class="st3" d="M428.3,857.3c0,0-17,2-21.3,2s-4.9-2-9.6-4.3s-8-6.3-10.7-7.5s-7.3-1.5-10.3-3.5s-14.2-9.6-14-11.3"/>
<path class="st3" d="M308.9,688.8c-1.9,2.1-3.5,4.4-5,6.8c-1.7,3-2.3,4.7-6.7,5s-7-0.7-10.3,2.7s-7.3,10.5-11.7,10.6s-8.1,0.1-9,2.1
	s-14,17-16.6,20.7s-10,22-13,25s-9,2-7.3,9.7c1.7,7.7,4,15,3.3,18c-0.7,3,1,12.3,5.7,17.7c4.7,5.3,8.3,9.3,13.7,13.3
	s8.7,7.4,9.3,12.4s0.9,12.9,5,18.3s8,1.3,6.7,8.3s-3,15,0,17s4.8,1.8,10,6.2s5,6.8,9,6.8s4.3,2,6.3,4.3s8,4.3,8,6.3
	s-1.3,4.3,2.7,5.3s4,1.6,8,2s7.7-1,10.7,0c3.2,1,5.4,4,5.3,7.4c0,3.7,0,7.1,3,8.2s0.7,4.8,5.7,4.1s4.3-4.2,7.3-4.1s5.3,4.3,9.3,4.2
	s5,0.4,10.7,0c3.9-0.1,7.8,0.6,11.4,2.1c0,0-1-2.8-2.2-6.3s1.9-4.2,0-7.2s-4.6-4.7-4.2-7.5s3.5-4.2,4.2-6s0.2-4.8,0-8.2
	s-1.6-6.3-1.6-9s0.1-6,1.6-8.7s6.1-2,6.8-6.7s0-10.3,0-14.7s2.3-8.7,2-12.7s-1.3-5.6,0-9.6s5-6.9,4.3-9.8"/>
<path class="st3" d="M249.1,1090.2c0,0-1.8-3.2,0-8.2c1.8-5,4.2-4.7,4.8-9.3s-0.3-9,4-8.7s11,1.3,11.3-3.7s4.3-11.6,7.7-16.5
	s1.7-9.9,10-10s5.3,1.6,10.7-1.3s7.7-7.2,10.7-4.2"/>
<path class="st3" d="M254.8,1065.6c0,0-4.1-5-8.4-4.6s-6.9,3.6-9.9,0s-1.3-6.1-5-6.9c-3.7-0.8-18.3-0.4-22-1.8
	c-3.7-1.3-13.1-0.4-18.1-2s-11.6,0.7-13.9,2c-2.3,1.3-14.3,2.3-26-2c-11.7-4.3-17-5.3-21.3-9c-4.3-3.7-5.6-5-7.5-3.5"/>
<path class="st3" d="M189.4,1046c0,0,1.8-0.7,2.2-3.7c0.4-3,1.4-2.4,4.4-2.7s7.3-4.7,9.7-5.8s7.1-1.8,7.7-5.5
	c0.6-3.7,0.1-5.3,4.4-7.3s2.9-3,5.9-4s11-1.3,10.7-4.3c-0.3-3,4-4.3,4-4.3"/>
<path class="st3" d="M226.8,964.5c0,0-6.5-2-5.5-4.6s-2.6-5.2-3.6-6.9c-1-1.7-0.6-6-3.8-8s-10.9-5.7-15.5-6s-12.7-4.1-15-7.4
	c-2.3-3.3-7.3-5-11-5c-3.7,0-5.7,1.3-10.3,0s-9-7.3-10.7-9.7c-1.7-2.3-4.3-2.3-7.7-2.3s-11.7-5.7-13-9c-1.3-3.3-3.2-3-4.9-5
	s-7.8-5.7-8.6-9.3l-0.8-3.7"/>
<path class="st3" d="M281.1,985.3c0,0-2.5-6.7-2.8-10.7s0.7-6,0-10.2s-3.3-6.8-3.3-9.5s2.3-5.3,0-8.7s-6.3-8-5.7-11
	s-1.5-12-0.1-15.7s-1.6-6-3-9.7s-0.4-7.3,0-11c0.3-3.1-1-6.2-3.3-8.3c-1.7-1.3-4.7-3.7-4.7-3.7"/>
<path class="st3" d="M430.5,896.2c-0.6-1.5-2.2-2.4-3.8-2.2c-2.8,0.3-7.1,1.9-9.5,0s-5.7-0.7-8.7-1.8s-10.3,0.9-13.3-2.1
	s-0.7-5.3-6-5s-14.3,3.8-16-2.4s-12.3-2.6-14.7-3.9s-10.7-6-15.7-6s-3-3-9.7-3.7s-12,1.3-15.7,0s-9,2.3-16,2s-8.7-1.7-13.3,0.3
	s-1.9,2.8-7.2,4.7s-8.3,1.3-11.4,1s-9,4-14.9,2.7s-10.2-2.3-12.5-5.3c-2.3-3-4.7-3.7-8-3.7c-3.3,0-5.7-0.7-9.3-3s-11.3-2.7-15-2.3
	c-3.7,0.3-10.3,2.7-14.7,0s-13-3.7-15.3-8c-2.3-4.3-4.7-5.9-6.3-11.3s-2.3-7-7.7-7s-14.7,3-17.3,2c-1.4-0.5-2.8-1.2-4-2"/>
<path class="st3" d="M-17.1,887.7c3.1-1.1,6.4-1.9,9.7-2.3c5.3-0.7,7-2.3,10.7,0s6.3,2,7,6s1.7,5,2,7s1,1,4.7,0s8,1.5,10-2.1
	s2-2.6,7.7-4.4s8-4.1,15.7-4.1s15-0.7,18.7,0s10.7-0.3,15.7,0s7.3-2.4,11.7-3.5s14.7,4.5,15.7,0s3-7.1,8.3-6.1
	c5.3,1,11,5.5,16.3,4.6s15.3-1.9,18.7-3.2s2-6,7.3-10.3c5.3-4.3,9-10.3,12.7-9.7c2.1,0.4,4.3,0.4,6.4,0"/>
<path class="st3" d="M116.3,870.3c1.8-3.2,4-6.1,6.5-8.6c3.8-3.7,0.8-3.7,4.5-9.3c3.7-5.7,3.7-7.7,8.3-8.3s11-6,11.7-9
	c0.7-3,5-5.8,8.3-8.4c3.3-2.6,12.3-7.2,14-11.2c1.7-4,0.7-11.7,5.3-14s13-8.3,22-8.7s7.6,3.3,17.1,0c0,0,17.8-8,21.9-7.3"/>
<path class="st3" d="M184.2,1030.7c0,0-5.6,0-8.1,0s-6.8,2-6.5-2.4c0.3-4.4,2-5.3,0-8.3c-2.1-3.5-3.3-7.6-3.3-11.7
	c0-4-0.3-13.3-3.3-15.3s-6.3-4.7-6.3-9.3s-2-13-5.7-14c-3.7-1-9.3-0.7-12-5.2c-2.7-4.5-4-5.8-7.3-12.2c-3.3-6.3-3.3-13-8.8-14.3
	c-5.5-1.3-5.8,0.3-10.2-2.7s-10.3,4.5-16,3.9S86,940,82.3,940.6s-8.4-1.4-8.4-1.4"/>
<path class="st3" d="M99.3,1021.7c0,0-1-11.2-1.3-15.4s-5.3-23.2-8-27.9s-9.7-13.8-10-21.9s0-15.7,0-15.7"/>
<path class="st3" d="M136,959.9c-3.4,1-6.9,1.8-10.4,2.4c-4.4,0.7-12.4-2.5-18.4-2.4s-12,2.2-15.7,0s-10.3,0-15,2.5s-6,8.2-12.3,7.2
	s-26.7-4-30.7-3.3s-7.7,0.2-12,3.5s-5.3,3.7-15,2.8s-17.3,3.7-22,0.4"/>
<path class="st3" d="M103.3,914.2c-2.1-0.3-4.2-0.9-6-2c-3.7-1.9-4.2-2.5-7.7-2.9s-1.8,0.6-7.2-2s-6-3.6-10.4-5.1s-7.9-3.8-12.1-7.5
	s-8.2-7.3-10.2-10.6s-1.3-4.2-6.3-4.6s-4.3-1.4-9.3-6s-7-6.7-17.7-8s-13.7-3.2-18.7-3.9s-6-3.1-6-3.1"/>
<line class="st3" x1="72.6" y1="953.3" x2="50.9" y2="931.6"/>
<path class="st3" d="M60.3,896.2c0,0-1,7.3-4,11s-3.7,4.1-3.7,9.4s0.3,12.7-5.2,19.5s-9.8,8.5-15.8,9.2s-4.7,1.3-8.3,5s-4.2,5-9.1,3
	c-4-1.7-8.1-3.2-12.3-4.5c-3.2-0.9-7.9-1.9-10.2-0.5c-2.7,1.5-5.1,3.5-7,5.9"/>
<path class="st3" d="M308.9,905.3c0,0,4-5.9,5.7-9.1s0-6,1.3-10s4.1-8.9,3.6-11.9s-2.9-6.7-1.6-9s4.7-6.3,3-9.7s-1.2-9-1.6-11.7
	s-2.4-8.7-2.4-13.3s-3.3-7.7-13-14s-10.3-7.6-10.3-7.6"/>
<path class="st3" d="M295.6,790.4c0,0-3,5-2,10s1.7,10.3-3.3,10.7s-23.7,1.3-26.3,3.7s-8.8,8.3-8.8,8.3"/>
<path class="st3" d="M61.9,791.3c0,0-13.7-9.7-17.3-12s-6.7,1.3-13,0S19.9,776,19.9,771s-9-7.7-14-7.7s-10.7-2.3-14.3,0
	c-2.1,1.4-4.5,2.4-7,3"/>
<path class="st3" d="M827.2,448.6c-1.3,3-3.2,5.6-5.6,7.8c-4.3,4-16.3,11-24.3,15s-13.7,2.7-18.1,7.3c-3.7,3.7-8.3,6.5-13.2,8.2
	c-2.7,0.8-6,3.2-12,4.5c-6,1.3-27,2-33.3,3.3s-20.7,2.7-24.3,9s-24.7,22.3-29.3,27s-4.7,8-8.7,12.7s-47.3,25.7-54,29.9
	s-10.7,18.1-12.7,24.1s0.7,7.3-3,11s-3.3,8.7-5.3,14s-8.3,6.3-11.3,8.3s-6,1-11,7.2s-16.7,9.2-20.3,14.5s1.3,13.7,1.3,17
	s-2,17.3-4.3,24.3s0.9,11.7,2.9,17.7s1.3,8,1.3,11.7s-2,5,0,11s1.3,8.3,0,8.8s-3.7,16.2-4.3,21.2s-3.1,16.7-3.7,22.7
	s1.4,27.6,0,29.9s-14.9,21-14.9,21c-0.2-3.3-2.5-6.1-5.7-7c-5.5-1.5-6.9-0.1-9.1,3.1s-2.1,7.9,0,12.3s4.3,8.1,10.1,4.4s8.2-4,8-7
	s-1.3-4.4-2.8-4.4"/>
<path class="st3" d="M835.6,437.8c0,0,7.7-2.5,12.3-8.1s3.7-10,8.7-12.5s12.7-0.8,17.7-0.5c0,0,40.3,7.7,44.8,10.7s4.8,2.7,11.2,5.7
	s7,3.7,15-4.3s10.6-13.7,12.6-14.7s11.8,5.3,19.2,7s11.5,4.3,16.5,4.2s13.3,2.2,18,0s72.3-13.2,83.2-13.2s22.2-1.7,23.7-3.7
	s-3.3-2.3-2.9-6.7s3.7-11.9,6.4-15.8s6.2-9.4,15.3-4.5s12.7,7,12.3,12s0.3,6.3-8.3,9.7s-20.7,6.3-23.3,4.7"/>
<path class="st3" d="M833.3,449.3c0,0-0.6,1.7,3.5,5s10.8,8.9,12.1,11.1s2,8.9,3,16.7s6,17.5,9.3,24.8s2,4.9,3.7,12.9s8,9,8.7,12.4
	s-3.7,13.3-3.7,16.2s2.5,6.2,3.7,13.8s0.1,10,0,17.7s-0.4,19.3,0.6,27.3s2.7,15.4,1.3,19.5c-1.7,5.7-2.8,11.5-3.3,17.5
	c-0.7,6.7,0.3,7-0.7,13s0.7,11.7-2,16s-9.3,6.9-9,13.3s2.3,13.1-2,18.7s-6.7,9.7-6.7,14.7s-6.7,15.3-10,21s-8.3,23.7-11.7,27.7
	s-4.7,6-6.3,4.3c-1.3-1.4-2.4-2.9-3.3-4.5"/>
<path class="st3" d="M902.2,767.8c0,0-3.3,1.4-7.3,5.8s-7.1,6.9-7.4,13.1s0.4,9.9-4.6,13.9s-3,6.3-9.7,8.3s-10.3,3.3-15.7,7.7
	s-10.3,10.7-17,14s-15,10.7-17.3,13.7s-3.9,5.7-2.6,15s2.8,16.1-0.5,20.9s-3.2,7.8-3.2,7.8s-2.3-0.7-7,0s-8,5.5-5.7,8.2
	s8.3,8.8,8,13.4s-3,15.6-5,22s-4.2,9.3-3.8,15.2s3.8,3.1,4.4,9.7c0.4,4.4,0.5,8.8,0.3,13.2c0,2.7-0.4,6.6-0.4,6.6"/>
<path class="st3" d="M982.1,856c0,0-5.2-2.7-9.9-1.7s-1.7,4-8.3,0.7s-8.3-3-12-2.7s-5.7-1.3-7-4.8s-6.3-4.5-10.3-6.5s-7-4.2-9.3-8.3
	s-2.7-9.2-8-9.8s-13.3-0.2-17.7-6.2s-7.8-15.7-12-19.7s-11.3-8.9-14.3-10.3s-34.3-9.9-38-13.1s-11-6.9-12.7-11.6s-5.3-6-7.7-7
	s-20-12-24.7-12.3s-7.7,4.3-10.7,0s-13-15-16-16s-8.7-3.6-18-3.6s-14.7,3.7-16,7.7s-4.3,1.3-9,3.3s-12,6.3-18,4.3s-11-1-16.3,0
	s-12.3,2.3-21.7,3.7s-15.3,2.3-17.7,0.3s-5.4-2.3-10.9-4s-5.1-3.3-11.8-3.3s-9.3-1-19,0.3s-28,3.3-28,3.3"/>
<path class="st3" d="M537.7,764c0,0,4.3,2.3,10.3-4.3s9.7-8.3,16.7-12.7s16.7-10,17.2-14.3s10.2-3.7,13.5-6s6.3-5,9.3-5.6
	s0.3-1.7,4.7-5.4s5.7-7.3,12.7-8.6s11.7-3.7,19.3-6c8.1-2.5,16.3-4.5,24.7-5.9c10.7-1.8,11.3-1.5,14.3-6.3s6-9.6,10-17
	s20.7-18.2,25.3-23.2s16.3-13,19.3-18s-2-12,0-15.7s9.7-15,13-17.7s8.7-7.1,11.7-9.5c4.8-4.2,9-9.1,12.3-14.5
	c4.3-6.9,26.3-37.9,27.3-43.2s2-12.7,5-17.7s3.7-3.7,4.7-10.3s-4.3-11.6,0-18.3s3.7-13.8,8.3-18.2s4.3-9.1,4.3-9.1"/>
<path class="st3" d="M975.3,193.9c0,0-8.3,5.4-10.7,10.9s-1.4,5.2-6.7,9.2s-5,4.7-10,9.3s-4.3,11.2-11.3,14.7s-11.7,6.9-17.5,6.9
	s-6.5,0.3-13.8,0s-11.7,0.7-15,5.3s-10.3,6.7-16.7,10s-11.7,2.7-15.3,6s-11.7,8.7-12.7,10.3s1.7,2.1-1.3,8.2s-6.3,15.8-10,21.1
	s-14.3,13.3-17.7,16s-14,8.1-13.8,13.9"/>
<path class="st3" d="M1011.6,175c0,0-3.6-10.7-9.8-14.7s-15.5-12.9-18.9-15.8s-5.6-5.5-5.8-10.5s-2.5-10.3-3.9-14.8
	s2.7-16.5,3.8-25.2s-0.2-14.3,0-18.3s0-11,0-11"/>
<path class="st2" d="M977.2,78c0,0-6.6,0.3-9.9,2.3s-3.7,1-8,5.8S946.6,98,941.9,103s-3.7,9-7.7,12s-11.7,12-17.3,8s-6.3-8.3-11.3-9
	s-11.8,3.7-16.6,1.7s-3.7-3.4-10.1-3.7s-23.3,12.7-28,12.1s-23-6.3-27.7-8.7s-5.3-6.8-9.3-5.7s-4.7,0.6-7.3,0s-9-5.3-12.7-5.9
	s-15,6.2-21.7,5.9s-19,1.6-26.7,0s-16.7,0.1-20.3-1.6s-10-3-14.3-2.3s-17,0.3-24-2s-19.7-6-25.7-10s-6.3-5.7-14.3-5.3
	s-20.7-0.3-22.7,1s-3.3,3-7,1.7s-6.7-3.7-8.7-11s-2.3-9-9.3-12s-11.7-5-15.7-5s-30,0.7-35.3,0s-17.9-13.1-17.9-13.1"/>
<path class="st2" d="M544.2,92.8c0,0-0.3,8.8-3,11.2s-4.7,3.7-7.3,7.3s-6.3,3.7-9.7,3.3s-5-0.7-14.3,6.3s-15,18-15,21.3
	s-10,27.7-11.7,34s-2,7.3-2.3,10s8.7,8.6,10.3,18.4s3.3,8.2,5,14.6s7.7,19.3,7.5,22.8s-3.5,6.9-3.2,11.9s2.3,3.3,1,8s-3.3,4-3,9
	s1,10.3,1,10.3s3,5.7,1.7,8.3s-2.3,3.7-1.3,8.3s1.7,5,1,9.3s-1,11.3,1.3,16.5s1.7,10.9,2.7,16.5s4.7,7.4,7.7,12.7
	s10.7,14.4,13.3,18.9s6.2,3.8,4.4,10.1s-3.6,12.3,0,20.3s4.6,17.3,5.2,25.7s-1.8,9,2.1,14.3s6.6,9.7,6.6,18.7s2,16.3,4,20.3
	s-0.3,15,5.3,21s11.7,8.3,12.3,15s-0.7,7,1.7,13s8.7,17,7.3,24.7s-3.3,21.2-2.7,31.9s1.7,10,0.7,16.2s2.4,9.2,2.2,16.2
	s-0.5,8.8-2.2,17.4s0,9.2,0.7,14.6s-0.7,2.7-1.7,9.5s1,10.2,3.2,16.8s3.1,8,2.1,15s0,7.7,0,11.3s-3.3-0.5-1.7,8.6
	c1.1,6.1,0.4,12.4-2,18.1c-0.7,1.3,3,8.6-0.4,10.9"/>
<path class="st2" d="M501.3,600.3c0,0,0.7-1.7,2-6.4s2.3-7.6,7-8.6s10.3,1.7,13.3-2.7s22.7-20.7,23.7-23.3s-2-2.7,2-7.3
	s3-7.7,9.7-10.3s13.1-5,18.7-4.7s13.9,1.9,20.6,0s6.7-4.6,16-4.6s9,1.3,21,1.3s19.7-2,22.7,0.3c4.3,3.4,9.6,5.2,15,5.2
	c6.7-0.2,14.7,5.2,23,7.2s11.3,0.7,17,6.3s15.3,7.7,19.3,13.7s17,9.3,24,11c7,1.6,14,3.6,20.8,6c7.6,2.7,9.6-2.4,27.9,4.5
	s25.3,5.8,35,15.3s18,12.9,25,18.6s11.3,5.2,16,10.6c5.3,6.3,10.3,12.9,15,19.7c5.3,7.7,8,9,6.3,13"/>
<path class="st2" d="M845.6,658c1-2.3,1-5,0-7.3c-1.7-4-10.3-11.3-12.7-15.3s-0.3-7.3-2.3-10s-5.3-3.3-9-3.3s-9,1-11.3-2
	s-5.7-11-10-13.3s-9,0.9-13.7-3.6s-10-13.3-14.3-16.2s-8.1-0.4-10.3-4.6s-4.3-9.3-7.3-14.7s-8.3-24.7-14-28.5s-11.9-4.5-13.1-9.8
	s-7.9-26-5.2-30.7s1.4-7.3-0.6-15s-1.7-9.7,3-16.4s8.4-16.8,8.4-16.8"/>
<path class="st2" d="M790.7,337.9c-2,3.4-4.4,6.5-7.3,9.1c-4.8,4.4-5.8,10.4-11.5,17s-11.7,10.5-14,15.4s-5.7,14.2-11.7,16.2
	s-10.7,3.7-14.7,10.7s-7.3,8.7-15.3,10.8s-23.3,8.5-34,5.8s-28.6-2-32.8-7.3s-5.9-8.3-10.2-11.7s-12-1.7-17-3.3s-10.3-7.8-17.3-7.7
	s-14.1-0.3-19.4-3s-6.6-2.3-12.3-4.3s-11-3-18-1s-17.5,5.3-24.9,4.3s-11.1-4.5-16.4-8.2s-23-6.4-30-7.1s-30.3,5.2-37.7,5.8
	s-19.3-2.9-24.3,1.3s-13.3,12.6-13.3,12.6c-5.7,4-11.6,7.6-17.7,11c-7.7,4-15.3,6.3-15.3,11.3s-3.7,10.3-8.9,13s-18.8,1.7-23.8,2.7
	s-15.3,4.3-21.3,8.3s-1.2,1.7-11.4,5.3s-12.6,2-20.2,9.7s-10.3,10.7-19.7,14.7s-17.3,4.7-22.7,8.3c-5.3,3.7-19.7,10.3-26.3,7
	s-10-8.7-17.7-9.3c-7.7-0.7-7,0.3-13.5-5.7c-6.5-6-8.5-9.2-16.9-10.3s-14-5.5-15.3-10.8c-1.3-5.2-4-12.6-9-16.6s-10-4.3-18.7-8.3
	c-8.7-4-19.3-8.7-21-15.3s-4.7-9.7-9.7-9.7s-16.7,5.7-22.7,8.7s-17-0.7-26.7-1.3s-9-0.3-19.3,0.7s-10.3,7.7-22.8,7"/>
<path class="st2" d="M-20.1,485.6c0,0,9.3,0.6,11.3,0s2-3.5,4.7-3.4s6.7,0,6.7,0l4-3.2h3.7c1.4-0.7,2.7-1.5,4-2.3
	c1.3-1,4.3-3.7,6-4.7s4.3-0.3,4.3-1.3s0-2,2.3-3s4.7-5.7,8.3-6.3s7.3,1.3,11-2.7c3.6-3.8,7.6-7.2,12-10.1c2.7-1.6,4.7,0.4,9-3.2
	c4.1-3.4,8.4-6.4,13-9c2-1,2.7-4.3,7-4.3s7.7,0.3,10.3-5.3s1.3-11.7,5-13c2.5-1,5-2.3,7.2-3.8"/>
<path class="st2" d="M130.3,423.7c0,0,14,1.7,18-3.3s3-9.3,8.3-14.7c5.3-5.3,11.3-4.3,15.3-9.7s12.4-8.3,18.2-9.7
	c5.8-1.3,15.5,0,20.1,0c4.7,0,5.7-3.5,13.3-0.6s8.7,2.7,14.7,2.5s6.3-1.4,5-3.6c-1.3-2.2,1.3-5.9,0.6-8.6c-0.6-2.7-3-5.7-4-8
	s0.2-13.3,4.1-13.7c3.9-0.3,8.9,2.7,14.9,3.3s10.7,5,14.3,1.7s2.4-3.7,6.4-7.7s8.3-11.2,12.7-15.8s6.7-7.2,13.3-7.2s5.3-2.4,9.7-4.9
	s3.7-5.1,12.7-9.5s10.3-12,16-10.7s7.7-4.2,7.7-4.2"/>
<path class="st2" d="M400.8,398.5c0,0-4.2-3.5-4.2-7.2s-1-18.3-2.3-22s3.3-6.3-2.7-16.7s-15.7-15-18.7-24.7s-1.7-14-6.3-17
	s-10-11.6-10-11.6"/>
<path class="st2" d="M347.3,430.9c0,0,0.3-1.7-2-7s-3.3-8.8-2.3-12.2s2.3-6.4,2-13.2s-7.7-50.2-7.7-54.5s5.3-17.4,7-22.7
	s11.7-22.7,12.3-28s4.3-18,2.7-22.3s-0.8-4.7,0.4-12s4.2-16.7,2.2-22c-1.2-3.5-1.8-7.1-1.7-10.8"/>
<path class="st2" d="M112.1,164.8c0,0,4.8-2.8,7.5,0s-0.5,1.8,6.1,6.1c6.6,4.3,25.9,18,29.9,19.7c4,1.6,8.2,2.5,12.5,2.7
	c4.5,0.3,19.1,0.3,27.5,0c8.3-0.3,8.3,2.7,9.7,7.3s4,6.7,8,11s13.7,6,17.7,6s5.4,2.7,10,5s13.3,10.7,19.6,13
	c6.3,2.3,15.3,4.3,19.7,8.3s4,3.7,11,5.7s10.7,4.3,18,7.7s2.7,3.3,16,3.3s17.3-0.7,22.7,0c3.7,0.6,7.4,1.5,10.9,2.8"/>
<path class="st2" d="M175.8,276.3c0,0,0.4-3.6,2.1-4.6c1.7-1,2.3-1.2,2.3-3.6s-3-3,0-6s6.6-3.3,5.3-6.3s-0.4-4.3,0-6.7
	c0.3-1.6,0.3-3.4,0-5c-0.2-1.6-0.2-3.2,0-4.7c0.1-1.9,3.6-1.3,0-3.9c-3.6-2.7-7.9-4.3-8.3-6.7c-0.3-2.3,0.8-0.7-1.4-4
	s-1.2-3-2.2-5.7s-1.7-4.3-2.7-5.5s-3.3-0.9-2.8-4.2s-0.2-2.1-1.9-4.6s-4.4-12.1-1.3-11.8"/>
<path class="st2" d="M106.7,83.6c0,0,3.9-4.6,6.9-7.6s3-5,8.3-10.3s5.3-3.7,5.8-10.3c0.5-6.7,0.5-16.7,1.5-21s1.7-7,0-11
	c-1.7-4-9-11.3-9-16.7s4-6,2.3-13.3S120.3-17,120.3-17"/>
<path class="st2" d="M233.3,85.6c0.3-2.2-0.4-4.4-2-5.9c-3.1-2.8-6.6-5.2-10.3-7c-5.3-2.7-18-3-18-3c-4.1,1.4-8.2,2.5-12.4,3.3
	c-8.9,2-11.4,5.7-15.2,7c-3.8,1.3-10.4,7.4-13.9,8.3"/>
<path class="st2" d="M657,41.9c0,0,1.3,1.4,1.6,6.4s-3.7,7-5.7,10.3s0.7,13.7,0,19.3s-2.3,26.6,0.7,34c3,7.4,7,19.7,7.3,30.4
	s5.5,21.3,10.1,31s20.1,22.3,20.1,22.3s0.5,7.3-2.5,11.7s-21.3,33.3-22.3,36s1.7,15.1,1.7,21.5s4.7,16.8,0,24.1s-4.3,7-5.7,12.3
	s-2.3,13.3-4,16.7s-8.7,9-9.3,13.7s-2,12-1.3,20.3s3.4,15.7,1.9,19.9s-2.9,1.2-5.9,11.2s-6.5,22-6.2,26.6s-0.6,7,0,11.3
	s2.6,5.1,2.6,9.9s0.8,40.5,0.3,43.4s-0.3,6.7,2,13.3c2.3,6.7,15,31,17.3,38.7s7.3,21.3,15.8,31.3s0.9,22.7-1.8,25.7
	s-7.3,17.3-9.5,22s-6.9,7-9.9,10.3s-2.3,0-2.3,0"/>
<path class="st2" d="M697.3,622.3c0,0-1-6.7-3.3-10.9s-4-7.4-7-10.5s-7-6.3-5-10.7c1.7-3.5,3.5-6.8,5.7-10c1.7-2.7,1.1-6.8,1.7-9.2
	s-1.4-2.1,2.3-2.8s10.5-3,10.4-5s0.2-2.7,2.9-3.7s4-1.3,4.7-3s1.7-6.3,4.3-6s4.7-0.7,4.7-2.2s-0.6-8.2,1.8-9.3s3.2-2.8,3.8-4.8
	s2-4.7,6.3-8s12.7-2.8,13.7-6.4s-5.7-8.6,0-12.9s8.5-4.6,10-10.4s3.2-6.3,3.2-6.3"/>
<path class="st2" d="M645.9,605.3c0,0,1.3,1.3,0,6.1c-1.3,4.9-1.3,10,0,14.9c1.3,4.3,10,13.3,9.7,19.7s-2.7,7-2.7,12s1.3,4.7,0,12
	s-3,11.9-3.5,16.6s-0.5,12.4,0.8,17.7s0.7,6.3-2.3,10.7s-3.3,6-1.3,11s3.4,11.5,2.9,15.6s0.8,7.5-2.2,12.8s-3.7,6.9-2.3,13.5
	s7,15.5,7.3,21.5s-1.3,19.3-4.3,25.3s-9.1,13-11.9,21.7s-3.8,20.8-3.8,20.8S629.5,878,636,887s7,11.3,7.6,18.3s-2.7,9,3.6,14
	s12.7,5.8,16.7,9.9s5.6,4,5.1,18.2"/>
<path class="st2" d="M825.2,896.2c0,0-1.3-8.2-8.3-8.2s-8.3-0.5-10.2,1.2s-3.3,5.5-3.3,5.5s-3.8,3.5-6.2,1.6s-5.7-1.6-9-1.6
	s-8.8,2.1-11.2,1.6s-7.4,0.7-10.8,0.6s-8.1-0.5-10-2.1s-9-6.1-13.6-6.7s-15.1-3.3-15.1-3.3s-10.6,1.3-14.6,0s-28-7.3-29.7-8
	s-13.7,0-20.3-4.6s-9.3-1.7-13.5-2.4s-10.2-10-15.2-10.3s-7-2.6-12.7-2.8s-8,1.1-20-2.5s-16.1-3.4-16-6.5"/>
<path class="st2" d="M710.3,969.7V963c0-3-0.7-5,0-9.3s-0.7-6.5,1.3-12.9s6.3-8.3,4.7-14.7s0.4-11.9,0.4-18.8s-3-16-3.3-19.3
	s0-2.8,3.3-5.4s12-6.9,17-12.2s8.7-5,11-7.3s3.1-10,3.1-15.5s-0.1-17.7,2.3-24.6s4-10.3,1.3-16.3s-4.4-22.5-2-27.9s4.7-5.8,6-17.1
	s-0.6-23.2,2.2-29.7s7.1-6.7,9.1-12.7s0.7-9.3,5.7-14.3s7.2-5.3,11.1-8.3s5.5,2.2,7.9-3.7s5.7-12.3,6.7-15.6s4.7-16.3,4-22
	s2.3-14.6-2.3-17.5s-10.7-6.8-12-11.5s-0.8-8.1-4.2-13.2s-8.1-3.8-9.5-12.1s-7.7-24.5-9.3-27.8s3.3-17.2,2-26.9s-5-19.3-5.7-28.3
	s-3-21,0.3-22"/>
<path class="st2" d="M876.1,550.7c0,0-7.5-1.7-9.5-5s-7.2-7.3-13.7-11.3s-6.4-3.7-10.6-8s-4.3-8.3-11.3-9.7s-27.7-9.9-36.7-9.6
	s-21.7-5.4-28-9s-6-1.3-13-11.2s-6-24.2-12-27.8s-8-6.2-10-10.4s-6.3-13.2-7.7-19.2s-4-14.8-8.3-20.7s-15-29.3-21.3-33.3
	s-19.3-3.7-28-11.3c-5.3-4.9-9.3-11-11.6-17.9"/>
<path class="st2" d="M779.2,252.2l-4.8,3.8c-2.2,1.8-5.8,1.8-7.5,3.8s0,7.2-3,8.6s-3.5,0.4-6.4,2.6s-4.1,6.8-7.6,7.2
	s-7.2,1.8-8.5,3.5c-0.9,1.3-1.6,2.7-2.2,4.2"/>
<path class="st2" d="M795.4,337.9c0,0-1.1-2.2-4.7-4.7s-3.8-5.5-7.3-5.8s-4.2-0.2-6.3-3.6s-7.2-7.9-11.8-9.1s-9.1-2-13.1-7
	s-6.2-6.8-9.5-12s-2.8-10.5-5.2-12.8s-6.3-7.2-9.8-7.8s-12.2-4.1-16.8-6.2s-1.5-4.7-8.5-4.1s-8,1.8-13.2-0.1s-9-0.8-12.8-1.4
	s-10.2,3.5-13.2,0s-12.5-8-18.8-10s-6-0.5-13.5-3.2s-16.2-8.2-18.5-15.2s-2-4.2-8.5-8.7s-4.5-4.9-10.2-8.8l-5.8-3.8"/>
<path class="st2" d="M858.1,1106.7c0,0-11.5-3.9-9.7-9.4s-0.7-9.1,0-18.6s1.7-7.3,1.7-14.7s-13-27-16-29.4s-11-13.5-12.5-19.4
	s-10-25.8-5.5-28.3"/>
<path class="st2" d="M532.5,914.2c3,0,4.7-3.5,9.4,0s5.7,4,13.7,4s14-1.9,18.5-6s10-5,15.5-4s8,5.1,18,4s15.7,1,24.1,0
	s11.7,0,11.7,0"/>
<path class="st2" d="M802.3,660.8c0,0,8.2,4.6,12.5,11s38.8,27.3,49.3,35.3s10.5,10.2,17.5,18.8s13.8,13.2,20.7,19.2
	s6.3,11.5,12.3,14.5s24.5,4.3,20,13.9s-0.5,16.6,3.5,25.1s9.1,13.5,9.5,21.5s6.9,15.8,14.5,18.8s10.2,4.8,14.1,8.5
	c2.8,2.8,5.2,5.9,7.4,9.2"/>
<path class="st2" d="M845.1,827.8c0,0-6.5-6.1-11-4.9s-6.3,1.8-8.9-2.2s-3.6-14-3.6-14s-1.9-15.8-1-19.9s3.2-26.1,4.6-32.6
	s0.4-18.3-3.6-25.2s-9.5-19.9-15-28.1s-9-11.3-16.5-12s-20,3.7-27-2.5s-23-5-23-5s-15-5.8-23.5-8s-22-5.2-33-5.7s-11.5-3.3-19.5-2.7
	s-9.5,4.6-18-0.1s-16-2.1-27.5-6.9s-11.5-5.9-16.5-11.9s-6.3-14.8-14.2-13.9c-4.7,0.5-9.5-0.5-13.7-2.8"/>
<path class="st2" d="M544.6,618.3c4.9,2.1,9.9,4,15,5.5c8,2.3,20,11.3,37.5,3s23.5-9.7,32-9.7s22.5-3.2,40,5.2s18,1.3,26,4.5
	s20.2,6.3,24.3,7.8s14.7,3.9,27.2,5s20.2,2.5,33.1,8.5s31.1,8.7,45.5,9.8s20.9-0.7,27.7,0s29.7,6.8,36.7,7s17.5,0.2,25,3.2
	c8.8,3.5,18.3,4.7,27.7,3.6c11.3-1.1,20.3,1,24.3,3.4s-3,11.4,7,19.9s21.5,17.7,25.5,27.8s0.3,21.2,7.6,28.7s10.4,0,9.9,12.7
	c-0.3,6.1-0.3,12.2,0,18.3"/>
<path class="st2" d="M702,777.9c0,0-0.9-7.5-2.4-11.6s1-6.2,0-11.7s3-21.3-0.5-25.7s-3.5-21.3-3-26.3s-0.2-13.8-0.2-13.8
	s-3.8-22-7.8-30.8s-5-16-2.5-20.7s11.3-16.8,16.4-19s7.5-0.6,14.6-7l7.1-6.4"/>
<path class="st2" d="M681.9,590.3c0,0,5.2-1.2,23.5-3.4s23.7-0.7,33.7-2.7s35.5-4,47-8.5s10.5-7,25.5-7s26.5,0.5,34.7-4
	s12.3-5.6,15.3-8.3s25.2-7.3,31.3-13s36.2-6.5,47.2-8.6s28.5-2.7,39-5.6s27.5-16.4,31.2-18.4s28.7-16.7,34.2-23.8s5.5-5.7,10.5-12.7
	s15.9-31.2,28.9-36.4s22.4-26,22.4-26"/>
<path class="st2" d="M1319.9,767.8c0,0-31.7-14.3-43.8-26.2s-20-7-30-12.9s-15-3.5-25.5-13s-17.1-10.5-20.6-16s-5.6-8.2-5.6-8.2"/>
<path class="st2" d="M1258.9,789.3c0,0-10.8-4.6-12.8-11.4s-0.5-18.9-8.5-20.6s-17.5-2.2-21-3.7s-8-10.7-13.8-15.3
	s-7.4-5.2-13.8-8.7s-23-17.7-22.9-21.5"/>
<path class="st2" d="M1105.6,791.2c0,0-3.9,1.8-3.9,4.1s0.4,3,0,6.6c-0.3,3.4-1.2,6.6-2.7,9.7c-1.5,3.6-2.2,7.4-2,11.2
	c0,3.8-2.1,5.8-2.7,7.8s-4.8,17.3-6.5,22.3s3.4,21.7,0,28.3s-3.5,9.7-3.6,14s1.8,13.6,0,17.6s-11.1,20-12.8,26.3s0.7,6.7,0,13
	s0.2,7.7-2.6,15.3s-4.8,12.9-4.8,19.1s4.8,7.9,0,10.2s-8.7,3.3-10.7,8s-7.3,4.7-7.3,8.7v11.3c0,4.7-2.3,9.3-4.7,14s-1,10.7-2.7,14.3
	c-1.6,3.3-3.4,6.4-5.6,9.3c-2.1,3,1.4,9,0,16s-3.4,8.7-4.1,14.7c-0.4,3.9-0.4,7.8,0,11.7"/>
<path class="st2" d="M1096.9,1105c0,0,3.3-9,0-11.3s-4.3-4.3-3.3-7.7s-1.1-9-0.4-13s1.3-10.7,2.5-17s-0.2-13.3,0-18.7
	s5.9-16.2,5.9-16.2"/>
<path class="st2" d="M1063.9,789.8c-1.3,1.7-2.4,3.6-3.3,5.6c-1,2.6,1.7,5.6,0,10.3s-5,18.3-7,26.3s-2.3,13.7-4,19
	s-6.7,25.8-6.7,29.2s3,12.4,0,20.4c-3.1,8.1-3.9,16.8-2.3,25.3c1.7,9-2.2,16.9-7.6,22.1s-7.1,8.2-6.8,14.2c0.4,4.7,1.2,9.3,2.3,13.8
	"/>
<path class="st2" d="M932.6,1064c0,0,1,0.3,5,2s7.7-0.3,14,0s10-0.3,14.3,0s6.9-2.7,10.3-2s14.5,2,14.5,2s9.9,1.3,13.6,0
	s10.3-2.2,15-3s23-2.8,25.8-1.9s6.8,2.8,10.2,2.7s8.7,0,8.7,0"/>
<path class="st2" d="M1077.6,1105c0,0-2.2-7-4.1-12s-1.9-10.7-2.9-14s-0.1-4-1.9-6.3s-6.8-13.4-6.8-14.9s-3.9-8.7-1.3-11.1
	s4-4.1,3.3-9.4s-1.3-7.6,0-9.9c0.9-1.5,1.9-2.9,3.2-4.1l1.6-7.1"/>
<path class="st2" d="M1202.6,1061.2c-2.1-0.2-4.2-0.2-6.3,0c-5.3,0.2-1-2.9-12.7-3.3s-39.7,0.1-43,0s-6,0-6,0s-2.4-7.7-8.7-8.2
	s-15.4-5.2-29.9-4.2"/>
<path class="st2" d="M1297.4,982.7c0,0-44.8-0.4-56.2-1.4s-10.3-2.2-16.7-5.1s-4.7-13.9-9-13.6s-96.3-2.7-100-2.3s-4,9.7-8,9.3
	s-8.4,4-11.5,4.3s-11.6,4.7-16.3,4.3s-14-2.1-14-2.1"/>
<path class="st2" d="M1130.1,1017.2c0,0-1.5-5.2-6.2-6.8s-8.3-0.7-13.7-3.3s-7.5-5-12.9-6s-18,1-23.9,0s-13.4-0.2-14.3-1.8"/>
<path class="st2" d="M698.8,779.4c0,0,0.8-4.4-3.9-7.4s-14.3-6.2-17.3-7.6c-3.5-1.4-6.7-3.3-9.7-5.6c-5-3.8-11.7-3.1-14-7.4
	c-1.7-3.2-3.2-6.4-4.5-9.8"/>
<path class="st2" d="M624.3,735c0,0,1.7-2.8-2.3-6.4s-5.3-3.6-5.7-8.1c-0.5-6-2.7-11.7-6.3-16.5c-4-5-10-11.3-17-15.2
	s-18-2-22.2-4.2s-14.5-1.4-18.8,0s-16.7,7.3-21.3,6.9s-7.3-6.1-14.7-9.8s-17-8.3-17-8.3"/>
<path class="st2" d="M654.3,794c-4-0.3-7.8-1.8-10.9-4.2c-4.6-3.9-3.6-5.1-11.7-4.8s-13.1-0.2-19.4-2.2s-31.7,3.4-39.7,0
	s-18.7-13.8-25.3-15s-9.7-3.5-12-5.8s-13.3-3.3-16.3-6s-1.8-14.3-8-19.3s-6.3-3.3-9.6-13.7s0-51.3-5-54.2s-12.4-9.5-15.3-14.5
	s-5.8-6.7-5.8-6.7"/>
<path class="st2" d="M248.4,738.7c0,0-15.8-8.9-14.1-24.8c1.7-15.9,2.7-24.7,1.7-27.3s-0.3-10.6,0-13.3c0.3-2.7-0.9-4.7-1.8-8.3
	c-0.9-3.7,0.5-4.3,0-11.3c-0.5-7,3-2.7-0.3-9.7c-3.3-7,0.4-17.7,0.4-17.7"/>
<path class="st2" d="M310.2,733.1c-2.5-1.2-4.8-2.7-6.9-4.5c-3.7-3-7.3-5.3-11-5.6s-7.7-2.3-12.3-3.7s-11.4-4.7-13.7-8
	c-2.5-3.9-6.5-6.5-11.1-7.2c-5.5-0.8-20.2-4.7-22.6-8.2c-2.4-3.5-3.9-9.5-9.9-9.4s-8.7-0.3-20-1.9c-11.3-1.7-15.7-2.3-22.3-5
	s-16.7-4.7-20.7-4.7s-2.7-1-10.7-3.7s-10.7-2.7-15-1.7l-4.3,1c0,0,2.7,0.7-5.3-3.7s-6.7-10.3-12.7-6.2s-8.3,5.8-8.3,5.8
	s0.3,8.3-6.3,11s-13,10.7-18.7,8.8s-13.7-3.8-20.3-4s-19.7,1.8-27,0s-15.3,0-15.3,0s-18,8.5-22,11.2s-2.3,2.7-7.3,6l-5,3.3"/>
<path class="st2" d="M128.3,617.2c3.2-1,5.7-3.6,6.7-6.8c2-5.7,1-10.4,6.7-11.7c5.7-1.3,12.3,2,21.3,0s19.6,3.3,22.3-2
	c2.7-5.3,4.4-6.3,4.9-14.7s6.8-12.3,7.1-16.3c0.3-4-1.3-10.3,3-16.3c4.3-6,7.3-5.3,9-14.3c1.7-9,5.4-3.3,8.4-12.3
	c3-9,2.3-18.7,2.6-20.7c0.3-2,1.6-15.3,6-16.2"/>
<path class="st2" d="M246.9,555.3c0,0-3.3-4.3-3.3-12s2-11-3.1-19.3c-3.1-5.1-5.2-10.8-6.2-16.7l1.7-23.9"/>
<path class="st2" d="M413.9,391.3c1.6,2.1,2.5,4.6,2.7,7.2c0,3.8-7.3,5.2,0,8.2s5.3-0.5,9.7,5.1s4,3.6,7.3,8.6s6,4.5,9,10.6
	s2.7,16.8,1.3,22.8s-0.9,8,0.4,14.7c0.8,4.6,1.4,9.2,1.6,13.8c0,0-5,10.5-3.3,15.1s-0.3,8.3,6.7,14s15.7,5.7,18.3,13
	s8.8,10,5.5,18.7s1.5,27.3-3.9,37.7c0,0-0.3,0.8-2.3,6.2c-1.7,4.1-3.7,8-6.1,11.8"/>
<path class="st2" d="M235.9,620.7c-2.2-1.9-3.4-4.7-3.4-7.6c0.1-4.8,3.4-7.1,5.8-12.1c2.3-5,1.1-2.7,2.7-8.7c1.6-6,3.3-5,4.3-12
	s-2.7-7.3,0-12.7c2.7-5.3,9.3-9.4,7.1-13.5"/>
<path class="st2" d="M313.6,631.9c0,0,3.7-9.6,0-14.8s-10.4-10.8-10.4-10.8s-5-4-4.3-10.3s-2.1-15.3-0.1-19.3s2.7-14.7,4.7-20
	s1.3-3,1.3-9.3s6.8-5,14.4-10s3.6-11.7,13.9-15.7s12.8,0.3,18.4-5s3.6-5,10.9-9.3s8.3-5,19-6.7s12.2-8.2,11-8.9"/>
<circle class="st4" cx="1254.2" cy="92.3" r="6.2"/>
<circle class="st4" cx="1133.2" cy="393.3" r="6.1"/>
<circle class="st4" cx="1062.2" cy="682.3" r="7.1"/>
<circle class="st4" cx="1170.2" cy="677.3" r="6.6"/>
<circle class="st4" cx="1652.2" cy="605.3" r="4"/>
<circle class="st4" cx="2076.2" cy="874.3" r="5.8"/>
<circle class="st4" cx="2281.2" cy="239.3" r="4"/>
<circle class="st4" cx="2180.2" cy="462.3" r="4"/>
<circle class="st4" cx="453.3" cy="622.3" r="4"/>
<circle class="st4" cx="528.3" cy="48.3" r="4"/>
<circle class="st4" cx="777.3" cy="-23.3" r="4"/>
<circle class="st4" cx="970.3" cy="177.3" r="5.7"/>
<circle class="st4" cx="1403.2" cy="956.3" r="4"/>
<circle class="st4" cx="238.3" cy="785.3" r="4"/>
<circle class="st4" cx="103.3" cy="1032.3" r="4"/>
<circle class="st4" cx="192.1" cy="336.7" r="6.9"/>
<circle class="st4" cx="766.3" cy="580.3" r="7.1"/>
<line class="st3" x1="-45.4" y1="218.7" x2="-39.8" y2="220.8"/>
<line class="st5" x1="-28.4" y1="225.1" x2="582.3" y2="454.4"/>
<polyline class="st3" points="588,456.5 593.6,458.7 593.6,464.7 "/>
<line class="st6" x1="593.6" y1="476.7" x2="593.6" y2="1096.6"/>
<line class="st3" x1="593.6" y1="1102.7" x2="593.6" y2="1108.7"/>
<line class="st3" x1="2445.6" y1="770.7" x2="2439.6" y2="770.7"/>
<line class="st7" x1="2427.5" y1="770.7" x2="1586.6" y2="770.7"/>
<polyline class="st3" points="1580.6,770.7 1574.6,770.7 1572.3,776.2 "/>
<line class="st8" x1="1567.6" y1="787.5" x2="1419.2" y2="1143.5"/>
<line class="st3" x1="1416.9" y1="1149.1" x2="1414.6" y2="1154.7"/>
</svg>
