<svg class="mapLines-light" xmlns="http://www.w3.org/2000/svg" viewBox="0 0 2400 1100" width="2400" height="1100"><style type="text/css">
	.st0{fill:none;stroke:#FEFFFF;stroke-width:2;stroke-linecap:round;stroke-linejoin:round;}
	.st1{fill:none;stroke:#FEFFFF;stroke-width:1.5;stroke-linecap:round;stroke-linejoin:round;}
	.st2{fill:none;stroke:#FBFCFC;stroke-linecap:round;stroke-linejoin:round;}
	.st3{fill:none;stroke:#FBFCFC;stroke-miterlimit:10;}
	.st4{fill:#FEFFFF;}
	.st5{fill:none;stroke:#FBFCFC;stroke-miterlimit:10;stroke-dasharray:12.19,12.19;}
	.st6{fill:none;stroke:#FBFCFC;stroke-miterlimit:10;stroke-dasharray:12.04,12.04;}
	.st7{fill:none;stroke:#FBFCFC;stroke-miterlimit:10;stroke-dasharray:12.1,12.1;}
	.st8{fill:none;stroke:#FBFCFC;stroke-miterlimit:10;stroke-dasharray:12.24,12.24;}
</style><path class="st0" d="M1326.9-39.7c0 0-19.3 35.3-28 40.3s-10.7 5-14.7 11.7 -2 12.7-6.7 19.3 -9.3 14.7-10.7 23.3 -8.7 18.7-12 25.3 0 8 0 15.3 0.4 17.3-1.5 22.7 -7.2 6.7-7.8 14.7l-0.7 8"/><path class="st0" d="M1197.1 276.7c0 0 3-10 5-13.5s9.5-9 10-12c0.5-3.9 2.2-7.6 5-10.5 3.5-3.5 4-3.5 4-6s3-13 7-18.5 6-17.5 7.5-22.5 6-15 6.5-20.3 0.5-10.7-2.5-15.7 0-14.5 0-14.5"/><path class="st0" d="M1140.9 1110.3c0-5.7-0.7-8.7-5.7-16.7s-5.7-6.3-5-12.7 9-42.3 8.7-53.7 -5.3-14-3.3-28 -2.7-12-4.7-23.7 -1.3-31.7-1.3-39.7 -1-17.3 3-22 4-5 2.7-13.3 -1.3-15-0.3-20 3-8 1.3-20.7 1.3-18 3.7-27.7 2.3-7 1-13 -1-12.7-1.7-21 -1.7-15.7 2.7-20.7 5.3-15 8-23 8-13.3 13-19.3 0-2.7 3.3-8.7 -1-13 0-22.3 3.7-13 4-18 -2.7-16.3-2.7-22.6 0.7-24.3 0.7-34.3 -8-16.7-13.7-24.3 -8.3-7.6-11-18 -16.3-58.3-17.3-66 -2.3-14-1.7-19.7 1.7-6 2.3-11.7 -6-11.3-8-19.7 2.7-8.3 4.1-18 1.9-4.7 0.6-14.3 0-19.3 0-25.7 0.3-7.3 4-10.3 5.7-8.3 5.7-15.7 1.3-7.3 4-13 7-8.3 8.6-19.7 2.1-7.7 3.8-12.7 9.3-13.3 9.7-18.3 6-13 9.3-19.3 1-3.7-0.3-10.2 -2.7-4.1-1.5-7 2.5 0.8 6.6 0.8 0.2 0.7 5.2 0 6.3-3.3 11-7.3 11.3-4.7 17.2-5.1 12.8 3.1 17.8 5.8 5 3 7.3 3.5 3-2.5 8.3-3.5 3 2.3 10 6.6 6.3 4.7 9.7 4.4 3.3-0.7 8 0.7 4.7 1.7 8 0 4.3-5 8.3-5.8 8.3 0.2 11 0 3.3-5.2 7-7.4 4.3 4.6 8 4.2 4.7-2.3 6.7-6 4.3-1.7 8-2.3 7 1.7 10.3 4.9 5.4 0 5.4 0c0.9-2.6-2.9-15.1-13.7-19.1s-13.3-1.5-17.3-9.5 -6.5-10.5-12.5-13 -10.3-2-11.2-11 -12.3-19-10.8-26.5 5.9-10.2 2-18.8 -12.4-9.2-11.9-19.2 4-15-2-25.5 -13.5-10.5-15-17 -4.8-11.9-0.5-18 0.8-6.7 6.7-9.3 8.8 3.7 13.8-4 8.5-12.2 11-12.7"/><path class="st0" d="M-20.1 599.3c7 0 15.3 0 24 2s9.7 4.3 24.3 4 16-2.3 25.7 0 14 5 29.3 6 17.3 2 31.7 4.3 12.3 5 28 4.3c15.7-0.7 14-2.1 26.7 0.1 12.7 2.2 23.7 4.6 38 4.6 14.3 0 39 2 50 3.3s22.3 5 34.7 4.7 42.7-1.7 50.3-1.3 7.3 6 25 6.3 23.7 6.3 29.7 0 0-12.3 12.7-11.3 17.7-0.7 25-2 16.7 0.7 22.3-7.3 13.3-13.1 23.7-13.9 18.3-3.2 24.7 0c6.3 3.2 20 11.9 28.7 12.6s50.3-1 64-1 14.3 1.1 29-4 26.3-11.7 36-11.4 18.3-3.4 31 0 26.7 6.3 35.7 5.7 7 1 16.7 1.3 16-3 21.3 1 1.3 3.7 16.7 3.4 22-1 34.7 4 10.3 1 23 6 58.7 26.3 75.7 31 33.7 7 43.7 12.7 0.7 8.7 16.7 10.3 14.3-4.7 23.7 2.7 19.3 7.3 34.7 9c15.3 1.7 21.3-5 37.3-6.3s44.3-2.3 53.3-1.7 9 0 21 0 16.3 2.3 22-1 12.4-8 15.1-12 -0.3-3 0-11.3 -2.7-9 1.1-15 6.2-5.3 3.8-16 -4.3-9.1-3.3-19.9 2.1-16.2 2.1-16.2"/><path class="st0" d="M778.9-43c0 0 1.7 1.7 0 8.7s-1 2.7-1.7 11 0 12.7 4 19 6.3 2.3 6.3 13 -1 9.3 0 18.7 5 23.7 4 29.3 1 9.3 2.3 15.3c1.4 6 2 12.2 1.7 18.3 -0.3 6.3 2.7 7.7 5.7 24s0.7 29.3 0 36c-0.6 8.3-0.1 16.5 1.5 24.7 1.5 6.7 0.8 11 7.5 15.3s6 4 9.7 8.7 15.7 11.7 24.3 19.7 6.7 9 13.7 17.3 17.7 14.7 24.3 22 15.7 19.3 17.7 33.7 6 15.3 4.3 24 -6.3 7.3-2.3 15.3 6 9.8 5.7 15.9 -2 4.8 3.3 11.8 13 8.7 13.3 17 4 16 6.7 21.7 6 8.3 5.7 16.7 6.3 24 11.7 30.7 9.7 8.3 12.3 14 2 6.3 8 10 13.3 10.7 17.3 12.7 3 1 3.3 5 -3.7 7.7 0 13.7 2.7 7 3.7 13.7 0.3 8.3 2 15 1.3 4.3 2.7 13.7 3.3 10.7 6.7 17 11.7 5.3 18.3 12.3c6.7 7 10.3 12 12.3 20.7s4.3 10.4 2.3 18.4 -1.3 14-1.3 17.3 1.7 6 3.7 11.7 2 8.7 7 15 7.7 2 9.7 11 1.3 15.7 10 20.7 10.7 5.3 12.7 8.8 6 4.5 6 12.8 -5 9.3 0 15.7 10.7 11 14.3 14.7 11.7 12.3 11.7 20 -3.3 7.3 4 14.3 7.5 7.3 15.7 10.7l8.1 3.4"/><path class="st0" d="M1063.9 682.3c0 0 7.2-4.7 6.1-15.5s-1.4-26.1-1.4-32.8 -4.4-13.3 1.5-23.3 8.8-12.7 8.5-15.4 -6.3-11-5-14.7 5.4-4.7 5-11.7 4.3-27.7 10-33.7 8.4-4.7 18.2-12 17.6-10.6 17.7-16.3"/><path class="st0" d="M2435.3 350.7c0 0-8 2-13 6s-4.3 5-8.3 2.7 -1-5.1-7-3.7 -12.7 3.9-17 5 -7.3 3.1-11 7.8 -3.7 7-8.3 8.7 -22.3 5.7-30.7 6.7 -14 5.7-21 7.7 -19.3 5-22.7 7.3 -3.3-0.3-7.3 0 -13 4.3-15.3 8.3 -5.3 6.3-11 6.3 -12.3 4-21 10.3 -4 8-13.7 12 -13.7 4.7-20.7 9 -6.3 10.7-15.3 11.7 -13.3 7.7-19.7 10 -14.7 4.7-22.3 10.3 -9.3 6.7-18 10.3 -14 1-18 6.7 -5.3 13.7-15 18.3 -13.3 4.6-20.3 9.6 -7 6.7-11.3 8.3 -1.7-0.7-9 2 -19.7 4.3-27.3 10.7 -11.7 7.3-16.7 10 -1.7 2.3-4 5.3 -0.7 3-10 2.7 -24.7 1.7-29.3 4.7 -14.3 2.7-19 4.7 -1 3.7-7.3 5.7 -30.3 2.3-35.7 4.7 -7.3 10-10.7 10.7 -26.3 2.7-35.7 2.3 -13.7 1.3-24.7 3.3 -25 3.5-32.3 6.4 -6.3 1.9-14 2.2 -8.7 6-14.7 7.7 -18 4.3-22.7 1.7 -5 0.6-15.7 1.1 -10-0.1-17.3-2.1 -7.3-2.3-14-2.3 -5.7-3-17.3-4 -20.7-2.3-26.3-2 -20 2.7-26 0c-6.7-3-13.7-5.2-21-6.3 -8.3-1.3-26-0.7-29.7-4.7s-11.7-1.7-21-3.7 -13.7-7.3-20-5.3 -11.3 2-22.3 2 -36-0.9-44-0.4 -12.3 1.4-17.7 5.8 -10.3 10.2-17.3 10.4 -8.7 5.6-12.3 7.6 -9 2-14.3 3.3 -5.3 2-8.3 3.7 -1.3 0.3-9.3 0 -8-0.7-15.3 0.8 -7.3 2.2-17 6.2c-5.5 2.2-10.8 5-15.7 8.3 -2.7 1.7-4-1.3-8 0s-20.7 7.3-26.3 13 -5.7 7.7-13.3 12.3 -14.3 9.3-19.3 11.3 -5.7 1.7-14.3 1.7 -17.3 5.3-22 6 -10-0.7-14.7-1.7 -11.3-1.7-15.3-5.3 -2.7-8-7.7-8 -7.7 3.7-11.7 0.7 -15-5.7-18-3.3 -8.3 0.3-9-2.3 -6.7-0.3-11.7 0 -7-2-9.3 1 -5.7 2-10.7-4.3 -5-10.8-10-17.2 0.5-7.4-6.4-11.8 -18.5-8.9-17.7-14.3c0 0-1.2 0.5-4.2 4.6s-2.7 15-7.3 21.7 -21.7 26-26.7 31.3 -4.7 14-4.7 14 -6.7 14-5.7 29.3 -2 5.7-5.3 11 -5.3 7.7-6.3 14.3 -2 7-5.3 12.3 -7.7 22.3-8.7 29 -2.3 15-6 18.3c-3.7 3.3-5.3 7.3-5.7 18.3 -0.2 6.7-0.7 13.4-1.7 20 -0.3 2.7 7.3 9.7 9 13.7s-1 9.3-4 14.7c-3 5.3-1.7 9 0 12.7 1.7 3.7 0.7 10.3 2.3 12.7s4 8.3 4 8.3"/><path class="st0" d="M1386.6 1105c0-2.7 0.7-8.7 0-15 -0.7-7.4-0.7-14.9 0-22.3 0.7-6.3 0.7-12.7 1.7-17.3s1-8.3 3.7-12.6 6-6.4 8.7-11.7 3.7-11.7 6.7-16.7 5-6 7.3-10.7 3.7-8 2-14.7 -1.3-9.2-5.3-16.6 -4.7-5.1-8-11.1 -0.7-10-6.7-10c-6.5 0.2-12.9-0.9-19-3 -8-2.7-21.3-4.3-26.7-9.7s-10-9.3-16-12 -4.3-4-10-12.3 -11.3-18.7-19-22.7 -14.3-5.3-20.3-11.3 -9.5-6.8-9.5-6.8"/><path class="st0" d="M1411.3 967.4c5 4.3 13.3 4.6 20 2.6s13-5.5 22.7-2.6 16.3 5.6 22.7 11.6 10.3 3.5 19.7 7.8 19.3 8.9 25.3 15.2 11 7.3 11 7.3"/><path class="st0" d="M2064.6 1104c-0.5-2.8-2.5-5.3-2.5-10.8s0.5-15 0-20 -4-13-8-18 -4.2-12.9-4.8-17.5 -0.2-4 3.8-8 4.4-11.5 3.7-16.5 -3.2-7.5 7.8-14 10.8-5 11.7-14.5 -0.3-42.7 0-45.9 -3.3 0.9-4-7.1 0.7-24 0-31 -4.3-8 0-13.5 4-12.8 4-12.8"/><path class="st0" d="M2438.1 260.2c-6.5-0.5-13-0.5-21.5-2.5s-14 1-19.5-3.5 -21-5-33-6 -28-7.7-44.5-8.8 -27.7 0.2-38.3 0 -8.2 1.7-22.2-0.5 -20-5.2-34-7.2 -17.5-0.7-31.5 3.7c-14 4.3-15 6.2-22 4s-5-6.8-15-4c-10 2.8-31 6.5-41-4.6s-10-13.1-17-16.6 -16-12.5-24-13 -21-4-27 0 -10 6.5-22 2.5 -11 0.5-17-6.5 -10.5-7.5-22-8 -8 0-19.5 0 -10 4.5-25.5 4.5 -22 2.6-37.5-4.7 -17-12.3-26.5-13.8c-7.3-1.3-14.7-1.3-22 0 -5 1-12.9-3.5-15.2-7s-2.8-5-11.8-5 -19.5-0.5-27.5-4.5 -20.5-12-27-15.5 -8-5.5-20.5-6.5 -25.5 2-33 6.5 -10 5.5-17.5 4.5 -16.5-2.5-19.5 1.5 -7 4-14.5 4 -18-11-24-21.2 -12-4.8-15-7.3 -5.5-8-8-12.5 -8.5-12.7-14.5-15.8 -14.5-6.2-19.5-13.7 -13.5-8.5-21.5-10 -12.5-1.5-17-7.5 -6.5-13-16-14.5 -11.5 1-20.5-4.5 -12.5-4.1-19-12 -2-11-11.5-16 -13-4.5-17-11.5 -7.5-11-9.5-21 -2.5-7.5-10.5-13.5 -13-8.5-13-13.5"/><path class="st0" d="M1977.1-41.3c0 0.5-1 1 3.5 5s6 2 5.5 7.5 1.2 3 0.1 7.5 0.4 2 4.4 0 2.5 0.5 7 2.5 1 1 8 0 5.5-3.2 9.5 1.1 7.5 1.9 10-2.1 4-7.4 9-5.9 7 5.4 16.5 6.4 7 1.5 14.5 1 16-1.1 24.5 2.9 9.5 8.4 18 5.2c5-1.9 10.2-3.1 15.5-3.6 0 0 6-4 16.5 4.7s11.5 10.3 16.5 9.8 -2.9 0.2 10.5 3c6 1.2 13.5 2 15-3 3.7-12.2-5.5-16.4 7-17.5s8-2 19.5 0 11 9 20.5 0 3-6.9 14.5-9 14 3.9 16-4.6c1.2-5.1 1.2-10.4 0-15.5"/><path class="st0" d="M1265.1 141c0 0 0.8-4.2-6.8 0s-8 4.3-10.7 2.2 -4-0.5-10.5 0 -8.5 2-12.5 0"/><path class="st0" d="M1266.9 55c0 0-2.5 1.2-8.7-2.3s-5.5-3-13.3-2 -7.8-1-8.3 6 -3 10-7 14 -3.5 8-2.5 12.5 -2 8.5-5 13.5 -4.2 6.9-2.4 12.9c1.9 6.1-1.4 17.1 0 22.3s0.6 6 0 12.6 -0.6 16.6 2.4 23.6 10 5.8 9.5 13.2 -0.6 10.8 1 14.3 2 1.8 2 1.8"/><path class="st0" d="M238.3 1106.7c0.3-4.5 2.8-10.5 10.8-16.5s28.5-18 29.5-25 15-22.2 21.5-28.8 18-15.7 22.5-29.7 14.5-33.5 25-42 44.5-32 59.5-48 29.3-26.5 46.2-30.5 19.8-7 21.8-12 10-10.5 17.5-16.5 3.5-8 10-3 0.5 5 6.5 5 4-2.7 10.5-7.8 20-4.7 27.5-3.7 10.5 3.5 20.5 1.5 8.4-1.8 18-2.1 19 2.1 32.5-11.9 20-25 27.5-27 22.5-5 30.5-13 21-16.5 29.5-19 9.5 0 23 0 45.5 7.5 51.5 2 10.5-8 22-8 20-1 23.5-5.5 8.5-5 17-2.5 11 5.5 18.5 5.5 40-1 48 0 8 5 11.5-1 9.5-11.5 14-15.5 6.5-10 16-15.5 16-2 20.5-5.5 4.5-11.5 13-13.5 15.5-10 23-13 6.5-3 16.5-7c10-4 16.5-6.6 18-10.6s4.5-6.1 7-8.3 12 3 12 3 -11-2.2-17.5-11.2 -5.5-9.5-15-11c-9.5-1.5-12.5-6-18-8.5s-10.5-3-16-3 -5.5-0.5-8-3c-2-2.3-5-3.5-8-3.5 -3 0-2.5 3.5-6 0s-8.5-8-9-10 -6.5-20-12-26 -7.5-6.8-12-12.2 -9.5-4.4-14-6.1 -5.5-4.2-9-8.7 -24.5-12.5-29-17.5 -10-4-11-10c-0.7-3.9-1.7-7.8-3-11.5"/><path class="st0" d="M1148.3 738.3c0 0-1.2-3.7-6.2-4.2s-5.7-2.5-8.8-7 -4.4-7-8.8-7 -9.9-0.5-12.4 0 -3 2.5-8-2.5 -6.8-2-9.9-10.5 0.9-7-6.1-12 -9.2 0-9.2 0"/><path class="st0" d="M1199.6 663c0.6 4.8 0.6 9.6 0 14.3 -1 7.8-1.8 11.8-8.4 12.8s-8.1 0.5-13.6 5 -13.5 7.5-21.5 4.5 -18.2-2.5-26.8-2.5 -19.7-0.5-30.7 0 -6.6 1.4-6.6 1.4"/><path class="st0" d="M1170.3 677.3c0 0-3.2 4.2-10.7 9s-4 4.9-14 6.6 -11.2 3.6-16.3 7.9 -4.8 6.3-4.8 12.8 -12.4 6.5-12.4 6.5 -1 11-3.5 12.5 -3-1-6.5 0 -7.4 6.5-10.9 11.5 -12.6 10-17.6 11 -15 7-22.5 11 -17.3 5.3-18.1 9.8"/><path class="st0" d="M507.6 830.7c0 0 1.5-2.5-2.5-7.8s-5-6.8-10-10.2 -7.5-0.5-10.5-7.5 -7.5-8.2-6.5-15.8 -1.5-14.2 3-16.7 5.5-4 4.5-7.5 -2-8.5-0.5-12.5 -1.5-9.5-2-14 1-4.5 1.5-9 -1.5-17.2-4-18.3 -3.3-4.2-2.6-10.2 6.1-12.5 4.1-20.5 -10-18.5-9.5-24.5 5.5-8 0-15.5 -19-9-19.3-14.3 -0.3-22.7 0-28.7 0.7-24.5-0.2-32 -0.4-10-6.9-15 -16.5-14-20-22 -9-13.5-12.5-18.5 -2.5-10-5.5-12.5 -18.5-3-22.5-13.5 -4.5-11-11.5-14 -18-6.5-21.5-11 -12-15-18-25.5 -15-30-22.5-33 -9-2.5-15-7.5 -6-8.5-12.5-9.5 -11.5-4.5-16.5-8.5 -9 2.4-13-3.3 -7.5-13.7-14-17.2 -2-3.5-13-5.5 -14 1-21.5-2.5 -13-6-13.5-10 -1.5-8.5-2.5-13.5 4.5-5 6.5-7.5 3-4.5 1-9.5 -9.7-6-7.6-13.5c2.1-7.5 3.1-9.5-0.4-15.5 -3.5-6-13-11.5-17-12.5s-7-2-10.5-8 -6-12-11-15.5 -6-3.5-5-9 4.8-11-0.4-15.5c-5.2-4.5-17.7-12.5-20.2-18 -2.5-5.5-13-12-14-18.5s-0.5-20.5 3-26 6.5-14 3-19 -8.9-8.5-6.4-14 -0.6-19.5-3-26.5 0.5-10.5-5.5-17.5S91.1 60 90.6 52.3s2.5-7.2-3.5-16.7 -18.5-13.5-26-16.5 -15-2-22.5-8.5c-5-4.4-9.6-9-14-14"/><path class="st0" d="M919.1 56.7c0 0-2.5-1.7-10-4.3s-11-1.8-16.5-4 -17.5-2.2-21-8.2 -5.5-7-12.5-9 -12.5-4-19.5-9 -15-12-22-17 -14.5-13.5-22-18.5 -16-9-25-18S757.1-43 757.1-43"/><path class="st0" d="M862.6-43c0 0 2 4.7-4 6.2s-17.5-3.5-29 0 -23 3.5-34 4.5 -17.5 11.5-28 13 -17 0.5-27.5 0 -33 6-43.5 8 -39 9.5-49 8 -50-4-58-4.5 -5-1.5-11.5 4.5 -13.5 13.5-21.5 18.5 -15 11.4-18 19c-2 4.6-5.7 8.3-10.3 10.2 0 0-0.8 4.7-4 0s-2.7-1.7-6.7-4.2 -9.5-4-9.7-8 -2.8-7-7.3-10 -17-18-18-25.5 9-30.3-3.5-39.7"/><path class="st0" d="M-20.4 131.7c0 0 1.5-6 15.5-9.5s32-5 40-8 23.5-10.5 37-13.5 49.5-4.5 59-9 16 0.5 27-2.5c11.9-3.1 24.2-4.7 36.5-5 10 0 22-4 34 0 12.1 4 24.9 5.5 37.6 4.5 12.9-1 22.4-2 35.9-2s16.5 3 29.5 1 6-3 17.5-2.5 12.5 3.5 17.5-0.5 11 0.4 20.5-2.3 20-4.2 30-8.7 12-4.2 19-9.3 8-8.2 14-7.7 10 0 17 3 3 5.8 19.5 4.7 23-2.2 28-7.7 5.7-4.3 9.7-4.3 -2.2-1.7 21.8-5.9 53-8.7 60.5-9.7 30.5 0.5 41.5 3.5 24.5 3.5 33 0 9-8 16.5-13 10.5-4.2 16-14.8 15-9.2 23.5-15.7 10.5-6 23.5-10.5 16.7-9.5 16.7-9.5 -7.7 13.5-7.7 20 0 10.5-5.5 18 -3 12.5-7 25.5 -1.5 14.5-9.5 26.5 -19.5 28.5-24 39 -4.5 17.5-10.5 26 -8 7-10 15 -7 13-8.5 16 -0.5 6.8-0.5 18.7 -1 13.3-3 14.3"/><path class="st0" d="M971.3 177.3c0 0-5.7 1.7-7.7-4s0.5-8.7-9-17.7 -14.2-6-24.3-16.5 -10.7-16.5-11.2-20"/><path class="st0" d="M193.1 336.7c0 0 3-3 6.5-11.5s9-13.5 7.5-27 -3.5-19 5-30 22.5-40 29.5-60.5 42-84.5 49-98 11.5-23 11.5-23"/><path class="st0" d="M2435.3 1078.7c0 0-20.2 3-29.7 0s-40-5.5-52.5-5.5 -29.5 2-36 0 -25.5-15-31-19.5c-4.2-3.4-9.2-5.6-14.5-6.5 -3-0.5-27.5-19-30.5-23s-51.5-47.5-58-56.8 -11-13.7-16.5-15.2 -24-17-34-27.5 -15.5-14-29.5-24 -30.7-25-30.8-32.5 -5.8-8.5-9.5-9 -24.7-7-28.2-16.5 -3-9.5-8-14.5 -15-7.5-18.5-16 -14-24.5-22-28 -10-7-15-13 -17.5-17-24.5-24.5 -15.5-8-22-18.5 -5.5-13-8.5-20.5 -11.5-8.5-18-22 -13.7-17-13.7-17 0.7 4 4.7-4.5 6-16.5 12-23.5 13-15.5 26-20 14 2.3 31.5-11.3 21-27.7 35-36.2 18.8-10.8 16.7-15.2"/><path class="st1" d="M106.6 772.7c3 0.4 6 0.4 9 0 5.3-0.7 6.7 0.3 11.3 0 4.7-0.3 7.3 2.1 11.7 0s5.7-3 12-4.7c6.3-1.7 9 0.7 12.7-2 3.7-2.7 9-6.3 11-6.3s4.7 5 9.3 5 8.3-0.1 13.3 1.9 6 3.5 14 6.9 13.7 6.5 17 7.8c3.3 1.3 14.3 6.3 20.7 6.3h17.6c6 0 6.4 2.7 14.9 1.7s12.2-0.3 18.2 2.7 10 6 21.3 5.7 18.7-2.6 26 0 11 1.3 14 4.6 0.3 11.3 7.7 15 14 7.2 20 5.6 9.7 0.7 17.3 0.4 5-2.3 14.3-2.3 21-0.8 24.3 1.9 8 2.8 9 4.4 0.3 9.3 5.7 9.3 30.7 4.4 38.7 3.4 19.7 0.7 23.7-1.7 21-7 26.7-11 7.3-7.3 18.3-9.7 22-4 25.3-3 5.3 7 11.7 5.3 -0.3-1.3 8-5.3 18.7-9.8 21-14.8 -2-13.2 12.3-15.9 11.3 0.7 23.7-1.7 31.7-0.2 35.3 4.4 7.3 6.1 12.3 13.2 6.3 21.8 10 26.4 5 8.3 15 16.3 17.3 10 23.3 17.3 24.8 17.7 29.6 23.3 0.8 4.4 10.8 9.7 17.7 10.3 19.7 5.3 3-5 8-5.7 11 2.3 16.3-1.7 7-1.7 11.3-5.3 5.7-4.3 14.7-5.7 13.7 1 21.7 1 11 0.7 18.7 0.7 17.3-3 27.3-0.3 11.3 2.7 24.3 4 15.5-2 24.1 2.7 20.7 6 28.6 9 13.3 0.7 17 0c5.5-1.2 11.2-1.2 16.7 0 8.3 1.7 7 3.1 17.3 1.6s8-1.9 19-4.6 18-2.7 29.2 0.2 22.2 2.8 31.8 0 17-3.5 24.7-2.8 23.1 6.4 30 9.1 1.7 3.3 12.7 9.3 20.3 9.7 25 13.7 14.3 4.3 19.7 4.3c6.1 0.2 12 1.4 17.7 3.7 4.7 2 9 5 23.3 3.7s16-3.3 26.7-3.3 18.5-0.5 18.5-0.5"/><path class="st1" d="M1789.5 1106.7c-3.3-2.7-7.5-9.5-11.4-9.4s-11.9-2.1-14.2-6.2 -12-10.1-15-11.1 -9.3-1.3-14.7-4 -34.7-13-34.7-13 -16.3-1.1-22-5.2 -9.7-8.8-16-11.1 -27.3-3.7-27.3-3.7 -17.3-5.6-24.7-5.3 -15.8-4.4-20.2-5 -15.8-4.2-20.1-5.3 -12.7-2.7-20-5.1 -10.3-9.8-16.7-13"/><path class="st1" d="M1965.6 1104c0 0 5-13.2 3.3-17.8s-4-31.2-3.3-38.6 1.2-33.3 1.8-41.3 4.6-5.7 4.6-9.3 -0.3-10 0-15.7 6-9.8 5-15.1 -5.7-13.4-2.3-19.5 8-21.1 7.7-31.8 3.7-56 3.7-60 -6.7-10-5.3-27.7 3.7-44 3.7-44"/><path class="st1" d="M2435.3 619.7c0 0-18.7 6.8-25.7 4.2s-11.5-13-24.5-14.1 -19.5 1.7-26.5-0.4 -6.5-5.8-14-6.2 -25.5 0.6-33.5-3.9 -58-19.5-70-20.5 -32-7-39.5-6.5 -32.5 6-44 5 -26-3-33.5-3 -41.5-2.2-54-4.8 -24-2.7-35.5-5.2 -19.2-4.6-23.9-4"/><path class="st1" d="M2095.3 670.7c0.4-4.5 0.4-9.1 0-13.6 -0.7-6-9.2-23.1-10.2-30.3s-3.5-15.9-2.5-21.5 3-16.2 1.5-18.4 -7.5-16.2-8.5-22.7 -13.3-58.2-17.4-64.8 -6.8-5.2-8.9-16.7 -22.2-80.1-23.7-85.3 3.5-1.4 0-14.3 3-18.5-4-25.4 -8-10-13-10.7 -7.5-6.2-7-12.8 4.4-8.5-0.1-14.5 -3.9-23-3.4-30.5 0.9-22-0.3-29 0-16.7 0-16.7l-13.2-0.3c0 0-6.5-9.1-11-14.6s-9.5-4-15.5-14 -11.7-13.6-11.7-13.6"/><path class="st1" d="M1146.3 386.2c0 0 7.2-1.8 11.8 3.4s-1.7 3.1 8.2 8.1 14.6 16.5 22.7 18 19.8 6 21.9 8 3.4 18 8.8 23.8 6.9 5.8 7.4 10.2 3.8 12.9 7.4 17.8 7.2 7.7 14.6 10.2 20.5 4 25.5 8.5 14 6.8 20 4.2 16.1-3.1 16-2.5 5 5.3 9 7.8 10 6.5 19.2 8 10.8 2 15.8 5.5 4 2.6 12.5 2.8 7.5-2.2 13.5 0 11.5-2.2 16.5 0 8 7.6 15 9.1 8.5 7.6 13.5 10.1 12.5 5.1 15.5 9.3 6 2.2 15.5 6.2 16.5 12.5 15 20.5 0.2 12.6 0.2 12.6"/><path class="st1" d="M2435.3 822.9c0 0-13.7-3.9-23.7-10.6s-24-13.3-30.7-14 -58 0-64.7 0 0.7-5.6-16.7-9.2 -22.3-7.9-34.2-8.4 -122.5 0.5-131.8 0 -14.7-4.5-28.7-4.8 -62 0.3-74 0 -13.3 5.3-38.7 4.8 -36.5 8.6-45.9 8.4 -25.4-10.2-37.4-11.2 -18.7 4.3-27.3 0 -24.4-9-41.2-9.7 -100.8-0.7-113.1 0 -18.3 11.6-26.3 12.5 -30.2 0.2-39.9-2.8 -17.5 1.9-31.5 2.8 -50 0.9-59.3 1.2 -91.3 0.6-102-1.2 -12 2.9-23.3 1.2 -9.6-4.8-19.3-8.4l-9.7-3.6"/><path class="st1" d="M1879.6 592.2c0 0-0.4-3.3 4.8-9.9s9.9-13.3 11.9-19.3 6.7-8 9.3-12.3 6.7-24.3 5.3-35.7 -1.5-14.4 0.3-25.9 5.7-16.8 17.7-22.8 16.7-14.9 27.3-16.1 20 6.1 34.7 12.1 31.3 8.7 36.7 8 16 2.7 27.3 5 23.3 7.3 33.3 11.5 20.7 6.3 30 10.3 11.4 5.2 21.7 2.2 16.1-1.7 19.9-9.7c2.6-5.2 5.7-10.2 9.4-14.7"/><path class="st1" d="M1727.3 51.7c0 0 3.7-0.9-9-1.8s-21.3 3.6-28.7 0 -5.3-9.7-10.7-9 -9.4 5.4-22.7 5.4 -10 7.1-26 11.9 -15.6 9.9-32.6 14 -23 2.1-23 2.1"/><path class="st1" d="M1869.5 668.7c0 0-8.6-5.7-10.6-14.3s-17.2-21.3-23.6-32.7 -24.5-20.3-29.7-18.6"/><path class="st1" d="M2433.6 710.3c0 0-20 11.3-24.7 12.3s-28.7-0.3-33.7 0S2274.2 782 2274.2 782"/><path class="st1" d="M691.6 357.7c0 0-6 13.7-12.7 14.2s-14 3.9-20 11.2 -16.7 18-24.7 20 -34.7 4.6-42.7 10.6 -8 8.3-18 11.5 -10 1.8-21.3 10.8 -16 21-20 26.3 -11.3 22.3-15.3 24.5 -10 0.2-16 2.8c-6 2.7-21.3 3.3-28.7 4s-6.7 3.3-15 5.3 -15.1 10.7-19.4 10.7 -31.6 12.6-35 10.3 -9.3 21-20.7 23 -21.3-3.3-28.7 0 -22 20.7-30 20.7 -24.7-0.7-31.3-4.7 -7.3-0.7-16-4.7 -13.3-4.7-22.7-0.7 -18-0.7-31.3 6c-13.3 6.7-25.6 16.7-29.1 12.7s-9.5-16-16.8-16c-7.3 0-18.7-6-20-5.7 -1.3 0.3-3.3-4-12.7-11.5s-16-12.8-19.3-12.8c-2.5 0.1-4.9 0.3-7.3 0.7"/><path class="st1" d="M340.6 85.6c0 0 4.4 6.7 5 20.7s6 16.4 6 38.2 3.3 69.1 3.3 75.8 -0.3 6 23.5 6 26.5 1.3 28.5-6 4-7.1 16-7.6 16.3-5.4 21.3 7.6 8.7 10.7 21.3 14.3c12.7 3.7 18 6 26.7 8.8s13.3-3.5 21.3-4.3 24.7-7.5 32-12.8 18-1.3 27.3-8.7 13.3-13.8 24-12.9 29.3-6.7 36-6.9 2-4.3 20.7-4.3 27.3-5.1 47.3 11.2 20.7 19.6 28.7 20.9 8-2 18 9 9.3 13.1 16.7 12.7 14.9 0 14.9 0"/><path class="st1" d="M-15.4 153c1.7 1.7 3.8 3.1 6 4 3 1 2 3.7 8.3 3.3s10.3-0.6 16.7 0 6.7 0.4 15 0 14.3 3.5 22.7 0.4 8.7-4.1 16.7-3.3 17 1.2 17 1.2 11.8 0.9 19.7-1.2 13.7-2.8 18.3-2.1c4.7 0.7 13 2 18.3-2.3 5.3-4.3 8.7-4.3 16.7-4.3s11.7 0.7 15.3-1.3 13.7 2.3 17.8 0 6.5-3.7 12.5-4.3 21.3 1.3 25.7 0 13-0.3 23.3-0.1c10.3 0.1 11.8-0.6 17.6 1.6s23.8 7.8 34.8 7.7 19 1.8 28.3 0c5.4-1.1 10.9-1.7 16.4-1.8"/><path class="st1" d="M64.9 157.2c0 0 38 52.1 47.7 59.5s31.3 40.7 33 44c1.7 3.3 32 12.3 35.7 21.3 3.7 9 9.3 39.3 9.3 39.3"/><path class="st1" d="M151.6 1105c-1.5-2.9-3.3-5.5-5.3-8 -3-3.3-3-4-3-9.3s-0.7-13.7-3-17.3c-2.3-3.7-6.7-10-6.7-13s0.7-5.7-3.3-8.3c-4-2.7-3.7-6.3-6-9.3s-2.3-2.7-3.7-3.3 1.7-2 0-4c-0.9-1.2-2.2-2.1-3.5-2.7 0-1.8-0.6-3.6-1.8-5 -1.3-1.7-3.1-3.1-5-4 0 0-7.8 0.2-9 0s-11.7 2.7-13.3 0 -0.7-4.3-2-7.3c-1-2-2.3-3.8-4-5.3 0 0-3-12.3-8.3-13s-9.7 0-8-5 -1.3-9.7 0-12.3 3.3-4 4.3-10 2-8.3 2.7-14.3 2.3-16 0.3-20.3 -5-11.3-5.7-17 -7-22-5.3-24.7 0.3-8.3 0-13 -4.7-7 0-10.7 7.3-12.7 8.3-16 4.7-14.7 3.7-19 -3.7-5.2-3.7-9.8 -1.7-21.6-4.7-23.6 -4.3-3-3.7-8 3-9.7 3.7-13 0.7-13 3.3-16.3 3-5.7 3-14 -1.3-11.3 0.7-21.7 2.3-17 3.7-20.7 3.7-7.7 5.3-12.7 1-13 4.3-17.7 5.7-7.3 4.7-13.3 -4-11.3-1.3-14 5.7-4.3 8-6.3 3.3-4 5-7.7 8.3-12 12.7-11.7 6.2 0 6.3-2.7 -1-8-0.7-12 3.3-6.3 3.7-12.3 4.7-10.3 2-13.7c-2.7-3.3-6.3-7.7-6.3-10.7s3.3-12 4.3-17 1.7-8.7-1-11.7 -2.7-2-3-6.7 -6.7-9.3-3.2-14.3c3.5-5 8.1-11.3 10.7-15 2.5-3.7 1.9-5 4.9-8.7s4-4.3 5.7-8.7c1.7-4.3 0.3-4.6 4.3-6.8 4.6-2.8 8.2-6.8 10.7-11.5 2.3-4.7 5.7-8.3 8.7-10s8.3-9 14.3-10.7 8-19.7 8.3-22.3c0.3-2.7 3.3-21.7 0-33.7 -3.3-12-5-21-3.3-26.3 1.7-5.3 2 0.7 2.7-11.7 0.7-12.3 6.7-18.7 7.6-19.3"/><path class="st1" d="M966.6 668.8c3.1-1.6 6.3-2.9 9.6-3.8 5.7-1.7 12-2.7 17.4-2s16 1.7 23 2c7 0.3 9.7-0.4 16.4 0s7.9 2 7.9 2"/><path class="st1" d="M1069.3 789.2c0 0 5.3-7.8 4-12.8s-3.3-3.1-4-8.6 0.7-14.1 0-21.8 -2.7-20.7-3-28.7 2-10 0-17.7c-1.2-4.4-1.9-8.8-2.3-13.3"/><path class="st1" d="M1037.3 702.7c0 0 2.7 6.2 8 9.1s7.1 5.5 15.4 6.2 2.8 2.8 12.8 0 10.1-2.1 16.1-2.4 9.4-3 12-8.6 6.3-10.4 6.6-15.5 8-23.5 1.3-28.7c-5.2-4.2-11.8-6.4-18.4-6.1 -5.9 0-13.5-5-16.4-5.7s-3.5-2.3-10.9 0 -15.1 7.7-23 9.5 -12 0.5-12.3 8.3 1 16.4 2 22.6S1033.3 702 1037.3 702.7z"/><path class="st1" d="M1218.9 670.3c0 0-2.3-3.7-8-1.5s-8.3 4.2-14.3 4.5 -18-1.5-18-1.5"/><path class="st1" d="M1124.5 713.7c0 0-8.9-9.3-8.9-14s-2-11.1 0-16.3 5.3-7.7 2.8-17.5 -2.2-8.8 0-18.2 7.4-21.8 7.4-21.8"/><path class="st1" d="M1091.2 717c0 0-1.2 5.3-2.2 9.6s-2 5-6.7 6.2 -4.1 5.4-8.8 6.8 -11.2-0.8-15.2-1.9 -9.7-0.2-14 0 -8.5-0.1-11.2-4.9 -7.8-4.9-11.1-6.2c-3.3-1.3-9-6-9-11s1.8-14.8 1.8-14.8"/><path class="st1" d="M1092 698.5c-2.4-0.8-4-3.1-3.8-5.6 0-4.6-1.3-7.5 0-13.9s-1.2-14.1 1.6-18.2 4.3-4.1 4.3-4.1"/><path class="st1" d="M856.1-41.3c0 0 4 8.5 4 14s-2 13-4 18 -0.1 24.4 0 32 4.7 15.1-0.9 19.3 -13.1 4-19.6 2.4 -7.5 1.4-9.5-2.4 -4.5-13.8-9.5-18.3 -9.7-9.6-13.8-11.1 -15.2-3.9-15.2-3.9"/><path class="st1" d="M734.6-43c0 0-2 20.3-2 26s3.5 7.9 6.5 19 -2.5 13.2 7 14.7 39.6-1 49.3 0 20.7-1.1 19.7-4.1 5.5-7.4 4.5-15.9 -4-39.7-4-39.7"/><path class="st2" d="M1197.1 417.2c0 0-1.5-18-2.5-20.3s-4-10.4-3.5-14 -1.5-8.2-3.5-12.3 -6-10.7-6-13.8 2.5-10.7 0-14.8 -11.5-2.5-7-10.2 16-29.6 16-33.2 8-13.8 6.5-17.9l-1.5-4.1"/><path class="st2" d="M1397.1-39.7c0 0-7 11.3-7 16.3s-1.5 10-2.5 17 -2.5 11.5 0 17.5 -4.2 12-1.4 28 1.7 16.5-0.7 20 -5.4 13.5-5.4 17.5 2 12.3 3.5 15.7l1.5 3.3c0 0-0.5 7.5-5 18.5s-8.5 19.5-9.5 23 -3 9-5 12 -6.5 7.5-6.5 10.5 1 5 0 11.5 0 11-2.5 18.5 -5 11-5.5 16 -1.5 13.5 0 20.5 -1.1 8.5-0.8 14 1.2 9.5 0 12 -8.7 8-8.7 13.5 2.5 6.5 0 11 0 9.5 0 16.5 -5.5 15.5-5 21.5 0.9 12.5 0 18 4.5 16 3.5 23.5 -0.3 14.5-3.7 19 -2.2 17.8 0 22.2 -0.9 15.8-2.1 19.8 -3.8 4.5-4.8 12.5 4 13.5 0 24.5 -1 15-7 21.5 -6 6.5-9.5 13 -2 11-6 17 -5.5 11.5-11 18.5 -10 10.5-13 14.5 -7.5 5-13.5 5.5 -6 1-9 6.5 -9 9-18.5 11.5 -13 4.5-22 7 -10.5 4-17 4 -11.5 0.5-11.5 3.5 5 8 0 9.5 -5.1 1-6.3 3.5 -4.2-1.5-12 0 -12.2 6.5-21.7 7.5 -17.2-1.5-22.3 2 -12.7 4-17.7 8 -6.5 5-8 3.5 -4.5-2-7-1.5 -5 1-6.5-2 -0.5-3.1-5.5-4.1 -8-0.9-10.5-4.4 -4.7-11.5-7.8-13.5 -5.7-7.5-11.7-7.5c-5.2 0-10.4-0.6-15.5-2 -3-1-4-0.5-8.5-5s-10-4.5-12-3.5l-2 1"/><path class="st2" d="M1126.1-39.7c0 0-0.7 6.3 3.2 9.8s5.7 2.5 8 6.5 5.8 6 7.8 9.5 -0.5 0.5 0 6 -0.9 4 0.8 8.5 -1.8 2.5-2.8 5.5 1 4.5 0.5 9 -2 1-4 8.5 -5.7 13-2.3 14.5"/><path class="st2" d="M1167.6 56.7c0 0 1.5 0.5 0 4s-0.5 1 0 7 1.8 3.5 0.7 10.5 -2.9 2.3 0.5 10.2 2.4 8.8 4.6 15.3 3.2 5 5.7 8 1 4 0 8.5 -4.8 5 1.4 12.5 5.1 7 4.9 13.5 -3.3 6 0 10 1.3 9.5 2.8 15 3.5 1.3 3.5 10.2v22.3c0 6.5 1 6.5 0 14s-3.1 8.5-6.3 13.5 -6.1 8.5-5.9 12.5 -1.8-3.5-3.8 6.5 -3 8-2.2 12 3.3 10.5 0 12 -1.3-3-3.3 1.5 -2.2 7.8-3.3 10.2 -1.2-1.2-5.2-3.2 -5.5-8-10.5-6 -5 2.5-8.5 0 -4.8-5.5-6.4-3.5c-1.8 2.4-4.2 4.3-6.9 5.5 -4.2 2-5.7 3-10.2 2s-6-1.5-10-1 -6.5 1-8 2.5l-1.5 1.5"/><path class="st2" d="M1083.6-39.7c0 0-1.5 1.3 0 7.8s-2.5 7.5 0 10.5 -0.3 6.5 0.3 12 4 4.2-1.2 9.6 -4.2 5.9-4.2 11.9 -0.1 8.5 3.5 17 6.5 14 6 21.5 -3.4 10 0.1 16.5 4.4 0.5 3.4 6.5 -0.8 7.3 0.4 14.7 5 4.3 3.3 8 0.5 4.7 0.4 7.3 2.9 10.7 5.2 15c1.4 2.3 2.6 4.6 3.7 7 2 4.3 2.3 3.3 1.3 7.3 -0.9 4.4-2.2 8.8-3.7 13 -2 5.3-1 6.7 0.3 10s3 8.3 2.3 12.7 -1 9.3-3.3 11 -3.3 4-2 9 1 6.3 1.7 11.3 1 4.3 0.3 7.3 0 5.7-4 8.7c-1.8 1.3-3.5 2.7-5.1 4.3"/><path class="st2" d="M1065.6 131.3c0.5 1.8 1.5 3.5 3 4.7 2.3 1.7 3.7-0.3 5.7 0s2.3-3.3 6-2 3 0.3 8.7-2.7 7.3-3.7 10.7-4c1.9-0.2 3.9-0.2 5.8 0"/><path class="st2" d="M1016.6-41.3c-0.7 5.5 1.7 10.9 6.3 14 8 5.7 8.7 5 12.3 9.7s19 15.7 21.7 21 3.7 5.7 8.7 5.7 5 0.8 9 2c4 1.2 5.8 4.3 10.9 1.7s7.4-3.6 12.1 1 9.7 5 13.3 5 4.3-2.7 8.3 0 1 10.3 11.3 15.5 10.3 8.9 17.3 12.9 3.7 5 12.7 7.7 8.7 2.3 18.7 2 12 3.7 17.8 0 3.4-5.7 9.3-6 6.8 1.3 13.4-2.7 6.9-6.7 12.9-7.8 15-0.8 17.7-4.5c4.4-6 9.6-11.5 15.3-16.3 6.7-5.3 12.3-12.7 16.3-14 0.8-0.2 1.6-0.4 2.3-0.6 2.6-0.4 5.2-0.5 7.9-0.3 0 0-9.2 0.5-11.2-2.5s-3.3-3.3-5.3-3.7 -5.7-0.3-8.3-4.3 -4.7-16.3-9-21.3 -5.3-5-10.3-7.7c-5-2.7-14.7-4.7-13.3-6.3 0.2 2.4 0.2 4.9 0 7.3 -0.3 4.7-1 7 0.2 10.7 1 2.8 1.8 5.7 2.5 8.7 0.7 3 0.3 4.7 0 9s-1.2 3 0.4 9.7 3.6 7.3 2.6 11 -2.3 3.3-1.3 10 4.2 8.3 3.4 15.2 -0.7 9.2 0.1 12.5 0.9 5.7 0 12.3 0.6 7-0.1 12 -4.1 1.7-1.8 6.7 3.7 4-0.3 8.7 -4.3 4-4 9.3c0.3 5.3-2 9 2.3 7.7s7.7-4.7 8-2"/><path class="st2" d="M930.3-39.7c0 0 4.7 10.7 3.3 14s-3.2 4 0.2 9 1.4 2.3 3.4 7.7 3 7.3 6.3 11.3 7 3.3 7.7 8.3 0 3.7 3.3 8 6.7 5.3 7.7 8.7c1.3 4.4 3 8.7 5 12.8 2.7 5.5 3.3 9.2 8 11.8s7.7 2.3 7.7 6.3v6c0 0 0.7 12.3 5 16.3s10.7 9.7 14.3 15.7 3.7 9.6 7 15.6 4 7.4 7.3 10.1c4.5 3.6 9.2 6.9 14 9.9 5 3.1 6.3 2.4 7.3 11.2s3.7 14.2 10 19.2 17 13.4 20.7 21.9 3.7 8.8 6 11.5"/><path class="st2" d="M1336.3-41.3c0 0 2 1.3 1.7 4.7 -0.3 3.3-5.9 3.3 0 6s5.6 1 7.6 3.7 1.7 4.3 6.7 4.3c3.7-0.1 7.4 0.3 11 1.3 3.7 1 6.7 4 11 6.3s3 3 8 2 10 1.3 12.7-1 3.3-2.7 8.3-0.7 5.7 3.7 12.7 4.3 10-1 13.7-2.7 8.3-4.3 12-4 5 2.3 7.7 1 3-4.3 8.7-5.7c2.6-0.7 5.3-1.2 8-1.3 0 0 9-5 9.3-8s3.7-2.3 5.7-4 5.3-1.3 9.3 0.7 1 5.3 11.3 5 14.7 0.3 16.3-2.7l0 0"/><path class="st2" d="M1657.3-39.7c0 0-1-0.7 0 3 1 3.7 0.7 2.7 0 5.3s1 3.1-3.3 5.6 -4.7 1.4-4.7 4.8 3.7 3.7 0 5 -4 1-4.3 3 -0.7 1-2.7 2.8 -4 3.9-2.7 5.5 7.3 8.7 6.3 12.3 -2 1-0.7 6 -1.3 4-1.7 14 -1 23-0.3 27.3 4 6.7 8.7 10.7 7.6-0.3 6 6 -2.6 1-1.6 6.3 5.8 4 2.1 7.7 -1.1 3.7-5.8 8 -7 3-7 11.3 4.4 20.3 3.9 25 0.5 10.7 3.1 13.2c1.7 1.6 3.6 2.8 5.7 3.8 0 0-7 6-12.7 8.7s-9.7 3.7-12.3 8 -2.7 8.7-7 13 -5 11.3-6.3 13.3 -3.7 1.3-7.7 3.7 -2.3 4-6.7 9 -7.3 7.5-8.7 7.2 -5.3 1.2-9.3 0 -9.3-2.6-12.7-1.6 -6.3 0.8-11 2.1 -8.7-2.8-11-4.1 -2-1.3-6-1.3 -6.3-3.3-9.7-3.3 -7 2.7-12.7 2c-5-0.8-10-1-15-0.7 -8.7 0.3-10.3-0.7-20 0.3s-9.7-0.7-15.3 1.7 -5.7 5.8-12 4.9 -8.7 0.6-15.3 0 -6-1.9-9.3-2.2 -6.7 2.8-11 2.2 -7.7 1.7-10.7 0.7 -4.3-5.7-7-7.3 -5-3-9.3-2.3 -14 5.3-15.3 3.7 -4 1-7.3 2.7 -3 4.2-10.3 2.6 -10.4-2.4-15.7-2.5 -9 0.9-17.3-0.4 -16 0.3-21-5.7c-5.4-6.3-12.5-10.9-20.5-13.3 -7.2-2-16.9-9.3-25.2-9s-6.3 1.7-12.7-0.3 -4.5-3.3-11.9-2 -14.4 2.7-17.8 3.7 -5.3 0.7-10.7-0.3 -9.3-1.7-14.7-0.3 -7.7 1.7-7.7 1.7"/><path class="st2" d="M1709.9-41.3c0 0-2 4.7 0 7.3 2 2.7 1.3 3.3 5.7 6s5.3 2.7 5.3 5.3 -1.7 3.3 0 7.3 2 7.7 4.7 9 5.3 1 3.7 4 -3.6 5.3 0.5 7 5.8 5.7 6.8 10.3 3.7 5.3 5.3 12 0.7 7.3 4.7 10.3 5.7 7 12.7 8.3 9.7 0.3 13.3 3 3.3-1.3 6.3 2 11.3 9.3 13 15.7 5 11.7 10.3 13.7 10 3.3 12 7.7 2.7 4 9 5.7 11.3 3.3 11.3 3.3"/><path class="st2" d="M1874.9-41.3c-1 2.7-4 4.3-4.7 6.7 -0.8 2.9-1.2 5.9-1.3 8.9 0 2.1 2 6.1 0 9.4s-4.7 4.7-3.7 9 1.6 4.7-0.2 7 -0.8 4-3.1 6.3 -1.3 1.7-1.3 5.7 -4.3 3-4.3 6.3 1.3 4.3 0 9.7 -3.3 5-4 10.3 1.3 6.3-3.3 12.7 -4.3 5-5 13.3 1.7 10-2.3 17.3 -8.7 8-7 21 5 9.3 5 14.7 0.3 4.3 3.3 10 4.7 8.7 2.3 12.7 -5.3 2.7-5.7 7.7 1.7 5.7-0.3 9 -3.3 2.3-4.7 5.3 -4.7 8.3-3 15.3 4.7 8.7 3 14.7 -1.6 4.7-3.5 10.7 0.9 8 0 15.3 -0.2 6.3-3.9 12.3c-3.7 6-6.3 8.3-6.3 17.7s5 10.3 0 14 -8.7 6.3-10.7 12 -1.7 7.7-1.3 15 3.5 13.7-0.2 20.7 -5.8 11.7-9.4 18.3 -7 12.3-7 18.3v20.3c0 4.3 1 8.3 0 12.3s0.3 5 0 10.3 1.6 9.3-0.4 15.7 -3 6.7-2 13.7 3.7 6.7 3.3 12 -2.3 9.3 1.3 22.3 3.3 15.3 6.3 20.3 7 7.3 9.7 15.7c2.7 8.3 0.3 13.3 7.7 19s11.7 7.3 17.7 8.7 6.7 1 11 6 12.7 20 16.3 31.7 5 16 6.3 22.3 2.7 9.7 3.7 17.3 6 20.3 6.7 28.7 0.3 5 1.3 12.7 5.3 4.3 1.7 14 -6.7 6.7-2.7 14.7 8.7 4 8.7 13.3 1 10.3 0 19 -0.4 3.3 0.4 12.3 3.8 5.3 0 12 -1.4 8.7-4.4 10.7 -4 0.3-4.7 4.3 -0.3 3.7-1.3 7 -0.7 4-3 8 1.3 4.7-1.3 6 -3.7-3.3-4.7 3.3 1 7.3-2.3 8.7 -5-0.3-8.7 4.7 -4.3 3.7-4 8.7c0.2 4.6 1.1 9.1 2.7 13.3 1.7 4.3 4 4.7 2.7 10.3s-2.7 3-1 9 4.7 6.3 4.3 11 -2 5-1.3 9 1.3 8.3 1.3 8.3"/><path class="st2" d="M1891.3 1104c0-5.3 2.3-11.3 0-13.7s-8-9.3-6.7-11.7 -3.7-3-2-9.3 2.7-12.3 2.7-15.3 -4.3-6.3-3-11.7 5-42 1.7-43.7 -3-2-6.3-5.7 -4.7-2.7-4.7-6 2.7-7.7 0-10.3 -5.3-6.3-2-9 2.7-5.7 3-9.3 -3-65.7-1.3-72.7 1-23 3-28 2.3-7 0.3-8.3 -1.3-2-9-5 -11.7-4-17.7-8 -4.3 0-6-4 -2-8-5.7-11 -8-5.3-8.7-8.3 -2.7-6-6-9.3 -4.3-4.7-3-8 3-5 4.7-10.7 2.7-7.7 8-9.3 8-2.7 11.7-1.7 8.5 6.6 11.6 2.8"/><path class="st2" d="M1745.9 1104c0 0-1 0.3 0-4.3s3-1 3-7.3 -1.7-7.7 2-11 1.3-5.7 4.7-10 7.3-5 7.3-9.7 -2.7-8 0-10 2.7-2.7 2-7 -3.3-3-2.3-5.3 5.3-7 4.3-10 -6-7.3-5-14.7 4.3-8.7 3.7-14.3 -2.3-5.7-2-12.7 1.6-9 3.5-11.3 3.2-2 3.2-6.7 -1-18.7 0-22 -2-10.3 0-16.3 4-13 2.7-18 0.2-3 0.4-9 1.4-5.3 0-9.7 -3.1-8-3.1-13.3 -1.3-12.3-4.7-21 -5.7-14.3-5.8-20.3 -2.8-10-5.5-13.3 -4-3-2.7-7 3.3-2.7 3.3-8.7 -1.3-7.7 0-12.7 1.3-6.7 1.3-12V781l-1.7-3"/><path class="st2" d="M2251.6 1031.7c0 0-26.3 2.3-39.3 1.7s-45.3-1-48-1.7 -2-2-5.7-6.3 -2.3-3.3-10.3-3.3 -93.7-2-101-1.7 -16.3-2-21-3.7 -19-10-26.3-10.7 -7.7-1.7-10.7-5 -9-13.7-10-17.7 -3.7-12.3-7.7-12.3 -14-1.3-19.7 0c-7.8 1.7-15.9 1.5-23.7-0.6 -8.7-2.4-11.7-4.4-15.7-1.7s-5 0.3-10 4 -2 3.7-7.7 1.7 -11.3-2-14.3 1 -10.3 5.7-15.7 4 -9.7-2-15-0.3 -9.3 1.7-14 0 -4-1.7-6-3.3 -2.3-1-6.3 0.3 -6 3-15 0.7 -11.3-4.7-15.3-5 -9 0.7-12 3.7 -12 2.6-14.7 5.7 3.7 3-11 6 -14.3 1.7-22.7 5 -12.7 10.3-20.7 6.3 -14.3-3.3-15-8 -1-5.7-5.3-8 -5-1.3-11.3-4 -6-3.7-12.7-3.7 -10-0.3-13-2.3 -5.3 0-12.7 0.3 -8.7 1-18.3-0.3 -11-3.7-13 0.3 -3.3 3-4 6 -3 4-6 6.7c-2.2 2.1-4.2 4.5-6 7 -1.3 1.7-0.7 0-6 1.7s-9 1-11 4c-2.2 3.4-4.1 7-5.7 10.7 -1.7 3.7 1 6-3.3 6s-3.7 3-9.3 0 -9.7-4-18.3-4.7 -5-2-8.7-0.7 -4.7 4.7-7.7 7.7 -3.3 2.7-3.3 9.3 5 6.7 0 12 -7 5-7 12.3 -0.7 7-3.7 12 -2.3 4-3 10.3 -0.3 4.7-3 14 -5 21-5 21"/><path class="st2" d="M2049.3 1105.7c0 0-5-3-9-5s-9-3-11-6.3 -3.3-3.3-8.3-3.3 -19.7-1.3-27.3 0 -16.3 2-23.3 1 -16-3.3-21.3-7 -13-4-15-8.7 -4.7-8.7-9-10.7 -14-1.3-23 0 -11 0.3-15.3 3.7 -8.3 5-10.8 11.3 -5.2 7-13.8 9.7 -14.3 3-17.7 2 -3.3 1-6.3 5 -20.7 11.7-25 10.7"/><path class="st2" d="M2251.6 1105.7c0-4.3-0.7-13.5 0-19.4s-0.7-6.9-2-9.6 0.7-7 0-13.3c-0.7-7-0.9-14-0.5-21 0.5-7.7 2.5-8.7 2.6-15.3s-0.5-15.3 0-22 -2.4-17.7 0-27.7 0.5-7.7 2.8-13.3 4-10.3 4-18.3v-39c0-8.7-2.3-10.7 1.3-14.3s8.7-10 10.7-14 0.3-11.7 0-47 -1-86.3-1-90.7 3.7-11.3-1-16 -5.3-6-4.7-13 1.7-4.7-1.7-9 -8.1-12-13.4-17.7 -6-8.3-10.3-12.3l-4.3-4"/><path class="st2" d="M2188.3 489.7c0 0 4 8.3 5 13.7s-2 4.7 0 10 5 7 5.3 13.3 4.7 13 7 19.3 7 16.3 7.7 22 4.7 13 7.3 21 6.7 31.7 9.3 36.3 4 7.7 4.3 15 0 54 0 60.3 -0.7 5.3-4.3 9 -64 61.5-65.7 63.9 0 4.4-3.7 11.7 -14 28.7-17 36.7 -1.7 11.3-5 15 -22.7 16-34.3 24.3 -18.7 13.7-28 13 -8.7 7.7-10.3 10 -8.3 3.7-15.7 7.7 -9.3 6.7-14.7 5.3 -13-0.6-17.3 0.3 -15.7-2.7-18-2.3 -11.7 2.7-15.3 2.5 -7.3-3.2-14.3-3.8 -14.3-3-25.7-0.3 -16.3 1.4-16.3 4.2 -4.3 2.8-9.3 2.8h-12.7c-3.3 0-4-2.3-6.3-4.3 -3.4-2.7-7.1-5-11-7 -4.3-2.3-7.3-5-12-4.3s-5.7 4-13.7 2.2 -10-2.5-21.7-2.8 -24.7-0.3-28.7-2 -3.3-1.7-7.7-1.3c-6.6 0.3-13.2 1.3-19.7 3 -10.7 2.7-13 7-17 0.3s-6.3-7-14-8.7 -14.3-3.3-21-5.3 -6.7-3.3-11.7-2c-5.7 1.7-11.2 3.7-16.7 6 -3 1.3-36.3 5.3-44.7 4s-8.3-3-17 0 -18.7 7.3-22.7 8.8 -3.7 1.2-10.3-0.2 -14.7-4.7-18.7-4.3 -6 1.3-11 0 -2.7-3-7.3-3.3c-3.8-0.4-7.5-0.6-11.3-0.7 -5.7 0-6.3-2-10.7-6s-14.7-11-17.7-11.3 -5.7-3.7-7.3-6 -4.3-0.3-11.7-0.3 -5 0.7-8.7-2.3 -7-5.3-11-6.3 -18-8.3-18.7-10.3 0-2.3-3-5.3 -2.7-1.7-8.3-3.3 -3.3-2-9.3-2 -7.7 1-10-1.7 -9-11.3-15.3-15.3c-5.6-3.5-11.7-6.3-18-8.3 -3.7-1-1-1-11.3-1h-28.3c-10 0-9 1-18-0.7s-9-1.7-14.3-6 -8-7.3-9.3-10 -1.3 0-4 0.3c-3.4 0.2-6.8-0.3-10-1.3 -3-1-5.7 0-10.3-1s-5 1-9-3 -3.3-3.7-6.7-2 -2.7 3.3-7.3 2 -9 0.3-13.3 3.3 -7 7.3-12 8.7 -4.7 0.7-11.3 2 -2.7 1.3-11 0.3 -10.3-1.7-13.7 1 -8.5 4-16.1 2 -6.9 0.3-12.2 1.7 -6 2-11.3 0 -21.3-6.3-25.7-5 -5 3.3-6.3 0.3 -2-1-6.3-0.7c-2.8 0.3-5.5 0.4-8.3 0.3 -5.3 0-4-1.3-12 0.3s-6 2.3-10.3 1.7 -12-3.3-17.7-4 -11.7 0.3-19.7 0.3 -15-0.3-18.7-2.3 -1.7-1.3-11-0.7 -14.7 2.3-19.7 1c-5-1.3-17.3-8.7-23-10.3s-23-2.7-28-2.7 -11.3 1.3-19-1.7 -20.7-5-23-4.7"/><path class="st2" d="M1297.6 1105c0 0-3-5.3-2-10.3s0.7-5.7 2-9.7 3.3-4.7 2.3-9.3 -2.9-6-2.1-9.3 0.5-6.7 0-10.7c-0.5-5-0.5-10 0-15 0.5-5.7 0.3-8 2.4-11.7s0.9-12.3 0-16.3 -4.3-5.3-4.8-11.3 3.8-12 3-15.3 -4.1-12.3-5.1-20.3 2.3-16 0-19 -4.3-3.7-3.3-6 2.7-7 2.7-9 -2.9-10-2.9-12.7 0.7-2.7 0-6.7 -1.4-4.3-3.1-7.7 -6.3-13.7-5.7-17.3 -3-18.3-6.3-20.7 -10.7-9.3-12.3-15.3 -5-11.3-11.3-17.7 -4.7-9.7-6-11.7 -4.7-1.7-7-5.3 -5.7-12-8-15 -8.3-9.3-9-13.3 -8-9.3-11-10.7 -8.3-4.3-9-9.3 -0.7-7.7-3.3-10.7 1.7-5.7 2-9.3 -2-6.7-6.3-5.7 -15 2.7-19 1.3 -6.7-0.7-12.3-1.5 -3.7 4.1-8.7 0l-5-4.1"/><path class="st2" d="M947.3 1105c0.7-3.3 0.3-10.7 0-14s-2-9.3-5.3-13 -8-4-11-8.3 -2.7-4.7-8.3-7 -20.3-11-22-13.3 -1.7-4-6-5 -7 0.3-14.7-2.3 -16.3-7.7-25.3-8 -7.3 0.7-16.3 0 -11.3 3-15.7-1.7 -4.3-7.7-11-8.3 -23 0.7-33.3 0 -13.7-1.7-16.7-2.3 -7 1-16.7 0 -16.7 0.3-25-2.7 -9.3-7.7-13.3-6.3 -5.2-1.3-5.9-2.9c-1.7-4.1-3.1-6.8-7.5-7.1s-2.7 1-9.3-3.3c-5.6-3.6-11.5-6.7-17.7-9.3 -5.3-2.3-9-5-12-6s-0.7-2.3-9.7 0 -6.3 1.3-18 2.3 -14.3 2-21.3 3.7 -14.3 4-15.3 1 -0.7-3.7-5.3-4.7 -8.7-2-11.3-1 -3.7 4-5 7.3 -1 2.3 0 5.7 0.6 1-0.9 5c-1.5 4-2.8 2.3-1.8 6s0 1-0.3 5.7 -1.3 1 1.3 5.7 0 8 2 11.7 2 2 2 8 -0.3 8 1 11.7 3.3 1 5 4 1 3.7 2.3 8.7 4 2.7 5 8.7 2.7 9.7-0.3 13.3 -7.3 3.7-9 8.7 -3.7 9.7-3.7 9.7"/><path class="st2" d="M169.6 1105c0 0 3.3-5.3 3-10 -0.2-2.4-0.2-4.9 0-7.3 0 0 6.3-5.7 6-11s-3-12.3 1.7-15.7c4.7-3.3 8.7-6.7 9-11.7 0.3-5 0-11.7-2.3-13 -2.3-1.3-3.3-3.3-2.3-8s2.7-6 0-10c-2.7-4-2-9-1.3-13.3 0.7-4.3 1.3-11.3 0.7-16.7s0.3-13 1.3-20 5-12 2-18 -6-6.3-3-10.3 0.9-3.3 5.1-6 7.2-4 7.9-11c0.7-7-0.3-9.3 0-12 0.2-1.4 0.3-2.9 0.2-4.3 0 0 2.3-6.7 0-11.7 -2.3-5 1.9-22.3 1-28.7s1.8-21 1.8-26.7 -2-6 3.3-11c5.3-5 13.5-15.8 19.3-21.7 5.8-5.8 15.3-17.7 15.3-19.7s0.3-2.7 4-6c3.7-3.3 6.7-4.3 11-4.3s6.7 1.3 9.7-6 10-11 15-17.3 7.3-6.3 16.7-11.3 11.7-7.3 17.7-10.3c6.2-3.1 12.8-5.2 19.7-6 7.7-1 9.3-2.7 16-4.3s8.3-1.3 15.3 0 6 3.7 10.7-1.1 6-3.2 9.7-3.9 6.3-4 7.7-4.7l1.3-0.7"/><path class="st2" d="M1608.6 1105c0 0 40-23.7 42.5-25s3-11.9 2.5-15.6 0.3-19.7 0.2-26.7 4.3-14 2.3-21.5 -8.5-19.8-7.5-29.4 -1-14.6 3-23.1 10-20.5 10.5-27 2-6.5 3.5-15 0-12.5 0-21 4.8-15.7 0.7-22.3 -6.7-8.7-3.7-14.2 5.7-7.5 5.4-14 -3.6-11 0-16.5 6.1-10.5 6.6-21.5 -2-10 3.5-22 7-18 7.5-25 0.5-16 0-19.5 -10-7.5-12.5-10.5 -7-7.5-9-12.5 -10.7-12.5-15.8-17 -22.7-17.2-27.2-23.3 -21-16.7-27-16.7 -20.5 3.5-29 5.5 -14 6.8-21.5 7.2 -30 2.7-38.5 3 -13.5 0.2-21.5-3 -3.3-3.2-11.7-3.2 -12.3 0.3-19.3-1.8 -5.5-4.2-12.5-4.7 -13 2.3-22.8 4.7 -13.4 3.2-18.1 0c-2.6-1.8-5.6-3.3-8.7-4.2 0 0 13.3 11.8 8.7 17.2s-8.7 9.8-11.7 14.5 5.5 8.3 0 12.3 -7 7-7 10 3.5 6.5 3.5 10 6.5 5.3 10.5 5.2 7.8-2.7 12.7 1.8 9.3 7 12.8 12.5 6 4 2.5 9.5 -10 10.2-13.5 15.8 -0.2 6.2-1.8 11.2 5.2 10.5 0 16.5 -12.2 11.5-12.2 17.2 5.5 21.8 2 29.2 -3.5 10.5-3.5 19 0 17.7 3.5 25.8 0.3 28.2 2.2 33.2 4 6.8 4 14.5v11.7c0 4 3.7 7.3 4 13.8s5.2 6.6 4 12.5 -0.7 18 6.1 18 21.8 2.5 25.8-1 6-4 14-3.5 25.5 4 33 2.5 19.6-5.4 18.7-5.8"/><path class="st2" d="M1533.3 894.2c-1.8 2-1.2 13-0.7 19s6 22.5 7 27.8 6 22.2 8 26.4 7 10.8 7 15.3 6 20.5 7.5 26.6 1 20.8 1.5 26.3 5.5 23.5 8.8 28.7 0.7 11.3 0.2 15.6 0 25 0 25"/><path class="st2" d="M1399.3 1106.7c4.8-4 7.8-9 18.1-18s10.8-6.8 16.8-8.7 7.5-6.9 7-15.6 0.1-31.7 0.1-31.7"/><path class="st2" d="M1523.4 1032.7c0 0-5.8 7.6-15.3 5s-28.8-2-36.2-2.3 -10.8-0.8-14.8-2.8 -13 3-22.5-3 -9.5-12.5-17.3-13 -13.7-2-20.2 0 -14.5 1.5-21.5 1 -26.5-0.5-32.5-2 -11.5 1-21.5 0 -29-0.5-41-0.5 -42-3.8-51-0.1 -17.5 2.1-42.5 2.1 -52.5-0.5-57 0 -15.5 3.5-23 4 -17.3-2-28.2-2.5 -14-4.7-16.7-9.3 -1.3-7.7-4-11.7 -2.2-3-3.2-6.5 -6-4.9-6-8.5v-6.5h-58.5c0 0 0-8-5-8.8s-8.5-1.2-12 2.3 0.5 5-4.5 6 -5.5-1-15-0.5 -13.5 5-19.5 5 -13-3.5-15.5-4 -8.5 4.6-10.5 6.5 -45.5 0.5-49 0 -12.5 4.2-15.5 4.1 -24 2.6-28 0 -1-5.6-3.5-8.1 -11-4.5-17.5-3.5 -11.1 1.5-18.1 3.5 -7.9 5.6-12.9 4 -14 1-19.5 0 -14.5-6.5-21-8.5 -16-3.5-23.5-6.8 -9.5-9.9-17-11.1 -12-11.7-19-9.2 -5 6.8-7 13.2 -9.3 7.8-7.6 11.8 -1.6 23.5 0 29.5 6.6 7 6.6 15 1 15.6 1.5 21 -7.3 6.5-8.1 15 5.4 7-0.5 14 -12.4 13-12.9 19.5 2.5 20.2 5 21.8"/><path class="st2" d="M1079.6 22.5c0 0-9 2.8-14 0s-5.5-3.8-9.5-2.3 -10-1-12.5-4 -2.5-6.5-4.5-6 -5.5 4.6-7 6.8 -4 7.4-6.5 6.8c-3.6-0.7-7.4-0.7-11 0 -4.5 0.8-10.5-0.8-15.5 0s-15.5 3.7-22 0.2 -19.5-5.4-24-2.4 -9 8.9-14 12.5 -8 4.9-12.5 10.2 -11.5 18.4-11.5 26.4 -1.5 10.8-2.5 21.7 0 10.2 2 17.3 4.5 9.6 4.5 9.6"/><path class="st2" d="M1380.1 76.7c0 0-2-3-6.5 0s-4 3-10 3 -8.5-2-11.5-4 -4.5-1.7-9-0.3 -8.5 5.8-12.5 4.3 1.7-4-3.7-4 0.2-2-5.3 0 -5 0.5-6.5 0 -7.5 1.4-9 1.4 -3 1.2-5 2.9 -4 7.6-7 5.6 -5.3 0.9-8.2 0 -5.8 0.1-8.3 0.6 -8.1 0-8.1 0 8.1-0.7 11.6 2.2 1.7 6.3 4.8 10.3 1.7 4.5 9.7 5.5 9.5 2.5 14 5.2 4-2.2 7 3.8 3.9 10 8.2 14 11.1 8 10.4 9.5 9.4 5.2 13.9 7.9c6.5 3.8 13.9 6 21.5 6.1 9 0 23 2 32 12s10 13.5 11.5 21 1 11.5 6 12 6.5 1.4 12.5 2.2 7.8 5.5 8.5 8.3 8 6 12.5 9 10.5 7 12 9.5 4 5.5 6 6.5 2.5 5 7.5 4.5 7.5-2.4 10.5 0 4.5 5.5 7.5 5.5 7.5-3 8.5 0 3 5.5 9 5.5 12.5 1 13.5 4.5 1 7.5 5 9 2 1 7.5 3.5 6 2 9.5 7.5 5.5 9.5 8.5 9.5 2.5 1.9 8 5.9 6 7.6 6 7.6"/><path class="st2" d="M1517.9-41.3v5c0 4.3 2.7 5 6.7 6s7.5 0 10 3 3.5 8 8 8 4 0 6.5 3 2 1 5.5 4 5 2.5 5.5 7.5 1.5 7 0 9 -5 3.8-7.5 8.2 -2 7.3-6 9.8 -10.5 6-11.5 9.5 1.5 3-1 8.5 -6 2.9-9 6.2c-2.5 2.9-4.1 6.5-4.5 10.3 -0.5 3.5 0.7 6-2.7 8s-9.8 5.7-12.8 9.6 -4.5 2.9-8 4.4 -10 2.5-11.5 7.5 -2.5 9.8-5 10.2 -8.5 2.3-11.5 6.3 -5.5 8-9.5 11.5 -8 5-8.5 13 -1.5 10.8-5 14.7 1 14.3 0 22.3 -0.2 14.6-1.4 20 1.4 14-3.6 16.5 -10 6-8.5 10.2c1.8 5.2 2.6 10.7 2.5 16.3 0 7-1.5 8.5 1 13s8 9 8.5 15 0 7.5 2.5 13.5 8 14 6.5 21 -4 9-5 14.5 2.5 11-1.5 15 -7.5 13-7.5 18.5 2 12-3.5 15.5 -4.8 10-10.4 12 -11.1 6.9-22.6 6.7 -56.5 3.3-59.5 5.3 -9.5 1.5-14 0 -16-3-19.5-2 -24-5.5-28-7.5 -11.3-1.5-15.2-1.5 -24.8 1.5-31.3-1 -12-3-21.5-2.5 -27 2-34 7 -6.5 6.1-17.5 8.8 -5 4.1-16.2 7.7 -19.4 13.3-21.8 11.2 -6.9-7.3-10.9-8 -14.5-3.2-17-4.7 -7-8.1-7-12.8 -5.5-20.2-8-25 -3.7-8.2-3.1-12.8 -2.9-10.5-7.4-12 -7.4-4.5-10.4-8.5c-3.4-4.3-6.4-8.8-9-13.5 -3-5.5-7.5-9.5-7-11.5"/><path class="st2" d="M1534.1 40.2c0 0 1-5.5-3-9s-5-4-4-9.5 -0.2-12.7-0.4-14.8 0.4-10.2-3.1-12.2 -9.3-5.5-5.7-12c2.3-4.3 3.6-9 3.8-13.8"/><path class="st2" d="M1480.2 16.9c0 0 1.4 10.6 4.4 17.2s6.5 9.5 5 19.5 -1.5 13.5-7 18 -2.8 8.7-2.4 16.7 2.8 5.8 4.4 12.3 -1.8 8 5.4 14 10.6 8 11.6 15 0.5 7 4 13.5 -1.5 17.5 0 21 15 12.3 15.5 17.2 2.5 6.3 11 9.3 12.2 6.3 16.5 11 12.5 10 16.5 13.5 20 11.5 26 15 6 4 13 4h55.7"/><path class="st2" d="M1869.5-31.2c0 0-5.4-2.3-8.4 0s-0.5 3.5-6.5 5.4 -7 1.4-10.5 5.1 -4 5.3-9.5 5.3 -8.5-1-11.5 2.5 -7 7-7.5 13.5 0 11.6-3 16.3 -0.5 11.7-4 13.2 -19.5 3.9-22.5 4 -6 2-12.5 0 -14.5 0-18.5 0c-5 0.1-9.7 2.2-13 6 -4 4.5-7.5 6-12 10.5s-2.5 7.5-6 10 -5.5 6.5-5.5 8.5 1 4-4 6.5 -3.6 8.9-5.6 9.9 -5.7 0.7-8.9 2.7 -5.8 6.4-8.5 8 -3.8 3.1-3.8 6.3 1 3.6-1 6.9 -3.2 5.8-3.2 8.6 0.5 3.5-2.8 5.7 -7 3.5-8.5 6.8 -4 6-8.2 8.5 -7 5.3-7.2 12.3c-0.1 5.7 1.5 11.2 4.5 16 1.8 2.5 3.2 6.9 1.6 10.7s-2.7 16.2-3.2 22.2 1.5 22-1.5 26.7 2.3 5.3 4 14 -1.3 15.3 1 19.2 9 10.8 7.7 18.2 -3 17.7-1 23.3 5 6.3 5 12.7 -1.3 14.7 0 22 13.7 38.3 14.7 42.6 -2 9.3-0.7 21.7 -0.3 17 1.7 24 3.3 7.3 3 11.3 -1.7 7.7-1.7 14.3 4 15.3 4.7 19.7 0.7 6 0.7 12 1.7 22.7-2.7 26 -10 15-10.7 17.3 -5 4.3-10.3 8 -4.7 2-6.3 8.7 0.3 7.3-3.7 8.7c-2.6 0.9-5.1 2.3-7.3 4"/><path class="st2" d="M1939.9-41.3c0.1 2.1-0.6 4.1-2 5.7 -2.3 2.3-2.3 7.8-4.3 9.9s-1.3 5.1 0 10.8 4.4 11 2.5 15.7 1.6 11.9-0.8 16.3 -1.2 5.7 0 8.7 5.9 8 4.6 9.7 3.2 5.7 0.2 7.7 -5.1-1.3-7.8 1.3 -6.1 7.7-5.4 13 1.2 6-0.1 11 1.2 6.3 0 11 0.1 5.7-4.9 11 -4.3 7.7 0 12.3c4.3 4.7 6 11.3 5.7 19 -0.3 7.5 1 15 3.7 22 2.3 5.7 6.7 4.3 6 10 -0.7 4.7-0.3 9.5 1 14 1.3 5.3 6.7 7.7 7 13.7s3.7 15.7 0 22.7 -7.7 21.7-8.3 28.3c-0.7 6.7-0.3 52.3 1 61.8s5.3 14.5 4 20.5 -4.3 9-5 13 2.2 7-1.6 12 -8.8 7.3-9.4 12.7 -3.7 22.3-2.7 29.3 2.3 5.3-0.7 13.7 -4.7 12.7-4.2 19.3 -0.5 10-3.2 15.7 2 7.7-3.7 15 -9 11.3-9.7 15 -5.3 8.7-6 13 -3.7 6.3-6.3 5.7 -10 0.9-12.7 0.1c-2.4-0.9-4.9-1.2-7.4-1.1 -3.9 0-9.9-1.7-11.9-3.3s-5.3 0-7 0.3 -9.3 4-15 1 -7.3 0.7-13-2.3 -8.7-8-11.3-7.3 -8 10.7-13.3 11 -13 0-13.3-2.3 -5.3-4-9-3.3 -6.7 4-10.3 2.3 -11-11.7-15-13 -9-3-13-3 -12.3 1-15.7 0 -16.3-5.3-17.3-7.7 -0.7-5.3-4.3-9.3 -6.3-5-6.3-5"/><path class="st2" d="M1988.1-19.9c0 0 2.8 5.2 6.5 6.2s8.7 0.3 13.7 1.7 10.3 3.3 16.3 3 10.3-2.3 12 0 5.7 8 11 12 8 7.3 11.7 6.3 7.7 0 9.7 0.2 9-1.5 12.3 0c3.3 1.5 4.3 5.2 12 6.8s12.7 4.3 16 8.7 5.8 8 9.2 8.7 4.8 1.7 8.1 4.7 0.7 4.7 0 8c-0.7 3.5-1.6 6.9-2.7 10.3 -1.3 4.3-0.2 6-5.4 12.3s-0.2 7.3-2.9 12 -3.7 11-10.7 13.3 -10.7 3.3-13 8.7 0.7 13.3-0.7 14.3 -5.3 1-7 2.7 -0.7 5.3-6 10 -7 5.3-7 8 3 4 6.3 6.7 4.7 6.7 7 9.3 1.3 4 2.3 8.7 3.7 5.7 4.3 9.3 -1 10.7-4.3 11.7 -11 2.3-13.3 4 -3.3 2-3 5 5.3 9.3 3.7 15 -1 11.7 1.3 18 3.7 3.3 5 9.7c1.3 6.3 3.3 8 3.3 8"/><path class="st2" d="M2105.6 308c0 0-1.7-6 0-9.3s1.7-8.3 1.7-13 3.3-12.3-1.2-17.3 -7.1-10.7-7.1-14.7 1.5-8.7 4.7-8.7 7.9 0.3 10.6-1.7 7.5-8 7.5-8"/><path class="st2" d="M2434.9 117c0 0-4-0.3-6.7 2s-3.3 4-7.3 2.3c-4.3-1.7-8.4-3.8-12.3-6.3 -3.3-2.3-8-2.7-9-7.7s-1-7.7-5-10.7 -10-10.3-16-12 -13-2.7-17.3-3.7 -5-3.7-9.7-3 -20 3-24.7 1.7 -15.3 3.3-19.7 1.7 -7.3-4.2-11.3-3.4 -18.7 0.8-22.7-2.6 -13.3-4.7-18.3-4.7 -12.7 2-16.7 0 -12.7-3.7-16-7.3 -9.7 0.3-12 2.7 -5.3 6.7-9.3 4.7 -8.7-7.7-12-7 -4.2 2.5-4.2 2.5"/><path class="st2" d="M2413.6 117.9c0 0-2 1.7-6.4 9.7s-12 22-13.3 23.3 -12.3 5.3-15.7 8 -17.7 15.7-20 18.3 -7.7 21.3-13.3 26 -4.7 1.7-9.3 10 -9.7 20.3-13 22c-1.8 0.8-3.4 2.2-4.3 4"/><path class="st2" d="M1310.6 1015.1c0 0 3.3-1.1 10.7-5.8s18.8-8.3 19.5-11 5.1-14 8.5-17 19.3-20.7 25.3-21 15.7-4.7 17.3-8 5.7-12.5 10.2-15.4 13.4-4.6 18.1-11.6 5-13.3 7.4-31.2 3-25.2 7.3-32.5 4.5-15.3 6.3-19.3 6.7-7 11.4-9.3 3.3-0.7 3.3-5.3 -0.3-5.7 5-8.7 22.7-8.3 24.7-10.3 2.7-2.3 2.7-4.3 3.3-1 14.3-3.7 10.7-3 14-6 11.7-4.5 16.7-7.9 7.3-4.7 7.3-4.7"/><path class="st2" d="M1487.6 999c0 0 1.7-8.1 2.3-12.2s-0.3-6.8 0-9.8 -7-15.7-8.7-20.7 -9.7-4.1-9.3-9.5 1.7-7.8 0-11.1 -9.3-7.3-9.3-11 -0.7-7.7-3.7-14 -16.5-28.3-17.7-29.7 -1.6-2-5.6-2 -5.3 3-10 0 -19.7-4.7-24-4.7h-8"/><path class="st2" d="M1404.9 954.7c0 0-2.3-2 2.3-4.3s16-2.3 23-7 14-11.7 20.7-14.7 19.3-6.3 27-10.3 19-12 22-15 7.3-4.5 15.3-4.8 22.3-5.9 25.3-7.6 11.9-7.1 15-10 7-13.7 3.7-22 -13-22-13-25.3 1.3-6.7 0.3-20.3 1.7-23.9-0.7-26.6 -6.7-5.5-6.7-10.8 3.3-25.3 3.3-30 -4-5.7-0.7-16.7 8.2-7 11.1-18 9.9-40.7 10.6-42.3 3.7-4 3.3-11.7 0.7-23.7 2.3-28 3.7-4.7 7.3-7 6-1.7 6-7v-36c0-6.3-2-12 0-15.7s0.8-5 1.9-9 6.8-9 6.8-13 1-36.3-1.7-41 -2.7-18.6-2.7-21.3 1-3.4 3-6.7 2.4-7 1.5-11.3 -3-4.3 0.4-11 7.4-6.7 14.4-8.7 7.3-3 21 0 26 3.7 30.7 6.7 2 2 4.7 3 3.7 0.7 4.7-0.7c1.6-1.7 3.5-3.1 5.7-4 1.7-0.7 9.1-0.7 13-3s7-8.3 9-11 8.7-0.7 16.7-10.3 8-9.7 17-14.3 44.3-15.7 47-19.7 1-9 6-11.3 10.3-2 14.7-4.7 7-3.7 10-6.7 15.7-6.3 21.7-12.7 6.7-8.3 16-10.3 16.3-2.7 20-7.3 7-6.7 7-12.3 0-5 5.7-10 5.3-5 13-6.3 29.3-3.7 34-4 7.5-6.3 11.8-8.5 6-2.5 11.6-1.2 39.3 12.3 45.3 13.3 21.7 5 26.7 7.3 18.3 4.3 36.7 4.3c18.3 0 28 0.7 31.3 0.7s23-13 28.3-16.7 5.6-4.3 13-2.7 14 2 26-4.3 46.7-27.3 51.7-31.7c4-3.5 8.5-6.3 13.3-8.3 5-2.3 4.7-1.3 7.7-6.3s9.7-14.8 9.7-14.8"/><path class="st2" d="M2355.2 78.2c0 0-0.2 4.8-5.2 9.8s-9 7-11 8.7 -4.3 0.3-6.7 3 -4 9.2-7.3 9.8c-4 0.7-7.7 2.5-10.7 5.2 -4 3.3-16.7 18-19.7 20.7s-6.3 2.7-4 6.3 3.7 4.3 3 8 -5.9 7.3-3.8 13.3 9.8 12 3.4 27.3 -7.7 16-8 21 -2.7 29.3-2.7 42.3 2 52.7 2.7 60.7 1.7 13.7-4 22.3 -3 25.7 0 34 6.3 19 5.7 22.3 1.3 9 4.3 13 5 8 10.3 10.7 9.7 6 12.3 16.3 6 23.3 8.7 29.3 7.3 7.3 7 14 -0.3 10 1.7 17.3c2 7.3 11.7 26.3 13 32s2.7 10 0.7 18.3 -3 14.7-2.7 20.3 -1.3 7.3-2.3 11 -8.7 21.7-9.7 24.7 -0.7 6.3-0.3 19 2 47 3 49.7 39 44.7 40.7 48c1 1.9 1.5 3.9 1.7 6"/><path class="st2" d="M2435.3 636c0 0-50 26.3-52.7 27.7s-39.7 0-45 0 -10 3.7-13 6.7 -172.3-6-183.3-6 -24 5.6-33.7 6.6 -12 1.7-12 1.7"/><path class="st2" d="M2190.9 471c0.8 2.9 1.9 5.7 3.3 8.4 2.3 4.4 1.7 3.6-2.3 7.6 -4 4-8 2-11.7-2.7s-8.7-4.3-11-9.3 -6.3-17.3-4-22.7 4.3-5.3 11-5.7 7.7-0.3 10 2 3.7 17.7 4 20.3 1 2.3 6.7 2.3 12.3 2 20.7 4 8.7 0.7 12 4 8.7 4 14 2.6 50.3-14.7 54.7-13.3 6.7 1 12-2.3 18-4.3 21.7-6.7 17.7-5.3 23.3-7.3 15-5.7 20-6.3 8 1.3 12 0 17.3-6.3 23.7-9 11.3-3 15.7-8.3 7-14 7-14c-0.9-4.9-2.6-9.6-5-14 -4-7-19-24.3-20.7-27.7s-6-17-8.7-20.3 -6.7-7.7-7.3-11.3 -13.7-12.7-18.7-22.3 -16.3-26-20-30.7 -33.3-23.3-40.7-28.2 -17.6-14.5-22.7-16.8 -9.6-4-12-11 -3.3-13-7-16.3 -13.3-10.3-15.3-16 -11.7-9.3-14.3-16.3 -14.7-15.3-19-18c-4.4-2.7-7.1-7.5-7-12.7 0-5.3 0-9.7-6.7-12.7s-14-6.7-14.3-15.3 0.7-10.9 0-13.3c-1-4.1-1.1-8.3-0.3-12.4 1-4.7-0.7-13-3.3-17s-2-7.7-4.3-12 -2-8.7-2.3-10 -4-4.3-7-8 -2.1-6.3-12.4-6.7 -12.3 0.3-20-2.3c-5.3-1.7-10.8-2.5-16.4-2.4"/><path class="st2" d="M2141.9 498.7c0 0 15.3 8.7 19.7 11s5.3 2.7 12 0 58.7-16.7 60.7-17 4.6-10 4.6-10"/><path class="st2" d="M2150.9 296.6c0 0 10.2 9 13.6 11.4s10 18.7 11.7 25.7 0.3 21.7 0 26.7 2.3 9.7 0.8 19.7 -8.1 22.3-6.5 33.3 9.7 33.2 9.7 33.2"/><path class="st2" d="M2100.2 247.5c0 0-2 0.2-5.7-1.8s-2.7-3-8-2.3 -5.3-3.3-9-4 -7.3 2-14.7 0 -24.7-6.7-27.7-7 -13.3 0.7-23.7 3c-10.3 2.3-11.7 8.3-16.3 8s-92 0.3-96.3 0 -16.8-6.5-29.4-11.1 -13.2-3.6-37.9-3.3 -37.7 3-40.3 5.2c-2.7 2.2-4.7 5.3-16.7 3.9s-52-4.4-60.7-4.2 -7.7 1.7-18 4.2 -19.3 7.9-24.7 9.4 -15.3 6.2-24 6.2 -12 1-28 6.5 -28.7 12.8-33.3 13.2 -5 0.7-7.7 7 -7.6 18.3-8.8 20.3 -8.5 19.3-13.2 26.3 -15.7 17.7-17.3 23.7 -1.3 17.1-1.3 21.2 -1 4.5-5 7.5 -19 23.3-22.7 32.3 -7 13.7-7.3 18.3 -5.3 12-7.7 17 -4.7 20.7-5.3 28 -1.7 18.7 0 25.7 7.7 10.3 8 18 -0.3 17-1.3 30.3 -1 24.8 0.3 31.3 6.7 9 6 14.3 -0.7 11 3.7 13 7.7 2.7 11.3 6.7 6 4 9.3 4 6.3 2 12 13 9 8.3 10.3 14.7 -1.3 4 4 9.7 5 1 6.3 7.3 3.2 8.8 3.2 8.8"/><path class="st2" d="M1591.3 665.7c0 0 2.3-2.3 4.7-8.3s1.3-7.7 5.7-13.3 15.7-15.3 19.7-17.3 8-4 12.7-10 6.7-6 10.7-15.3 6-8 7.7-12.3 4.3-11.7 4-17.3 0-11.3 0-24 2.7-11.3-4-22.3 -16-20.7-17-23.3 -12.7-2-18.3-7.7 -10.7-13.7-15-19.7 -28.7-25.7-29.3-30.7 0-9.7 0-18.3 1-10 4-13 2-72.7 2.7-78 2-16.3 1-23.3 -1.3-9.7-4-12c0 0-8.3-15.3-10.7-21.3s-8-12.3-7-17.8 4.3-12.8 3.7-19.8 0.4-9-3.8-16.7 -5.6-11.5-5.9-13.8c-0.2-1.2-0.1-2.4 0.3-3.6"/><path class="st2" d="M1611.5 99.1c0 0-118.1 0.7-122.8 0s-12.8 2.6-14.8-5.1 -4.7-11-9-11.3c-4.5-0.5-9.1-0.5-13.7 0 -4.7 0.7-9.3 2.2-15 2.9s-9.3-0.3-17 2.7 -34.2 7.3-34.2 7.3"/><path class="st2" d="M1192 58.2c0 0-4.1 6.4 6.9 9.8s13 4.2 18.7 6.2c5.2 1.8 10.5 2.8 16 3.1 4.7 0.3 1.7 10.2 4.3 8.3s4-2 9-3.3 4-2.7 11.3 0 11.3 3.9 11.3 3.9"/><path class="st2" d="M1163 55.4c0 0-4 6.9-8.7 9.3s-10.4 3.4-13 5 -4.3 7-7.3 10 -7 6.2-12 5.9 -5.3-0.4-9.3 0 -7-1.6-9.7 2.7 -9.5 7.1-10.4 11 -3.6 7.3-10.9 13 -16 20-20.3 24.3 -16.1 12-16.7 17 -5 13-9.3 14.7 -21.7 4-23.7 6.7 -2 6.3-12.7 7.7 -3 22-10.7 33.7 -10.3 24-15.7 27.3 -11.1 7-14.7 10.7 -7.5 7.7-12.7 7.3 -16.2 5.3-21.9 10 -5.3 8-9.7 8 -8-0.7-9.7 2.3 -6.7 6-11 3.8 -11.7-2.2-13.7-2.2 -9.3-1.7-12.7-5.3 -6.3-6.3-9-6.3c-1.7 0-3.4-0.2-5-0.7"/><path class="st2" d="M1236.3 101.7c0 0-5.7 1-8.7 5.3s-6.7 4.7-13.3 4.7 -36-1-38.7 0 -6.3-0.7-8-5 -4.3-3.3-9-5 -8.7-5-10.3-9.3 -6.1-8.7-9.5-9.7c-4.3-1.1-8.6-2.6-12.7-4.3 -8.5-3.3-11.8-6.3-17.8-6.1s-20.3 4.6-25 2.1c-5.7-2.9-11.6-5.3-17.7-7.3 -1.7-0.3-2-1-9-2.7s-20.7-1-25 0 -1.3 6.7-9.3 7.9c-8 1.1-14 4-21.7 2.1s-13-8.6-20.3-9.9 -23-0.7-30.7-1 -11.3 0.7-17.3-1.7 -9.7-0.4-13.2-5"/><path class="st2" d="M1022.3 234.7c0 0 7-8 11.3-11s13.3-10.7 23.7-18.3 26-12.7 31.7-15.3 16.7-6 23.3-8.7 16.7-4.7 25-8 38.3-7.3 41.7-9 2.3-5.7 7.6-6.2 7.4 4.5 10.8 2.5 10-2.7 16-2 14-5.3 17.2-6 8.1 1.9 8.1 1.9"/><path class="st2" d="M1079.6 193.8c0 0 0.6-2.5 3.3 5.5s2.7 12 7.3 18.7 4.3 10 9.3 11.7 12.7-2.3 21 0 29 16 33 20.3 3.2 14 9.4 19 7.2 7.7 12.2 10c3 1.4 5.7 3.4 8 5.9"/><path class="st2" d="M1101.4 230c0 0-2.4 0.6-1.8 7.3s0.9 17 1.8 25 -0.3 11-1.9 15.7 -0.7 7 2.2 13.7 17.9 36 18.6 39 -1.3 14.3 0 20 9.7 19.7 9 26 0 8.7 0 12.7 3.1 4.4 3.1 4.4"/><path class="st2" d="M1154 332.8c-2.3-1.9-5.3-2.8-8.2-2.5 -5.2 0.3-7.2 5.3-10.9 5s-14.1-6.7-19.4-5 -10.9 0.4-13.6-0.3 -12.7 4.3-15.3 5.3 -7.3-2-10 0 -12.2 3.6-16 2.3 -13-0.7-19.4 0.5 -13.3-3-19-4.1c-5.7-1.1-41-8-47-9.7s-12.7-2.3-21-2.3 -18.6 3.6-29.3 1.6 -17.3-4.7-30 2 -29.7 14-34.3 15.3 -6.3 0-16.3 0 -15 0-18.3-3.7 -6.7-4.3-14-4 -13.7 6-18.7 5c-6.4-1.2-13-1-19.3 0.7 -8 2-15.3 4.8-26.7 7.9s-13.7 6.8-15 8.4 -9 0.7-15.3 0 -19.3 3.3-25.3 2.3 -10.3-2.7-19-4.7 -19-7-23.1-9.3 -4.9-4.3-10.2-7.3 -12.7-7.3-16-7.3 -3.7-0.3-7.7-4.7 -4-9.3-13-13 -14.3-5.3-14-10.3 1.3-15.7 1.3-18.3 -9.3-8-7-21.7 6.3-41.7 6.3-43.7 -3.7-5.7-2-10.7 0.3-7.3-2.3-11 -6.3-8.7-4.3-12.7 7-7.3 5.3-14.7 -3.7-29.3-4-31.3 -9.3-8.3-13.3-12.3 -2.7-4-5.3-9 -8-10-11.3-13.7 -13.3-14.7-13.3-20.7 4-12-2.3-18.3 -5.8-9.5-5.9-11.3"/><path class="st2" d="M491.4 12.6c0 0-7.8 7.1-10.8 8.1s-3 5.7-4 9.7 -5.7 7.7-12.3 14 -10 6.3-10 17 4.3 17.3 4 22.7 3 7.7 4.7 15 1.3 9.3 1 15.7 -1.3 5.7 0.7 22 3.7 20 0.7 21.7 -5.3 3.7-3 9.3 7.7 11.3 5.7 15.7 0.3 9.3 1.3 12.3 -1 5.7-3.7 13 -1.7 10.3-5 12.7 -3.7 2.3-4.7 6.3 -5.7 5-8 6.3c-2.3 1.3-4.3 4.3-2.3 9.7s1.7 6-2.3 8.3 -5 4-5.3 8.7 2 4.3 4.7 9.7 1.7 9 4 13 3.3 5.3 3.3 9 0.7 5 1.7 7.7 0.7 3-0.3 8 -1.7 5 1.7 8.7 6.1 2.7 11.7 7.7 9.3 6.3 8.6 12.3 -6.7 16-7 19.3 -2.4 11.1 1.3 15.9c3.2 4.3 5.5 9 7 14.1 1.3 4.3 3 5 11.7 10.7s14 8 14 10.7 0.7 5.3 5.3 11.3 5 11 9.3 13.7 5.7 9.7 11.3 14 5 4.3 11 5 20.7 2.7 25.7 4.7 10 3.7 14.3 9.7 12 19.3 35 16 34-6.3 40.7-5.3 5.7 0.7 12-1.3 8 0 13-1.7 25-6.7 30.3-10 11.7-4.3 18-8.7 8.7-5.7 12.7-5 9.7 6.3 15.3 5.7 8.3-4 14.3-6.7 15.7-1.7 21-3 10.7-6.3 17-6.7 5.3-0.7 11.7 0.7l6.3 1.3c0 0-2.7 2.7 0 5.3s5.7 4.7 8.7 3 4-4 3.3-7.7 -1-6-5-5.7 -4.3-2-5 0.3c-0.5 1.7-1.3 3.2-2.3 4.7"/><path class="st2" d="M826.6 436.3c0 0-3-2-4.7-8s1-14 0-16.7 -4.7-4.3-9.3-7.3 -10.7-5.3-12.7-15.7 -4-15.9-3-16.8 2.3-2.2 2.3-7.5 -0.9-13.7-2.6-16.7 -1.9-11 0-15.3 5.6-18.7 3.6-22.3 -6.3-13.7-8.3-18 -3-20.3-3-25.7 -2-6.3-5.7-10 -4.3-3-4-6c0.3-4.2 0.2-8.5-0.1-12.7 -0.3-3 2.1-4.7 7.4-10s12.9-15 16.3-19.3 4.4-7 7.7-7.3 7 0.4 11.7-3.1 7.7-1.6 12.7-4.4 11-5.1 16.3-5.1 8-1.3 14.7-4 10.3-4.7 15.3-9.3 6-8 11.3-8.7 33.7 4.9 39.7 4.6 6.7 2.4 14.3 6.4 5.6 1.7 11.3 4 13.4-4 13.4-4c-1.6 2.8-1.6 6.2 0 9 2.7 4.7 2.3 6.7 6 9.3s4.7 3.3 11 6.3 6.7 3.8 11.7 8.9 25.7 24.6 30.3 36.5 8 13.9 11 17.9c3.3 4.4 5.3 9.8 5.7 15.3 0.3 6-5.3 11.3-6.7 18.7s-2.3 7.4-4.3 12.5 -1.3 7.5-2.7 12.5 -0.7 7.7-3.7 14.3 -11.7 20-10.3 24.7 2.3 9-2.7 15.7 -9.9 13.3-8.8 21.3 -5.2 22.3-7.5 29 -3.7 20-6 30.3 -3 12.7-5.7 16.3 -2.7 5.3-2.7 5.3"/><path class="st2" d="M1025.5 239.2c0 0-3.3 4.6-3.3 8.2s-2.7 3.9-7.3 7.6 -9.7 12-16.3 15.3 -9.3 5.7-11 11.3 -7.7 4.3-12.3 8 -5.7 13-9.7 15.7 -4-0.9-6 6.5 -6.3 17.5-11.3 23.1 -7 12.2-11.7 11.9 -3.7 1.1-7.7 7.4 -6 13.4-10 17.5c-6.8 6.8-14.4 12.6-22.7 17.5 -9 5-13 8-21 12.7s-8.3 7.3-10.3 13.7"/><path class="st2" d="M1001.8 268.3c0 0-8.5-1.3-10.5-6.9s0.3-10.2-2-13.9 -12.2-9.3-12.2-9.3"/><path class="st2" d="M925.9 375.3c0 0 0.7-1.3 6.7-1.3s20.2-2.7 25.3 1.3c6.2 5.1 13.9 8.1 22 8.3 10 0.3 22.9-0.6 27.9 0s6.7 6 17.7 5.7c11-0.3 23.7-0.3 32.7 2s8 2 13 0 6.3 1 14.7-2 8.8-6.3 8.8-6.3"/><path class="st2" d="M1001.8 425.2c0 0 4 3.5 8.5 7.8s4.9 4.7 13.6 5.7c8.7 1 9.7 1.3 15.3 6.7s11.7 8.7 16.3 10 13 7.3 15.3 13.3 14.5 9.7 20.2 13.5 12.4 6.8 18.1 11.8c5.7 5 8 7.7 13.3 10.7s14 7.3 20.3 16 11.3 12.7 13 20 5 22 10.3 25 10 1.7 12.7 7.7 9.3 11.4 14.7 21.3 16.7 8.7 25 18.3 10.7 12.7 15.7 15.7 5 2.2 6 8.1 6.7 12.2 10 14.2 -0.3 3 3.7 8.7 9.7 12.5 12.3 12.1"/><path class="st2" d="M1168.1 626.7c0 0 4.7 1.3 5.3-2.9s6.9-7.2 7.2-12.5 -2-9 0-13.7 2.7-4.7 2-9 -3.3-14.3-2-18 3.8-6 2.2-10.3 -6.2-11.7-3.6-16.3 7.2-8.7 11.9-9.3 8.7-2.3 11.1-5.7c2.1-3.3 4.9-6 8.3-8 4.7-3 11-3.7 11.3-8s1.7-8.3 6-13 9.7-6 9.7-10.3c-0.1-2.9-0.8-5.7-2-8.3"/><path class="st2" d="M1325.3 427.3c0 0-6.3 3.3-12 4 -5 0.6-9.7 2.9-13.3 6.3 -2.7 2.7-8.7 1.7-14.7 3.3s-12.5 1-15.7 4 -2.3 6.7-7.3 10.3 -10 8.3-14 11.3 -6.7 8-8.7 11.7 -3 2.7-8.7 3 -11-2-13-3.7 -15.6-6.3-20.7-9 -9.6-3-12-4 -0.7-1.7-7.7 3 -9.7 4-11.3 11.3 0.3 8.3-5 10.7c-5.3 2.3-10 2.7-15.7 5.7s-9.9 7.7-14.1 7 -13.9-3.9-17.9 0.1 -11.1 6.3-14.9 6.3 -26.8 7.3-30.8 9.3 -5 1.7-12.7 2.3 -9.7 3.3-19.7 3 -20.2 0.3-25.3-2.3c-2.5-1.2-4.9-2.7-7.1-4.3"/><path class="st2" d="M993.6 519.9c0 0-7.3-5-8.3-9.6s-4.7-5-12-6.3 -15.7-2.7-21.3-6 -11 4-17.3 2 -9.7-6.3-13-8 -9.7-2-17.3-2.3 -18.3-3.7-23.7-10 -4.7-11.3-13.3-16.7 -3.7-6-13.7-8 -15.6-3.1-16.8-5.3l-1.2-2.3"/><path class="st2" d="M1340.7 279.2c3.2 5.5 8.1 9.9 13.9 12.4 10 4.5 15.5 3 20.5 9s17.5 18 22 26.8 3.5 13.8 7.2 19.5 17.7 10.8 16.7 18.2 -1 10.8 4.5 17.9 14.6 8 16.3 14.3 2.2 11.8 9.7 18.3 15.5 5.8 23.5 11.7 6.2 8 13.6 8.7h12"/><path class="st2" d="M1421.1 374.8c0 0 0.5 0.6-3.5 8.2s-4 12.6-4 17.6 -9.5 14-9.2 19 3.8 6.5 4.2 13 -0.5 10 1.5 14.8 8.5 13.2 11 18.2 3.5 7.9 2 9.7 3 10.8 13.5 14.3 16 6.5 21.5 11.5 15.7 15.1 21.1 18.8 10.9 3.6 28.4 3.4 17.5 4.3 25 5.8 10.5 3 24.5 10 25.5 14 37 15.5 16 4 23 6 5.5 1.5 10 8 11.2 25.7 14.2 32.7 17.3 23.7 22.7 30 13.3 21.7 15.7 30 1.7 10.3 4.3 14 0 8 0 8"/><path class="st2" d="M1652.3 603.1c0 0 6.7-0.8 11-4.8s7.3-7.3 12.7-10.3 8.4-2.3 9.2-11 -0.8-10.7 8.5-14.7 13.3-5 17.7-9.7 4.7-3.7 10.3-11.3 3.3-12.6 8.3-18 9.1-3.7 15.6-7.7 9.4-3.7 12.1-8.7 2.2-7.7 2.2-7.7"/><path class="st2" d="M1774.1 569.3c0 0-7.5-0.7-9.5-7.3s-11-13.7-13.7-21 -10.3-12.3-14-14.7 -7-10.7-9.7-17 -5-15.7-9.3-19.7 -10.2 0.6-15.3 0 -11.2-0.3-16.6-4.7 -9.7-7.6-14-5.6 -6.7 6.3-13.3 2 -5.7-8-10.3-8 -1.3 1-11.7-3.7 -8.3-8.7-18.7-9.7 -14-5.2-17-9.8 0-7.6-4.3-9.9 -18.7 3-28.3 0 -17.4-5.7-23.5-6 -13.8 1-22.5 0 -12 0.3-14.7-1.7c-1.8-1.5-3.3-3.3-4.5-5.3"/><path class="st2" d="M1780.6 355.7c0 0-3.7 2.7-2 9.3s5.3 8.7 4.3 14.7 -3.7 15.3-3.7 18 -13 33-15 36.4 -3.1 8.8-1.4 16.2 4.2 4.9 2 13.4 -1.8 10-2.9 15.7 -4.9 23.6 0.8 31 9.4 4.7 8.6 13 1.5 16.6 0 25.6 3.4 18 2.6 25 1.9 9.7 5.5 16.3 2.7 4.3 3.5 9.3c0.4 2.6 1.2 5.2 2.6 7.5"/><path class="st2" d="M1778.6 611.3c0 0-0.3 7.3 2 12.5s0 12.5 0 18.5 -3.7 8.3-2 16.7 3.8 11.3 3.1 19.7 1 11.3 5.6 14.7 13.3 7 13.3 12.7 -1.7 12 1.7 15 7 2.3 7.7 6.3 0 6 3.3 8.3 6.2 2.7 6.1 7.3 -2.8 10 2.6 14.3 8.3 0.3 10.3 7 3 10.5 3 10.5"/><path class="st2" d="M1819.9 795.7c0 0-8.7-4.3-13.2-8s-8.7-2.7-12.3-1.7 -9.2-0.8-15.2-0.9 -16 4.1-19.5 0 -5.8-5.1-7.8-13.4 -0.3-14-2.3-17.3 -8-12.7-9.7-19.3 -2-13-6.7-22.3 -7.3-9.7-13-10 -11.8-2-14.2-6 -7.4-7.3-12.4-11 -10.7-3.7-12 0 -1.7 8-1.7 13.3 -1.3 12.3-5.3 15.7 -11 11-11.7 14.7 -10.3 35.7-10.7 41.3 -5.3 16-8.3 25 -0.3 7-2.3 16.3 -8.3 22.7-10 27.3 -5.7 4.3-20 9 -41.7 14.4-45.7 20.2 -3.3 10.1-3.3 10.1"/><path class="st2" d="M1621.1 682.3c2-2.4 4.6-4.4 7.5-5.7 4.3-1.7 63.7-2.3 71.3-2.3s14 5.3 19 4.3 16.3 0.3 28.7-0.3 18.7-3 39.7-4 31.7-0.7 39-1.7 12.7 1.9 23-0.9 38-3.1 47.3-3.1 23 3.9 30.3 3.1 22.3 0.5 31.3 3.7 8.3 4.2 21.7 3.2 19.7 2.3 34 1.7 28-6 41-7.7 33.3-8.7 33.3-8.7"/><path class="st2" d="M2110.9 630.3c2.8-2 6-3.3 9.3-4 6-1.3 5.7 3 17.3 0s44-24.2 50.7-32.1 13.3-14.3 18.3-17.6 10.3 2 23-12 10-16.3 21-21 21.7-7.3 25-14.7 9.7-15.3 14.7-22 10.3-20.4 13.3-24.4 10.3-6.6 14-9.6 15.1-6.3 16.7-10.7 5-17 4.3-22.7 0-10-2.3-14.7 -3.3-3-2.3-14.3 -3-15.3-3.3-17.7c-0.4-2-1.2-3.9-2.1-5.7"/><path class="st2" d="M2091.9 316.6c0 0-0.4 56.7 0 61.4s17.6 59.3 18.5 66 11 47.7 11.4 54.3 0.7 14.7 6.4 37 10.7 36.7 11.7 39.7 -41 79.3-43 84.3 -0.3 17.7-6.7 31.3 -18.7 40.3-21 44.3 -2.3 13-2.3 25.7 -3 13.3-2.7 17.3 4.7 9 4 24.7 -1.7 24.3 0 31 8.3 4.7 8 15.7 -5.2 21.4-2.6 23.2"/><path class="st2" d="M2093.3 877.3c-1.8 2.6-4.5 4.4-7.7 5 -5.3 1-16.7 5.7-19.7 2s-3.3-3-3.1-10 -1.5-9.7 3.1-12 12.7-0.3 18 0 5.3 8.3 8 13.3 2.3-2 10.2-1.3 105.5 5.7 115.8 6.3 29.3 23 35 27.7 11 5.3 21.4 7.7 8 4 14.7 4 16.7 1 24.7 0 123-5.3 123-5.3"/><path class="st2" d="M2165.6 1105c0 0-1.3-44 0-55.3s-4.7-36 0-40.3 7.3-25.7 6.7-37.7 -1.8-57.3 0.1-64 13.2-8.7 11.9-33.3 2-31.3-4-36 -12-5.3-11.3-13.3 3.3-16 0.7-22 -8.9-26.7-9.8-34 -13.6-24-23.6-38 -20-33.3-25.3-41.3 -20.7-24.7-30.7-35.3 -54-59.3-62.7-61.3 -6.9-6.3-10.7-16 -7.3-18.4-7.3-28.5 -2-16.6-7.3-19.4 -5.3 0.6-6.7-5.7 -0.7-9.9-5.3-11.8 -8.7 1.8-9.3-2.7 -13.3-17.8-20.7-19.2 -13.3-8-21.3-14.3 -7.3-5.7-14-9 -17.9-5.3-22.6-10.7 -20.9-7.3-22.8-14.7 -9.8-19.3-14.8-20.3 -7.1 2.5-10.6-3.5 -5.1-6.5-8.8-9.5 -10.7-4.5-11.2-7 1.7-4.4-4.2-7.7 -11.8-3-17.3-9.9 -12.1-10.4-13.1-15.4 -9-16.5-15.5-17 -14.5-1-18 0 -8.5 0-16.5-3.8 -10.5-0.2-16-4.8 -14-20-20-23.5 -9.5-1.6-17-2 -12-6-20-2.5 -25.1 6.5-28 4.5 -36-2.3-47.5-10.7 -27.5-11.3-33-6.8 -8.7 15.5-13.4 18 -6.5-0.2-10.8-0.2 -27 0.7-30.8 2.7 -7.2 7-10.5 4 -12.3-6.7-20.3-9.3 -12.3-6.3-19.3-8 -6.3-2-17 1.3 -15.3 6-21.7 5.7 -11 1.3-17.2 0.7c-4.2-0.6-8.3-2.1-12-4.3"/><path class="st2" d="M1254.3 289.2c0 0 3.7-7.3 4-9.9s0.3-8-2-11 0.7-4.9 2.2-8.1 3.8-15.2 4.5-18.8 2.3-10.3-2.3-17.3 -2-9.8-6.3-14.1 -19.8-12-19.8-12"/><path class="st2" d="M1189 303.6c2.4 3.5 5.1 6.7 8.1 9.7 4.5 4.3 6 4.6 9.3 10.5s4.8 9.5 13.4 10.5 9.4 3.3 14.8 9 10.1 5.8 11.1 14.5 2.7 12.5 6.3 19.2 21.3 19.7 23.3 24.7 9 5.7 16.7 9 15.3 9 24 12 13.7 5.7 18 9 0.4 8.7 6.9 13.3 14.1 5 16.8 10 6.3 7.7 12.3 8 10.7-4 18.3-1.7 24 9.3 24 9.3 11.3 5.7 16 4.7 5.3-4 10-5 7 2 11.7-2 0.3-6.7 9.3-11 16.4-6.7 22.4-12.3 7.2-3.3 7.1-9"/><path class="st2" d="M1589.4 462.2c0 0-1.8 6.5-6.8 8.1s-6.7 1-8.7 3.7 -10 14.3-15.3 19.3c-5.3 5-9.7 2-11 6s3.7 10 0 13.7 -6 3-8.3 8.7 0.7 13.3-6 17.7 -11.3 15-17.7 18.7 -9.3 4-9 11.3 2.3 17 0 20 -22.6 17.7-24.6 20 -1 14.3 0 23.3 5 22 5 30.3 -1.7 20.3 0 25.7 5 9.4 11 13.4 9 8 9 13 -2.7 1.3 2.3 13 5.3 12.7 12 16.7 20.1 12.7 20.1 12.7"/><path class="st2" d="M1476.3 675.2c0 0 1 3.4-1.7 4.1s-1 1-2.7 4 -2 7-4.3 7.7 -3.7 0.3-4 4.2 -3.7 4.6-6.7 5.7 -5.7 2.1-5.7 4.5c0 2.2-0.7 4.3-2 6 -1.3 2-8.4 9.7-7.4 12s-3 5-3 6.3 1 6.7-2 8.7 -5 2.7-5.3 6.7 -1 6.3-2.3 8.3 -5.7 8.3-9 9.3 -11.5 2.7-15.9 6.3 -4.8 5.6-12.4 5.8 -27.7 1.2-30 3.2 -12.4 1.7-15.2 5.3 -4.3 3.1-9.1 6.2 -4.1 7.8-12.4 13.5 -5-1-8.3 5.7 1 12.3-3.7 18.7 -4.7 7.7-4.7 13.3 1.7 9.7-3 11.7 -4.3-0.7-7.7 3.3 -3.7 7.7-8 7.7 -3.3-3.3-9.3 0 -7.7 8.3-12 11 -10.7 6.3-13.3 11 -3.3 13-8.7 11.7 -7.7-2.3-13.3 0 -9.7 5.7-15 6c-2.4 0.2-4.9 0.2-7.3 0"/><path class="st2" d="M1206.4 1105c0 0-0.2-23.3 0-26s-3.8-5-3.8-9.3c0-2.3 0.3-33.8 0-35 -0.7-2.7-2.3-2.2-3.3-7.3s0-7.4 0-7.4l-0.4-2.7"/><path class="st2" d="M1202.7 1050c0 0-1.1-1 5.2 0s11.7 1 16.7 1.3 13.3 2.3 17 5.3 4 3.9 15 4.5 19.7 0.1 23 0 5.3 2.5 7 4.2 13.7-0.3 16.7 0 102.2-0.9 114.1-0.9 23.8 0 23.8 0"/><path class="st2" d="M1441.2 1072c3 0.2 6.1 0.2 9.1 0 5.7-0.3 24.7 0.3 30.5 0s17.8 0.1 24.5-0.1 22.3 0.2 24.7 0 2 0.5 2.1 8.1 0.5 30.3 0.5 30.3"/><path class="st2" d="M1304.6 1106.7c0.4-2.7 0.4-5.3 0-8 -0.7-3.3-8 1.3-11.3-2s-7.3-11.7-14-12.3 -75 0.7-78.3 0 -4 11.3-18.3 12.7 -32.3 13.3-32.3 13.3"/><path class="st2" d="M760.9 1105c2-2.2 2-5.5 0-7.8 -3.3-4.2-4.4-5.6 1.5-8.6s15.8-4.3 18.5-11.3 7.7-8.3 8.7-11.3 0-0.4 3.7-4.9 10-7.1 16.7-9.8 5.8 1.8 12.7-7.5l6.9-9.3"/><path class="st2" d="M985.9 1105c0 0 0.7-1 0-4.3s5.7-4 4.7-12.7 -3.3-55.2-2.3-60.6 0-4.2-4.4-10.1 -5.7-6.9-5-11.9c0.7-3.7 0.6-7.6-0.2-11.3 -0.8-4.3-0.8-8.7 0-13 0.8-5-5.2-11.3-5.2-11.3"/><path class="st2" d="M910.3 1105c0 0-3.7-6 0-12s8.7-5.7 10.7-11.3 9-10 11.7-17.7 9.3-14.3 13.3-22 6.3-9.3 7.7-19 1-10 7-17.7c5.5-6.9 11.4-13.4 17.6-19.7 3.7-3.7 7.4-1.7 7.1-7.7s-0.5-11.7 5.4-17.7 13.6-8.3 18.2-18.7 5-11 3.3-18 -2-10.3 3-14 15.3-12.7 15.3-12.7"/><path class="st2" d="M1420.7 474.2c0 0-4.1 1.6-3.3 8s3.2 9.8 0 16.1 -4.2 16.9-4.2 21.6 6.6 10.2 2.8 15.7 -5.3 11.4-2.8 18.4 3.6 14.7 2.8 19.1 -1.8 12.4-4 16.4 2.1 9.8-0.6 15.7 -1.8 12.7-4 18.5 -3.3 16.3-8 23.3 -3.7 23.3-16.2 26.2 -31 6.7-32 10 -6 4.8-12.2 5.3 -25.2 8.6-28.2 4.3 -2-6.4-9.2-6.6 -9.8-0.1-17.8-3.4 -14-5.4-19.5-4.6c-3.2 0.5-6.5-0.7-8.7-3.1"/><path class="st2" d="M1286.6 535.7c0 0 9.5 1 14.8 0s11.2-2.5 19.7 3.5 13.5 6.1 17.8 9.3 6.4 15.7 4.8 18.7 0.8 13.5-2.9 19.7 -7.2 9.2-7.2 16.2 1 12.1-1.5 18.6 -5.2 19-6.8 26 2.3 9.7 2.3 15.3 -6.4 8.7-2.3 18.3 0.7 16.8 0 19.5 -4.2 13.8-5.7 22.3 -7.4 20.5-3.2 28 -0.3 15 5.7 21.5 9.5 9.7 9.5 9.7 -0.5 9.3 3.5 16.8 13.3 18.5 11.6 23.8 -6.2 15.2-5.9 22.2 2.5 58.5 2.9 67 -2.9 25.3 0 26.6 2.1 14.7 3.2 21.5 2.3 21 2.3 21"/><path class="st2" d="M1417.3 482.2c0 0-9.2-0.5-13 1.5s-2.7 4.5-10.7 9.5 -5 10.2-8.5 13.9 -3 4.6-8.5 7.6 -5 10.4-9 14.4 -8.5 18.7-15.5 19.4c-6.4 0.5-12.3 3.4-16.5 8.2 -4 4.5-4 7.8-6.5 12.7s-4.8 4.3-10.2 6.8 -18.3 8.8-20.8 11.6 -5.5 4-9.5 5.2 -15 7-16.5 8.3 -12.3 3.2-16.7 4 -16.8 9.8-21.8 14.3 -8.6 4-8.8 10.5 -3.7 10-7.7 13.5 -8 7.5-14.3 10 -8.4 6.8-8.4 6.8"/><path class="st2" d="M1322.5 505.5c-0.7 3.2-0.7 6.5 0 9.7 1.1 5.5 3.1 6.4 8.6 13.9s7.9 7.6 9.7 12.6c1.1 2.9 1 6.1-0.1 9"/><path class="st2" d="M1084 543.5c0 0-9.4 1.9-12.9 0s-21.6 11.1-26.5 15.1 -20.7 28-25.3 28.2 -9.3-1.2-16 3.8 -28 38.7-30 40 -7.3 4.7-11.3 10c-3.2 4.5-5.2 9.8-5.7 15.3 -0.3 3.7 5 7.3 3 14.3s-4.7 14.3-9.3 16 -12.7 10.4-15.4 14.5 -6 17.5-8 21.8 -0.2 24.8 0 30.7 2.2 11.3-0.9 16.7 -3.7 7-3.1 15.3 3.2 21.7-0.2 29.7 -2.1 12.3-5.4 15.7 -6.3 6-10.7 6 -9.3-4.7-11.3 0 -2.7 3.3-3 13.3 -0.7 10.7-2.7 16.3 -1.7 13.9-1.7 13.9"/><path class="st2" d="M942.3 881.3c1.6-6.4 4.1-12.6 7.3-18.3 5-8.3 6.7-10 9.7-13.3s7.7-7.3 10.3-7.7 6.3 0 10.7-3.7 5.7-15.3 15.7-21.3 17-11.3 20.3-13.3c1.8-1.1 3.7-2.1 5.7-3"/><path class="st2" d="M1011.3 915.3c0 0-6.9-7.7-9.5-10.7s-8.7-9.7-11.1-11.7 -4.7-3.5-4.9-12.8 -2.5-20.6-2.2-23.6c0.2-1.6 0.6-3.2 1-4.8 0.8-2.7 1.2-5.5 1.2-8.2 -0.2-4.3 2.9-25.3 0-28.3s-4.5-13.3-5.5-18 -5.3-9.7-3.7-14 4.7-9.7 7-15 -5.3-3.7 2.2-13 1.5-14.7 8-15 16.2-0.7 21.2-5.3 8.3-6.7 11.3-11.7c3-5 3.8-7.1 6.8-11.5 1.8-2.8 3.2-5.9 4.2-9.1"/><path class="st2" d="M14.3 1100.7c0 0-1.3-5 5-9.7s10-11 15-11.3 6.3 4 11.7 0 8.7-14.7 12.7-15.7 8.3-5.3 13-7.3 6-5.3 9-11.7 4-11.3 6.3-12.7 1.7-2.3 4.3-4 5.7-3 8-6.7c1.2-1.9 2.5-3.7 4-5.3 0 0-2-7.3-1.7-11s-3.7-7.7 1.7-9.3 7.7-3.7 8-9 0-18.7 0-22 -2.3-12.3-2.3-17c0-5.2-1.5-10.3-4.3-14.7 -3-4.3-3-14.3-3-14.3s3.7-11.7 7.7-17.7 7-6 7-13.7 0-6 0.7-10.7 -1.3-8.7-3.7-14.7 -6-11.7-6.7-17 4-14.7-1.7-17.3 -11.7 0.3-14.3-2 -6.7-2.7-6-7.3 3-18.3 3.7-22 -2.7-9.7-1.3-11.3 2.3-7.3 4.7-9.3 15-0.7 15-2 -0.3-5.7-4.7-6.3 -6.7-3-7.7-8 -2.7-19.3-7.3-30S79.3 713 75.3 714"/><path class="st2" d="M-15.4 865.3c0 0 6.3-3 7-7s3.3-18.7 6-24.3 3.7-7.7 4.3-15 -5.7-14.3 0-22.3 6.7-15 7.3-19.7 0-9.3 3-14.7 5-13.3 8.7-16.3 12-11.3 13-17.7 3.3-11.3 9-17S53.3 707 55.6 700s6.7-14 6.3-18.7 -2-8.7-2-13 -4.3-3-3.3-11 3.3-9.7 2-16c-1.3-7.6-1.9-15.3-1.7-23 0.3-4-5-15.3-2.3-20s5-7.7 4-15.3 2.3-9.7-0.3-13.7 -10.3-15.3-9.3-18.7 -1-5-2.7-11.5 -4-12.2-3.3-15.5 -0.3-3.7-4.7-10 -4.7-4.3-4.7-12.3 2-36.3 1.3-37.3 -6.7 1-10.3-3.7 -2.3 4-6.7-9S6.3 430.7 8.6 427s6.3-2 2.3-9 -10-12.7-13.3-16 -11-4.7-13-6"/><path class="st2" d="M-9.4 158.7c0 0-2.3 5.7-2.3 7.9s1 3.5 7.3 8.8 -3 13 0 17 9.7 2.3 14.3 3.3S23.6 205 24.6 208s16.3 26 17.3 32c1 6 3.7 8 8 11.7s10.7 7 20 8.7 12.3 2.7 17 6.3 3.7 7 11.7 7.7 17 4 18.3 9.3 2.3 11 6.7 14.7 9 2.3 12.3 0c3.3-2.3 6.3-7.7 15.3-3.7 7.7 3.3 14.6 8.2 20.3 14.3 5 5.3 9.7 18.7 14.3 22.3s4.7 5.7 10 5.3c5.3-0.3 6.7-4.3 11.3-4.7s13 2 19.7 0c6.7-2 15-4.3 20.7-5.7s9.3 2.3 15.3-1.7 6.3-5.7 12-6 6.7 0.3 11.3-2.3 5-3.7 11.3-4 11.7-1 18.3-3.7 4.3-4.3 14.7-5.7 17.3-1 18.3-2.3 4.3-1.7 11.3-2 11.7 4.7 15 1.7 5-6.7 10.3-10.7 10.7-7.7 16.7-7.7 13.7-1.3 16-4.3 6-4.3 10.7-7.3 8-6.3 13-6.7 14.7-4.7 23-5.7 6.7 0.7 17.3-3 10.7-5.6 13.3-7.3 5.3-8.4 16.7-4.7c11.3 3.7 11.7 6 15 11.3s-2.3 3.3 7.3 11 12.3 15 19.7 17.3 6.3 2 10.7 7.3 6 7 12.7 8.3 11 2.7 11 2.7 -10.3 2-14.3 5.7 -4.7 10.7-7.7 14 -1.8 5-6.7 11 -7.6 9.3-9.9 15.3c-1.1 3.1-2.5 6.1-4 9"/><path class="st2" d="M-17.7 521.7c0 0 1.7 2.7 6 2s1.3 0.3 6.3-2 4.7-2.7 10.7-1.3 3.7-0.9 8.7-0.8 5.7-0.9 9.3 2.1c2.3 1.9 4.3 4.2 6 6.7 0 0 2 7.3 7 8.3s10 2.5 10 2.5"/><path class="st3" d="M185.5 347c0 0 10.4 7.2 11.8 10.7s10.8 6.5 16.3 8.5 13.7 14.5 21.3 19.8 21.7 12.7 26 18 5 3.3 10.3 7 7.7 4.3 9 8 4 8 6.3 12 10.7 19 15.5 21.3 10.2 5.3 13.8 10 7 9.3 16.7 13.7 26 9.3 30.3 15.7 9 6.3 12.7 12.7c2.9 5.4 4.7 11.3 5.3 17.3 0.3 3.7 3.7 8.3 2 11.7s-0.7 7.3-0.7 9.7 3 7 5 9.7 4.7 3.7 9.3 6.7 14 6.8 15.7 13.9 16.3 26.8 24 35.1 18.8 13.1 17 15.3 -3.7 10.5-4 13.1 0.7 9.6 2 13.9 2 12.3 2 12.3c-1.1 4.3-2.4 8.5-4 12.7 -2.7 7-1.3 12.3-2.3 19s-3.7 10.7-3.3 16.7 -15.7 82-16.3 86 -11 22.7-10 29 4.7 13.7 8.3 17.3 7 4.7 5 7.3 -3 1-2.3 6.3 -1.3 18.7-3.3 25.3 -2 12.3-4 14.7 -3.7 4.3-7.3 5 -7.7 0-10.3 3 -3 13-6 13 -4-5.3-7.7 0 -8.3 10.7-11 14.7 -11.7 15-17.3 15.7 -22 7.7-24 7.7 -2.7 4-4.7 8.7 -5.3 9.3-7 15.3 0 10-4.7 15.3 -6.3 8-6.7 9.7 2 20 3.7 23 9 7.3 11.3 10 8.7 6.7 8.7 12 3 3.7 1.7 9 -2 7.3-7 8.7 -7.3 5.7-9.7 8.3 -1.7 9.3-5 12 -3.7 2.3-3.7 8 0.3 8.7 0.3 8.7"/><path class="st3" d="M212.3 1105c0 0 2.3-1 0-3 -2.3-2-2.3-3-2.3-5s1-3.7 0-7 -3.7-5.3-4.3-8.3 -2.3-5.7-3.7-9 -4-4-7-6.7 -7.3-11.9-7.3-11.9"/><path class="st3" d="M269.3 1078c0 0 0.7 2 4 3s6.7 0 7.8 3 -0.2 3.7 5.5 4.7 9.3-1.3 13.3 0 5.4 2.7 10 3 4.8-1 9.6-1.3 6.1 2.8 8.1 1.4 4.3-0.7 8-3.4 9.7-3.3 9.7-3.3h9c0 0 11.7-4.3 13.3-5.5s10.7-7.5 10.7-7.5 7-1.3 10.3-4.3 8-2.7 10.7-4.7 9-8.5 11.7-8.9 10 1.8 12 0 5.7-5.1 6.7-8.8 4.7-10.7 3.7-15 -3.7-8.7-3.3-13 -1.3-9 1-12.7 3.7-7.3 10.7-10.3 9.7-8.3 13.7-11.6c3.8-3.1 7.5-6.5 11-10 5-5 6.7-3.3 6.3-8s-6.6-3 0-6 9.6-1 10.3-5 5.7-6.4 3.7-6.9 -7.3-1.5-6-4.1 4.7-1 3-7.3 -3-15-1.7-17.7c1.2-2.4 1.1-5.3-0.3-7.7 -1.3-2.3-4.7-7.7-7.3-7.3s-4.3-0.7-4.3-3.3 1.7-7-0.3-8.3 -4.1-8.4-4.1-8.4"/><path class="st3" d="M421.9 903.3c0 0 7 2 9.3 4.8s1.7 2.5 3.3 6.2 2.7 1.7 5 5.7 4.7 7.3 4.7 9.3 -1 1.7 1.3 6 3.3 4.7 6.3 5.7 3.3 3 5.7 2 4.3-1.1 6 0.3 2.3 9.4 3.7 11.7 2.9 4.9 2.9 4.9"/><path class="st3" d="M482.5 912.2c0 0-0.6-4 4.5-4.9s9.2-1.3 10.5-4 -1-4 4.3-4 11.7 1.7 15.7 0 4.7-3 8-4.3 4.3-4.3 11-2 9.3 3.3 14.3 2.7 8.7-1.7 13.9-0.3 10.1 2.7 12.8 4.7c1.6 1.2 3.3 2.3 5 3.3"/><path class="st3" d="M582.6 908.2c0 0-0.7-6.8 0-8.8s0-12.3 0-15.3 -2.1-1 0.3-7.7 1.7-11 3-14.3 -2.1-8.7-2.1-8.7 2.4-11 2.4-13.7 -1.2-6-2.2-9 -1.7-2-1.4-6.3c0.3-3.2 0.8-6.5 1.4-9.7"/><path class="st3" d="M571.1 1050.3c0 0-9.1-0.6-10.8-2s-6-1.3-7.7-2 -8.7-2.7-12.3 0 -11.3 4-11.3 4 -11-3.3-13.3-5.3 -5-7.7-3.3-8.7 5.7-3 5.3-4c-0.6-1.4-1.4-2.8-2.3-4 -1.4-2.1-3.4-3.9-5.7-5 -2.5-1.2-4.5-3.3-5.3-6"/><path class="st3" d="M426.7 1050.3c0 0 15.1 0.4 20.8 1.4s7 4.8 12.4 2.4 6.7-5.5 12.3-3.8 7.1 2 10.2 2 6.4 1 9.4 0 11.3-2.8 12.3-2 0.5 2.3 3.6 0c2.1-1.8 3.8-4 5.1-6.4"/><path class="st3" d="M511.6 860.4c0.2 2.3 0.2 4.6 0 6.9 -0.3 3.3-2 4 1.3 8.3s7 7.7 9.7 11 10.2 9.7 10 13.7 0 14.3 0 19 -1 11.3 0 16 3.7 3.7 3.7 9 2.1 11 1.4 18.3 2.9 18.7 4.3 21.7"/><path class="st3" d="M570.8 987.3c0 0-7.5 1.7-13.2 0s-15.5-5.5-19.9 0.7 -5.8 11.3-11.3 10.9 -5.5-0.7-9.5 2c-4 2.7-3.1 2.7-9.1 3.7s-10.3 3-10.6 0 -0.7-5 0-7.7 -1.3-5-2.3-7.3 -3.3-8-3-10.3c0.5-3.8 0.5-7.6 0-11.3 -0.6-4-1.6-3.9-2.3-8.1s-3-13.1-3-13.1 4.3 0.1 6 0 7.3-0.5 9.3-1.5c1.9-0.9 3.9-1.7 5.9-2.3 3.7-1.3 4.7-3.3 11.4-3.3s4.2-1 9.4 0 5.8-0.4 5.8-0.4"/><path class="st3" d="M389.3 944c0 0 1 0.3 5.3 0s0.3-0.7 8.7 0.2 13-2.5 15.3 0 5.7 4.2 6.3 6.5 1.7 4.3 5.7 5 9.3 3.3 10.3 6 4.3 3 10.7 3 28.1-1.3 30.9 0 8.4-2.7 13.8 0 11.7 5 18 5 9.8-1 14.4-1.3c3.1-0.1 6.1 0.3 9 1.3"/><path class="st3" d="M440.9 1106.7c0.9-3.1 1.5-6.4 1.7-9.7 0-4-1.7-10.3-1.7-10.3s-8.7-3.7-10.7-5.7 -5.7-8.8-7-11.2 -7-6.4-7.7-7.4 -1.7-10.7-4-12 -7.7-4.3-10-6.4 -9-4.5-9-4.5 -9.3-5.7-13-7 -7.7 0-11-4 -9-5.7-12.7-6 -10.3-2.7-12.3-5 -0.7-5-6.3-6 -5-3.7-8.7-3.7 -3.9-3-9.1-2.7 -6.9 3.9-10.6 0 -0.7-7.3-3.7-9.3 -4.7-1.7-7-4.7 -3.3-7.3-7.3-6.7 -15 2-18.7 0 -11.7-2-13-3.7 -2.3-4.7-7.3-6 -11-1.5-15.7-1.9c-2.3-0.3-4.7-0.3-7 0"/><path class="st3" d="M266.2 1064c0 0-4.6-4.5-5.6-7.5s-0.5-4.3-1.8-5.8 -2.7-3.8-2.7-4.8 1.7-3 0-4.3 -1.8-2-3.8-3.7 -1.3-1.8-2.3-4.2 -1.8-5-3.3-5.3 -2-2.8-1.8-4c0.2-1.2-1-8.7-2.7-10.5 -1.7-1.8-4.3-2.8-3.8-5.5s-1.2-5.3-2.3-7.5 -7.4-12.7-7.4-13.5c0.3-2.2 0.3-4.3 0-6.5 -0.5-3.3 1.3-10.2 0.7-11.2s-3-3.8-2.5-5.2 1.5-5.3 2.5-7 14.3-17.8 15.2-21.3c0.8-3.5 1.3-29.2 1.3-32.8"/><path class="st3" d="M-17.1 896c0 0 5.7 3.4 7.7 6.2s4.3 4.9 4.3 10 2.7 20.6 3.3 27S7.6 959 11.6 965s3.3 14 13 19.3 25.3 15 29 17.3 3 12.3 8.3 13.3 8 1 13 4.3 4 4 10.7 5 14.3 2.7 17.7 2.7 5.7 1.3 8 0 0.9-6.7 5.8-9.7 13.2-17.3 18.9-21c5.7-3.7 5.7-4.3 6.3-9s2.7-27.1 4.7-30.9 8.7-13 13-13.2c4.3-0.2 9.7 1.9 13.7 0s6.2-1.8 12-4c5.7-2.2 15.4-6.6 16.7-10.6 1.3-4 3.3-5.3 8-9.3 4.7-4 5.7-5.9 14-7.1 8.3-1.2 24-9.2 26-12.9s5-7.7 8-12.3 4.6-15.3 8-15.3S274 872 277 870s11.7-3.3 13.3-7 -1.3-7.7 4-9.7 15-3.7 19.3-10 2.7-8 7.7-8.7 8.7 4 11 0 4-6.2 8.3-11.8 3.7-4.9 4.3-10.6 -0.7-7.3 3-8.3 14.7-0.7 18-3.7 28.3-25.3 29.3-28 2.3-34 2-37.3 -3.3-5.7-3.3-12.7 -1.7-12.7-1.3-14.3 -5-18.1-7-21.4 -7.2-14.3-7.4-19.6 1.4-11.3-2.9-17.3c-2.6-3.4-3.8-7.6-3.6-11.8"/><path class="st3" d="M362.9 637.8c0 0-3.3-13.5 0-17.2s-0.6-11-1.5-13.3 -3.9-24.7-3.5-32.3 1.3-35 1.3-39 11.7-29.3 16.3-31.7"/><path class="st3" d="M442.2 623.6c0 0-1.7 2.1 3.4 4.3s10.7 6.7 14.7 2.7 3.3-6 8.7-12.3 4.3-7 3.7-11.7 -0.7-8.3-6.7-8.3 -6.3 1.3-12.7-0.7 -5.7-4-8.3-3.7 -6.1 5.3-7 12S442.2 623.6 442.2 623.6z"/><path class="st3" d="M371.6 639.3c-2.1 1.6-4.5 2.8-7 3.7 -4 1.3-3 1.3-8.7 0s-5-1.6-12.7-5.2 -11.7-2.8-9.3-7.2"/><path class="st3" d="M319.5 677.7c0 0 3.1 0.3 6.8-3.3s5.3-3.3 11-10.3 2-7.3 11.3-11.7 12.9-5 12.3-8.3"/><path class="st3" d="M363.3 721.7c0 0-3.4-10.3-5.4-13.7s-4-6.7-8.3-7.7 -8.7-1.7-11-4.7 -2.3-4.3-5.3-5 -69.7-4.8-73.3-4.1 -6 8.1-8.3 6.7 -8-1.3-11.7-1.3c-3.7 0-10-0.3-12.7 1.7 -2.7 2-1 5.7-5.3 6.7 -4.3 1-5 4-6 7s-6 7-10.3 9.3c-4.3 2.3-5.3 5.7-5.3 11 0.1 3.7 0.5 7.4 1.3 11"/><path class="st3" d="M229.6 766.3c0 0-4-2.7-4.7-6.7 -0.7-4-4.7-10.3-4.7-14.3s1-7.7 2.7-9.7c1.7-2 1.7-6.7 2-9.7 0.2-2.2 0.2-4.4 0-6.7"/><path class="st3" d="M214.9 719.3c0 0-2 1.3 0 6.7s2.7 12 6.3 12.7"/><path class="st3" d="M234.3 717.7c0 0-19.7 5.3-23.7 0s-6.3-11.3-10.3-13c-4-1.5-7.5-4-10.1-7.3 -2.5-3.3-4.6-5.3-4.6-7.7s-0.7-4 0-7.3 0.4-3.7 2.4-7.3 5.7-10.7 8.3-12.3 0.7-7 4-9.7c3.3-2.7 10.9-9.3 13.8-9 2.9 0.3 6.6-4 9.2-6.2s4.7-5.5 6.3-10.2 5.3-6.7 8.7-8 6.7 1.7 12 2.7 2.7-0.7 10.3 0 7.3-1.7 12.7 1.7 1 3.3 7.8 3.7 13.5 4.8 17.2 9.1 7 4.6 7.7 9.9 1.7 6.7 3.7 10.3 5 5 5 8.7 6 11.7 6.3 15.3 -1.7 4.9-3.7 5.6 -3.3 2.4-2.7 5.7 6.4 9.3 6.4 12.7 -2.7 6.3 1.6 11.7 11.7 10.7 10.7 17 8.7 18.3 8.3 24.3c-0.3 6.1-0.3 12.2 0 18.3 0.3 4.7 6.7 10.7 6.7 14.7s4.7 16.3 6 21.3 5 7.3 6.7 9.3 2.7 9.7 0 15.3 2 12.3 1.6 18.7 -1 12.7-1.6 17.7 1.6 13.3 5.3 20.3 1.7 4.7 6.7 8.5 7.7 11.5 7.7 16.5 1.7 23.7 4.3 24.5 6 0.8 7.7 7.1 -1.3 11 0 16.7 3.3 7 6.7 12.3 7.7 11.7 16 15.7 27.3 1 29 6c1.7 5-1.3 5.7 1.7 12.7s2.7 6.3 3.7 12.3 3.9 7.8 3.9 7.8"/><path class="st3" d="M506.3 1006.2c0 0-3.3 5.4-2 7.4 1.3 2-1.7 9-5.3 10.3s-10.7 1-14.3 4.3 -11 3.6-18 5.5 -14.7-0.5-17.7 0 -7.3 4.2-10.7 4.2 -12.3-2-15.3-1.7 -9 3.6-15.3 3.3 -10.3 2.1-15 4.2 -8.3 0.8-9.7 2.2 4 9.3 0 10.3 -10.3-0.3-14.7 0 -10 0.4-10 0.4 -7.3-3-10.3-4.4 -13 0.5-16.7 1.8 -11.3 1.7-17.3 2.6 -8 3-16.7 1.6 -14.3-2-14.3-2"/><path class="st3" d="M428.3 857.3c0 0-17 2-21.3 2s-4.9-2-9.6-4.3 -8-6.3-10.7-7.5 -7.3-1.5-10.3-3.5 -14.2-9.6-14-11.3"/><path class="st3" d="M308.9 688.8c-1.9 2.1-3.5 4.4-5 6.8 -1.7 3-2.3 4.7-6.7 5s-7-0.7-10.3 2.7 -7.3 10.5-11.7 10.6 -8.1 0.1-9 2.1 -14 17-16.6 20.7 -10 22-13 25 -9 2-7.3 9.7c1.7 7.7 4 15 3.3 18 -0.7 3 1 12.3 5.7 17.7 4.7 5.3 8.3 9.3 13.7 13.3s8.7 7.4 9.3 12.4 0.9 12.9 5 18.3 8 1.3 6.7 8.3 -3 15 0 17 4.8 1.8 10 6.2 5 6.8 9 6.8 4.3 2 6.3 4.3 8 4.3 8 6.3 -1.3 4.3 2.7 5.3 4 1.6 8 2 7.7-1 10.7 0c3.2 1 5.4 4 5.3 7.4 0 3.7 0 7.1 3 8.2s0.7 4.8 5.7 4.1 4.3-4.2 7.3-4.1 5.3 4.3 9.3 4.2 5 0.4 10.7 0c3.9-0.1 7.8 0.6 11.4 2.1 0 0-1-2.8-2.2-6.3s1.9-4.2 0-7.2 -4.6-4.7-4.2-7.5 3.5-4.2 4.2-6 0.2-4.8 0-8.2 -1.6-6.3-1.6-9 0.1-6 1.6-8.7 6.1-2 6.8-6.7 0-10.3 0-14.7 2.3-8.7 2-12.7 -1.3-5.6 0-9.6 5-6.9 4.3-9.8"/><path class="st3" d="M249.1 1090.2c0 0-1.8-3.2 0-8.2 1.8-5 4.2-4.7 4.8-9.3s-0.3-9 4-8.7 11 1.3 11.3-3.7 4.3-11.6 7.7-16.5 1.7-9.9 10-10 5.3 1.6 10.7-1.3 7.7-7.2 10.7-4.2"/><path class="st3" d="M254.8 1065.6c0 0-4.1-5-8.4-4.6s-6.9 3.6-9.9 0 -1.3-6.1-5-6.9c-3.7-0.8-18.3-0.4-22-1.8 -3.7-1.3-13.1-0.4-18.1-2s-11.6 0.7-13.9 2c-2.3 1.3-14.3 2.3-26-2 -11.7-4.3-17-5.3-21.3-9 -4.3-3.7-5.6-5-7.5-3.5"/><path class="st3" d="M189.4 1046c0 0 1.8-0.7 2.2-3.7 0.4-3 1.4-2.4 4.4-2.7s7.3-4.7 9.7-5.8 7.1-1.8 7.7-5.5c0.6-3.7 0.1-5.3 4.4-7.3s2.9-3 5.9-4 11-1.3 10.7-4.3c-0.3-3 4-4.3 4-4.3"/><path class="st3" d="M226.8 964.5c0 0-6.5-2-5.5-4.6s-2.6-5.2-3.6-6.9c-1-1.7-0.6-6-3.8-8s-10.9-5.7-15.5-6 -12.7-4.1-15-7.4c-2.3-3.3-7.3-5-11-5 -3.7 0-5.7 1.3-10.3 0s-9-7.3-10.7-9.7c-1.7-2.3-4.3-2.3-7.7-2.3s-11.7-5.7-13-9c-1.3-3.3-3.2-3-4.9-5s-7.8-5.7-8.6-9.3l-0.8-3.7"/><path class="st3" d="M281.1 985.3c0 0-2.5-6.7-2.8-10.7s0.7-6 0-10.2 -3.3-6.8-3.3-9.5 2.3-5.3 0-8.7 -6.3-8-5.7-11 -1.5-12-0.1-15.7 -1.6-6-3-9.7 -0.4-7.3 0-11c0.3-3.1-1-6.2-3.3-8.3 -1.7-1.3-4.7-3.7-4.7-3.7"/><path class="st3" d="M430.5 896.2c-0.6-1.5-2.2-2.4-3.8-2.2 -2.8 0.3-7.1 1.9-9.5 0s-5.7-0.7-8.7-1.8 -10.3 0.9-13.3-2.1 -0.7-5.3-6-5 -14.3 3.8-16-2.4 -12.3-2.6-14.7-3.9 -10.7-6-15.7-6 -3-3-9.7-3.7 -12 1.3-15.7 0 -9 2.3-16 2 -8.7-1.7-13.3 0.3 -1.9 2.8-7.2 4.7 -8.3 1.3-11.4 1 -9 4-14.9 2.7 -10.2-2.3-12.5-5.3c-2.3-3-4.7-3.7-8-3.7 -3.3 0-5.7-0.7-9.3-3s-11.3-2.7-15-2.3c-3.7 0.3-10.3 2.7-14.7 0s-13-3.7-15.3-8c-2.3-4.3-4.7-5.9-6.3-11.3s-2.3-7-7.7-7 -14.7 3-17.3 2c-1.4-0.5-2.8-1.2-4-2"/><path class="st3" d="M-17.1 887.7c3.1-1.1 6.4-1.9 9.7-2.3 5.3-0.7 7-2.3 10.7 0s6.3 2 7 6 1.7 5 2 7 1 1 4.7 0 8 1.5 10-2.1 2-2.6 7.7-4.4 8-4.1 15.7-4.1 15-0.7 18.7 0 10.7-0.3 15.7 0 7.3-2.4 11.7-3.5 14.7 4.5 15.7 0 3-7.1 8.3-6.1c5.3 1 11 5.5 16.3 4.6s15.3-1.9 18.7-3.2 2-6 7.3-10.3c5.3-4.3 9-10.3 12.7-9.7 2.1 0.4 4.3 0.4 6.4 0"/><path class="st3" d="M116.3 870.3c1.8-3.2 4-6.1 6.5-8.6 3.8-3.7 0.8-3.7 4.5-9.3 3.7-5.7 3.7-7.7 8.3-8.3s11-6 11.7-9c0.7-3 5-5.8 8.3-8.4 3.3-2.6 12.3-7.2 14-11.2 1.7-4 0.7-11.7 5.3-14s13-8.3 22-8.7 7.6 3.3 17.1 0c0 0 17.8-8 21.9-7.3"/><path class="st3" d="M184.2 1030.7c0 0-5.6 0-8.1 0s-6.8 2-6.5-2.4c0.3-4.4 2-5.3 0-8.3 -2.1-3.5-3.3-7.6-3.3-11.7 0-4-0.3-13.3-3.3-15.3s-6.3-4.7-6.3-9.3 -2-13-5.7-14c-3.7-1-9.3-0.7-12-5.2 -2.7-4.5-4-5.8-7.3-12.2 -3.3-6.3-3.3-13-8.8-14.3 -5.5-1.3-5.8 0.3-10.2-2.7s-10.3 4.5-16 3.9S86 940 82.3 940.6s-8.4-1.4-8.4-1.4"/><path class="st3" d="M99.3 1021.7c0 0-1-11.2-1.3-15.4s-5.3-23.2-8-27.9 -9.7-13.8-10-21.9 0-15.7 0-15.7"/><path class="st3" d="M136 959.9c-3.4 1-6.9 1.8-10.4 2.4 -4.4 0.7-12.4-2.5-18.4-2.4s-12 2.2-15.7 0 -10.3 0-15 2.5 -6 8.2-12.3 7.2 -26.7-4-30.7-3.3 -7.7 0.2-12 3.5 -5.3 3.7-15 2.8 -17.3 3.7-22 0.4"/><path class="st3" d="M103.3 914.2c-2.1-0.3-4.2-0.9-6-2 -3.7-1.9-4.2-2.5-7.7-2.9s-1.8 0.6-7.2-2 -6-3.6-10.4-5.1 -7.9-3.8-12.1-7.5 -8.2-7.3-10.2-10.6 -1.3-4.2-6.3-4.6 -4.3-1.4-9.3-6 -7-6.7-17.7-8 -13.7-3.2-18.7-3.9 -6-3.1-6-3.1"/><line class="st3" x1="72.6" y1="953.3" x2="50.9" y2="931.6"/><path class="st3" d="M60.3 896.2c0 0-1 7.3-4 11s-3.7 4.1-3.7 9.4 0.3 12.7-5.2 19.5 -9.8 8.5-15.8 9.2 -4.7 1.3-8.3 5 -4.2 5-9.1 3c-4-1.7-8.1-3.2-12.3-4.5 -3.2-0.9-7.9-1.9-10.2-0.5 -2.7 1.5-5.1 3.5-7 5.9"/><path class="st3" d="M308.9 905.3c0 0 4-5.9 5.7-9.1s0-6 1.3-10 4.1-8.9 3.6-11.9 -2.9-6.7-1.6-9 4.7-6.3 3-9.7 -1.2-9-1.6-11.7 -2.4-8.7-2.4-13.3 -3.3-7.7-13-14 -10.3-7.6-10.3-7.6"/><path class="st3" d="M295.6 790.4c0 0-3 5-2 10s1.7 10.3-3.3 10.7 -23.7 1.3-26.3 3.7 -8.8 8.3-8.8 8.3"/><path class="st3" d="M61.9 791.3c0 0-13.7-9.7-17.3-12s-6.7 1.3-13 0S19.9 776 19.9 771s-9-7.7-14-7.7 -10.7-2.3-14.3 0c-2.1 1.4-4.5 2.4-7 3"/><path class="st3" d="M827.2 448.6c-1.3 3-3.2 5.6-5.6 7.8 -4.3 4-16.3 11-24.3 15s-13.7 2.7-18.1 7.3c-3.7 3.7-8.3 6.5-13.2 8.2 -2.7 0.8-6 3.2-12 4.5 -6 1.3-27 2-33.3 3.3s-20.7 2.7-24.3 9 -24.7 22.3-29.3 27 -4.7 8-8.7 12.7 -47.3 25.7-54 29.9 -10.7 18.1-12.7 24.1 0.7 7.3-3 11 -3.3 8.7-5.3 14 -8.3 6.3-11.3 8.3 -6 1-11 7.2 -16.7 9.2-20.3 14.5 1.3 13.7 1.3 17 -2 17.3-4.3 24.3 0.9 11.7 2.9 17.7 1.3 8 1.3 11.7 -2 5 0 11 1.3 8.3 0 8.8 -3.7 16.2-4.3 21.2 -3.1 16.7-3.7 22.7 1.4 27.6 0 29.9 -14.9 21-14.9 21c-0.2-3.3-2.5-6.1-5.7-7 -5.5-1.5-6.9-0.1-9.1 3.1s-2.1 7.9 0 12.3 4.3 8.1 10.1 4.4 8.2-4 8-7 -1.3-4.4-2.8-4.4"/><path class="st3" d="M835.6 437.8c0 0 7.7-2.5 12.3-8.1s3.7-10 8.7-12.5 12.7-0.8 17.7-0.5c0 0 40.3 7.7 44.8 10.7s4.8 2.7 11.2 5.7 7 3.7 15-4.3 10.6-13.7 12.6-14.7 11.8 5.3 19.2 7 11.5 4.3 16.5 4.2 13.3 2.2 18 0 72.3-13.2 83.2-13.2 22.2-1.7 23.7-3.7 -3.3-2.3-2.9-6.7 3.7-11.9 6.4-15.8 6.2-9.4 15.3-4.5 12.7 7 12.3 12 0.3 6.3-8.3 9.7 -20.7 6.3-23.3 4.7"/><path class="st3" d="M833.3 449.3c0 0-0.6 1.7 3.5 5s10.8 8.9 12.1 11.1 2 8.9 3 16.7 6 17.5 9.3 24.8 2 4.9 3.7 12.9 8 9 8.7 12.4 -3.7 13.3-3.7 16.2 2.5 6.2 3.7 13.8 0.1 10 0 17.7 -0.4 19.3 0.6 27.3 2.7 15.4 1.3 19.5c-1.7 5.7-2.8 11.5-3.3 17.5 -0.7 6.7 0.3 7-0.7 13s0.7 11.7-2 16 -9.3 6.9-9 13.3 2.3 13.1-2 18.7 -6.7 9.7-6.7 14.7 -6.7 15.3-10 21 -8.3 23.7-11.7 27.7 -4.7 6-6.3 4.3c-1.3-1.4-2.4-2.9-3.3-4.5"/><path class="st3" d="M902.2 767.8c0 0-3.3 1.4-7.3 5.8s-7.1 6.9-7.4 13.1 0.4 9.9-4.6 13.9 -3 6.3-9.7 8.3 -10.3 3.3-15.7 7.7 -10.3 10.7-17 14 -15 10.7-17.3 13.7 -3.9 5.7-2.6 15 2.8 16.1-0.5 20.9 -3.2 7.8-3.2 7.8 -2.3-0.7-7 0 -8 5.5-5.7 8.2 8.3 8.8 8 13.4 -3 15.6-5 22 -4.2 9.3-3.8 15.2 3.8 3.1 4.4 9.7c0.4 4.4 0.5 8.8 0.3 13.2 0 2.7-0.4 6.6-0.4 6.6"/><path class="st3" d="M982.1 856c0 0-5.2-2.7-9.9-1.7s-1.7 4-8.3 0.7 -8.3-3-12-2.7 -5.7-1.3-7-4.8 -6.3-4.5-10.3-6.5 -7-4.2-9.3-8.3 -2.7-9.2-8-9.8 -13.3-0.2-17.7-6.2 -7.8-15.7-12-19.7 -11.3-8.9-14.3-10.3 -34.3-9.9-38-13.1 -11-6.9-12.7-11.6 -5.3-6-7.7-7 -20-12-24.7-12.3 -7.7 4.3-10.7 0 -13-15-16-16 -8.7-3.6-18-3.6 -14.7 3.7-16 7.7 -4.3 1.3-9 3.3 -12 6.3-18 4.3 -11-1-16.3 0 -12.3 2.3-21.7 3.7 -15.3 2.3-17.7 0.3 -5.4-2.3-10.9-4 -5.1-3.3-11.8-3.3 -9.3-1-19 0.3 -28 3.3-28 3.3"/><path class="st3" d="M537.7 764c0 0 4.3 2.3 10.3-4.3s9.7-8.3 16.7-12.7 16.7-10 17.2-14.3 10.2-3.7 13.5-6 6.3-5 9.3-5.6 0.3-1.7 4.7-5.4 5.7-7.3 12.7-8.6 11.7-3.7 19.3-6c8.1-2.5 16.3-4.5 24.7-5.9 10.7-1.8 11.3-1.5 14.3-6.3s6-9.6 10-17 20.7-18.2 25.3-23.2 16.3-13 19.3-18 -2-12 0-15.7 9.7-15 13-17.7 8.7-7.1 11.7-9.5c4.8-4.2 9-9.1 12.3-14.5 4.3-6.9 26.3-37.9 27.3-43.2s2-12.7 5-17.7 3.7-3.7 4.7-10.3 -4.3-11.6 0-18.3 3.7-13.8 8.3-18.2 4.3-9.1 4.3-9.1"/><path class="st3" d="M975.3 193.9c0 0-8.3 5.4-10.7 10.9s-1.4 5.2-6.7 9.2 -5 4.7-10 9.3 -4.3 11.2-11.3 14.7 -11.7 6.9-17.5 6.9 -6.5 0.3-13.8 0 -11.7 0.7-15 5.3 -10.3 6.7-16.7 10 -11.7 2.7-15.3 6 -11.7 8.7-12.7 10.3 1.7 2.1-1.3 8.2 -6.3 15.8-10 21.1 -14.3 13.3-17.7 16 -14 8.1-13.8 13.9"/><path class="st3" d="M1011.6 175c0 0-3.6-10.7-9.8-14.7s-15.5-12.9-18.9-15.8 -5.6-5.5-5.8-10.5 -2.5-10.3-3.9-14.8 2.7-16.5 3.8-25.2 -0.2-14.3 0-18.3 0-11 0-11"/><path class="st2" d="M977.2 78c0 0-6.6 0.3-9.9 2.3s-3.7 1-8 5.8S946.6 98 941.9 103s-3.7 9-7.7 12 -11.7 12-17.3 8 -6.3-8.3-11.3-9 -11.8 3.7-16.6 1.7 -3.7-3.4-10.1-3.7 -23.3 12.7-28 12.1 -23-6.3-27.7-8.7 -5.3-6.8-9.3-5.7 -4.7 0.6-7.3 0 -9-5.3-12.7-5.9 -15 6.2-21.7 5.9 -19 1.6-26.7 0 -16.7 0.1-20.3-1.6 -10-3-14.3-2.3 -17 0.3-24-2 -19.7-6-25.7-10 -6.3-5.7-14.3-5.3 -20.7-0.3-22.7 1 -3.3 3-7 1.7 -6.7-3.7-8.7-11 -2.3-9-9.3-12 -11.7-5-15.7-5 -30 0.7-35.3 0 -17.9-13.1-17.9-13.1"/><path class="st2" d="M544.2 92.8c0 0-0.3 8.8-3 11.2s-4.7 3.7-7.3 7.3 -6.3 3.7-9.7 3.3 -5-0.7-14.3 6.3 -15 18-15 21.3 -10 27.7-11.7 34 -2 7.3-2.3 10 8.7 8.6 10.3 18.4 3.3 8.2 5 14.6 7.7 19.3 7.5 22.8 -3.5 6.9-3.2 11.9 2.3 3.3 1 8 -3.3 4-3 9 1 10.3 1 10.3 3 5.7 1.7 8.3 -2.3 3.7-1.3 8.3 1.7 5 1 9.3 -1 11.3 1.3 16.5 1.7 10.9 2.7 16.5 4.7 7.4 7.7 12.7 10.7 14.4 13.3 18.9 6.2 3.8 4.4 10.1 -3.6 12.3 0 20.3 4.6 17.3 5.2 25.7 -1.8 9 2.1 14.3 6.6 9.7 6.6 18.7 2 16.3 4 20.3 -0.3 15 5.3 21 11.7 8.3 12.3 15 -0.7 7 1.7 13 8.7 17 7.3 24.7 -3.3 21.2-2.7 31.9 1.7 10 0.7 16.2 2.4 9.2 2.2 16.2 -0.5 8.8-2.2 17.4 0 9.2 0.7 14.6 -0.7 2.7-1.7 9.5 1 10.2 3.2 16.8 3.1 8 2.1 15 0 7.7 0 11.3 -3.3-0.5-1.7 8.6c1.1 6.1 0.4 12.4-2 18.1 -0.7 1.3 3 8.6-0.4 10.9"/><path class="st2" d="M501.3 600.3c0 0 0.7-1.7 2-6.4s2.3-7.6 7-8.6 10.3 1.7 13.3-2.7 22.7-20.7 23.7-23.3 -2-2.7 2-7.3 3-7.7 9.7-10.3 13.1-5 18.7-4.7 13.9 1.9 20.6 0 6.7-4.6 16-4.6 9 1.3 21 1.3 19.7-2 22.7 0.3c4.3 3.4 9.6 5.2 15 5.2 6.7-0.2 14.7 5.2 23 7.2s11.3 0.7 17 6.3 15.3 7.7 19.3 13.7 17 9.3 24 11c7 1.6 14 3.6 20.8 6 7.6 2.7 9.6-2.4 27.9 4.5s25.3 5.8 35 15.3 18 12.9 25 18.6 11.3 5.2 16 10.6c5.3 6.3 10.3 12.9 15 19.7 5.3 7.7 8 9 6.3 13"/><path class="st2" d="M845.6 658c1-2.3 1-5 0-7.3 -1.7-4-10.3-11.3-12.7-15.3s-0.3-7.3-2.3-10 -5.3-3.3-9-3.3 -9 1-11.3-2 -5.7-11-10-13.3 -9 0.9-13.7-3.6 -10-13.3-14.3-16.2 -8.1-0.4-10.3-4.6 -4.3-9.3-7.3-14.7 -8.3-24.7-14-28.5 -11.9-4.5-13.1-9.8 -7.9-26-5.2-30.7 1.4-7.3-0.6-15 -1.7-9.7 3-16.4 8.4-16.8 8.4-16.8"/><path class="st2" d="M790.7 337.9c-2 3.4-4.4 6.5-7.3 9.1 -4.8 4.4-5.8 10.4-11.5 17s-11.7 10.5-14 15.4 -5.7 14.2-11.7 16.2 -10.7 3.7-14.7 10.7 -7.3 8.7-15.3 10.8 -23.3 8.5-34 5.8 -28.6-2-32.8-7.3 -5.9-8.3-10.2-11.7 -12-1.7-17-3.3 -10.3-7.8-17.3-7.7 -14.1-0.3-19.4-3 -6.6-2.3-12.3-4.3 -11-3-18-1 -17.5 5.3-24.9 4.3 -11.1-4.5-16.4-8.2 -23-6.4-30-7.1 -30.3 5.2-37.7 5.8 -19.3-2.9-24.3 1.3 -13.3 12.6-13.3 12.6c-5.7 4-11.6 7.6-17.7 11 -7.7 4-15.3 6.3-15.3 11.3s-3.7 10.3-8.9 13 -18.8 1.7-23.8 2.7 -15.3 4.3-21.3 8.3 -1.2 1.7-11.4 5.3 -12.6 2-20.2 9.7 -10.3 10.7-19.7 14.7 -17.3 4.7-22.7 8.3c-5.3 3.7-19.7 10.3-26.3 7s-10-8.7-17.7-9.3c-7.7-0.7-7 0.3-13.5-5.7 -6.5-6-8.5-9.2-16.9-10.3s-14-5.5-15.3-10.8c-1.3-5.2-4-12.6-9-16.6s-10-4.3-18.7-8.3c-8.7-4-19.3-8.7-21-15.3s-4.7-9.7-9.7-9.7 -16.7 5.7-22.7 8.7 -17-0.7-26.7-1.3 -9-0.3-19.3 0.7 -10.3 7.7-22.8 7"/><path class="st2" d="M-20.1 485.6c0 0 9.3 0.6 11.3 0s2-3.5 4.7-3.4 6.7 0 6.7 0l4-3.2h3.7c1.4-0.7 2.7-1.5 4-2.3 1.3-1 4.3-3.7 6-4.7s4.3-0.3 4.3-1.3 0-2 2.3-3 4.7-5.7 8.3-6.3 7.3 1.3 11-2.7c3.6-3.8 7.6-7.2 12-10.1 2.7-1.6 4.7 0.4 9-3.2 4.1-3.4 8.4-6.4 13-9 2-1 2.7-4.3 7-4.3s7.7 0.3 10.3-5.3 1.3-11.7 5-13c2.5-1 5-2.3 7.2-3.8"/><path class="st2" d="M130.3 423.7c0 0 14 1.7 18-3.3s3-9.3 8.3-14.7c5.3-5.3 11.3-4.3 15.3-9.7s12.4-8.3 18.2-9.7c5.8-1.3 15.5 0 20.1 0 4.7 0 5.7-3.5 13.3-0.6s8.7 2.7 14.7 2.5 6.3-1.4 5-3.6c-1.3-2.2 1.3-5.9 0.6-8.6 -0.6-2.7-3-5.7-4-8s0.2-13.3 4.1-13.7c3.9-0.3 8.9 2.7 14.9 3.3s10.7 5 14.3 1.7 2.4-3.7 6.4-7.7 8.3-11.2 12.7-15.8 6.7-7.2 13.3-7.2 5.3-2.4 9.7-4.9 3.7-5.1 12.7-9.5 10.3-12 16-10.7 7.7-4.2 7.7-4.2"/><path class="st2" d="M400.8 398.5c0 0-4.2-3.5-4.2-7.2s-1-18.3-2.3-22 3.3-6.3-2.7-16.7 -15.7-15-18.7-24.7 -1.7-14-6.3-17 -10-11.6-10-11.6"/><path class="st2" d="M347.3 430.9c0 0 0.3-1.7-2-7s-3.3-8.8-2.3-12.2 2.3-6.4 2-13.2 -7.7-50.2-7.7-54.5 5.3-17.4 7-22.7 11.7-22.7 12.3-28 4.3-18 2.7-22.3 -0.8-4.7 0.4-12 4.2-16.7 2.2-22c-1.2-3.5-1.8-7.1-1.7-10.8"/><path class="st2" d="M112.1 164.8c0 0 4.8-2.8 7.5 0s-0.5 1.8 6.1 6.1c6.6 4.3 25.9 18 29.9 19.7 4 1.6 8.2 2.5 12.5 2.7 4.5 0.3 19.1 0.3 27.5 0 8.3-0.3 8.3 2.7 9.7 7.3s4 6.7 8 11 13.7 6 17.7 6 5.4 2.7 10 5 13.3 10.7 19.6 13c6.3 2.3 15.3 4.3 19.7 8.3s4 3.7 11 5.7 10.7 4.3 18 7.7 2.7 3.3 16 3.3 17.3-0.7 22.7 0c3.7 0.6 7.4 1.5 10.9 2.8"/><path class="st2" d="M175.8 276.3c0 0 0.4-3.6 2.1-4.6 1.7-1 2.3-1.2 2.3-3.6s-3-3 0-6 6.6-3.3 5.3-6.3 -0.4-4.3 0-6.7c0.3-1.6 0.3-3.4 0-5 -0.2-1.6-0.2-3.2 0-4.7 0.1-1.9 3.6-1.3 0-3.9 -3.6-2.7-7.9-4.3-8.3-6.7 -0.3-2.3 0.8-0.7-1.4-4s-1.2-3-2.2-5.7 -1.7-4.3-2.7-5.5 -3.3-0.9-2.8-4.2 -0.2-2.1-1.9-4.6 -4.4-12.1-1.3-11.8"/><path class="st2" d="M106.7 83.6c0 0 3.9-4.6 6.9-7.6s3-5 8.3-10.3 5.3-3.7 5.8-10.3c0.5-6.7 0.5-16.7 1.5-21s1.7-7 0-11c-1.7-4-9-11.3-9-16.7s4-6 2.3-13.3S120.3-17 120.3-17"/><path class="st2" d="M233.3 85.6c0.3-2.2-0.4-4.4-2-5.9 -3.1-2.8-6.6-5.2-10.3-7 -5.3-2.7-18-3-18-3 -4.1 1.4-8.2 2.5-12.4 3.3 -8.9 2-11.4 5.7-15.2 7 -3.8 1.3-10.4 7.4-13.9 8.3"/><path class="st2" d="M657 41.9c0 0 1.3 1.4 1.6 6.4s-3.7 7-5.7 10.3 0.7 13.7 0 19.3 -2.3 26.6 0.7 34c3 7.4 7 19.7 7.3 30.4s5.5 21.3 10.1 31 20.1 22.3 20.1 22.3 0.5 7.3-2.5 11.7 -21.3 33.3-22.3 36 1.7 15.1 1.7 21.5 4.7 16.8 0 24.1 -4.3 7-5.7 12.3 -2.3 13.3-4 16.7 -8.7 9-9.3 13.7 -2 12-1.3 20.3 3.4 15.7 1.9 19.9 -2.9 1.2-5.9 11.2 -6.5 22-6.2 26.6 -0.6 7 0 11.3 2.6 5.1 2.6 9.9 0.8 40.5 0.3 43.4 -0.3 6.7 2 13.3c2.3 6.7 15 31 17.3 38.7s7.3 21.3 15.8 31.3 0.9 22.7-1.8 25.7 -7.3 17.3-9.5 22 -6.9 7-9.9 10.3 -2.3 0-2.3 0"/><path class="st2" d="M697.3 622.3c0 0-1-6.7-3.3-10.9s-4-7.4-7-10.5 -7-6.3-5-10.7c1.7-3.5 3.5-6.8 5.7-10 1.7-2.7 1.1-6.8 1.7-9.2s-1.4-2.1 2.3-2.8 10.5-3 10.4-5 0.2-2.7 2.9-3.7 4-1.3 4.7-3 1.7-6.3 4.3-6 4.7-0.7 4.7-2.2 -0.6-8.2 1.8-9.3 3.2-2.8 3.8-4.8 2-4.7 6.3-8 12.7-2.8 13.7-6.4 -5.7-8.6 0-12.9 8.5-4.6 10-10.4 3.2-6.3 3.2-6.3"/><path class="st2" d="M645.9 605.3c0 0 1.3 1.3 0 6.1 -1.3 4.9-1.3 10 0 14.9 1.3 4.3 10 13.3 9.7 19.7s-2.7 7-2.7 12 1.3 4.7 0 12 -3 11.9-3.5 16.6 -0.5 12.4 0.8 17.7 0.7 6.3-2.3 10.7 -3.3 6-1.3 11 3.4 11.5 2.9 15.6 0.8 7.5-2.2 12.8 -3.7 6.9-2.3 13.5 7 15.5 7.3 21.5 -1.3 19.3-4.3 25.3 -9.1 13-11.9 21.7 -3.8 20.8-3.8 20.8S629.5 878 636 887s7 11.3 7.6 18.3 -2.7 9 3.6 14 12.7 5.8 16.7 9.9 5.6 4 5.1 18.2"/><path class="st2" d="M825.2 896.2c0 0-1.3-8.2-8.3-8.2s-8.3-0.5-10.2 1.2 -3.3 5.5-3.3 5.5 -3.8 3.5-6.2 1.6 -5.7-1.6-9-1.6 -8.8 2.1-11.2 1.6 -7.4 0.7-10.8 0.6 -8.1-0.5-10-2.1 -9-6.1-13.6-6.7 -15.1-3.3-15.1-3.3 -10.6 1.3-14.6 0 -28-7.3-29.7-8 -13.7 0-20.3-4.6 -9.3-1.7-13.5-2.4 -10.2-10-15.2-10.3 -7-2.6-12.7-2.8 -8 1.1-20-2.5 -16.1-3.4-16-6.5"/><path class="st2" d="M710.3 969.7V963c0-3-0.7-5 0-9.3s-0.7-6.5 1.3-12.9 6.3-8.3 4.7-14.7 0.4-11.9 0.4-18.8 -3-16-3.3-19.3 0-2.8 3.3-5.4 12-6.9 17-12.2 8.7-5 11-7.3 3.1-10 3.1-15.5 -0.1-17.7 2.3-24.6 4-10.3 1.3-16.3 -4.4-22.5-2-27.9 4.7-5.8 6-17.1 -0.6-23.2 2.2-29.7 7.1-6.7 9.1-12.7 0.7-9.3 5.7-14.3 7.2-5.3 11.1-8.3 5.5 2.2 7.9-3.7 5.7-12.3 6.7-15.6 4.7-16.3 4-22 2.3-14.6-2.3-17.5 -10.7-6.8-12-11.5 -0.8-8.1-4.2-13.2 -8.1-3.8-9.5-12.1 -7.7-24.5-9.3-27.8 3.3-17.2 2-26.9 -5-19.3-5.7-28.3 -3-21 0.3-22"/><path class="st2" d="M876.1 550.7c0 0-7.5-1.7-9.5-5s-7.2-7.3-13.7-11.3 -6.4-3.7-10.6-8 -4.3-8.3-11.3-9.7 -27.7-9.9-36.7-9.6 -21.7-5.4-28-9 -6-1.3-13-11.2 -6-24.2-12-27.8 -8-6.2-10-10.4 -6.3-13.2-7.7-19.2 -4-14.8-8.3-20.7 -15-29.3-21.3-33.3 -19.3-3.7-28-11.3c-5.3-4.9-9.3-11-11.6-17.9"/><path class="st2" d="M779.2 252.2l-4.8 3.8c-2.2 1.8-5.8 1.8-7.5 3.8s0 7.2-3 8.6 -3.5 0.4-6.4 2.6 -4.1 6.8-7.6 7.2 -7.2 1.8-8.5 3.5c-0.9 1.3-1.6 2.7-2.2 4.2"/><path class="st2" d="M795.4 337.9c0 0-1.1-2.2-4.7-4.7s-3.8-5.5-7.3-5.8 -4.2-0.2-6.3-3.6 -7.2-7.9-11.8-9.1 -9.1-2-13.1-7 -6.2-6.8-9.5-12 -2.8-10.5-5.2-12.8 -6.3-7.2-9.8-7.8 -12.2-4.1-16.8-6.2 -1.5-4.7-8.5-4.1 -8 1.8-13.2-0.1 -9-0.8-12.8-1.4 -10.2 3.5-13.2 0 -12.5-8-18.8-10 -6-0.5-13.5-3.2 -16.2-8.2-18.5-15.2 -2-4.2-8.5-8.7 -4.5-4.9-10.2-8.8l-5.8-3.8"/><path class="st2" d="M858.1 1106.7c0 0-11.5-3.9-9.7-9.4s-0.7-9.1 0-18.6 1.7-7.3 1.7-14.7 -13-27-16-29.4 -11-13.5-12.5-19.4 -10-25.8-5.5-28.3"/><path class="st2" d="M532.5 914.2c3 0 4.7-3.5 9.4 0s5.7 4 13.7 4 14-1.9 18.5-6 10-5 15.5-4 8 5.1 18 4 15.7 1 24.1 0 11.7 0 11.7 0"/><path class="st2" d="M802.3 660.8c0 0 8.2 4.6 12.5 11s38.8 27.3 49.3 35.3 10.5 10.2 17.5 18.8 13.8 13.2 20.7 19.2 6.3 11.5 12.3 14.5 24.5 4.3 20 13.9 -0.5 16.6 3.5 25.1 9.1 13.5 9.5 21.5 6.9 15.8 14.5 18.8 10.2 4.8 14.1 8.5c2.8 2.8 5.2 5.9 7.4 9.2"/><path class="st2" d="M845.1 827.8c0 0-6.5-6.1-11-4.9s-6.3 1.8-8.9-2.2 -3.6-14-3.6-14 -1.9-15.8-1-19.9 3.2-26.1 4.6-32.6 0.4-18.3-3.6-25.2 -9.5-19.9-15-28.1 -9-11.3-16.5-12 -20 3.7-27-2.5 -23-5-23-5 -15-5.8-23.5-8 -22-5.2-33-5.7 -11.5-3.3-19.5-2.7 -9.5 4.6-18-0.1 -16-2.1-27.5-6.9 -11.5-5.9-16.5-11.9 -6.3-14.8-14.2-13.9c-4.7 0.5-9.5-0.5-13.7-2.8"/><path class="st2" d="M544.6 618.3c4.9 2.1 9.9 4 15 5.5 8 2.3 20 11.3 37.5 3s23.5-9.7 32-9.7 22.5-3.2 40 5.2 18 1.3 26 4.5 20.2 6.3 24.3 7.8 14.7 3.9 27.2 5 20.2 2.5 33.1 8.5 31.1 8.7 45.5 9.8 20.9-0.7 27.7 0 29.7 6.8 36.7 7 17.5 0.2 25 3.2c8.8 3.5 18.3 4.7 27.7 3.6 11.3-1.1 20.3 1 24.3 3.4s-3 11.4 7 19.9 21.5 17.7 25.5 27.8 0.3 21.2 7.6 28.7 10.4 0 9.9 12.7c-0.3 6.1-0.3 12.2 0 18.3"/><path class="st2" d="M702 777.9c0 0-0.9-7.5-2.4-11.6s1-6.2 0-11.7 3-21.3-0.5-25.7 -3.5-21.3-3-26.3 -0.2-13.8-0.2-13.8 -3.8-22-7.8-30.8 -5-16-2.5-20.7 11.3-16.8 16.4-19 7.5-0.6 14.6-7l7.1-6.4"/><path class="st2" d="M681.9 590.3c0 0 5.2-1.2 23.5-3.4s23.7-0.7 33.7-2.7 35.5-4 47-8.5 10.5-7 25.5-7 26.5 0.5 34.7-4 12.3-5.6 15.3-8.3 25.2-7.3 31.3-13 36.2-6.5 47.2-8.6 28.5-2.7 39-5.6 27.5-16.4 31.2-18.4 28.7-16.7 34.2-23.8 5.5-5.7 10.5-12.7 15.9-31.2 28.9-36.4 22.4-26 22.4-26"/><path class="st2" d="M1319.9 767.8c0 0-31.7-14.3-43.8-26.2s-20-7-30-12.9 -15-3.5-25.5-13 -17.1-10.5-20.6-16 -5.6-8.2-5.6-8.2"/><path class="st2" d="M1258.9 789.3c0 0-10.8-4.6-12.8-11.4s-0.5-18.9-8.5-20.6 -17.5-2.2-21-3.7 -8-10.7-13.8-15.3 -7.4-5.2-13.8-8.7 -23-17.7-22.9-21.5"/><path class="st2" d="M1105.6 791.2c0 0-3.9 1.8-3.9 4.1s0.4 3 0 6.6c-0.3 3.4-1.2 6.6-2.7 9.7 -1.5 3.6-2.2 7.4-2 11.2 0 3.8-2.1 5.8-2.7 7.8s-4.8 17.3-6.5 22.3 3.4 21.7 0 28.3 -3.5 9.7-3.6 14 1.8 13.6 0 17.6 -11.1 20-12.8 26.3 0.7 6.7 0 13 0.2 7.7-2.6 15.3 -4.8 12.9-4.8 19.1 4.8 7.9 0 10.2 -8.7 3.3-10.7 8 -7.3 4.7-7.3 8.7v11.3c0 4.7-2.3 9.3-4.7 14s-1 10.7-2.7 14.3c-1.6 3.3-3.4 6.4-5.6 9.3 -2.1 3 1.4 9 0 16s-3.4 8.7-4.1 14.7c-0.4 3.9-0.4 7.8 0 11.7"/><path class="st2" d="M1096.9 1105c0 0 3.3-9 0-11.3s-4.3-4.3-3.3-7.7 -1.1-9-0.4-13 1.3-10.7 2.5-17 -0.2-13.3 0-18.7 5.9-16.2 5.9-16.2"/><path class="st2" d="M1063.9 789.8c-1.3 1.7-2.4 3.6-3.3 5.6 -1 2.6 1.7 5.6 0 10.3s-5 18.3-7 26.3 -2.3 13.7-4 19 -6.7 25.8-6.7 29.2 3 12.4 0 20.4c-3.1 8.1-3.9 16.8-2.3 25.3 1.7 9-2.2 16.9-7.6 22.1s-7.1 8.2-6.8 14.2c0.4 4.7 1.2 9.3 2.3 13.8"/><path class="st2" d="M932.6 1064c0 0 1 0.3 5 2s7.7-0.3 14 0 10-0.3 14.3 0 6.9-2.7 10.3-2 14.5 2 14.5 2 9.9 1.3 13.6 0 10.3-2.2 15-3 23-2.8 25.8-1.9 6.8 2.8 10.2 2.7 8.7 0 8.7 0"/><path class="st2" d="M1077.6 1105c0 0-2.2-7-4.1-12s-1.9-10.7-2.9-14 -0.1-4-1.9-6.3 -6.8-13.4-6.8-14.9 -3.9-8.7-1.3-11.1 4-4.1 3.3-9.4 -1.3-7.6 0-9.9c0.9-1.5 1.9-2.9 3.2-4.1l1.6-7.1"/><path class="st2" d="M1202.6 1061.2c-2.1-0.2-4.2-0.2-6.3 0 -5.3 0.2-1-2.9-12.7-3.3s-39.7 0.1-43 0 -6 0-6 0 -2.4-7.7-8.7-8.2 -15.4-5.2-29.9-4.2"/><path class="st2" d="M1297.4 982.7c0 0-44.8-0.4-56.2-1.4s-10.3-2.2-16.7-5.1 -4.7-13.9-9-13.6 -96.3-2.7-100-2.3 -4 9.7-8 9.3 -8.4 4-11.5 4.3 -11.6 4.7-16.3 4.3 -14-2.1-14-2.1"/><path class="st2" d="M1130.1 1017.2c0 0-1.5-5.2-6.2-6.8s-8.3-0.7-13.7-3.3 -7.5-5-12.9-6 -18 1-23.9 0 -13.4-0.2-14.3-1.8"/><path class="st2" d="M698.8 779.4c0 0 0.8-4.4-3.9-7.4s-14.3-6.2-17.3-7.6c-3.5-1.4-6.7-3.3-9.7-5.6 -5-3.8-11.7-3.1-14-7.4 -1.7-3.2-3.2-6.4-4.5-9.8"/><path class="st2" d="M624.3 735c0 0 1.7-2.8-2.3-6.4s-5.3-3.6-5.7-8.1c-0.5-6-2.7-11.7-6.3-16.5 -4-5-10-11.3-17-15.2s-18-2-22.2-4.2 -14.5-1.4-18.8 0 -16.7 7.3-21.3 6.9 -7.3-6.1-14.7-9.8 -17-8.3-17-8.3"/><path class="st2" d="M654.3 794c-4-0.3-7.8-1.8-10.9-4.2 -4.6-3.9-3.6-5.1-11.7-4.8s-13.1-0.2-19.4-2.2 -31.7 3.4-39.7 0 -18.7-13.8-25.3-15 -9.7-3.5-12-5.8 -13.3-3.3-16.3-6 -1.8-14.3-8-19.3 -6.3-3.3-9.6-13.7 0-51.3-5-54.2 -12.4-9.5-15.3-14.5 -5.8-6.7-5.8-6.7"/><path class="st2" d="M248.4 738.7c0 0-15.8-8.9-14.1-24.8 1.7-15.9 2.7-24.7 1.7-27.3s-0.3-10.6 0-13.3c0.3-2.7-0.9-4.7-1.8-8.3 -0.9-3.7 0.5-4.3 0-11.3 -0.5-7 3-2.7-0.3-9.7 -3.3-7 0.4-17.7 0.4-17.7"/><path class="st2" d="M310.2 733.1c-2.5-1.2-4.8-2.7-6.9-4.5 -3.7-3-7.3-5.3-11-5.6s-7.7-2.3-12.3-3.7 -11.4-4.7-13.7-8c-2.5-3.9-6.5-6.5-11.1-7.2 -5.5-0.8-20.2-4.7-22.6-8.2 -2.4-3.5-3.9-9.5-9.9-9.4s-8.7-0.3-20-1.9c-11.3-1.7-15.7-2.3-22.3-5s-16.7-4.7-20.7-4.7 -2.7-1-10.7-3.7 -10.7-2.7-15-1.7l-4.3 1c0 0 2.7 0.7-5.3-3.7s-6.7-10.3-12.7-6.2 -8.3 5.8-8.3 5.8 0.3 8.3-6.3 11 -13 10.7-18.7 8.8 -13.7-3.8-20.3-4 -19.7 1.8-27 0 -15.3 0-15.3 0 -18 8.5-22 11.2 -2.3 2.7-7.3 6l-5 3.3"/><path class="st2" d="M128.3 617.2c3.2-1 5.7-3.6 6.7-6.8 2-5.7 1-10.4 6.7-11.7 5.7-1.3 12.3 2 21.3 0s19.6 3.3 22.3-2c2.7-5.3 4.4-6.3 4.9-14.7s6.8-12.3 7.1-16.3c0.3-4-1.3-10.3 3-16.3 4.3-6 7.3-5.3 9-14.3 1.7-9 5.4-3.3 8.4-12.3 3-9 2.3-18.7 2.6-20.7 0.3-2 1.6-15.3 6-16.2"/><path class="st2" d="M246.9 555.3c0 0-3.3-4.3-3.3-12s2-11-3.1-19.3c-3.1-5.1-5.2-10.8-6.2-16.7l1.7-23.9"/><path class="st2" d="M413.9 391.3c1.6 2.1 2.5 4.6 2.7 7.2 0 3.8-7.3 5.2 0 8.2s5.3-0.5 9.7 5.1 4 3.6 7.3 8.6 6 4.5 9 10.6 2.7 16.8 1.3 22.8 -0.9 8 0.4 14.7c0.8 4.6 1.4 9.2 1.6 13.8 0 0-5 10.5-3.3 15.1s-0.3 8.3 6.7 14 15.7 5.7 18.3 13 8.8 10 5.5 18.7 1.5 27.3-3.9 37.7c0 0-0.3 0.8-2.3 6.2 -1.7 4.1-3.7 8-6.1 11.8"/><path class="st2" d="M235.9 620.7c-2.2-1.9-3.4-4.7-3.4-7.6 0.1-4.8 3.4-7.1 5.8-12.1 2.3-5 1.1-2.7 2.7-8.7 1.6-6 3.3-5 4.3-12s-2.7-7.3 0-12.7c2.7-5.3 9.3-9.4 7.1-13.5"/><path class="st2" d="M313.6 631.9c0 0 3.7-9.6 0-14.8s-10.4-10.8-10.4-10.8 -5-4-4.3-10.3 -2.1-15.3-0.1-19.3 2.7-14.7 4.7-20 1.3-3 1.3-9.3 6.8-5 14.4-10 3.6-11.7 13.9-15.7 12.8 0.3 18.4-5 3.6-5 10.9-9.3 8.3-5 19-6.7 12.2-8.2 11-8.9"/><circle class="st4" cx="1254.2" cy="92.3" r="6.2"/><circle class="st4" cx="1133.2" cy="393.3" r="6.1"/><circle class="st4" cx="1062.2" cy="682.3" r="7.1"/><circle class="st4" cx="1170.2" cy="677.3" r="6.6"/><circle class="st4" cx="1652.2" cy="605.3" r="4"/><circle class="st4" cx="2076.2" cy="874.3" r="5.8"/><circle class="st4" cx="2281.2" cy="239.3" r="4"/><circle class="st4" cx="2180.2" cy="462.3" r="4"/><circle class="st4" cx="453.3" cy="622.3" r="4"/><circle class="st4" cx="528.3" cy="48.3" r="4"/><circle class="st4" cx="777.3" cy="-23.3" r="4"/><circle class="st4" cx="970.3" cy="177.3" r="5.7"/><circle class="st4" cx="1403.2" cy="956.3" r="4"/><circle class="st4" cx="238.3" cy="785.3" r="4"/><circle class="st4" cx="103.3" cy="1032.3" r="4"/><circle class="st4" cx="192.1" cy="336.7" r="6.9"/><circle class="st4" cx="766.3" cy="580.3" r="7.1"/><line class="st3" x1="-45.4" y1="218.7" x2="-39.8" y2="220.8"/><line class="st5" x1="-28.4" y1="225.1" x2="582.3" y2="454.4"/><polyline class="st3" points="588 456.5 593.6 458.7 593.6 464.7 "/><line class="st6" x1="593.6" y1="476.7" x2="593.6" y2="1096.6"/><line class="st3" x1="593.6" y1="1102.7" x2="593.6" y2="1108.7"/><line class="st3" x1="2445.6" y1="770.7" x2="2439.6" y2="770.7"/><line class="st7" x1="2427.5" y1="770.7" x2="1586.6" y2="770.7"/><polyline class="st3" points="1580.6 770.7 1574.6 770.7 1572.3 776.2 "/><line class="st8" x1="1567.6" y1="787.5" x2="1419.2" y2="1143.5"/><line class="st3" x1="1416.9" y1="1149.1" x2="1414.6" y2="1154.7"/></svg>