<?xml version="1.0" encoding="utf-8"?>
<!-- Generator: Adobe Illustrator 19.2.0, SVG Export Plug-In . SVG Version: 6.00 Build 0)  -->
<svg version="1.1" id="fatter_wiggles" xmlns="http://www.w3.org/2000/svg" xmlns:xlink="http://www.w3.org/1999/xlink" x="0px"
	 y="0px" viewBox="0 0 2400 1100" style="enable-background:new 0 0 2400 1100;" xml:space="preserve">
<style type="text/css">
	.st0{fill:none;stroke:#E3E3E3;stroke-width:2;stroke-linecap:round;stroke-linejoin:round;}
	.st1{fill:none;stroke:#E3E3E3;stroke-width:1.5;stroke-linecap:round;stroke-linejoin:round;}
	.st2{fill:none;stroke:#E1E1E1;stroke-linecap:round;stroke-linejoin:round;}
	.st3{fill:none;stroke:#E1E1E1;stroke-miterlimit:10;}
	.st4{fill:#E3E3E3;}
	.st5{fill:none;stroke:#E1E1E1;stroke-miterlimit:10;stroke-dasharray:12.19,12.19;}
	.st6{fill:none;stroke:#E1E1E1;stroke-miterlimit:10;stroke-dasharray:12.04,12.04;}
	.st7{fill:none;stroke:#E1E1E1;stroke-miterlimit:10;stroke-dasharray:12.1,12.1;}
	.st8{fill:none;stroke:#E1E1E1;stroke-miterlimit:10;stroke-dasharray:12.24,12.24;}
</style>
<title>map_darklines</title>
<path class="st0" d="M1073.1,1143.7c0,0,19.3-35.3,28-40.3s10.7-5,14.7-11.7s2-12.7,6.7-19.3s9.3-14.7,10.7-23.3s8.7-18.7,12-25.3
	c3.3-6.7,0-8,0-15.3s-0.4-17.3,1.5-22.7s7.2-6.7,7.8-14.7l0.7-8"/>
<path class="st0" d="M1202.9,827.3c0,0-3,10-5,13.5s-9.5,9-10,12c-0.5,3.9-2.2,7.6-5,10.5c-3.5,3.5-4,3.5-4,6s-3,13-7,18.5
	s-6,17.5-7.5,22.5s-6,15-6.5,20.3s-0.5,10.7,2.5,15.7s0,14.5,0,14.5"/>
<path class="st0" d="M1259.1-6.3c0,5.7,0.7,8.7,5.7,16.7s5.7,6.3,5,12.7s-9,42.3-8.7,53.7s5.3,14,3.3,28s2.7,12,4.7,23.7
	s1.3,31.7,1.3,39.7s1,17.3-3,22s-4,5-2.7,13.3s1.3,15,0.3,20s-3,8-1.3,20.7c1.7,12.7-1.3,18-3.7,27.7s-2.3,7-1,13s1,12.7,1.7,21
	s1.7,15.6-2.7,20.6s-5.3,15-8,23s-8,13.3-13,19.3s0,2.7-3.3,8.7s1,13,0,22.3s-3.7,13-4,18s2.7,16.3,2.7,22.7s-0.7,24.3-0.7,34.3
	s8,16.7,13.7,24.3s8.3,7.6,11,18s16.3,58.3,17.3,66s2.3,14,1.7,19.7s-1.7,6-2.3,11.7s6,11.3,8,19.7s-2.7,8.3-4.1,18
	s-1.9,4.7-0.6,14.3s0,19.3,0,25.7s-0.3,7.3-4,10.3s-5.7,8.3-5.7,15.7s-1.3,7.3-4,13s-7,8.3-8.6,19.7s-2.1,7.7-3.8,12.7
	s-9.3,13.3-9.7,18.3s-6,13-9.3,19.3s-1,3.7,0.3,10.2s2.7,4.1,1.5,7s-2.5-0.8-6.6-0.8s-0.2-0.7-5.2,0s-6.3,3.3-11,7.3
	s-11.3,4.7-17.2,5.1s-12.8-3.1-17.8-5.8s-5-3-7.3-3.5s-3,2.5-8.3,3.5s-3-2.3-10-6.6s-6.3-4.7-9.7-4.4s-3.3,0.7-8-0.7s-4.7-1.7-8,0
	s-4.3,5-8.3,5.8s-8.3-0.2-11,0s-3.3,5.2-7,7.4s-4.3-4.6-8-4.2s-4.7,2.3-6.7,6s-4.3,1.7-8,2.3s-7-1.7-10.3-4.9s-5.4,0-5.4,0
	c-0.9,2.6,2.9,15.1,13.7,19.1s13.3,1.5,17.3,9.5s6.5,10.5,12.5,13s10.3,2,11.2,11s12.3,19,10.8,26.5s-5.9,10.2-2,18.8
	s12.4,9.2,11.9,19.2s-4,15,2,25.5s13.5,10.5,15,17s4.8,11.9,0.5,18s-0.8,6.7-6.7,9.3s-8.8-3.7-13.8,4s-8.5,12.2-11,12.7"/>
<path class="st0" d="M2420.1,504.7c-7,0-15.3,0-24-2s-9.7-4.3-24.3-4s-16,2.3-25.7,0s-14-5-29.3-6s-17.3-2-31.7-4.3s-12.3-5-28-4.3
	s-14,2.1-26.7-0.1s-23.7-4.6-38-4.6s-39-2-50-3.3s-22.3-5-34.7-4.7s-42.7,1.7-50.3,1.3s-7.3-6-25-6.3c-17.7-0.3-23.7-6.3-29.7,0
	s0,12.3-12.7,11.3s-17.7,0.7-25,2s-16.7-0.7-22.3,7.3s-13.3,13.1-23.7,13.9s-18.3,3.2-24.7,0s-20-11.9-28.7-12.6s-50.3,1-64,1
	s-14.3-1.1-29,4s-26.3,11.7-36,11.4s-18.3,3.4-31,0s-26.7-6.4-35.7-5.7s-7-1-16.7-1.3s-16,3-21.3-1s-1.3-3.7-16.7-3.4s-22,1-34.7-4
	s-10.3-1-23-6s-58.7-26.3-75.7-31s-33.6-7-43.6-12.7s-0.7-8.7-16.7-10.3s-14.3,4.7-23.7-2.7s-19.3-7.3-34.7-9s-21.3,5-37.3,6.3
	s-44.3,2.3-53.3,1.7s-9,0-21,0s-16.3-2.3-22,1s-12.4,8-15.1,12s0.3,3,0,11.3s2.7,9-1.1,15s-6.2,5.3-3.8,16s4.3,9.1,3.3,19.9
	s-2.1,16.2-2.1,16.2"/>
<path class="st0" d="M1621.1,1147c0,0-1.7-1.7,0-8.7s1-2.7,1.7-11s0-12.7-4-19s-6.3-2.3-6.3-13s1-9.3,0-18.7s-5-23.7-4-29.3
	s-1-9.3-2.3-15.3c-1.4-6-2-12.2-1.7-18.3c0.3-6.3-2.7-7.7-5.7-24s-0.7-29.3,0-36c0.6-8.3,0.1-16.5-1.5-24.7
	c-1.5-6.7-0.8-11-7.5-15.3s-6-4-9.7-8.7s-15.7-11.7-24.3-19.7s-6.7-9-13.7-17.3s-17.7-14.7-24.3-22s-15.7-19.3-17.7-33.7
	s-6-15.3-4.3-24s6.3-7.3,2.3-15.3s-6-9.8-5.7-15.9s2-4.8-3.3-11.8s-13-8.7-13.3-17s-4-16-6.7-21.7s-6-8.3-5.7-16.7
	s-6.3-24-11.7-30.7s-9.7-8.3-12.3-14s-2-6.3-8-10s-13.3-10.7-17.3-12.7s-3-1-3.3-5s3.7-7.7,0-13.7s-2.7-7-3.7-13.7s-0.3-8.3-2-15
	s-1.3-4.3-2.7-13.7s-3.3-10.7-6.7-17s-11.6-5.3-18.3-12.3s-10.3-12-12.3-20.7s-4.3-10.4-2.3-18.4s1.3-14,1.3-17.3s-1.7-6-3.7-11.7
	s-2-8.7-7-15s-7.7-2-9.7-11s-1.3-15.7-10-20.7s-10.7-5.3-12.7-8.8s-6-4.5-6-12.8s5-9.3,0-15.7s-10.7-11-14.3-14.7
	s-11.7-12.3-11.7-20s3.3-7.3-4-14.3s-7.5-7.3-15.7-10.7l-8.1-3.4"/>
<path class="st0" d="M1336.1,421.7c0,0-7.2,4.7-6.1,15.5s1.4,26.1,1.4,32.8s4.4,13.3-1.5,23.3s-8.8,12.7-8.5,15.4s6.3,11,5,14.7
	s-5.4,4.7-5,11.7s-4.3,27.7-10,33.7s-8.4,4.7-18.2,12s-17.6,10.6-17.7,16.3"/>
<path class="st0" d="M-35.3,753.3c0,0,8-2,13-6s4.3-5,8.3-2.7s1,5.1,7,3.7s12.7-3.9,17-5s7.3-3.1,11-7.8s3.7-7,8.3-8.7
	s22.3-5.6,30.7-6.6s14-5.7,21-7.7s19.3-5,22.7-7.3s3.3,0.3,7.3,0s13-4.3,15.3-8.3s5.3-6.3,11-6.3s12.3-4,21-10.3s4-8,13.7-12
	s13.7-4.7,20.7-9s6.3-10.7,15.3-11.7s13.3-7.7,19.7-10s14.7-4.7,22.3-10.3s9.3-6.7,18-10.3s14-1,18-6.7s5.3-13.7,15-18.3
	s13.3-4.7,20.3-9.7s7-6.7,11.3-8.3s1.7,0.7,9-2s19.7-4.3,27.3-10.7s11.7-7.3,16.7-10s1.7-2.3,4-5.3s0.7-3,10-2.7s24.7-1.7,29.3-4.7
	s14.3-2.7,19-4.7s1-3.7,7.3-5.7s30.3-2.3,35.7-4.7c5.3-2.3,7.3-10,10.7-10.7c3.3-0.7,26.3-2.7,35.7-2.3s13.7-1.3,24.7-3.3
	s25-3.5,32.3-6.4s6.3-1.9,14-2.2s8.7-6,14.7-7.7s18-4.3,22.7-1.7s5-0.6,15.7-1.1s10,0.1,17.3,2.1s7.3,2.3,14,2.3s5.7,3,17.3,4
	s20.7,2.3,26.3,2s20-2.7,26,0c6.7,3,13.7,5.2,21,6.3c8.3,1.3,26,0.7,29.7,4.7c3.7,4,11.7,1.7,21,3.7s13.7,7.3,20,5.3s11.3-2,22.3-2
	s36,0.9,44,0.4s12.3-1.4,17.7-5.8s10.3-10.2,17.3-10.4s8.7-5.6,12.3-7.6s9-2,14.3-3.3s5.3-2,8.3-3.7s1.3-0.3,9.3,0s8,0.7,15.3-0.8
	s7.3-2.2,17-6.2c5.5-2.2,10.8-5,15.7-8.3c2.7-1.7,4,1.3,8,0s20.7-7.3,26.3-13s5.7-7.7,13.3-12.3s14.3-9.3,19.3-11.3
	s5.7-1.7,14.3-1.7s17.3-5.3,22-6s10,0.7,14.7,1.7s11.3,1.7,15.3,5.3s2.7,8,7.7,8s7.7-3.7,11.7-0.7s15,5.7,18,3.3s8.3-0.3,9,2.3
	s6.7,0.3,11.7,0s7,2,9.3-1s5.7-2,10.7,4.3s5,10.8,10,17.2s-0.5,7.4,6.4,11.8s18.5,8.9,17.7,14.3c0,0,1.2-0.5,4.2-4.6
	s2.7-15,7.3-21.7s21.7-26,26.7-31.3s4.7-14,4.7-14s6.7-14,5.7-29.3s2-5.7,5.3-11s5.3-7.7,6.3-14.3s2-7,5.3-12.3s7.7-22.3,8.7-29
	s2.3-15,6-18.3s5.3-7.3,5.7-18.3c0.2-6.7,0.7-13.4,1.7-20c0.3-2.7-7.3-9.7-9-13.7s1-9.3,4-14.7s1.7-9,0-12.7s-0.7-10.3-2.3-12.7
	s-4-8.3-4-8.3"/>
<path class="st0" d="M1013.4-1c0,2.7-0.7,8.7,0,15c0.7,7.4,0.7,14.9,0,22.3c-0.7,6.3-0.7,12.7-1.7,17.3s-1,8.3-3.7,12.6
	c-2.7,4.4-6,6.4-8.7,11.7s-3.7,11.7-6.7,16.7s-5,6-7.3,10.7s-3.7,8-2,14.7s1.3,9.2,5.3,16.6s4.7,5.1,8,11.1c3.3,6,0.7,10,6.7,10
	c6.5-0.2,12.9,0.9,19,3c8,2.7,21.3,4.3,26.7,9.7s10,9.3,16,12s4.3,4,10,12.3s11.3,18.7,19,22.7s14.3,5.3,20.3,11.3s9.5,6.8,9.5,6.8"
	/>
<path class="st0" d="M988.7,136.6c-5-4.3-13.3-4.6-20-2.6s-13,5.5-22.7,2.6s-16.3-5.6-22.7-11.6s-10.3-3.5-19.7-7.8
	c-9.3-4.2-19.3-8.9-25.3-15.2s-11-7.3-11-7.3"/>
<path class="st0" d="M335.4,0c0.5,2.8,2.5,5.3,2.5,10.8s-0.5,15,0,20s4,13,8,18s4.2,12.9,4.8,17.5c0.7,4.5,0.2,4-3.8,8
	s-4.4,11.5-3.7,16.5s3.2,7.5-7.8,14s-10.8,5-11.7,14.5s0.3,42.7,0,45.9s3.3-0.9,4,7.1s-0.7,24,0,31s4.3,8,0,13.5s-4,12.8-4,12.8"/>
<path class="st0" d="M-38.1,843.8c6.5,0.5,13,0.5,21.5,2.5s14-1,19.5,3.5s21,5,33,6s28,7.7,44.5,8.8s27.7-0.2,38.3,0
	s8.2-1.7,22.2,0.5s20,5.2,34,7.2s17.5,0.7,31.5-3.7s15-6.2,22-4s5,6.8,15,4s31-6.5,41,4.6s10,13.1,17,16.6s16,12.5,24,13s21,4,27,0
	s10-6.5,22-2.5s11-0.5,17,6.5s10.5,7.5,22,8s8,0,19.5,0s10-4.5,25.5-4.5s22-2.6,37.5,4.7s17,12.3,26.5,13.8c7.3,1.3,14.7,1.3,22,0
	c5-1,12.9,3.5,15.2,7s2.8,5,11.8,5s19.5,0.5,27.5,4.5s20.5,12,27,15.5s8,5.5,20.5,6.5s25.5-2,33-6.5s10-5.5,17.5-4.5
	s16.5,2.5,19.5-1.5s7-4,14.5-4s18,11,24,21.2s12,4.8,15,7.3s5.5,8,8,12.5s8.5,12.7,14.5,15.8s14.5,6.2,19.5,13.7
	c5,7.5,13.5,8.5,21.5,10s12.5,1.5,17,7.5s6.5,13,16,14.5s11.5-1,20.5,4.5s12.5,4.1,19,12s2,11,11.5,16s13,4.5,17,11.5s7.5,11,9.5,21
	s2.5,7.5,10.5,13.5s13,8.5,13,13.5"/>
<path class="st0" d="M422.9,1145.3c0-0.5,1-1-3.5-5s-6-2-5.5-7.5s-1.2-3-0.1-7.5s-0.4-2-4.4,0s-2.5-0.5-7-2.5s-1-1-8,0
	s-5.5,3.2-9.5-1.2s-7.5-1.8-10,2.2s-4,7.3-9,5.9s-7-5.4-16.5-6.4s-7-1.5-14.5-1s-16,1.1-24.5-2.9s-9.5-8.4-18-5.2
	c-5,1.9-10.2,3.1-15.5,3.7c0,0-6,4-16.5-4.7s-11.5-10.3-16.5-9.8s2.9-0.2-10.5-3c-6-1.2-13.5-2-15,3c-3.7,12.2,5.5,16.4-7,17.5
	s-8,2-19.5,0s-11-9-20.5,0s-3,6.9-14.5,9s-14-3.9-16,4.6c-1.2,5.1-1.2,10.4,0,15.5"/>
<path class="st0" d="M1134.9,963c0,0-0.8,4.2,6.8,0s8-4.3,10.7-2.2s4,0.5,10.5,0s8.5-2,12.5,0"/>
<path class="st0" d="M1133.1,1049c0,0,2.5-1.2,8.7,2.3s5.5,3,13.3,2s7.8,1,8.3-6s3-10,7-14s3.5-8,2.5-12.5c-1-4.5,2-8.5,5-13.5
	s4.2-6.9,2.4-12.9s1.4-17.1,0-22.3s-0.6-6,0-12.6s0.6-16.6-2.4-23.6s-10-5.8-9.5-13.2s0.6-10.8-1-14.3s-2-1.8-2-1.8"/>
<path class="st0" d="M2161.7-2.7c-0.3,4.5-2.8,10.5-10.8,16.5s-28.5,18-29.5,25s-15,22.2-21.5,28.8s-18,15.7-22.5,29.7
	s-14.5,33.5-25,42c-10.5,8.5-44.5,32-59.5,48s-29.3,26.5-46.2,30.5s-19.8,7-21.8,12s-10,10.5-17.5,16.5s-3.5,8-10,3s-0.5-5-6.5-5
	s-4,2.7-10.5,7.8c-6.5,5.2-20,4.7-27.5,3.7s-10.5-3.5-20.5-1.5s-8.4,1.8-18,2.1s-19-2.1-32.5,11.9s-20,25-27.5,27s-22.5,5-30.5,13
	s-21,16.5-29.5,19s-9.5,0-23,0s-45.5-7.5-51.5-2s-10.5,8-22,8s-20,1-23.5,5.5s-8.5,5-17,2.5s-11-5.5-18.5-5.5s-40,1-48,0
	s-8-5-11.5,1s-9.5,11.5-14,15.5s-6.5,10-16,15.5s-16,2-20.5,5.5s-4.5,11.5-13,13.5s-15.5,10-23,13s-6.5,3-16.5,7s-16.5,6.6-18,10.6
	s-4.5,6.1-7,8.3s-12-3-12-3s11,2.2,17.6,11.2s5.5,9.5,15,11s12.5,6,18,8.5s10.5,3,16,3s5.5,0.5,8,3c2,2.3,5,3.5,8,3.5
	c3,0,2.5-3.5,6,0s8.5,8,9,10s6.5,20,12,26s7.5,6.8,12,12.2c4.5,5.3,9.5,4.4,14,6.1s5.5,4.2,9,8.7s24.5,12.5,29,17.5s10,4,11,10
	c0.7,3.9,1.7,7.8,3,11.5"/>
<path class="st0" d="M1251.7,365.7c0,0,1.2,3.7,6.2,4.2s5.7,2.5,8.8,7s4.4,7,8.8,7s9.9,0.5,12.4,0s3-2.5,8,2.5s6.8,2,9.9,10.5
	s-0.9,7,6.1,12s9.2,0,9.2,0"/>
<path class="st0" d="M1200.4,441c-0.6-4.8-0.6-9.6,0-14.3c1-7.8,1.8-11.8,8.4-12.8s8.1-0.5,13.6-5s13.5-7.5,21.5-4.5
	s18.2,2.5,26.8,2.5s19.7,0.5,30.7,0s6.6-1.4,6.6-1.4"/>
<path class="st0" d="M1229.7,426.7c0,0,3.2-4.2,10.7-9s4-4.9,14-6.6s11.2-3.6,16.3-7.9s4.8-6.3,4.8-12.8s12.4-6.5,12.4-6.5
	s1-11,3.5-12.5s3,1,6.5,0s7.4-6.5,10.9-11.5s12.6-10,17.6-11s15-7,22.5-11s17.3-5.3,18.1-9.8"/>
<path class="st0" d="M1892.4,273.3c0,0-1.5,2.5,2.5,7.8s5,6.8,10,10.2s7.5,0.5,10.5,7.5s7.5,8.2,6.5,15.8s1.5,14.2-3,16.7
	s-5.5,4-4.5,7.5s2,8.5,0.5,12.5s1.5,9.5,2,14s-1,4.5-1.5,9s1.5,17.2,4,18.3s3.3,4.2,2.6,10.2s-6.1,12.5-4.1,20.5s10,18.5,9.5,24.5
	s-5.5,8,0,15.5s19,9,19.3,14.3s0.3,22.7,0,28.7s-0.7,24.5,0.2,32s0.4,10,6.9,15s16.5,14,20,22s9,13.5,12.5,18.5s2.5,10,5.5,12.5
	s18.5,3,22.5,13.5s4.5,11,11.5,14s18,6.5,21.5,11c3.5,4.5,12,15,18,25.5s15,30,22.5,33s9,2.5,15,7.5s6,8.5,12.5,9.5
	s11.5,4.5,16.5,8.5s9-2.4,13,3.3s7.5,13.7,14,17.2s2,3.5,13,5.5s14-1,21.5,2.5s13,6,13.5,10s1.5,8.5,2.5,13.5s-4.5,5-6.5,7.5
	s-3,4.5-1,9.5s9.7,6,7.6,13.5c-2.1,7.5-3.1,9.5,0.4,15.5c3.5,6,13,11.5,17,12.5s7,2,10.5,8s6,12,11,15.5s6,3.5,5,9s-4.8,11,0.4,15.5
	c5.1,4.5,17.6,12.5,20.1,18s13,12,14,18.5s0.5,20.5-3,26s-6.5,14-3,19s8.9,8.5,6.4,14s0.6,19.5,3,26.5c2.5,7-0.5,10.5,5.5,17.5
	c6,7,12,17.2,12.5,24.8s-2.5,7.2,3.5,16.7s18.5,13.5,26,16.5s15,2,22.5,8.5c5,4.4,9.6,9,14,14"/>
<path class="st0" d="M1480.9,1047.3c0,0,2.5,1.7,10,4.3s11,1.8,16.5,4s17.5,2.2,21,8.2s5.5,7,12.5,9s12.5,4,19.5,9s15,12,22,17
	s14.5,13.5,22,18.5s16,9,25,18s13.5,11.7,13.5,11.7"/>
<path class="st0" d="M1537.4,1147c0,0-2-4.7,4-6.2s17.5,3.5,29,0s23-3.5,34-4.5s17.5-11.5,28-13s17-0.5,27.5,0s33-6,43.5-8
	s39-9.5,49-8s50,4,58,4.5s5,1.5,11.5-4.5s13.5-13.5,21.5-18.5s15-11.4,18-19c2-4.6,5.7-8.3,10.3-10.2c0,0,0.8-4.7,4,0
	s2.7,1.7,6.7,4.2s9.4,4,9.7,8s2.8,7,7.3,10s17,18,18,25.5s-9,30.3,3.5,39.7"/>
<path class="st0" d="M2420.4,972.3c0,0-1.5,6-15.5,9.5s-32,5-40,8s-23.5,10.5-37,13.5s-49.5,4.5-59,9s-16-0.5-27,2.5
	c-11.9,3.1-24.2,4.7-36.5,5c-10,0-22,4-34,0c-12.1-4-24.9-5.5-37.6-4.5c-12.9,1-22.4,2-35.9,2s-16.5-3-29.5-1s-6,3-17.5,2.5
	c-11.5-0.5-12.5-3.5-17.5,0.5s-11-0.4-20.5,2.3s-20,4.2-30,8.7s-12,4.2-19,9.3s-8,8.2-14,7.7s-10,0-17-3s-3-5.8-19.5-4.7
	s-23,2.2-28,7.7s-5.7,4.3-9.7,4.3s2.2,1.7-21.8,5.9s-53,8.7-60.5,9.7s-30.5-0.5-41.5-3.5s-24.5-3.5-33,0s-9,8-16.5,13
	s-10.5,4.2-16,14.8s-15,9.2-23.5,15.7s-10.5,6-23.5,10.5s-16.7,9.5-16.7,9.5s7.7-13.5,7.7-20s0-10.5,5.5-18s3-12.5,7-25.5
	s1.5-14.5,9.5-26.5s19.5-28.5,24-39s4.5-17.5,10.5-26s8-7,10-15s7-13,8.5-16s0.5-6.8,0.5-18.7s1-13.3,3-14.3"/>
<path class="st0" d="M1428.7,926.7c0,0,5.7-1.7,7.7,4s-0.5,8.7,9,17.7s14.2,6,24.3,16.5s10.7,16.5,11.2,20"/>
<path class="st0" d="M2206.9,767.3c0,0-3,3-6.5,11.5s-9,13.5-7.5,27s3.5,19-5,30s-22.5,40-29.5,60.5s-42,84.5-49,98
	s-11.5,23-11.5,23"/>
<path class="st0" d="M-35.3,25.3c0,0,20.2-3,29.7,0s40,5.5,52.5,5.5s29.5-2,36,0s25.5,15,31,19.5c4.2,3.4,9.2,5.6,14.5,6.5
	c3,0.5,27.5,19,30.5,23s51.5,47.5,58,56.8c6.5,9.2,11,13.7,16.5,15.2s24,17,34,27.5s15.5,14,29.5,24s30.7,25,30.8,32.5
	s5.8,8.5,9.5,9s24.7,7,28.2,16.5s3,9.5,8,14.5s15,7.5,18.5,16s14,24.5,22,28s10,7,15,13s17.5,17,24.5,24.5s15.5,8,22,18.5
	s5.5,13,8.5,20.5s11.5,8.5,18,22s13.7,17,13.7,17s-0.7-4-4.7,4.5s-6,16.5-12,23.5s-13,15.5-26,20s-14-2.3-31.5,11.3
	s-21,27.7-35,36.2s-18.8,10.8-16.7,15.2"/>
<path class="st1" d="M2293.4,331.3c-3-0.4-6-0.4-9,0c-5.3,0.7-6.7-0.3-11.3,0s-7.3-2.1-11.7,0s-5.7,3-12,4.7s-9-0.7-12.7,2
	s-9,6.3-11,6.3s-4.7-5-9.3-5s-8.3,0.1-13.3-1.9s-6-3.5-14-6.9s-13.7-6.5-17-7.8s-14.3-6.4-20.7-6.4h-17.6c-6,0-6.4-2.7-14.9-1.7
	s-12.2,0.3-18.2-2.7s-10-6-21.3-5.7s-18.7,2.6-26,0c-7.3-2.6-11-1.3-14-4.6s-0.3-11.3-7.7-15s-14-7.2-20-5.6s-9.7-0.7-17.3-0.4
	s-5,2.3-14.3,2.3s-21,0.8-24.3-1.9s-8-2.8-9-4.4s-0.3-9.3-5.7-9.3s-30.7-4.3-38.7-3.3s-19.7-0.7-23.7,1.7s-21,7-26.7,11
	s-7.3,7.3-18.3,9.7s-22,4-25.3,3s-5.3-7-11.7-5.3s0.3,1.3-8,5.3s-18.7,9.9-21,14.8s2,13.2-12.3,15.9s-11.3-0.7-23.7,1.7
	s-31.7,0.2-35.3-4.4s-7.3-6.1-12.3-13.2s-6.3-21.8-10-26.4s-5-8.3-15-16.3s-17.3-10-23.3-17.3s-24.8-17.7-29.6-23.3
	s-0.8-4.4-10.8-9.7s-17.7-10.3-19.7-5.3s-3,5-8,5.7s-11-2.3-16.3,1.7s-7,1.7-11.3,5.3s-5.7,4.3-14.7,5.7s-13.7-1-21.7-1
	s-11-0.7-18.7-0.7s-17.3,3-27.3,0.3s-11.3-2.7-24.3-4s-15.6,2-24.1-2.7s-20.7-6-28.6-9s-13.3-0.7-17,0c-5.5,1.2-11.2,1.2-16.7,0
	c-8.3-1.7-7-3.1-17.3-1.6s-8,1.9-19,4.6s-18,2.7-29.2-0.2s-22.2-2.8-31.8,0s-17,3.5-24.7,2.8s-23.1-6.4-30-9.1s-1.7-3.3-12.7-9.3
	s-20.3-9.7-25-13.7s-14.3-4.3-19.7-4.3c-6.1-0.2-12-1.4-17.7-3.7c-4.7-2-9-5-23.3-3.7s-16,3.3-26.7,3.3s-18.5,0.5-18.5,0.5"/>
<path class="st1" d="M610.5-2.7c3.3,2.7,7.5,9.5,11.4,9.4s11.9,2.1,14.2,6.2s12,10.1,15,11.1s9.3,1.3,14.7,4s34.7,13,34.7,13
	s16.3,1.1,22,5.2s9.7,8.8,16,11.1s27.3,3.7,27.3,3.7s17.3,5.6,24.7,5.3c7.3-0.3,15.8,4.4,20.2,5c4.4,0.6,15.8,4.2,20.1,5.3
	s12.7,2.7,20,5.1s10.3,9.8,16.7,13"/>
<path class="st1" d="M434.4,0c0,0-5,13.2-3.3,17.8s4,31.2,3.3,38.6s-1.2,33.3-1.8,41.3s-4.5,5.7-4.5,9.3s0.3,10,0,15.7
	s-6,9.8-5,15.1s5.7,13.4,2.3,19.5s-8,21.1-7.7,31.8s-3.7,56-3.7,60s6.7,10,5.3,27.7s-3.7,44-3.7,44"/>
<path class="st1" d="M-35.3,484.3c0,0,18.7-6.8,25.7-4.2s11.5,13,24.5,14.1s19.5-1.7,26.5,0.4s6.5,5.8,14,6.2s25.5-0.6,33.5,3.9
	s58,19.5,70,20.5s32,7,39.5,6.5s32.5-6,44-5s26,3,33.5,3s41.5,2.2,54,4.8s24,2.7,35.5,5.2s19.2,4.6,23.9,4"/>
<path class="st1" d="M304.7,433.3c-0.4,4.5-0.4,9.1,0,13.6c0.7,6,9.2,23.1,10.2,30.3s3.5,15.9,2.5,21.5s-3,16.2-1.5,18.4
	s7.5,16.2,8.5,22.7s13.3,58.2,17.4,64.8s6.8,5.2,8.9,16.7s22.2,80.1,23.7,85.3s-3.5,1.4,0,14.3s-3,18.5,4,25.4s8,10,13,10.7
	s7.5,6.2,7,12.8s-4.4,8.5,0.1,14.5s3.9,23,3.4,30.5s-0.9,22,0.3,29s0,16.7,0,16.7l13.2,0.2c0,0,6.5,9.1,11,14.6s9.5,4,15.5,14
	s11.7,13.6,11.7,13.6"/>
<path class="st1" d="M1253.7,717.8c0,0-7.2,1.8-11.8-3.4s1.7-3.1-8.2-8.1s-14.6-16.5-22.7-18s-19.8-6-21.9-8s-3.4-18-8.8-23.8
	s-6.9-5.8-7.4-10.3s-3.8-12.9-7.4-17.8s-7.2-7.7-14.6-10.2s-20.5-4-25.5-8.5s-14-6.8-20-4.2s-16.1,3.1-16,2.5s-5-5.3-9-7.8
	s-10-6.5-19.2-8s-10.8-2-15.8-5.5s-4-2.6-12.5-2.8s-7.5,2.2-13.5,0s-11.5,2.2-16.5,0s-8-7.6-15-9.1s-8.5-7.6-13.5-10.1
	s-12.5-5.1-15.5-9.3s-6-2.2-15.5-6.2s-16.5-12.5-15-20.5s-0.2-12.6-0.2-12.6"/>
<path class="st1" d="M-35.3,281.1c0,0,13.7,3.9,23.7,10.6s24,13.3,30.7,14s58,0,64.7,0s-0.7,5.7,16.7,9.2s22.3,7.9,34.2,8.4
	s122.5-0.5,131.8,0s14.7,4.5,28.7,4.8s62-0.3,74,0s13.3-5.3,38.7-4.8s36.5-8.6,45.9-8.4s25.4,10.2,37.4,11.2c12,1,18.7-4.3,27.3,0
	s24.4,9,41.2,9.7s100.8,0.7,113.1,0s18.3-11.6,26.3-12.5s30.2-0.2,39.9,2.8s17.5-1.9,31.5-2.8s50-0.9,59.3-1.2s91.3-0.6,102,1.2
	s12-2.9,23.3-1.2s9.6,4.8,19.3,8.4l9.7,3.6"/>
<path class="st1" d="M520.4,511.8c0,0,0.5,3.3-4.8,9.9c-5.2,6.7-9.9,13.3-11.9,19.3s-6.7,8-9.3,12.3s-6.7,24.3-5.3,35.7
	s1.5,14.4-0.3,25.9s-5.7,16.8-17.7,22.8s-16.7,14.9-27.3,16.1s-20-6.1-34.7-12.1s-31.3-8.7-36.7-8s-16-2.7-27.3-5
	s-23.3-7.3-33.3-11.5s-20.7-6.3-30-10.3s-11.4-5.2-21.7-2.2s-16.1,1.7-19.9,9.7c-2.6,5.2-5.7,10.2-9.4,14.7"/>
<path class="st1" d="M672.8,1052.3c0,0-3.7,0.9,9,1.8s21.3-3.6,28.7,0s5.3,9.7,10.7,9s9.4-5.4,22.7-5.4s10-7.1,26-11.9
	s15.7-9.8,32.7-14s23-2.1,23-2.1"/>
<path class="st1" d="M530.5,435.3c0,0,8.6,5.7,10.6,14.3s17.2,21.3,23.6,32.7s24.5,20.3,29.7,18.6"/>
<path class="st1" d="M-33.6,393.7c0,0,20-11.3,24.7-12.3s28.7,0.3,33.7,0S125.8,322,125.8,322"/>
<path class="st1" d="M1708.4,746.3c0,0,6-13.7,12.7-14.2s14-3.9,20-11.2s16.7-18,24.7-20s34.7-4.6,42.7-10.6s8-8.3,18-11.5
	s10-1.8,21.3-10.8s16-21,20-26.3s11.3-22.3,15.3-24.5s10-0.2,16-2.8s21.3-3.3,28.7-4s6.7-3.3,15-5.3s15.1-10.7,19.4-10.7
	s31.6-12.6,35-10.3s9.3-21,20.7-23c11.3-2,21.3,3.3,28.7,0c7.3-3.3,22-20.7,30-20.7s24.7,0.7,31.3,4.7s7.3,0.7,16,4.7
	s13.3,4.7,22.7,0.7s18,0.7,31.3-6s25.7-16.7,29.2-12.7s9.5,16,16.8,16s18.7,6,20,5.7s3.3,4,12.7,11.5s16,12.8,19.3,12.8
	c2.5-0.1,4.9-0.3,7.3-0.7"/>
<path class="st1" d="M2059.4,1018.4c0,0-4.4-6.7-5-20.7c-0.6-14-6-16.4-6-38.2s-3.3-69.1-3.3-75.8s0.3-6-23.5-6s-26.5-1.3-28.5,6
	s-4,7.1-16,7.6s-16.3,5.4-21.3-7.6s-8.7-10.7-21.3-14.3s-18-6-26.7-8.8s-13.3,3.5-21.3,4.3s-24.7,7.5-32,12.8s-18,1.3-27.3,8.7
	s-13.3,13.8-24,12.9s-29.3,6.7-36,6.9s-2,4.3-20.7,4.3s-27.3,5.1-47.3-11.2s-20.7-19.6-28.7-20.9s-8,2-18-9s-9.3-13.1-16.7-12.7
	s-14.9,0-14.9,0"/>
<path class="st1" d="M2415.4,951c-1.7-1.7-3.8-3.1-6-4c-3-1-2-3.7-8.3-3.3s-10.3,0.6-16.7,0s-6.7-0.4-15,0s-14.3-3.5-22.7-0.4
	s-8.7,4.1-16.7,3.3s-17-1.2-17-1.2s-11.8-0.9-19.7,1.2s-13.7,2.8-18.3,2.1s-13-2-18.3,2.3s-8.7,4.3-16.7,4.3s-11.7-0.7-15.3,1.3
	s-13.7-2.3-17.8,0s-6.5,3.7-12.5,4.3s-21.3-1.3-25.7,0s-13,0.3-23.3,0.1s-11.8,0.6-17.6-1.6c-5.8-2.2-23.8-7.8-34.8-7.7
	s-19-1.8-28.3,0c-5.4,1.1-10.9,1.7-16.4,1.8"/>
<path class="st1" d="M2335.1,946.8c0,0-38-52.1-47.7-59.5s-31.3-40.7-33-44s-32-12.3-35.7-21.3s-9.3-39.3-9.3-39.3"/>
<path class="st1" d="M2248.4-1c1.5,2.9,3.3,5.5,5.3,8c3,3.3,3,4,3,9.3s0.7,13.7,3,17.3s6.7,10,6.7,13s-0.7,5.7,3.3,8.3
	s3.7,6.3,6,9.3c2.3,3,2.3,2.7,3.7,3.3s-1.7,2,0,4c0.9,1.2,2.2,2.1,3.5,2.7c0,1.8,0.6,3.6,1.8,5c1.3,1.7,3.1,3.1,5,4c0,0,7.8-0.2,9,0
	c1.2,0.2,11.7-2.7,13.3,0s0.7,4.3,2,7.3c1,2,2.3,3.8,4,5.3c0,0,3,12.3,8.3,13s9.6,0,8,5s1.3,9.7,0,12.3s-3.3,4-4.3,10
	s-2,8.3-2.7,14.3s-2.3,16-0.3,20.3s5,11.3,5.7,17s7,22,5.3,24.7c-1.7,2.7-0.4,8.3,0,13s4.6,7,0,10.7s-7.3,12.7-8.3,16
	s-4.7,14.7-3.7,19s3.7,5.2,3.7,9.8s1.6,21.6,4.7,23.6c3,2,4.3,3,3.6,8c-0.7,5-3,9.7-3.6,13s-0.7,13-3.3,16.3c-2.7,3.3-3,5.7-3,14
	s1.3,11.4-0.7,21.7s-2.3,17-3.7,20.7s-3.7,7.7-5.3,12.7s-1,13-4.3,17.7s-5.7,7.3-4.7,13.3s4,11.3,1.3,14s-5.7,4.3-8,6.3
	s-3.3,4-5,7.7s-8.3,12-12.7,11.7s-6.2,0-6.3,2.7c-0.1,2.7,1,8,0.7,12s-3.3,6.3-3.7,12.3s-4.7,10.3-2,13.7s6.3,7.7,6.3,10.7
	s-3.3,12-4.3,17s-1.7,8.7,1,11.7s2.7,2,3,6.7s6.7,9.3,3.2,14.3s-8.1,11.3-10.7,15c-2.5,3.7-1.9,5-4.9,8.7s-4,4.3-5.7,8.7
	s-0.3,4.6-4.3,6.8c-4.6,2.8-8.2,6.8-10.7,11.5c-2.3,4.7-5.7,8.3-8.7,10s-8.3,9-14.3,10.7s-8,19.7-8.3,22.3s-3.3,21.7,0,33.7
	s5,21,3.3,26.3s-2-0.7-2.7,11.7s-6.7,18.7-7.6,19.3"/>
<path class="st1" d="M1433.4,435.2c-3.1,1.6-6.3,2.9-9.6,3.8c-5.7,1.7-12,2.7-17.4,2s-16-1.7-23-2s-9.7,0.4-16.4,0s-7.9-2-7.9-2"/>
<path class="st1" d="M1330.7,314.8c0,0-5.3,7.8-4,12.8s3.3,3.1,4,8.6s-0.7,14.1,0,21.8s2.7,20.7,3,28.7s-2,10,0,17.7
	c1.2,4.4,1.9,8.8,2.3,13.3"/>
<path class="st1" d="M1362.7,401.3c0,0-2.7-6.2-8-9.1s-7.1-5.5-15.4-6.2s-2.8-2.8-12.8,0s-10.1,2-16.1,2.3s-9.4,3-12,8.6
	s-6.3,10.4-6.6,15.5s-8,23.5-1.3,28.7c5.2,4.2,11.8,6.4,18.4,6.1c5.9,0,13.5,5,16.4,5.7s3.5,2.3,10.9,0s15.1-7.7,23-9.5
	s12-0.5,12.3-8.3s-1-16.4-2-22.6S1366.7,402,1362.7,401.3z"/>
<path class="st1" d="M1181.1,433.7c0,0,2.3,3.6,8,1.5s8.3-4.2,14.3-4.5s18,1.5,18,1.5"/>
<path class="st1" d="M1275.5,390.3c0,0,8.9,9.3,8.9,14s2,11.1,0,16.3s-5.3,7.7-2.8,17.5s2.2,8.8,0,18.1s-7.4,21.8-7.4,21.8"/>
<path class="st1" d="M1308.8,387c0,0,1.2-5.3,2.2-9.6s2-5,6.7-6.2s4.1-5.4,8.8-6.8s11.2,0.8,15.2,1.9s9.7,0.2,14,0s8.5,0.1,11.2,4.9
	s7.8,4.9,11.1,6.2s9,6,9,11s-1.8,14.8-1.8,14.8"/>
<path class="st1" d="M1308,405.5c2.4,0.8,4,3.1,3.8,5.6c0,4.6,1.3,7.5,0,13.9s1.2,14.1-1.6,18.2s-4.3,4.1-4.3,4.1"/>
<path class="st1" d="M1543.9,1145.3c0,0-4-8.5-4-14s2-13,4-18s0.1-24.4,0-32s-4.7-15.1,0.9-19.3s13.1-4,19.6-2.4s7.5-1.4,9.5,2.4
	s4.5,13.8,9.5,18.3s9.7,9.6,13.8,11.1s15.2,3.9,15.2,3.9"/>
<path class="st1" d="M1665.4,1147c0,0,2-20.3,2-26s-3.5-7.9-6.5-19s2.5-13.1-7-14.6s-39.6,1-49.3,0s-20.7,1.1-19.7,4.1
	s-5.5,7.4-4.5,15.9s4,39.7,4,39.7"/>
<path class="st2" d="M1202.9,686.8c0,0,1.5,18,2.5,20.3s4,10.4,3.5,14s1.5,8.2,3.5,12.3s6,10.7,6,13.8s-2.5,10.7,0,14.8
	s11.5,2.5,7,10.2s-16,29.6-16,33.2s-8,13.8-6.5,17.9l1.5,4"/>
<path class="st2" d="M1002.9,1143.7c0,0,7-11.3,7-16.3s1.5-10,2.5-17s2.5-11.5,0-17.5s4.2-12,1.4-28s-1.7-16.5,0.7-20
	s5.4-13.5,5.4-17.5c0-4-2-12.3-3.5-15.7l-1.5-3.3c0,0,0.5-7.5,5-18.5s8.5-19.5,9.5-23s3-9,5-12s6.5-7.5,6.5-10.5s-1-5,0-11.5
	s0-11,2.5-18.5s5-11,5.5-16s1.5-13.5,0-20.5s1.1-8.5,0.8-14s-1.2-9.5,0-12s8.7-8,8.7-13.5s-2.5-6.5,0-11s0-9.5,0-16.5
	s5.5-15.5,5-21.5s-0.9-12.5,0-18s-4.5-16-3.5-23.5s0.3-14.5,3.7-19s2.2-17.8,0-22.2s0.8-15.8,2.1-19.8s3.8-4.5,4.8-12.5
	s-4-13.5,0-24.5s1-15,7-21.5s6-6.5,9.5-13s2-11,6-17s5.5-11.5,11-18.5s10-10.5,13-14.5s7.5-5,13.5-5.5s6-1,9-6.5s9-9,18.5-11.5
	s13-4.5,22-7s10.5-4,17-4s11.5-0.5,11.5-3.5s-5-8,0-9.5s5.1-1,6.3-3.5s4.2,1.5,12,0s12.3-6.5,21.8-7.5s17.2,1.5,22.3-2
	s12.7-4,17.7-8s6.5-5,8-3.5s4.5,2,7,1.5s5-1,6.5,2s0.5,3.1,5.5,4.1s8,0.9,10.5,4.4s4.7,11.5,7.8,13.5s5.6,7.5,11.6,7.5
	c5.2,0,10.4,0.6,15.5,2c3,1,4,0.5,8.5,5s10,4.5,12,3.5l2-1"/>
<path class="st2" d="M1273.9,1143.7c0,0,0.7-6.3-3.2-9.8s-5.7-2.5-8-6.5s-5.8-6-7.8-9.5s0.5-0.5,0-6s0.9-4-0.8-8.5s1.8-2.5,2.8-5.5
	s-1-4.5-0.5-9s2-1,4-8.5s5.7-13,2.3-14.5"/>
<path class="st2" d="M1232.4,1047.3c0,0-1.5-0.5,0-4s0.5-1,0-7s-1.8-3.5-0.7-10.5c1.2-7,2.9-2.3-0.5-10.2s-2.4-8.8-4.6-15.3
	s-3.2-5-5.7-8s-1-4,0-8.5s4.8-5-1.4-12.5s-5.1-7-4.9-13.5s3.3-6,0-10s-1.3-9.5-2.8-15s-3.5-1.3-3.5-10.2v-22.3c0-6.5-1-6.5,0-14
	s3.1-8.5,6.3-13.5s6.1-8.5,5.9-12.5s1.8,3.5,3.8-6.5s3-8,2.2-12s-3.3-10.5,0-12s1.3,3,3.3-1.5s2.2-7.8,3.3-10.2s1.2,1.2,5.2,3.2
	s5.5,8,10.5,6s5-2.5,8.5,0s4.8,5.5,6.4,3.5c1.8-2.4,4.2-4.3,6.9-5.5c4.2-2,5.7-3,10.2-2s6,1.5,10,1s6.5-1,8-2.5l1.5-1.5"/>
<path class="st2" d="M1316.4,1143.7c0,0,1.5-1.3,0-7.8s2.5-7.5,0-10.5s0.3-6.5-0.3-12s-4-4.2,1.2-9.6s4.2-5.9,4.2-11.9
	s0.1-8.5-3.5-17s-6.5-14-6-21.5s3.4-10-0.1-16.5s-4.4-0.5-3.4-6.5s0.8-7.3-0.4-14.7s-5-4.3-3.3-8s-0.5-4.7-0.4-7.3s-2.9-10.7-5.2-15
	c-1.4-2.3-2.6-4.6-3.7-7c-2-4.3-2.3-3.3-1.3-7.3c0.9-4.4,2.2-8.8,3.7-13c2-5.3,1-6.7-0.3-10s-3-8.3-2.3-12.7s1-9.3,3.3-11s3.3-4,2-9
	s-1-6.3-1.7-11.3s-1-4.3-0.3-7.3s0-5.7,4-8.7c1.8-1.3,3.5-2.7,5.1-4.3"/>
<path class="st2" d="M1334.4,972.7c-0.5-1.8-1.5-3.5-3-4.7c-2.3-1.7-3.7,0.3-5.7,0s-2.3,3.3-6,2s-3-0.3-8.7,2.7s-7.3,3.7-10.7,4
	c-1.9,0.2-3.9,0.2-5.8,0"/>
<path class="st2" d="M1383.4,1145.3c0.7-5.5-1.7-10.9-6.3-14c-8-5.7-8.7-5-12.3-9.7s-19-15.7-21.7-21s-3.7-5.7-8.7-5.7s-5-0.8-9-2
	s-5.8-4.3-10.9-1.7s-7.4,3.6-12.1-1s-9.7-5-13.3-5s-4.3,2.7-8.3,0s-1-10.3-11.3-15.5s-10.3-8.9-17.3-12.9s-3.7-5-12.7-7.7
	s-8.7-2.3-18.7-2s-12-3.7-17.8,0s-3.4,5.7-9.3,6s-6.8-1.3-13.4,2.7s-6.9,6.7-12.9,7.8s-15,0.8-17.7,4.5c-4.4,6-9.6,11.5-15.3,16.3
	c-6.7,5.3-12.3,12.7-16.3,14c-0.8,0.2-1.6,0.4-2.3,0.6c-2.6,0.4-5.2,0.5-7.9,0.3c0,0,9.2-0.6,11.2,2.4s3.3,3.3,5.3,3.7
	s5.7,0.3,8.3,4.3s4.7,16.3,9,21.3s5.3,5,10.3,7.7s14.7,4.7,13.3,6.3c-0.2-2.4-0.2-4.9,0-7.3c0.3-4.7,1-7-0.2-10.7
	c-1-2.8-1.8-5.7-2.5-8.7c-0.7-3-0.3-4.7,0-9s1.2-3-0.4-9.7s-3.6-7.3-2.6-11s2.3-3.3,1.3-10s-4.2-8.3-3.4-15.2s0.7-9.2-0.1-12.5
	s-0.9-5.7,0-12.3s-0.6-7,0.1-12c0.7-5,4.1-1.7,1.8-6.7s-3.7-4,0.3-8.7s4.3-4,4-9.3s2-9-2.3-7.7s-7.7,4.7-8,2"/>
<path class="st2" d="M1469.7,1143.7c0,0-4.7-10.7-3.3-14s3.2-4-0.2-9s-1.4-2.3-3.4-7.7s-3-7.3-6.3-11.3s-7-3.3-7.7-8.3s0-3.7-3.3-8
	s-6.7-5.3-7.7-8.7c-1.3-4.4-3-8.7-5-12.8c-2.7-5.5-3.3-9.2-8-11.8s-7.7-2.3-7.7-6.3v-6c0,0-0.7-12.3-5-16.3
	c-4.3-4-10.7-9.7-14.3-15.7s-3.7-9.6-7-15.6s-4-7.4-7.3-10c-4.5-3.6-9.2-6.9-14-9.9c-5-3.1-6.3-2.4-7.3-11.2s-3.7-14.2-10-19.2
	s-17-13.4-20.7-21.9s-3.7-8.8-6-11.5"/>
<path class="st2" d="M1063.7,1145.3c0,0-2-1.3-1.7-4.7s5.9-3.3,0-6s-5.6-1-7.6-3.7s-1.7-4.3-6.7-4.3c-3.7,0.1-7.4-0.3-11-1.3
	c-3.7-1-6.7-4-11-6.3s-3-3-8-2s-10-1.3-12.7,1s-3.3,2.7-8.3,0.7s-5.7-3.7-12.7-4.3s-10,1-13.7,2.7s-8.3,4.3-12,4s-5-2.3-7.7-1
	s-3,4.3-8.7,5.7c-2.6,0.7-5.3,1.2-8,1.3c0,0-9,5-9.3,8s-3.7,2.3-5.7,4s-5.3,1.3-9.3-0.7s-1-5.3-11.3-5s-14.7-0.3-16.3,2.7l0,0"/>
<path class="st2" d="M742.7,1143.7c0,0,1,0.7,0-3s-0.7-2.7,0-5.3s-1-3.2,3.3-5.6s4.7-1.4,4.7-4.8s-3.7-3.7,0-5s4-1,4.3-3
	s0.7-1,2.7-2.8s4-3.8,2.7-5.5s-7.3-8.7-6.3-12.3s2-1,0.7-6s1.3-4,1.7-14s1-23,0.3-27.3s-4-6.7-8.7-10.7s-7.6,0.3-6-6s2.6-1,1.6-6.3
	c-1-5.3-5.8-4-2.1-7.7s1.1-3.7,5.8-8s7-3,7-11.3s-4.4-20.3-3.9-25s-0.4-10.7-3.1-13.2c-1.7-1.6-3.6-2.8-5.7-3.8c0,0,7-6,12.7-8.7
	s9.7-3.7,12.3-8s2.7-8.7,7-13s5-11.3,6.3-13.3s3.7-1.3,7.7-3.7s2.3-4,6.7-9s7.3-7.5,8.7-7.2s5.3-1.2,9.3,0s9.3,2.6,12.7,1.6
	s6.3-0.8,11-2.1s8.7,2.8,11,4.1s2,1.3,6,1.3s6.3,3.3,9.7,3.3s7-2.7,12.7-2c5,0.8,10,1,15,0.7c8.7-0.3,10.3,0.7,20-0.3
	s9.7,0.7,15.3-1.7s5.7-5.8,12-4.9s8.7-0.6,15.3,0s6,1.9,9.3,2.2s6.7-2.8,11-2.2s7.7-1.7,10.7-0.7s4.3,5.7,7,7.3s5,3,9.3,2.3
	c4.3-0.7,14-5.3,15.3-3.7s4-1,7.3-2.7s3-4.2,10.3-2.6s10.4,2.4,15.7,2.5s9-0.9,17.3,0.4s16-0.3,21,5.7c5.4,6.3,12.5,10.9,20.5,13.3
	c7.2,2,16.9,9.3,25.2,9s6.3-1.7,12.7,0.3s4.5,3.3,11.9,2s14.4-2.7,17.8-3.7s5.3-0.7,10.7,0.3s9.3,1.7,14.7,0.3s7.7-1.7,7.7-1.7"/>
<path class="st2" d="M690.1,1145.3c0,0,2-4.7,0-7.3s-1.3-3.3-5.7-6s-5.3-2.7-5.3-5.3s1.7-3.3,0-7.3s-2-7.7-4.7-9s-5.3-1-3.7-4
	s3.6-5.3-0.5-7s-5.8-5.7-6.8-10.3s-3.7-5.3-5.3-12s-0.7-7.3-4.7-10.3s-5.7-7-12.7-8.3s-9.7-0.3-13.3-3s-3.3,1.3-6.3-2
	s-11.3-9.3-13-15.7s-5-11.7-10.3-13.7s-10-3.3-12-7.7s-2.7-4-9-5.7s-11.3-3.3-11.3-3.3"/>
<path class="st2" d="M525.1,1145.3c1-2.7,4-4.3,4.7-6.7c0.8-2.9,1.2-5.9,1.3-8.9c0-2.1-2-6.1,0-9.4s4.7-4.7,3.7-9s-1.6-4.7,0.2-7
	s0.8-4,3.1-6.3s1.3-1.7,1.3-5.7s4.3-3,4.3-6.3s-1.3-4.3,0-9.7s3.3-5,4-10.3s-1.3-6.3,3.3-12.7s4.3-5,5-13.3s-1.7-10,2.3-17.3
	c4-7.3,8.7-8,7-21s-5-9.3-5-14.7s-0.3-4.3-3.3-10s-4.7-8.7-2.3-12.7s5.3-2.7,5.7-7.7s-1.7-5.7,0.3-9s3.3-2.3,4.7-5.3s4.7-8.3,3-15.3
	s-4.7-8.7-3-14.7s1.6-4.7,3.5-10.7s-0.9-8,0-15.3s0.2-6.3,3.9-12.3s6.3-8.3,6.3-17.7s-5-10.3,0-14s8.7-6.3,10.7-12s1.7-7.7,1.3-15
	s-3.5-13.7,0.2-20.7s5.8-11.7,9.4-18.3s7-12.3,7-18.3v-20.3c0-4.3-1-8.3,0-12.3s-0.3-5,0-10.3s-1.6-9.3,0.4-15.7s3-6.7,2-13.7
	s-3.7-6.7-3.3-12s2.3-9.3-1.4-22.3s-3.3-15.3-6.3-20.3s-7-7.3-9.7-15.7s-0.3-13.3-7.7-19s-11.7-7.3-17.7-8.7s-6.7-1-11-6
	s-12.7-20-16.3-31.7s-5-16-6.3-22.3s-2.7-9.7-3.7-17.3s-6-20.3-6.7-28.7s-0.3-5-1.3-12.7s-5.3-4.3-1.7-14s6.7-6.7,2.7-14.7
	s-8.7-4-8.7-13.3s-1-10.3,0-19s0.4-3.3-0.4-12.3s-3.8-5.3,0-12s1.4-8.7,4.4-10.7s4-0.3,4.7-4.3s0.3-3.7,1.3-7s0.7-4,3-8
	s-1.3-4.7,1.3-6s3.7,3.3,4.7-3.3s-1-7.3,2.3-8.7s5,0.3,8.7-4.7s4.3-3.7,4-8.7c-0.2-4.6-1.1-9-2.7-13.3c-1.7-4.3-4-4.7-2.7-10.3
	s2.7-3,1-9s-4.7-6.3-4.3-11s2-5,1.3-9s-1.3-8.3-1.3-8.3"/>
<path class="st2" d="M508.7,0c0,5.3-2.3,11.3,0,13.7s8,9.3,6.7,11.7s3.7,3,2,9.3S514.7,47,514.7,50s4.3,6.3,3,11.7s-5,42-1.7,43.7
	s3,2,6.3,5.7s4.7,2.7,4.7,6s-2.7,7.7,0,10.3s5.3,6.3,2,9s-2.7,5.7-3,9.3s3,65.7,1.3,72.7s-1,23-3,28s-2.3,7-0.3,8.3s1.3,2,9,5
	c7.7,3,11.7,4,17.7,8s4.3,0,6,4s2,8,5.7,11s8,5.3,8.7,8.3s2.7,6,6,9.3s4.3,4.7,3,8s-3,5-4.7,10.7s-2.7,7.7-8,9.3s-8,2.7-11.7,1.7
	s-8.5-6.6-11.6-2.8"/>
<path class="st2" d="M654.1,0c0,0,1-0.3,0,4.3s-3,1-3,7.3s1.7,7.7-2,11s-1.3,5.7-4.7,10s-7.3,5-7.3,9.7s2.7,8,0,10s-2.7,2.7-2,7
	s3.3,3,2.3,5.3c-1,2.3-5.3,7-4.3,10s6,7.3,5,14.7s-4.3,8.7-3.7,14.3s2.3,5.7,2,12.7s-1.6,9-3.5,11.3s-3.2,2-3.2,6.7s1,18.7,0,22
	s2,10.3,0,16.3s-4,13-2.7,18s-0.2,3-0.4,9s-1.4,5.3,0,9.7s3.1,8,3.1,13.3s1.3,12.3,4.7,21s5.7,14.3,5.8,20.3s2.8,10,5.5,13.3
	s4,3,2.7,7s-3.3,2.7-3.3,8.7s1.3,7.7,0,12.7s-1.3,6.7-1.3,12v5.3l1.7,3"/>
<path class="st2" d="M148.4,72.3c0,0,26.3-2.3,39.3-1.7s45.3,1,48,1.7s2,2,5.7,6.3s2.3,3.3,10.3,3.3s93.7,2,101,1.7s16.3,2,21,3.7
	s19,10,26.3,10.7s7.7,1.7,10.7,5s9,13.7,10,17.7s3.7,12.3,7.7,12.3s14,1.3,19.7,0c7.8-1.7,15.9-1.5,23.7,0.6
	c8.7,2.4,11.7,4.4,15.7,1.7s5-0.3,10-4s2-3.7,7.7-1.7s11.3,2,14.3-1s10.3-5.7,15.7-4s9.7,2,15,0.3s9.3-1.7,14,0s4,1.7,6,3.3
	s2.3,1,6.3-0.3s6-3,15-0.7s11.3,4.7,15.3,5s9-0.7,12-3.7s12-2.6,14.7-5.7c2.7-3.1-3.7-3,11-6s14.3-1.7,22.7-5s12.7-10.3,20.7-6.3
	s14.3,3.3,15,8s1,5.7,5.3,8s5,1.3,11.3,4s6,3.7,12.7,3.7s10,0.3,13,2.3s5.3,0,12.7-0.3s8.7-1,18.3,0.3s11,3.7,13-0.3s3.3-3,4-6
	s3-4,6-6.7c2.2-2.1,4.2-4.5,6-7c1.3-1.7,0.7,0,6-1.7s9-1,11-4c2.2-3.4,4-7,5.7-10.7c1.7-3.7-1-6,3.3-6s3.7-3,9.3,0s9.7,4,18.3,4.7
	s5,2,8.7,0.7s4.7-4.7,7.7-7.7s3.3-2.7,3.3-9.3s-5-6.7,0-12s7-5,7-12.3s0.7-7,3.7-12s2.3-4,3-10.3s0.3-4.7,3-14s5-21,5-21"/>
<path class="st2" d="M350.7-1.7c0,0,5,3,9,5s9,3,11,6.3s3.3,3.3,8.3,3.3s19.7,1.3,27.3,0s16.3-2,23.3-1s16,3.3,21.3,7s13,4,15,8.7
	s4.7,8.7,9,10.7s14,1.3,23,0s11-0.3,15.3-3.7c4.3-3.3,8.3-5,10.8-11.3s5.2-7,13.8-9.7s14.3-3,17.7-2s3.3-1,6.3-5S582.7-5,587.1-4"/>
<path class="st2" d="M148.4-1.7c0,4.3,0.7,13.5,0,19.4s0.7,6.9,2,9.6s-0.7,7,0,13.3c0.7,7,0.9,14,0.5,21c-0.5,7.7-2.5,8.7-2.6,15.3
	s0.5,15.3,0,22s2.4,17.7,0,27.7s-0.5,7.7-2.8,13.3s-4,10.3-4,18.3v39c0,8.7,2.3,10.7-1.3,14.3s-8.7,10-10.7,14s-0.3,11.7,0,47
	s1,86.3,1,90.7s-3.7,11.3,1,16s5.3,6,4.7,13s-1.7,4.7,1.7,9s8.1,12,13.4,17.7s6,8.3,10.3,12.3l4.3,4"/>
<path class="st2" d="M211.7,614.3c0,0-4-8.3-5-13.7s2-4.7,0-10s-5-7-5.3-13.3s-4.7-13-7-19.3s-7-16.3-7.7-22s-4.7-13-7.3-21
	s-6.7-31.7-9.3-36.3s-4-7.7-4.3-15s0-54,0-60.3s0.7-5.3,4.3-9s64-61.5,65.7-63.9s0-4.4,3.7-11.7s14-28.7,17-36.7s1.7-11.3,5-15
	s22.7-16,34.3-24.3s18.7-13.7,28-13s8.7-7.7,10.3-10s8.3-3.7,15.7-7.7s9.3-6.7,14.7-5.3s13,0.6,17.3-0.4s15.7,2.7,18,2.4
	s11.7-2.7,15.3-2.5s7.3,3.2,14.3,3.8s14.3,3,25.7,0.3s16.3-1.4,16.3-4.2s4.3-2.8,9.3-2.8h12.7c3.3,0,4,2.3,6.3,4.3
	c3.4,2.7,7.1,5,11,7c4.3,2.3,7.3,5,12,4.3s5.7-4,13.7-2.2s10,2.5,21.7,2.8s24.7,0.3,28.7,2s3.3,1.7,7.7,1.3c6.6-0.3,13.2-1.3,19.7-3
	c10.7-2.7,13-7,17-0.3s6.3,7,14,8.7s14.3,3.3,21,5.3s6.7,3.3,11.7,2c5.7-1.7,11.2-3.7,16.7-6c3-1.3,36.3-5.3,44.7-4s8.3,3,17,0
	s18.7-7.3,22.7-8.8s3.7-1.2,10.3,0.2s14.7,4.7,18.7,4.3s6-1.3,11,0s2.7,3,7.3,3.3c3.8,0.4,7.5,0.6,11.3,0.7c5.7,0,6.3,2,10.7,6
	s14.7,11,17.7,11.3s5.7,3.7,7.3,6s4.3,0.3,11.7,0.3s5-0.7,8.7,2.3s7,5.3,11,6.3s18,8.3,18.7,10.3s0,2.3,3,5.3s2.7,1.7,8.3,3.3
	s3.3,2,9.3,2s7.7-1,10,1.7s9,11.3,15.3,15.3c5.6,3.5,11.7,6.3,18,8.3c3.7,1,1,1,11.3,1h28.3c10,0,9-1,18,0.7s9,1.7,14.3,6
	s8,7.3,9.3,10s1.3,0,4-0.3c3.4-0.2,6.8,0.3,10,1.3c3,1,5.7,0,10.3,1s5-1,9,3s3.3,3.7,6.7,2s2.7-3.3,7.3-2s9-0.3,13.3-3.3
	s7-7.3,12-8.7s4.7-0.7,11.3-2s2.7-1.3,11-0.3s10.3,1.7,13.7-1s8.5-4,16.1-2s6.9-0.3,12.2-1.7s6-2,11.3,0s21.3,6.3,25.7,5
	s5-3.3,6.3-0.3s2,1,6.3,0.7c2.8-0.3,5.5-0.4,8.3-0.3c5.3,0,4,1.3,12-0.3s6-2.3,10.3-1.7s12,3.3,17.7,4s11.7-0.3,19.7-0.3
	s15,0.3,18.7,2.3s1.7,1.3,11,0.7s14.7-2.3,19.7-1s17.3,8.7,23,10.3s23,2.7,28,2.7s11.3-1.3,19,1.7s20.7,5,23,4.7"/>
<path class="st2" d="M1102.4-1c0,0,3,5.3,2,10.3s-0.7,5.7-2,9.7s-3.3,4.7-2.3,9.3s2.9,6,2.1,9.3s-0.5,6.7,0,10.7c0.5,5,0.5,10,0,15
	c-0.5,5.7-0.3,8-2.4,11.7s-0.9,12.3,0,16.3s4.3,5.3,4.8,11.3s-3.8,12-3,15.3s4.1,12.3,5.1,20.3s-2.3,16,0,19s4.3,3.7,3.3,6
	s-2.7,7-2.7,9s2.9,10,2.9,12.7s-0.7,2.7,0,6.7s1.4,4.3,3.1,7.7s6.3,13.7,5.7,17.3s3,18.3,6.3,20.7s10.7,9.3,12.3,15.3
	c1.7,6,5,11.3,11.3,17.7s4.7,9.7,6,11.7s4.7,1.7,7,5.3s5.7,12,8,15s8.3,9.3,9,13.3s8,9.3,11,10.7s8.3,4.3,9,9.3s0.7,7.7,3.4,10.7
	s-1.7,5.7-2,9.3s2,6.7,6.3,5.7s15-2.7,19-1.3s6.7,0.7,12.3,1.5s3.7-4.1,8.7,0l5,4.1"/>
<path class="st2" d="M1452.7-1c-0.7,3.3-0.3,10.7,0,14s2,9.3,5.3,13s8,4,11,8.3s2.7,4.7,8.3,7s20.3,11,22,13.3s1.7,4,6,5
	s7-0.3,14.7,2.3c7.7,2.7,16.3,7.7,25.3,8s7.3-0.7,16.3,0s11.3-3,15.7,1.7s4.3,7.7,11,8.3s23-0.7,33.3,0s13.7,1.7,16.7,2.3
	s7-1,16.7,0s16.7-0.3,25,2.7s9.3,7.7,13.3,6.3s5.2,1.3,5.9,2.9c1.7,4.1,3.1,6.8,7.5,7.1c4.3,0.3,2.7-1,9.3,3.3
	c5.6,3.6,11.5,6.7,17.7,9.3c5.3,2.3,9,5,12,6s0.7,2.3,9.7,0s6.3-1.3,18-2.3s14.3-2,21.3-3.7s14.3-4,15.3-1s0.7,3.7,5.3,4.7
	s8.7,2,11.3,1s3.7-4,5-7.3s1-2.3,0-5.7s-0.6-1,0.9-5s2.8-2.3,1.8-6s0-1,0.3-5.7s1.3-1-1.3-5.7s0-8-2-11.7s-2-2-2-8s0.3-8-1-11.7
	s-3.3-1-5-4s-1-3.7-2.3-8.7s-4-2.7-5-8.7s-2.7-9.6,0.3-13.3s7.3-3.7,9-8.7s3.7-9.7,3.7-9.7"/>
<path class="st2" d="M2230.4-1c0,0-3.3,5.3-3,10c0.2,2.4,0.2,4.9,0,7.3c0,0-6.3,5.7-6,11s3,12.3-1.7,15.7s-8.7,6.7-9,11.7
	s0,11.7,2.3,13s3.3,3.3,2.3,8s-2.7,6,0,10s2,9,1.3,13.3s-1.3,11.3-0.7,16.7s-0.3,13-1.3,20s-5,12-2,18s6,6.3,3,10.3s-0.9,3.3-5.1,6
	s-7.2,4-7.9,11s0.3,9.3,0,12c-0.2,1.4-0.3,2.9-0.2,4.3c0,0-2.3,6.7,0,11.7c2.3,5-1.9,22.3-1,28.7c0.9,6.3-1.8,21-1.8,26.7
	s2,6-3.3,11s-13.5,15.8-19.3,21.7s-15.3,17.7-15.3,19.7s-0.3,2.7-4,6s-6.7,4.3-11,4.3s-6.7-1.3-9.7,6s-10,11-15,17.3
	s-7.3,6.3-16.7,11.3s-11.7,7.3-17.7,10.3c-6.2,3.1-12.8,5.2-19.7,6c-7.7,1-9.3,2.7-16,4.3c-6.7,1.7-8.3,1.3-15.3,0s-6-3.7-10.7,1.1
	s-6,3.2-9.7,3.9s-6.3,4-7.7,4.7l-1.3,0.7"/>
<path class="st2" d="M791.4-1c0,0-40,23.7-42.5,25s-3,11.9-2.5,15.6s-0.3,19.7-0.2,26.7s-4.3,14-2.3,21.5s8.5,19.8,7.5,29.4
	c-1,9.6,1,14.6-3,23.1s-10,20.5-10.5,27s-2,6.5-3.5,15s0,12.5,0,21s-4.8,15.7-0.7,22.3s6.7,8.7,3.7,14.2s-5.7,7.5-5.4,14
	s3.6,11,0,16.5s-6.1,10.5-6.6,21.5s2,10-3.5,22s-7,18-7.5,25s-0.5,16,0,19.5s10,7.5,12.5,10.5s7,7.5,9,12.5s10.7,12.5,15.8,17
	s22.6,17.2,27.1,23.3s21,16.7,27,16.7s20.5-3.5,29-5.5s14-6.8,21.5-7.2s30-2.7,38.5-3s13.5-0.2,21.5,3s3.3,3.2,11.7,3.2
	s12.3-0.3,19.3,1.8s5.5,4.2,12.5,4.7s13-2.3,22.8-4.7s13.4-3.2,18.1,0c2.6,1.8,5.6,3.3,8.7,4.2c0,0-13.3-11.8-8.7-17.2
	c4.7-5.3,8.7-9.8,11.7-14.5s-5.5-8.3,0-12.3s7-7,7-10s-3.5-6.5-3.5-10s-6.5-5.3-10.5-5.2s-7.8,2.7-12.7-1.8s-9.3-7-12.8-12.5
	s-6-4-2.5-9.5s10-10.2,13.5-15.8s0.2-6.2,1.8-11.2s-5.2-10.5,0-16.5s12.2-11.5,12.2-17.2s-5.5-21.8-2-29.2s3.5-10.5,3.5-19
	s0-17.7-3.5-25.8s-0.3-28.2-2.2-33.2s-4-6.8-4-14.5v-11.7c0-4-3.7-7.3-4-13.8s-5.2-6.6-4-12.5s0.7-18-6.1-18s-21.8-2.5-25.8,1
	s-6,4-14,3.5s-25.5-4-33-2.5s-19.6,5.4-18.7,5.8"/>
<path class="st2" d="M866.7,209.8c1.8-2,1.2-13,0.7-19s-6-22.5-7-27.8s-6-22.2-8-26.4s-7-10.8-7-15.3s-6-20.5-7.5-26.6
	s-1-20.8-1.5-26.3s-5.5-23.5-8.8-28.7s-0.7-11.3-0.2-15.6s0-25,0-25"/>
<path class="st2" d="M1000.7-2.7c-4.8,4-7.8,9-18.1,18s-10.8,6.8-16.8,8.7s-7.5,6.9-7,15.6s-0.1,31.7-0.1,31.7"/>
<path class="st2" d="M876.6,71.3c0,0,5.8-7.6,15.3-5c9.5,2.6,28.8,2,36.2,2.3c7.3,0.3,10.8,0.7,14.8,2.7s13-3,22.5,3
	s9.5,12.5,17.3,13s13.7,2,20.2,0s14.5-1.5,21.5-1s26.5,0.5,32.5,2c6,1.5,11.5-1,21.5,0s29,0.5,41,0.5s42,3.8,51,0.1
	c9-3.6,17.5-2.1,42.5-2.1s52.5,0.5,57,0s15.5-3.5,23-4s17.3,2,28.2,2.5s14,4.7,16.7,9.3s1.3,7.7,4,11.7s2.2,3,3.2,6.5s6,4.9,6,8.5
	v6.5h58.5c0,0,0,8,5,8.8s8.5,1.2,12-2.3s-0.5-5,4.5-6s5.5,1,15,0.5s13.5-5,19.5-5s13,3.5,15.5,4s8.5-4.6,10.5-6.5s45.5-0.5,49,0
	c3.5,0.5,12.5-4.2,15.5-4.1c3,0.1,24-2.6,28,0c4,2.6,1,5.6,3.5,8.1s11,4.5,17.5,3.5s11.1-1.5,18.1-3.5s7.9-5.6,12.9-4
	c5,1.6,14-1,19.5,0s14.5,6.5,21,8.5c6.5,2,16,3.5,23.5,6.8s9.5,9.9,17,11.1s12,11.7,19,9.2s5-6.8,7-13.2s9.3-7.8,7.6-11.8
	s1.6-23.5,0-29.5s-6.6-7-6.6-15s-1-15.6-1.5-21s7.3-6.5,8.1-15s-5.4-7,0.5-14s12.4-13,12.9-19.5s-2.5-20.2-5-21.8"/>
<path class="st2" d="M1320.4,1081.5c0,0,9-2.8,14,0s5.5,3.8,9.5,2.3s10,1,12.5,4s2.5,6.5,4.5,6s5.5-4.6,7-6.8s4-7.4,6.5-6.8
	c3.6,0.7,7.4,0.7,11,0c4.5-0.8,10.5,0.8,15.5,0s15.5-3.7,22-0.2s19.5,5.4,24,2.4s9-8.9,14-12.5s8-4.9,12.5-10.2s11.5-18.3,11.5-26.3
	s1.5-10.8,2.5-21.7s0-10.2-2-17.3s-4.5-9.6-4.5-9.6"/>
<path class="st2" d="M1019.9,1027.3c0,0,2,3,6.5,0s4-3,10-3s8.5,2,11.5,4s4.5,1.7,9,0.3s8.5-5.8,12.5-4.3s-1.7,4,3.7,4s-0.2,2,5.3,0
	s5-0.5,6.5,0s7.5-1.4,9-1.4c1.5-0.1,3-1.2,5-2.9c2-1.7,4-7.6,7-5.6s5.3-0.9,8.2,0s5.8-0.1,8.3-0.6s8.1,0,8.1,0s-8.1,0.7-11.6-2.2
	s-1.7-6.3-4.8-10.3s-1.7-4.5-9.7-5.5s-9.5-2.5-14-5.2s-4,2.2-7-3.8s-3.9-10-8.2-14s-11.1-8-10.4-9.5s-9.4-5.2-13.9-7.9
	c-6.5-3.8-13.9-6-21.5-6.1c-9,0-23-2-32-12s-10-13.5-11.5-21s-1-11.5-6-12s-6.5-1.4-12.5-2.2s-7.8-5.5-8.5-8.3s-8-6-12.5-9
	s-10.5-7-12-9.5s-4-5.5-6-6.5s-2.5-5-7.5-4.5s-7.5,2.4-10.5,0s-4.5-5.5-7.5-5.5s-7.5,3-8.5,0s-3-5.5-9-5.5s-12.5-1-13.5-4.5
	s-1-7.5-5-9s-2-1-7.5-3.5s-6-2-9.5-7.5s-5.5-9.5-8.5-9.5s-2.5-1.9-8-5.9s-6-7.6-6-7.6"/>
<path class="st2" d="M882.1,1145.3v-5c0-4.3-2.7-5-6.7-6s-7.5,0-10-3s-3.5-8-8-8s-4,0-6.5-3s-2-1-5.5-4s-5-2.5-5.5-7.5s-1.5-7,0-9
	s5-3.8,7.5-8.2s2-7.3,6-9.8s10.5-6,11.5-9.5s-1.5-3,1-8.5s6-2.9,9-6.2c2.5-2.9,4.1-6.5,4.5-10.3c0.5-3.5-0.7-6,2.7-8
	s9.8-5.7,12.8-9.6s4.5-2.9,8-4.4s10-2.5,11.5-7.5s2.5-9.8,5-10.2s8.5-2.3,11.5-6.3s5.5-8,9.5-11.5s8-5,8.5-13s1.5-10.8,5-14.7
	s-1-14.3,0-22.3s0.2-14.6,1.4-20s-1.4-14,3.6-16.5s10-6,8.5-10.2c-1.8-5.2-2.6-10.7-2.5-16.3c0-7,1.5-8.5-1-13s-8-9-8.5-15
	s0-7.5-2.5-13.5s-8-14-6.5-21s4-9,5-14.5s-2.5-11,1.5-15s7.5-13,7.5-18.5s-2-12,3.5-15.5s4.8-10,10.4-12s11.1-6.9,22.6-6.7
	s56.5-3.3,59.5-5.3s9.5-1.5,14,0s16,3,19.5,2s24,5.5,28,7.5s11.3,1.5,15.2,1.5s24.8-1.5,31.3,1s12,3,21.5,2.5s27-2,34-7
	s6.5-6.1,17.5-8.8s5-4.1,16.2-7.7s19.4-13.3,21.8-11.2s6.9,7.3,10.9,8s14.5,3.2,17,4.7s7,8.1,7,12.8s5.5,20.2,8,25s3.7,8.2,3.1,12.8
	s2.9,10.5,7.4,12s7.4,4.5,10.4,8.5c3.4,4.3,6.4,8.8,9,13.5c3,5.5,7.5,9.5,7,11.5"/>
<path class="st2" d="M865.9,1063.8c0,0-1,5.5,3,9s5,4,4,9.5s0.2,12.7,0.4,14.8s-0.4,10.2,3.1,12.2s9.3,5.5,5.7,12
	c-2.3,4.3-3.6,9-3.8,13.8"/>
<path class="st2" d="M919.8,1087.1c0,0-1.4-10.7-4.4-17.2s-6.5-9.5-5-19.5s1.5-13.5,7-18s2.8-8.7,2.4-16.7s-2.8-5.8-4.4-12.3
	s1.8-8-5.4-14s-10.7-8-11.7-15s-0.5-7-4-13.5s1.5-17.5,0-21s-15-12.3-15.5-17.2s-2.5-6.3-11-9.3s-12.2-6.3-16.5-11
	s-12.5-10-16.5-13.5s-20-11.5-26-15s-6-4-13-4h-55.7"/>
<path class="st2" d="M530.5,1135.2c0,0,5.4,2.3,8.4,0s0.5-3.5,6.5-5.4s7-1.3,10.5-5.1s4-5.3,9.5-5.3s8.5,1,11.5-2.5s7-7,7.5-13.5
	s0-11.6,3-16.3s0.5-11.7,4-13.2s19.5-3.9,22.5-4s6-2,12.5,0s14.5,0,18.5,0c5-0.1,9.7-2.2,13-6c4-4.5,7.5-6,12-10.5s2.5-7.5,6-10
	s5.5-6.5,5.5-8.5s-1-4,4-6.5s3.6-8.9,5.6-9.9s5.7-0.7,8.9-2.7s5.8-6.4,8.5-8s3.8-3.1,3.8-6.3s-1-3.6,1-6.9s3.2-5.8,3.2-8.6
	s-0.5-3.5,2.8-5.7s7-3.5,8.5-6.8s4-6,8.2-8.5s7-5.3,7.2-12.3c0.1-5.7-1.5-11.2-4.5-16c-1.8-2.5-3.2-6.9-1.6-10.7s2.7-16.2,3.2-22.2
	s-1.5-22,1.5-26.7s-2.3-5.3-4-14s1.3-15.3-1-19.2s-9-10.8-7.7-18.2s3-17.7,1-23.3s-5-6.3-5-12.7s1.3-14.7,0-22s-13.7-38.3-14.7-42.7
	s2-9.3,0.7-21.7s0.3-17-1.7-24s-3.3-7.3-3-11.3s1.7-7.7,1.7-14.3s-4-15.3-4.7-19.7s-0.7-6-0.7-12s-1.7-22.7,2.7-26s10-15,10.7-17.3
	s5-4.3,10.3-8s4.7-2,6.3-8.7s-0.3-7.3,3.7-8.7c2.6-0.9,5.1-2.3,7.3-4"/>
<path class="st2" d="M460.1,1145.3c-0.1-2.1,0.6-4.1,2-5.7c2.3-2.3,2.3-7.8,4.3-9.9s1.3-5.1,0-10.8s-4.4-11-2.5-15.7
	s-1.6-11.9,0.8-16.3s1.2-5.7,0-8.7s-6-8-4.6-9.7s-3.2-5.7-0.2-7.7s5.1,1.3,7.9-1.3s6.1-7.7,5.4-13s-1.2-6,0.1-11s-1.2-6.3,0-11
	c1.2-4.7-0.1-5.7,4.9-11s4.3-7.7,0-12.3s-6-11.3-5.7-19c0.3-7.5-1-15-3.7-22c-2.3-5.7-6.7-4.3-6-10c0.7-4.7,0.3-9.5-1-14
	c-1.3-5.3-6.7-7.7-7-13.7s-3.7-15.7,0-22.7s7.7-21.6,8.4-28.3s0.3-52.3-1-61.8s-5.3-14.5-4-20.5s4.3-9,5-13s-2.2-7,1.6-12
	s8.8-7.3,9.4-12.7s3.7-22.3,2.7-29.3s-2.3-5.3,0.7-13.7s4.7-12.7,4.2-19.3s0.5-10,3.2-15.7s-2-7.7,3.7-15s9-11.3,9.7-15
	s5.3-8.7,6-13s3.7-6.3,6.3-5.7s10-0.9,12.7-0.1c2.4,0.9,4.9,1.2,7.4,1.1c3.9,0,9.9,1.7,11.9,3.3s5.3,0,7-0.3s9.3-4,15-1
	s7.3-0.7,13,2.3s8.7,8,11.3,7.3s8-10.7,13.3-11s13,0,13.3,2.3s5.3,4,9,3.3s6.7-4,10.3-2.3s11,11.7,15,13s9,3,13,3s12.3-1,15.7,0
	s16.3,5.3,17.3,7.7s0.7,5.3,4.3,9.3s6.3,5,6.3,5"/>
<path class="st2" d="M411.9,1123.9c0,0-2.8-5.2-6.5-6.2s-8.7-0.3-13.7-1.7s-10.3-3.3-16.3-3s-10.3,2.3-12,0s-5.7-8-11-12
	s-8-7.3-11.7-6.3s-7.7,0-9.7-0.2s-9,1.5-12.3,0s-4.3-5.2-12-6.8s-12.7-4.3-16-8.7s-5.8-8-9.2-8.7s-4.8-1.7-8.1-4.7s-0.7-4.7,0-8
	c0.7-3.5,1.6-6.9,2.7-10.3c1.3-4.3,0.2-6,5.4-12.3s0.2-7.3,2.9-12c2.7-4.7,3.7-11,10.7-13.3s10.7-3.3,13-8.7s-0.7-13.3,0.7-14.3
	s5.3-1,7-2.7s0.7-5.3,6-10s7-5.3,7-8s-3-4-6.3-6.7s-4.7-6.7-7-9.3s-1.3-4-2.3-8.7s-3.7-5.7-4.3-9.3s1-10.7,4.3-11.7s11-2.3,13.3-4
	s3.3-2,3-5s-5.3-9.3-3.7-15s1-11.7-1.3-18s-3.7-3.3-5-9.7s-3.3-8-3.3-8"/>
<path class="st2" d="M294.4,796c0,0,1.7,6,0,9.3s-1.7,8.3-1.7,13s-3.3,12.3,1.2,17.3s7.1,10.7,7.1,14.7s-1.5,8.7-4.7,8.7
	s-7.9-0.3-10.6,1.7s-7.5,8-7.5,8"/>
<path class="st2" d="M-34.9,987c0,0,4,0.3,6.7-2s3.3-4,7.3-2.3c4.3,1.7,8.4,3.8,12.3,6.3c3.3,2.3,8,2.7,9,7.7s1,7.7,5,10.7
	s10,10.3,16,12s13,2.7,17.3,3.7c4.3,1,5,3.7,9.7,3c4.7-0.7,20-3,24.7-1.7c4.7,1.3,15.3-3.3,19.7-1.7c4.3,1.7,7.3,4.2,11.3,3.4
	s18.7-0.8,22.7,2.6s13.3,4.7,18.3,4.7s12.7-2,16.7,0s12.7,3.7,16,7.3s9.7-0.3,12-2.7s5.3-6.7,9.3-4.7s8.7,7.7,12,7s4.2-2.5,4.2-2.5"
	/>
<path class="st2" d="M-13.6,986.1c0,0,2-1.7,6.3-9.7s12-22,13.3-23.3s12.3-5.3,15.7-8s17.7-15.7,20-18.3s7.7-21.3,13.3-26
	s4.7-1.7,9.3-10s9.7-20.3,13-22c1.8-0.8,3.4-2.2,4.3-4"/>
<path class="st2" d="M1089.4,88.9c0,0-3.3,1.1-10.7,5.8c-7.3,4.7-18.8,8.3-19.5,11s-5.1,14-8.5,17s-19.3,20.7-25.3,21
	s-15.7,4.7-17.3,8s-5.7,12.5-10.2,15.4s-13.4,4.6-18.1,11.6s-5,13.3-7.4,31.2s-3,25.2-7.3,32.5s-4.5,15.3-6.3,19.3
	c-1.8,4-6.7,7-11.4,9.3s-3.3,0.7-3.3,5.3s0.3,5.7-5,8.7s-22.7,8.3-24.7,10.3s-2.7,2.3-2.7,4.3s-3.3,1-14.3,3.7s-10.7,3-14,6
	s-11.7,4.5-16.7,7.9s-7.3,4.7-7.3,4.7"/>
<path class="st2" d="M912.4,105c0,0-1.7,8.1-2.3,12.2c-0.7,4.1,0.3,6.8,0,9.8c-0.3,3,7,15.7,8.7,20.7s9.7,4.1,9.3,9.6
	s-1.7,7.8,0,11.1s9.3,7.3,9.3,11s0.7,7.7,3.7,14s16.5,28.3,17.7,29.7s1.6,2,5.6,2s5.3-3,10,0s19.7,4.7,24,4.7h8"/>
<path class="st2" d="M995.1,149.3c0,0,2.3,2-2.3,4.3s-16,2.3-23,7s-14,11.7-20.7,14.7s-19.3,6.3-27,10.3s-19,12-22,15
	s-7.3,4.6-15.3,4.8s-22.3,5.9-25.3,7.6s-11.9,7.1-15,10s-7,13.7-3.7,22s13,22,13,25.3s-1.3,6.7-0.3,20.3s-1.7,23.9,0.7,26.6
	s6.7,5.5,6.7,10.8s-3.3,25.3-3.3,30s4,5.7,0.7,16.7s-8.2,7-11.1,18s-9.9,40.7-10.5,42.3s-3.7,4-3.3,11.7s-0.7,23.7-2.3,28
	s-3.7,4.7-7.3,7s-6,1.7-6,7v36c0,6.3,2,12,0,15.7s-0.8,5-1.9,9s-6.8,9-6.8,13s-1,36.3,1.7,41s2.7,18.6,2.7,21.3s-1,3.3-3,6.7
	s-2.4,7-1.5,11.3s3,4.3-0.4,11s-7.4,6.7-14.4,8.7s-7.3,3-21,0s-26-3.7-30.7-6.7s-2-2-4.7-3s-3.7-0.7-4.7,0.7c-1.6,1.7-3.5,3.1-5.7,4
	c-1.7,0.7-9.1,0.7-13,3s-7,8.3-9,11s-8.7,0.7-16.7,10.3s-8,9.7-17,14.3s-44.3,15.7-47,19.7s-1,9-6,11.3s-10.3,2-14.7,4.7
	s-7,3.7-10,6.7s-15.7,6.3-21.7,12.7s-6.6,8.3-16,10.3s-16.3,2.7-20,7.3s-7,6.7-7,12.3s0,5-5.7,10s-5.3,5-13,6.3s-29.3,3.7-34,4
	s-7.5,6.3-11.8,8.5s-6,2.5-11.6,1.2s-39.3-12.3-45.3-13.3s-21.7-5-26.7-7.3s-18.3-4.3-36.7-4.3s-28-0.7-31.3-0.7s-23,13-28.3,16.7
	s-5.6,4.3-13,2.7s-14-2-26,4.3s-46.7,27.3-51.7,31.7c-4,3.5-8.5,6.3-13.3,8.3c-5,2.3-4.7,1.3-7.7,6.3s-9.7,14.8-9.7,14.8"/>
<path class="st2" d="M44.8,1025.8c0,0,0.2-4.8,5.2-9.8s9-7,11-8.7s4.3-0.3,6.7-3s4-9.2,7.3-9.8c4-0.7,7.7-2.5,10.7-5.2
	c4-3.3,16.7-18,19.7-20.7s6.3-2.7,4-6.3s-3.7-4.3-3-8s5.9-7.3,3.8-13.3s-9.8-12-3.4-27.3s7.7-16,8-21s2.7-29.3,2.7-42.3
	s-2-52.7-2.7-60.7s-1.7-13.7,4-22.3s3-25.7,0-34s-6.3-19-5.7-22.3s-1.3-9-4.3-13s-5-8-10.3-10.7s-9.7-6-12.3-16.3s-6-23.3-8.7-29.3
	s-7.3-7.3-7-14s0.3-10-1.7-17.3s-11.7-26.3-13-32s-2.7-10-0.7-18.3s3-14.7,2.7-20.3s1.3-7.3,2.3-11s8.7-21.7,9.7-24.7
	s0.7-6.3,0.3-19s-2-47-3-49.7s-39-44.7-40.7-48c-1-1.9-1.5-3.9-1.7-6"/>
<path class="st2" d="M-35.3,468c0,0,50-26.3,52.7-27.7s39.7,0,45,0s10-3.7,13-6.7s172.3,6,183.3,6s24-5.6,33.7-6.6s12-1.7,12-1.7"/>
<path class="st2" d="M350.7,425.3"/>
<path class="st2" d="M209.1,633c-0.8-2.9-1.9-5.7-3.3-8.3c-2.3-4.3-1.7-3.7,2.3-7.7s8-2,11.7,2.7s8.7,4.3,11,9.3
	c2.3,5,6.3,17.3,4,22.7s-4.3,5.3-11,5.7s-7.7,0.3-10-2s-3.7-17.7-4-20.3s-1-2.3-6.7-2.3s-12.3-2-20.7-4s-8.7-0.7-12-4s-8.7-4-14-2.7
	s-50.3,14.6-54.7,13.3s-6.7-1-12,2.3s-18,4.3-21.7,6.7s-17.7,5.3-23.3,7.3s-15,5.7-20,6.3s-8-1.3-12,0s-17.3,6.3-23.7,9
	s-11.3,3-15.7,8.3s-7,14-7,14c0.9,4.9,2.6,9.6,5,14c4,7,19,24.3,20.7,27.7s6,17,8.7,20.3s6.7,7.7,7.3,11.3s13.7,12.7,18.7,22.3
	s16.3,26,20,30.7s33.3,23.3,40.7,28.2s17.6,14.5,22.7,16.8s9.6,4,12,11s3.3,13,7,16.3s13.3,10.3,15.3,16s11.7,9.3,14.3,16.3
	s14.7,15.3,19,18c4.4,2.7,7.1,7.5,7,12.7c0,5.3,0,9.7,6.7,12.7s14,6.7,14.3,15.3s-0.7,10.9,0,13.3c1,4.1,1.1,8.3,0.3,12.4
	c-1,4.7,0.7,13,3.3,17s2,7.7,4.3,12s2,8.7,2.3,10s4,4.3,7,8s2.1,6.3,12.4,6.7s12.3-0.3,20,2.3c5.3,1.7,10.8,2.5,16.4,2.4"/>
<path class="st2" d="M258.1,605.3c0,0-15.3-8.7-19.7-11s-5.3-2.7-12,0s-58.7,16.7-60.7,17s-4.6,10-4.6,10"/>
<path class="st2" d="M249.1,807.3c0,0-10.2-9-13.6-11.4s-10-18.6-11.7-25.6s-0.3-21.7,0-26.7s-2.3-9.7-0.8-19.7s8.1-22.3,6.5-33.3
	s-9.7-33.2-9.7-33.2"/>
<path class="st2" d="M299.8,856.5c0,0,2-0.2,5.7,1.8s2.7,3,8,2.3s5.3,3.3,9,4s7.3-2,14.7,0s24.7,6.7,27.7,7s13.3-0.7,23.7-3
	s11.7-8.3,16.3-8s92-0.3,96.3,0s16.8,6.5,29.4,11.1s13.2,3.6,37.9,3.3s37.7-3,40.3-5.2s4.7-5.3,16.7-3.9s52,4.4,60.7,4.2
	s7.7-1.7,18-4.2s19.3-7.9,24.7-9.4s15.3-6.2,24-6.2s12-1,28-6.5s28.7-12.8,33.3-13.2s5-0.7,7.7-7s7.6-18.3,8.8-20.3
	s8.5-19.3,13.2-26.3s15.7-17.7,17.3-23.7s1.3-17.1,1.3-21.2s1-4.5,5-7.5s19-23.3,22.7-32.3s7-13.7,7.3-18.3s5.3-12,7.7-17
	s4.7-20.7,5.3-28s1.7-18.7,0-25.7s-7.7-10.3-8-18s0.3-17,1.3-30.3s1-24.8-0.3-31.3s-6.7-9-6-14.4s0.7-11-3.7-13s-7.7-2.7-11.3-6.7
	s-6-4-9.3-4s-6.3-2-12-13s-9-8.3-10.3-14.7s1.3-4-4-9.7s-5-1-6.3-7.3s-3.2-8.8-3.2-8.8"/>
<path class="st2" d="M808.7,438.3c0,0-2.3,2.3-4.7,8.3s-1.3,7.7-5.7,13.3s-15.7,15.3-19.7,17.3s-8,4-12.7,10s-6.7,6-10.7,15.3
	s-6,8-7.7,12.3c-1.7,4.3-4.3,11.7-4,17.3s0,11.3,0,24s-2.7,11.3,4,22.3s16,20.7,17,23.3s12.7,2,18.3,7.7s10.7,13.7,15,19.7
	s28.7,25.7,29.3,30.7s0,9.7,0,18.3s-1,10-4,13s-2,72.7-2.7,78s-2,16.3-1,23.3s1.3,9.7,4,12c0,0,8.3,15.3,10.7,21.3s8,12.3,7,17.8
	s-4.3,12.8-3.7,19.8s-0.4,9,3.8,16.7s5.5,11.5,5.9,13.8c0.2,1.2,0.1,2.4-0.3,3.6"/>
<path class="st2" d="M788.5,1004.9c0,0,118-0.7,122.8,0s12.8-2.6,14.8,5.1s4.7,11,9,11.3c4.5,0.5,9.1,0.5,13.7,0
	c4.7-0.7,9.3-2.2,15-2.9s9.3,0.3,17-2.7s34.2-7.3,34.2-7.3"/>
<path class="st2" d="M1208,1045.8c0,0,4.1-6.4-6.9-9.8s-13-4.2-18.7-6.2c-5.2-1.8-10.5-2.8-16-3.1c-4.7-0.3-1.7-10.2-4.3-8.3
	s-4,2-9,3.3s-4,2.7-11.3,0c-7.3-2.7-11.3-3.9-11.3-3.9"/>
<path class="st2" d="M1237,1048.6c0,0,4-6.9,8.7-9.3s10.4-3.4,13-5s4.3-7,7.3-10c3-3,7-6.2,12-5.9s5.3,0.4,9.3,0s7,1.6,9.7-2.7
	s9.5-7.1,10.4-11s3.6-7.3,10.9-13s16-20,20.3-24.3s16.1-12,16.7-17s5-13,9.3-14.7s21.7-4,23.7-6.7s2-6.3,12.7-7.7s3-22,10.7-33.7
	s10.3-24,15.7-27.3s11.1-7,14.7-10.7s7.4-7.7,12.7-7.3s16.2-5.3,21.9-10s5.3-8,9.7-8s8,0.7,9.7-2.3s6.7-6,11-3.8s11.7,2.2,13.7,2.2
	s9.3,1.7,12.7,5.3s6.3,6.3,9,6.3c1.7,0,3.4,0.2,5,0.7"/>
<path class="st2" d="M1163.7,1002.3c0,0,5.7-1,8.7-5.3s6.7-4.7,13.3-4.7s36,1,38.7,0s6.3,0.7,8,5s4.3,3.3,9,5s8.7,5,10.3,9.3
	s6.1,8.7,9.5,9.7c4.3,1.1,8.6,2.6,12.7,4.3c8.5,3.3,11.8,6.3,17.8,6.1s20.3-4.6,25-2.1c5.7,2.9,11.6,5.3,17.7,7.2c1.7,0.3,2,1,9,2.7
	s20.7,1,25,0s1.3-6.7,9.3-7.9s14-4,21.7-2.1s13,8.6,20.3,9.9s23,0.7,30.7,1s11.3-0.7,17.3,1.7s9.7,0.4,13.2,5"/>
<path class="st2" d="M1377.7,869.3c0,0-7,8-11.3,11s-13.3,10.7-23.7,18.3s-26,12.7-31.7,15.3s-16.7,6-23.3,8.7s-16.7,4.7-25,8
	s-38.3,7.3-41.7,9s-2.3,5.7-7.6,6.2s-7.4-4.5-10.8-2.5s-10,2.7-16,2s-14,5.3-17.2,6s-8.1-1.9-8.1-1.9"/>
<path class="st2" d="M1320.4,910.2c0,0-0.6,2.5-3.3-5.5s-2.7-12-7.3-18.7s-4.3-10-9.3-11.7s-12.7,2.3-21,0s-29-16-33-20.3
	s-3.2-14-9.4-19s-7.2-7.7-12.2-10c-3-1.4-5.7-3.4-8-5.9"/>
<path class="st2" d="M1298.6,874c0,0,2.4-0.6,1.8-7.3s-0.9-17-1.8-25s0.3-11,1.9-15.7s0.7-7-2.2-13.7s-17.9-36-18.6-39
	s1.3-14.3,0-20s-9.7-19.7-9-26s0-8.7,0-12.7s-3.1-4.4-3.1-4.4"/>
<path class="st2" d="M1246,771.2c2.3,1.9,5.3,2.8,8.2,2.5c5.2-0.3,7.2-5.3,10.9-5s14.1,6.7,19.4,5s10.9-0.4,13.6,0.3
	s12.7-4.3,15.3-5.3s7.3,2,10,0s12.2-3.7,16-2.3s13,0.7,19.4-0.5s13.3,3,19,4.1s41,8,47,9.7s12.7,2.3,21,2.3s18.6-3.6,29.3-1.6
	s17.3,4.7,30-2s29.7-14,34.3-15.3s6.3,0,16.3,0s15,0,18.3,3.7s6.7,4.3,14,4s13.7-6,18.7-5c6.4,1.2,13,1,19.3-0.7
	c8-2,15.3-4.8,26.7-7.9s13.7-6.8,15-8.4s9-0.7,15.3,0s19.3-3.3,25.3-2.3s10.3,2.7,19,4.7s19,7,23.1,9.3s4.9,4.3,10.2,7.3
	s12.7,7.3,16,7.3s3.7,0.3,7.7,4.7s4,9.3,13,13s14.3,5.3,14,10.3s-1.3,15.7-1.3,18.3s9.3,8,7,21.7s-6.3,41.7-6.3,43.7s3.7,5.7,2,10.7
	s-0.3,7.3,2.3,11s6.3,8.7,4.3,12.7s-7,7.3-5.3,14.7s3.7,29.3,4,31.3s9.3,8.3,13.3,12.3s2.7,4,5.3,9s8,10,11.3,13.7
	s13.3,14.7,13.3,20.7c0,6-4,12,2.3,18.3s5.8,9.5,5.9,11.3"/>
<path class="st2" d="M1908.6,1091.4c0,0,7.8-7.1,10.8-8.1s3-5.7,4-9.7s5.7-7.7,12.3-14s10-6.3,10-17s-4.3-17.3-4-22.7s-3-7.7-4.7-15
	s-1.3-9.3-1-15.7s1.3-5.7-0.7-22s-3.7-20-0.7-21.7s5.3-3.7,3-9.3s-7.7-11.3-5.7-15.7s-0.3-9.3-1.3-12.3s1-5.7,3.7-13
	s1.7-10.3,5-12.7s3.7-2.3,4.7-6.3s5.7-5,8-6.3s4.3-4.3,2.3-9.7s-1.7-6,2.3-8.3s5-4,5.3-8.7s-2-4.3-4.7-9.7s-1.7-9-4-13
	s-3.3-5.3-3.3-9s-0.7-5-1.7-7.7s-0.7-3,0.3-8s1.7-5-1.7-8.7s-6.2-2.7-11.7-7.7s-9.3-6.3-8.6-12.3s6.7-16,7-19.3s2.3-11.1-1.3-15.9
	c-3.2-4.3-5.5-9-7-14.1c-1.3-4.3-3-5-11.7-10.7s-14-8-14-10.7s-0.6-5.3-5.3-11.3s-5-11-9.3-13.7s-5.7-9.7-11.3-14s-5-4.3-11-5
	s-20.7-2.7-25.7-4.7s-10-3.7-14.3-9.7s-12-19.3-35-16s-34,6.3-40.7,5.3s-5.7-0.7-12,1.3s-8,0-13,1.7s-25,6.7-30.3,10
	s-11.7,4.3-18,8.7s-8.7,5.7-12.7,5s-9.7-6.3-15.3-5.7s-8.3,4-14.3,6.7s-15.7,1.7-21,3s-10.7,6.3-17,6.7s-5.3,0.7-11.7-0.7l-6.3-1.3
	c0,0,2.7-2.7,0-5.3s-5.7-4.7-8.7-3s-4,4-3.3,7.7s1,6,5,5.7s4.3,2,5-0.3c0.5-1.7,1.3-3.2,2.3-4.7"/>
<path class="st2" d="M1573.4,667.7c0,0,3,2,4.7,8s-1,14,0,16.7s4.7,4.3,9.3,7.3s10.7,5.3,12.7,15.7s4,15.9,3,16.8s-2.3,2.2-2.3,7.5
	s0.9,13.7,2.6,16.7s1.9,11,0,15.3s-5.6,18.7-3.6,22.3s6.3,13.7,8.3,18s3,20.3,3,25.7s2,6.3,5.7,10s4.3,3,4,6
	c-0.3,4.2-0.2,8.5,0.1,12.7c0.3,3-2.1,4.7-7.4,10s-12.9,15-16.3,19.3s-4.4,7-7.7,7.3s-7-0.4-11.7,3.1s-7.7,1.7-12.7,4.4
	s-11,5.1-16.3,5.1s-8,1.3-14.7,4s-10.3,4.7-15.3,9.3s-6,8-11.3,8.7s-33.7-4.9-39.7-4.6s-6.7-2.4-14.3-6.4s-5.6-1.7-11.3-4
	s-13.4,4-13.4,4c1.6-2.8,1.6-6.2,0-9c-2.7-4.7-2.3-6.7-6-9.3s-4.7-3.3-11-6.3s-6.7-3.8-11.7-8.9s-25.7-24.5-30.3-36.5
	s-8-13.9-11-17.9c-3.3-4.4-5.3-9.8-5.7-15.3c-0.3-6,5.3-11.3,6.7-18.7s2.3-7.4,4.3-12.5s1.3-7.5,2.7-12.5s0.7-7.7,3.7-14.3
	s11.7-20,10.3-24.7s-2.3-9,2.7-15.7s9.9-13.3,8.8-21.3s5.2-22.3,7.5-29s3.7-20,6-30.3s3-12.7,5.7-16.3s2.7-5.3,2.7-5.3"/>
<path class="st2" d="M1374.5,864.9c0,0,3.3-4.6,3.3-8.2s2.7-3.9,7.3-7.6s9.7-12,16.3-15.3s9.3-5.7,11-11.3s7.7-4.3,12.3-8
	s5.7-13,9.7-15.7s4,0.9,6-6.5s6.3-17.5,11.3-23.1s7-12.2,11.7-11.9s3.7-1.1,7.7-7.4s6-13.4,10-17.5c6.8-6.8,14.4-12.6,22.7-17.5
	c9-5,13-8,21-12.7s8.3-7.3,10.3-13.7"/>
<path class="st2" d="M1398.2,835.7c0,0,8.5,1.3,10.5,6.9s-0.3,10.2,2,13.9s12.2,9.3,12.2,9.3"/>
<path class="st2" d="M1474.1,728.7c0,0-0.7,1.3-6.7,1.3s-20.2,2.7-25.3-1.3c-6.2-5.1-13.9-8.1-22-8.3c-10-0.3-22.9,0.6-27.9,0
	s-6.7-6-17.7-5.7s-23.7,0.3-32.7-2s-8-2-13,0s-6.3-1-14.7,2s-8.8,6.3-8.8,6.3"/>
<path class="st2" d="M1398.2,678.8c0,0-3.9-3.5-8.5-7.8s-4.9-4.7-13.6-5.7s-9.7-1.3-15.3-6.7s-11.7-8.7-16.3-10s-13-7.3-15.3-13.3
	s-14.5-9.7-20.2-13.5s-12.4-6.8-18.1-11.8s-8-7.7-13.3-10.7s-14-7.3-20.3-16s-11.3-12.7-13-20s-5-22-10.3-25s-10-1.7-12.7-7.7
	s-9.4-11.3-14.7-21.3s-16.7-8.6-25-18.3s-10.7-12.7-15.7-15.7s-5-2.2-6-8.1s-6.7-12.2-10-14.2s0.3-3-3.7-8.7s-9.7-12.5-12.3-12.1"/>
<path class="st2" d="M1231.9,477.3c0,0-4.7-1.3-5.3,2.9s-6.9,7.2-7.2,12.5s2,9,0,13.7s-2.7,4.7-2,9s3.3,14.3,2,18s-3.8,6-2.2,10.3
	s6.2,11.7,3.6,16.3s-7.2,8.7-11.9,9.3s-8.7,2.3-11.1,5.7c-2.1,3.3-4.9,6-8.3,8c-4.7,3-11,3.7-11.3,8s-1.7,8.3-6,13s-9.7,6-9.7,10.3
	c0.1,2.9,0.8,5.7,2,8.3"/>
<path class="st2" d="M1074.7,676.7c0,0,6.3-3.3,12-4c5-0.6,9.7-2.9,13.3-6.3c2.7-2.7,8.7-1.7,14.7-3.3s12.5-1,15.7-4
	s2.3-6.7,7.3-10.3s10-8.3,14-11.3s6.7-8,8.7-11.7s3-2.7,8.7-3s11,2,13,3.7s15.6,6.3,20.7,9s9.6,3,12,4s0.7,1.7,7.7-3
	s9.7-4,11.3-11.3s-0.3-8.3,5-10.7s10-2.7,15.7-5.7s9.9-7.7,14.1-7s13.9,3.9,17.9-0.1s11.1-6.3,14.9-6.3s26.8-7.3,30.8-9.3
	s5-1.7,12.7-2.3s9.7-3.3,19.7-3s20.2-0.3,25.2,2.3c2.5,1.2,4.9,2.7,7.1,4.3"/>
<path class="st2" d="M1406.4,584.1c0,0,7.3,5,8.3,9.6s4.7,5,12,6.3s15.7,2.7,21.3,6s11-4,17.3-2s9.7,6.3,13,8s9.7,2,17.3,2.3
	s18.3,3.7,23.7,10s4.7,11.3,13.3,16.7s3.7,6,13.7,8s15.6,3.1,16.8,5.3l1.2,2.2"/>
<path class="st2" d="M1059.3,824.8c-3.2-5.5-8.1-9.9-13.9-12.4c-10-4.5-15.5-3-20.5-9s-17.5-18-22-26.8s-3.5-13.8-7.2-19.5
	s-17.7-10.8-16.7-18.2s1-10.8-4.5-17.9s-14.6-8-16.3-14.3s-2.2-11.8-9.7-18.3s-15.5-5.8-23.5-11.7s-6.2-8-13.6-8.7h-12"/>
<path class="st2" d="M978.9,729.2c0,0-0.5-0.6,3.5-8.2s4-12.6,4-17.6s9.5-14,9.2-19s-3.8-6.5-4.2-13s0.5-10-1.5-14.8
	s-8.5-13.3-11-18.3s-3.5-7.9-2-9.7s-3-10.8-13.5-14.3s-16-6.5-21.5-11.5s-15.7-15.1-21.1-18.8s-10.9-3.6-28.4-3.4s-17.5-4.3-25-5.8
	s-10.5-3-24.5-10s-25.5-14-37-15.5s-16-4-23-6s-5.5-1.5-10-8s-11.2-25.7-14.2-32.7s-17.3-23.7-22.7-30s-13.3-21.7-15.7-30
	s-1.7-10.3-4.3-14s0-8,0-8"/>
<path class="st2" d="M747.7,500.9c0,0-6.7,0.8-11,4.8s-7.3,7.3-12.7,10.3s-8.4,2.3-9.2,11s0.8,10.7-8.5,14.7s-13.3,5-17.7,9.7
	s-4.7,3.7-10.3,11.3s-3.3,12.6-8.3,18s-9.1,3.7-15.6,7.7s-9.4,3.7-12.1,8.7s-2.2,7.7-2.2,7.7"/>
<path class="st2" d="M626,534.7c0,0,7.5,0.7,9.5,7.3s11,13.7,13.7,21s10.3,12.3,14,14.7s7,10.7,9.7,17s5,15.7,9.3,19.7
	s10.2-0.6,15.3,0s11.2,0.3,16.6,4.7s9.7,7.6,14,5.7s6.7-6.3,13.3-2s5.7,8,10.3,8s1.3-1,11.7,3.7s8.3,8.7,18.7,9.7s14,5.2,17,9.8
	s0,7.6,4.3,9.9s18.7-3,28.3,0s17.4,5.7,23.5,6s13.8-1,22.5,0s12-0.3,14.7,1.7c1.8,1.5,3.3,3.3,4.5,5.3"/>
<path class="st2" d="M619.4,748.3c0,0,3.7-2.7,2-9.3s-5.3-8.7-4.3-14.7s3.7-15.3,3.7-18s13-33,15-36.4s3.1-8.8,1.4-16.2
	s-4.2-4.9-2-13.4s1.8-10,2.9-15.7s4.9-23.7-0.8-31s-9.4-4.7-8.6-13s-1.5-16.6,0-25.6s-3.4-18-2.6-25s-1.9-9.7-5.6-16.3
	c-3.7-6.7-2.7-4.3-3.5-9.3c-0.3-2.6-1.2-5.2-2.5-7.5"/>
<path class="st2" d="M621.4,492.7c0,0,0.3-7.3-2-12.5s0-12.5,0-18.5s3.7-8.3,2-16.7s-3.7-11.3-3-19.7s-1-11.3-5.6-14.7
	s-13.3-7-13.3-12.7s1.7-12-1.7-15s-7-2.3-7.7-6.3s0-6-3.3-8.3s-6.2-2.7-6.1-7.3s2.8-10-2.6-14.3s-8.3-0.3-10.3-7s-3-10.5-3-10.5"/>
<path class="st2" d="M580.1,308.3c0,0,8.7,4.3,13.2,8s8.7,2.7,12.3,1.7s9.2,0.9,15.2,0.9s16-4.1,19.5,0s5.8,5.1,7.8,13.4
	s0.3,14,2.3,17.3s8,12.7,9.7,19.3s2,13,6.7,22.3s7.3,9.7,13,10s11.8,2,14.2,6s7.4,7.3,12.4,11s10.7,3.7,12,0s1.7-8,1.7-13.3
	s1.3-12.3,5.3-15.7s11-11,11.7-14.7s10.3-35.7,10.7-41.3s5.3-16,8.3-25s0.3-7,2.3-16.3s8.3-22.7,10-27.3s5.7-4.3,20-9
	s41.7-14.4,45.7-20.2s3.3-10.1,3.3-10.1"/>
<path class="st2" d="M778.9,421.7c-2,2.4-4.6,4.4-7.5,5.7c-4.3,1.7-63.7,2.3-71.3,2.3s-14-5.3-19-4.3s-16.3-0.3-28.7,0.3
	s-18.7,3-39.7,4s-31.7,0.7-39,1.7s-12.7-1.9-23,0.9s-38,3.1-47.3,3.1s-23-3.9-30.3-3.1s-22.3-0.5-31.3-3.7s-8.3-4.2-21.7-3.2
	s-19.7-2.3-34-1.7s-28,6-41,7.7s-33.3,8.7-33.3,8.7"/>
<path class="st2" d="M289.1,473.7c-2.8,2-6,3.3-9.3,4c-6,1.3-5.7-3-17.3,0s-44,24.2-50.7,32.1s-13.3,14.3-18.3,17.6s-10.3-2-23,12
	s-10,16.3-21,21s-21.7,7.3-25,14.7s-9.7,15.3-14.7,22s-10.3,20.3-13.3,24.3s-10.3,6.6-14,9.6s-15.1,6.4-16.7,10.7s-5,17-4.3,22.7
	s0,10,2.3,14.7s3.3,3,2.3,14.3s3,15.3,3.3,17.7c0.4,2,1.2,3.9,2.1,5.7"/>
<path class="st2" d="M308.1,787.3c0,0,0.4-56.7,0-61.4s-17.6-59.3-18.5-66s-11-47.7-11.4-54.3s-0.7-14.7-6.4-37S261.1,532,260.1,529
	s41-79.3,43-84.3s0.3-17.6,6.7-31.3s18.7-40.3,21-44.3s2.3-13,2.3-25.7s3-13.3,2.7-17.3s-4.7-9-4-24.7s1.7-24.3,0-31
	s-8.3-4.7-8-15.7s5.2-21.4,2.6-23.2"/>
<path class="st2" d="M306.7,226.7c1.8-2.6,4.5-4.4,7.7-5c5.3-1,16.7-5.7,19.7-2s3.3,3,3.1,10s1.5,9.7-3.1,12s-12.7,0.3-18,0
	s-5.3-8.3-8-13.3s-2.3,2-10.2,1.3s-105.5-5.7-115.8-6.3s-29.3-23-35-27.7s-11-5.3-21.4-7.7s-8-4-14.7-4s-16.7-1-24.7,0
	s-123,5.3-123,5.3"/>
<path class="st2" d="M234.4-1c0,0,1.3,44,0,55.3s4.7,36,0,40.3s-7.3,25.7-6.7,37.7s1.8,57.3-0.1,64s-13.2,8.7-11.9,33.3
	s-2,31.3,4,36s12,5.3,11.3,13.3s-3.3,16-0.7,22c2.7,6,8.9,26.7,9.8,34s13.6,24,23.6,38s20,33.3,25.3,41.3s20.7,24.7,30.7,35.3
	s54,59.3,62.7,61.3s7,6.3,10.7,16s7.3,18.3,7.3,28.5s2,16.6,7.3,19.4s5.3-0.6,6.7,5.7s0.7,9.9,5.3,11.8s8.7-1.8,9.3,2.7
	s13.3,17.8,20.7,19.2s13.3,8,21.3,14.3s7.3,5.7,14,9c6.7,3.3,17.9,5.3,22.6,10.7s20.9,7.3,22.8,14.7s9.8,19.3,14.8,20.3
	s7.1-2.5,10.6,3.5s5.1,6.5,8.8,9.5s10.7,4.5,11.2,7s-1.7,4.4,4.2,7.7s11.8,3,17.3,9.9s12.1,10.4,13.1,15.4s9,16.5,15.5,17
	s14.5,1,18,0s8.5,0,16.5,3.8s10.5,0.2,16,4.8s14,20,20,23.5s9.5,1.6,17,2s12,6,20,2.5s25-6.5,28-4.5s36,2.3,47.5,10.7
	s27.5,11.3,33,6.8s8.7-15.5,13.4-18s6.5,0.2,10.8,0.2s27-0.7,30.8-2.7s7.2-7,10.5-4s12.3,6.7,20.3,9.3s12.3,6.3,19.3,8s6.3,2,17-1.3
	s15.3-6,21.7-5.7s11-1.3,17.2-0.7c4.2,0.6,8.3,2.1,12,4.3"/>
<path class="st2" d="M1145.7,814.9c0,0-3.7,7.3-4,9.9s-0.3,8,2,11s-0.7,4.9-2.2,8.1s-3.8,15.2-4.5,18.8s-2.3,10.3,2.3,17.3
	s2,9.8,6.3,14.1s19.8,12,19.8,12"/>
<path class="st2" d="M1211,800.4c-2.4-3.5-5.1-6.7-8.1-9.7c-4.5-4.3-6-4.6-9.3-10.5s-4.8-9.5-13.4-10.5s-9.4-3.3-14.8-9
	s-10.1-5.8-11.1-14.5s-2.7-12.5-6.3-19.2s-21.3-19.7-23.3-24.7s-9-5.7-16.7-9s-15.3-9-24-12s-13.7-5.7-18-9s-0.4-8.7-6.9-13.3
	s-14.1-5-16.8-10s-6.3-7.7-12.3-8s-10.7,4-18.3,1.7s-24-9.3-24-9.3s-11.3-5.7-16-4.7s-5.3,4-10,5s-7-2-11.7,2s-0.3,6.7-9.3,11
	s-16.3,6.7-22.3,12.3s-7.2,3.3-7.1,9"/>
<path class="st2" d="M810.7,641.8c0,0,1.8-6.5,6.8-8.1s6.7-1,8.7-3.7s10-14.3,15.3-19.3s9.7-2,11-6s-3.7-10,0-13.7s6-3,8.3-8.7
	s-0.7-13.3,6-17.7s11.3-15,17.7-18.7s9.3-4,9-11.3s-2.3-17,0-20s22.6-17.7,24.6-20s1-14.3,0-23.3s-5-22-5-30.3s1.7-20.3,0-25.7
	s-5-9.4-11-13.4s-9-8-9-13s2.7-1.3-2.3-13s-5.3-12.6-12-16.6s-20.1-12.7-20.1-12.7"/>
<path class="st2" d="M923.7,428.8c0,0-1-3.4,1.7-4.1s1-1,2.7-4s2-7,4.3-7.7s3.7-0.3,4-4.2s3.7-4.6,6.7-5.7s5.7-2.1,5.7-4.5
	c0-2.2,0.7-4.3,2-6c1.3-2,8.4-9.7,7.4-12s3-5,3-6.3s-1-6.7,2-8.7s5-2.7,5.3-6.7s1-6.3,2.3-8.3s5.7-8.3,9-9.3s11.5-2.7,15.9-6.3
	s4.8-5.6,12.4-5.8s27.7-1.2,30-3.2s12.4-1.7,15.2-5.3s4.3-3.1,9.1-6.2s4.1-7.8,12.4-13.5s5,1,8.3-5.7s-1-12.3,3.7-18.7
	s4.6-7.6,4.6-13.3s-1.7-9.7,3-11.7s4.3,0.7,7.7-3.3s3.7-7.7,8-7.7s3.3,3.3,9.3,0s7.7-8.3,12-11s10.7-6.3,13.3-11s3.3-13,8.7-11.7
	s7.7,2.3,13.3,0s9.7-5.7,15-6c2.4-0.2,4.9-0.2,7.3,0"/>
<path class="st2" d="M1193.7-1c0,0,0.2,23.3,0,26s3.8,5,3.8,9.3c0,2.3-0.3,33.8,0,35c0.7,2.7,2.3,2.2,3.3,7.3s0,7.4,0,7.4l0.4,2.7"
	/>
<path class="st2" d="M1197.3,54c0,0,1.1,1-5.2,0s-11.7-1-16.7-1.3s-13.3-2.3-17-5.3s-4-3.9-15-4.5s-19.7-0.1-23,0s-5.3-2.5-7-4.2
	s-13.7,0.3-16.7,0s-102.2,0.9-114.1,0.9s-23.8,0-23.8,0"/>
<path class="st2" d="M958.8,32c-3-0.2-6.1-0.2-9.1,0c-5.7,0.3-24.7-0.3-30.5,0c-5.8,0.3-17.8-0.1-24.5,0.1c-6.7,0.2-22.3-0.2-24.7,0
	s-2-0.5-2.1-8.1s-0.5-30.3-0.5-30.3"/>
<path class="st2" d="M1095.4-2.7c-0.4,2.7-0.4,5.3,0,8c0.7,3.3,8-1.3,11.3,2s7.3,11.7,14,12.3s75-0.7,78.3,0s4-11.3,18.3-12.7
	s32.3-13.3,32.3-13.3"/>
<path class="st2" d="M1639.1-1c-2,2.2-2,5.5,0,7.8c3.3,4.2,4.3,5.6-1.5,8.6s-15.8,4.3-18.5,11.3s-7.7,8.3-8.7,11.3s0,0.4-3.7,4.9
	s-10,7.1-16.7,9.8s-5.8-1.8-12.7,7.5l-6.9,9.3"/>
<path class="st2" d="M1414.1-1c0,0-0.7,1,0,4.3s-5.7,4-4.7,12.7s3.3,55.2,2.3,60.6s0,4.2,4.4,10.1c4.4,5.9,5.7,6.9,5,11.9
	c-0.7,3.7-0.6,7.6,0.2,11.3c0.8,4.3,0.8,8.7,0,13c-0.8,5,5.2,11.3,5.2,11.3"/>
<path class="st2" d="M1489.7-1c0,0,3.7,6,0,12s-8.7,5.7-10.7,11.3s-9,10-11.7,17.7s-9.3,14.3-13.3,22s-6.3,9.3-7.7,19s-1,10-7,17.7
	c-5.5,6.9-11.4,13.4-17.6,19.7c-3.7,3.7-7.4,1.7-7.1,7.7s0.4,11.7-5.4,17.7s-13.6,8.3-18.2,18.7s-5,11-3.3,18s2,10.3-3,14
	s-15.3,12.7-15.3,12.7"/>
<path class="st2" d="M979.3,629.9c0,0,4.1-1.6,3.3-8s-3.2-9.8,0-16.1s4.2-16.9,4.2-21.6s-6.6-10.2-2.8-15.7s5.3-11.4,2.8-18.4
	s-3.6-14.7-2.8-19.1s1.8-12.4,4-16.4c2.2-4-2.1-9.8,0.6-15.7s1.8-12.7,4-18.5s3.3-16.3,8-23.3s3.7-23.3,16.2-26.2s31-6.7,32-10
	s6-4.8,12.2-5.3s25.2-8.6,28.2-4.3s2,6.4,9.2,6.6s9.8,0.2,17.8,3.4s14,5.4,19.5,4.6c3.2-0.5,6.5,0.7,8.7,3.1"/>
<path class="st2" d="M1113.4,568.3c0,0-9.5-1-14.8,0s-11.2,2.5-19.7-3.5s-13.5-6.1-17.8-9.3s-6.4-15.7-4.8-18.7s-0.8-13.5,2.9-19.7
	s7.2-9.2,7.2-16.2s-1-12.1,1.5-18.6s5.2-19,6.8-26s-2.3-9.7-2.3-15.3s6.4-8.7,2.3-18.3s-0.7-16.8,0-19.5s4.2-13.8,5.7-22.3
	s7.4-20.5,3.2-28s0.3-15-5.7-21.5s-9.5-9.7-9.5-9.7s0.5-9.3-3.5-16.8s-13.3-18.5-11.6-23.8s6.2-15.2,5.9-22.2s-2.5-58.5-2.9-67
	s2.9-25.3,0-26.6s-2.1-14.7-3.2-21.5s-2.3-21-2.3-21"/>
<path class="st2" d="M982.7,621.8c0,0,9.2,0.5,13-1.5s2.7-4.5,10.7-9.5s5-10.2,8.5-13.9s3-4.6,8.5-7.6s5-10.4,9-14.4
	s8.5-18.7,15.5-19.4c6.3-0.5,12.3-3.4,16.5-8.2c4-4.5,4-7.8,6.5-12.7s4.8-4.3,10.2-6.8s18.3-8.8,20.8-11.6s5.5-4,9.5-5.2
	s15-7,16.5-8.3s12.3-3.2,16.7-4s16.8-9.8,21.8-14.3s8.6-4,8.8-10.5s3.7-10,7.7-13.5s8-7.5,14.3-10s8.4-6.8,8.4-6.8"/>
<path class="st2" d="M1077.5,598.5c0.7-3.2,0.7-6.5,0-9.7c-1.1-5.5-3.1-6.4-8.6-13.9s-7.9-7.6-9.7-12.6c-1.1-2.9-1-6.1,0.1-9"/>
<path class="st2" d="M1316,560.5c0,0,9.4-1.9,12.9,0s21.6-11.1,26.5-15.1s20.7-28,25.3-28.2s9.3,1.2,16-3.8c6.7-5,28-38.7,30-40
	s7.3-4.7,11.3-10c3.2-4.5,5.2-9.8,5.7-15.3c0.3-3.7-5-7.3-3-14.3s4.7-14.3,9.3-16s12.7-10.4,15.3-14.5s6-17.5,8-21.8
	s0.2-24.8,0-30.7s-2.2-11.3,0.9-16.7s3.7-7,3.1-15.3s-3.2-21.7,0.2-29.7s2.1-12.3,5.4-15.7s6.3-6,10.7-6s9.3,4.7,11.3,0
	s2.7-3.3,3-13.3s0.7-10.7,2.7-16.3s1.7-13.9,1.7-13.9"/>
<path class="st2" d="M1457.7,222.7c-1.6,6.4-4.1,12.6-7.3,18.3c-5,8.3-6.7,10-9.7,13.3s-7.7,7.3-10.3,7.7s-6.3,0-10.7,3.7
	s-5.7,15.3-15.7,21.3s-17,11.3-20.3,13.3c-1.8,1.1-3.7,2.1-5.7,3"/>
<path class="st2" d="M1388.7,188.7c0,0,6.9,7.7,9.5,10.7s8.7,9.7,11.1,11.7s4.7,3.5,4.9,12.8s2.5,20.6,2.2,23.6
	c-0.2,1.6-0.6,3.2-1,4.8c-0.8,2.7-1.2,5.5-1.2,8.2c0.2,4.3-2.9,25.3,0,28.3s4.5,13.3,5.5,18s5.3,9.7,3.7,14s-4.7,9.7-7,15
	s5.3,3.7-2.2,13s-1.4,14.7-8,15s-16.2,0.7-21.2,5.3s-8.3,6.7-11.3,11.7s-3.8,7.1-6.8,11.5c-1.8,2.8-3.2,5.9-4.2,9.1"/>
<path class="st2" d="M2385.7,3.3c0,0,1.3,5-5,9.7s-10,11-15,11.3s-6.3-4-11.7,0s-8.7,14.7-12.7,15.7s-8.3,5.3-13,7.3s-6,5.3-9,11.7
	s-4,11.3-6.3,12.7s-1.7,2.3-4.3,4s-5.7,3-8,6.7c-1.2,1.9-2.5,3.7-4,5.3c0,0,2,7.3,1.7,11s3.7,7.7-1.7,9.3s-7.7,3.7-8,9s0,18.7,0,22
	s2.3,12.3,2.3,17c0,5.2,1.5,10.3,4.3,14.7c3,4.3,3,14.3,3,14.3s-3.7,11.7-7.7,17.7s-7,6-7,13.7s0,6-0.7,10.7s1.3,8.7,3.7,14.7
	s6,11.7,6.7,17c0.7,5.3-4,14.7,1.7,17.3s11.7-0.3,14.3,2s6.7,2.7,6,7.3s-3,18.3-3.7,22s2.7,9.7,1.3,11.3s-2.3,7.3-4.7,9.3
	s-15,0.7-15,2s0.3,5.7,4.7,6.3s6.7,3,7.7,8s2.7,19.3,7.3,30s7.7,16.7,11.7,15.7"/>
<path class="st2" d="M2415.4,238.7c0,0-6.3,3-7,7s-3.3,18.7-6,24.3s-3.7,7.7-4.3,15s5.7,14.3,0,22.3s-6.7,15-7.3,19.7s0,9.3-3,14.7
	s-5,13.3-8.7,16.3s-12,11.3-13,17.7s-3.3,11.3-9,17s-10.3,4.3-12.7,11.3s-6.7,14-6.3,18.7s2,8.7,2,13s4.3,3,3.3,11s-3.3,9.7-2,16
	c1.3,7.6,1.9,15.3,1.7,23c-0.3,4,5,15.3,2.3,20s-5,7.7-4,15.3s-2.3,9.7,0.3,13.7s10.3,15.3,9.3,18.7s1,5,2.7,11.5s4,12.2,3.3,15.5
	s0.3,3.7,4.7,10s4.7,4.3,4.7,12.3s-2,36.3-1.3,37.3s6.7-1,10.3,3.7s2.3-4,6.7,9s11.7,20.7,9.3,24.3s-6.3,2-2.3,9s10,12.7,13.3,16
	s11,4.7,13,6"/>
<path class="st2" d="M2409.4,945.3c0,0,2.3-5.7,2.3-7.8s-1-3.5-7.3-8.8s3-13,0-17s-9.7-2.3-14.3-3.3s-13.7-9.3-14.7-12.3
	s-16.3-26-17.3-32s-3.7-8-8-11.7s-10.7-7-20-8.7s-12.3-2.7-17-6.3s-3.7-7-11.7-7.7s-17-4-18.3-9.3s-2.3-11-6.7-14.7s-9-2.3-12.3,0
	s-6.3,7.7-15.3,3.7c-7.7-3.3-14.6-8.2-20.3-14.3c-5-5.3-9.7-18.7-14.3-22.3s-4.7-5.7-10-5.3s-6.7,4.3-11.3,4.7s-13-2-19.7,0
	s-15,4.3-20.7,5.7s-9.3-2.3-15.3,1.7s-6.3,5.7-12,6s-6.7-0.3-11.3,2.3s-5,3.7-11.3,4s-11.7,1-18.3,3.7s-4.3,4.3-14.7,5.7
	s-17.3,1-18.3,2.3s-4.3,1.7-11.3,2s-11.7-4.7-15-1.7s-5,6.7-10.3,10.7s-10.7,7.7-16.7,7.7s-13.7,1.3-16,4.3s-6,4.3-10.7,7.3
	s-8,6.3-13,6.7s-14.7,4.7-23,5.7s-6.7-0.7-17.3,3s-10.7,5.6-13.3,7.3s-5.3,8.3-16.7,4.7s-11.7-6-15-11.3s2.3-3.3-7.3-11
	s-12.3-15-19.7-17.3s-6.3-2-10.7-7.3s-6-7-12.7-8.3s-11-2.7-11-2.7s10.3-2,14.3-5.7s4.7-10.7,7.7-14s1.8-5,6.7-11s7.6-9.3,9.9-15.3
	c1.1-3.1,2.5-6.1,4-9"/>
<path class="st2" d="M2417.7,582.3c0,0-1.7-2.7-6-2s-1.3-0.3-6.3,2s-4.7,2.7-10.7,1.3s-3.7,0.9-8.7,0.8s-5.7,0.9-9.3-2.1
	c-2.3-1.9-4.3-4.2-6-6.7c0,0-2-7.3-7-8.3s-10-2.5-10-2.5"/>
<path class="st3" d="M2214.5,757c0,0-10.4-7.2-11.8-10.7c-1.3-3.5-10.8-6.5-16.3-8.5s-13.7-14.5-21.3-19.8s-21.7-12.7-26-18
	s-5-3.3-10.3-7s-7.7-4.3-9-8s-4-8-6.3-12s-10.7-19-15.5-21.3s-10.2-5.3-13.8-10s-7-9.3-16.7-13.7s-26-9.3-30.3-15.7
	s-9-6.3-12.7-12.7c-2.9-5.4-4.7-11.3-5.3-17.3c-0.3-3.7-3.7-8.3-2-11.7s0.7-7.3,0.7-9.7s-3-7-5-9.7s-4.7-3.7-9.3-6.7
	s-14-6.8-15.7-13.9s-16.3-26.8-24-35.1s-18.8-13.1-17-15.3s3.7-10.5,4-13.1s-0.7-9.6-2-13.9s-2-12.3-2-12.3c1.1-4.3,2.4-8.5,4-12.7
	c2.7-7,1.3-12.3,2.3-19s3.7-10.7,3.3-16.7s15.7-82,16.3-86s11-22.7,10-29s-4.7-13.7-8.3-17.3s-7-4.7-5-7.3s3-1,2.3-6.3
	s1.3-18.7,3.3-25.3s2-12.3,4-14.7s3.7-4.3,7.3-5s7.7,0,10.3-3s3-13,6-13s4,5.3,7.7,0s8.3-10.7,11-14.7s11.7-15,17.3-15.7
	s22-7.7,24-7.7s2.7-4,4.7-8.7s5.3-9.3,7-15.3s0-10,4.7-15.3s6.3-8,6.7-9.7s-2-20-3.7-23s-9-7.3-11.3-10c-2.3-2.7-8.7-6.7-8.7-12
	s-3-3.7-1.7-9s2-7.3,7-8.7s7.3-5.7,9.7-8.3s1.7-9.3,5-12s3.7-2.3,3.7-8s-0.3-8.7-0.3-8.7"/>
<path class="st3" d="M2187.7-1c0,0-2.3,1,0,3s2.3,3,2.3,5s-1,3.7,0,7s3.7,5.3,4.3,8.3s2.3,5.7,3.7,9s4,4,7,6.7s7.3,11.9,7.3,11.9"/>
<path class="st3" d="M2130.7,26c0,0-0.7-2-4-3s-6.7,0-7.8-3s0.2-3.7-5.5-4.7s-9.3,1.3-13.3,0s-5.4-2.7-10-3s-4.8,1-9.6,1.3
	s-6.1-2.8-8.1-1.3s-4.3,0.7-8,3.4s-9.7,3.3-9.7,3.3h-9c0,0-11.7,4.3-13.3,5.5s-10.7,7.5-10.7,7.5s-7,1.3-10.3,4.3s-8,2.7-10.7,4.7
	s-9,8.5-11.7,8.9s-10-1.8-12,0s-5.7,5.1-6.7,8.8s-4.7,10.7-3.7,15s3.7,8.7,3.3,13s1.3,9-1,12.7s-3.7,7.3-10.7,10.3
	s-9.7,8.3-13.7,11.6c-3.8,3.1-7.5,6.5-11,10c-5,5-6.7,3.3-6.3,8s6.6,3,0,6s-9.6,1-10.3,5s-5.7,6.4-3.7,6.9s7.3,1.4,6,4.1
	s-4.7,1-3,7.3s3,15,1.7,17.7c-1.2,2.4-1.1,5.3,0.3,7.7c1.3,2.3,4.7,7.7,7.3,7.3s4.3,0.7,4.3,3.3s-1.7,7,0.3,8.3s4.1,8.4,4.1,8.4"/>
<path class="st3" d="M1978.1,200.7c0,0-7-2-9.3-4.8s-1.7-2.5-3.3-6.2s-2.7-1.7-5-5.7s-4.7-7.3-4.7-9.3s1-1.7-1.3-6s-3.3-4.7-6.3-5.7
	s-3.3-3-5.7-2s-4.3,1.1-6-0.3s-2.3-9.4-3.7-11.7s-2.9-4.9-2.9-4.9"/>
<path class="st3" d="M1917.5,191.8c0,0,0.7,4-4.6,4.9s-9.2,1.3-10.5,3.9s1,4-4.3,4s-11.7-1.7-15.7,0s-4.7,3-8,4.3s-4.3,4.3-11,2
	s-9.3-3.3-14.3-2.7s-8.7,1.7-13.9,0.3s-10.1-2.7-12.8-4.7c-1.6-1.2-3.3-2.3-5-3.3"/>
<path class="st3" d="M1817.4,195.8c0,0,0.7,6.8,0,8.8s0,12.3,0,15.3s2.1,1-0.3,7.7s-1.7,11-3,14.3s2.1,8.7,2.1,8.7s-2.4,11-2.4,13.7
	s1.2,6,2.2,9s1.7,2,1.4,6.3c-0.3,3.2-0.8,6.5-1.4,9.7"/>
<path class="st3" d="M1828.9,53.7c0,0,9.1,0.6,10.8,2s6,1.3,7.7,2s8.7,2.7,12.3,0s11.3-4,11.3-4s11,3.3,13.3,5.3s5,7.7,3.3,8.7
	s-5.7,3-5.3,4c0.6,1.4,1.4,2.8,2.3,4c1.4,2.1,3.4,3.9,5.7,5c2.5,1.2,4.5,3.3,5.3,6"/>
<path class="st3" d="M1973.3,53.7c0,0-15.1-0.4-20.8-1.4s-7-4.8-12.4-2.4s-6.7,5.5-12.3,3.8s-7.1-2-10.2-2s-6.4-1-9.4,0
	s-11.3,2.8-12.3,2s-0.6-2.3-3.6,0c-2.1,1.8-3.8,4-5.1,6.5"/>
<path class="st3" d="M1888.4,243.6c-0.2-2.3-0.2-4.6,0-6.9c0.3-3.3,2-4-1.3-8.3s-7-7.7-9.7-11s-10.2-9.7-9.9-13.7s0-14.3,0-19
	s1-11.3,0-16s-3.7-3.7-3.7-9s-2.1-11-1.4-18.3s-2.9-18.7-4.3-21.7"/>
<path class="st3" d="M1829.2,116.7c0,0,7.5-1.7,13.2,0s15.5,5.5,19.9-0.7s5.8-11.3,11.3-10.9c5.5,0.3,5.5,0.7,9.5-2s3.1-2.7,9.1-3.7
	s10.3-3,10.6,0s0.7,5,0,7.7s1.3,5,2.3,7.3s3.3,8,3,10.3c-0.5,3.8-0.5,7.6,0,11.3c0.6,4,1.6,3.9,2.3,8.1s3,13.1,3,13.1s-4.3-0.1-6,0
	s-7.3,0.4-9.3,1.4c-1.9,0.9-3.9,1.7-5.9,2.3c-3.7,1.4-4.7,3.4-11.4,3.4s-4.2,1-9.4,0s-5.8,0.4-5.8,0.4"/>
<path class="st3" d="M2010.7,160c0,0-1-0.3-5.3,0s-0.3,0.7-8.7-0.1s-13,2.5-15.3,0s-5.7-4.2-6.3-6.5s-1.7-4.3-5.7-5s-9.3-3.3-10.3-6
	s-4.3-3-10.7-3s-28.1,1.3-30.9,0s-8.4,2.7-13.8,0s-11.7-5-18-5s-9.8,1-14.4,1.3c-3.1,0.1-6.1-0.3-9-1.3"/>
<path class="st3" d="M1959.1-2.7c-0.9,3.1-1.5,6.4-1.7,9.7c0,4,1.7,10.3,1.7,10.3s8.7,3.7,10.7,5.7s5.7,8.8,7,11.2s7,6.5,7.7,7.5
	s1.7,10.7,4,12s7.7,4.3,10,6.5s9,4.5,9,4.5s9.3,5.7,13,7c3.7,1.3,7.7,0,11,4s9,5.7,12.7,6s10.3,2.7,12.3,5s0.7,5,6.3,6
	s5,3.7,8.7,3.7s3.9,3,9.1,2.7s6.9-3.9,10.6,0c3.7,3.9,0.7,7.3,3.7,9.3s4.7,1.7,7,4.7s3.3,7.3,7.3,6.7s15-2,18.7,0s11.7,2,13,3.7
	s2.3,4.7,7.3,6s11,1.5,15.7,1.9c2.3,0.3,4.7,0.3,7,0"/>
<path class="st3" d="M2133.8,40c0,0,4.6,4.5,5.6,7.5s0.5,4.3,1.8,5.8s2.7,3.8,2.7,4.8s-1.7,3,0,4.3s1.8,2,3.8,3.7s1.3,1.8,2.3,4.2
	s1.8,5,3.3,5.3s2,2.8,1.8,4s1,8.7,2.7,10.5s4.3,2.8,3.8,5.5s1.2,5.3,2.3,7.5s7.3,12.7,7.3,13.5c-0.3,2.2-0.3,4.3,0,6.5
	c0.5,3.3-1.3,10.2-0.7,11.2s3,3.8,2.5,5.2s-1.5,5.3-2.5,7s-14.3,17.8-15.1,21.3s-1.3,29.2-1.3,32.8"/>
<path class="st3" d="M2417.1,208c0,0-5.7-3.4-7.7-6.2s-4.3-4.9-4.3-10s-2.7-20.6-3.3-27s-9.3-19.8-13.3-25.8s-3.3-14-13-19.3
	s-25.3-15-29-17.3s-3-12.3-8.4-13.3s-8-1-13-4.3s-4-4-10.7-5s-14.3-2.7-17.7-2.7s-5.7-1.3-8,0s-0.9,6.7-5.8,9.7s-13.2,17.3-18.9,21
	c-5.7,3.7-5.7,4.3-6.3,9c-0.7,4.6-2.7,27.1-4.7,30.9s-8.7,13-13,13.2s-9.7-1.9-13.7,0s-6.2,1.8-11.9,4s-15.4,6.5-16.7,10.5
	s-3.3,5.3-8,9.3s-5.7,5.9-14,7.1s-24,9.2-26,12.9s-5,7.7-8,12.3s-4.6,15.3-8,15.3c-3.4,0-7.7-0.3-10.7,1.7s-11.7,3.3-13.3,7
	s1.3,7.7-4,9.7s-15,3.7-19.3,10s-2.7,8-7.7,8.7s-8.7-4-11,0s-4,6.2-8.3,11.8s-3.7,4.9-4.3,10.6s0.7,7.3-3,8.3s-14.7,0.7-18,3.7
	s-28.3,25.3-29.3,28s-2.3,34-2,37.3s3.3,5.7,3.3,12.7s1.7,12.7,1.3,14.3s5,18.1,7,21.4s7.2,14.3,7.4,19.6s-1.4,11.3,2.9,17.3
	c2.6,3.4,3.8,7.6,3.6,11.8"/>
<path class="st3" d="M2037.1,466.2c0,0,3.3,13.5,0,17.2s0.6,11,1.5,13.3s3.9,24.7,3.5,32.3s-1.3,35-1.3,39s-11.7,29.3-16.3,31.7"/>
<path class="st3" d="M1957.8,480.3c0,0,1.7-2.1-3.4-4.4s-10.7-6.7-14.7-2.7s-3.3,6-8.7,12.3s-4.3,7-3.7,11.7s0.7,8.3,6.7,8.3
	s6.3-1.3,12.7,0.7s5.7,4,8.3,3.7s6.1-5.3,7-12S1957.8,480.3,1957.8,480.3z"/>
<path class="st3" d="M2028.4,464.7c2.1-1.6,4.5-2.8,7-3.7c4-1.3,3-1.3,8.7,0c5.7,1.3,5,1.6,12.7,5.1s11.7,2.9,9.3,7.2"/>
<path class="st3" d="M2080.5,426.3c0,0-3.1-0.3-6.8,3.3s-5.3,3.3-11,10.3s-2,7.3-11.3,11.7c-9.3,4.3-12.9,5-12.3,8.3"/>
<path class="st3" d="M2036.7,382.3c0,0,3.4,10.3,5.4,13.7s4,6.7,8.3,7.7c4.3,1,8.7,1.7,11,4.7s2.3,4.3,5.3,5
	c3,0.7,69.7,4.8,73.3,4.1c3.7-0.7,6-8.1,8.3-6.7s8,1.3,11.7,1.3s10,0.3,12.7-1.7s1-5.7,5.3-6.7s5-4,6-7s6-7,10.3-9.3s5.3-5.7,5.3-11
	c-0.1-3.7-0.5-7.4-1.3-11"/>
<path class="st3" d="M2170.4,337.7c0,0,4,2.7,4.7,6.7s4.7,10.3,4.7,14.3s-1,7.7-2.7,9.7s-1.7,6.7-2,9.7c-0.2,2.2-0.2,4.4,0,6.7"/>
<path class="st3" d="M2185.1,384.7c0,0,2-1.3,0-6.7s-2.7-12-6.3-12.7"/>
<path class="st3" d="M2165.7,386.3c0,0,19.7-5.3,23.7,0s6.3,11.3,10.3,13c4,1.5,7.5,4,10.1,7.3c2.5,3.3,4.6,5.3,4.6,7.7
	c-0.1,2.3,0.7,4,0,7.3c-0.7,3.3-0.4,3.7-2.4,7.3s-5.7,10.7-8.3,12.3s-0.7,7-4,9.7s-10.9,9.3-13.8,9s-6.6,4-9.2,6.1
	c-2.7,2.1-4.7,5.5-6.3,10.2s-5.3,6.7-8.7,8s-6.7-1.7-12-2.7s-2.7,0.7-10.3,0s-7.3,1.7-12.7-1.7s-1-3.3-7.8-3.7s-13.5-4.8-17.2-9.1
	s-7-4.6-7.7-9.9s-1.7-6.7-3.7-10.3s-5-5-5-8.7s-6-11.7-6.3-15.3s1.7-4.9,3.7-5.6s3.3-2.4,2.7-5.7s-6.4-9.3-6.4-12.7
	c0-3.3,2.7-6.3-1.6-11.7c-4.3-5.3-11.7-10.7-10.7-17c1-6.3-8.7-18.3-8.3-24.3c0.3-6.1,0.3-12.2,0-18.3c-0.3-4.7-6.7-10.7-6.7-14.7
	s-4.7-16.3-6-21.3s-5.1-7.3-6.7-9.3s-2.7-9.7,0-15.3s-2-12.3-1.6-18.7s1-12.7,1.6-17.7s-1.7-13.3-5.3-20.3s-1.7-4.7-6.7-8.5
	s-7.7-11.5-7.7-16.5s-1.7-23.7-4.3-24.5s-6-0.8-7.7-7.1s1.3-11,0-16.7s-3.3-7-6.7-12.3s-7.7-11.7-16-15.7s-27.3-1-29-6
	s1.3-5.7-1.7-12.7s-2.7-6.3-3.7-12.3s-3.9-7.8-3.9-7.8"/>
<path class="st3" d="M1893.7,97.8c0,0,3.3-5.4,2-7.4s1.7-9,5.3-10.3s10.7-1,14.3-4.3s11-3.6,18-5.5s14.7,0.5,17.7,0
	c3-0.5,7.3-4.2,10.7-4.2s12.3,2,15.3,1.7s9-3.6,15.3-3.3c6.3,0.3,10.3-2.1,15-4.2s8.3-0.8,9.7-2.2s-4-9.3,0-10.3s10.3,0.3,14.7,0
	s10-0.4,10-0.4s7.3,3,10.3,4.4s13-0.5,16.7-1.8s11.3-1.7,17.3-2.6s8-3,16.7-1.6s14.3,2,14.3,2"/>
<path class="st3" d="M1971.7,246.7c0,0,17-2,21.3-2s4.9,2,9.6,4.3s8.1,6.3,10.7,7.5s7.3,1.5,10.3,3.5s14.2,9.6,14,11.3"/>
<path class="st3" d="M2091.1,415.2c1.9-2.1,3.5-4.4,5-6.8c1.7-3,2.3-4.7,6.7-5s7,0.7,10.3-2.7s7.3-10.5,11.7-10.6s8.1-0.1,9-2.1
	s14-17,16.6-20.7c2.6-3.7,10-22,13-25s9-2,7.3-9.7s-4-15-3.3-18s-1-12.3-5.7-17.7s-8.3-9.3-13.7-13.3s-8.7-7.4-9.3-12.4
	s-0.9-12.9-5-18.3s-8-1.3-6.7-8.3c1.3-7,3-15,0-17s-4.8-1.8-10-6.2s-5-6.8-9-6.8s-4.3-2-6.3-4.3s-8-4.3-8-6.3s1.3-4.3-2.7-5.3
	c-4-1-4-1.6-8-1.9s-7.7,1.1-10.7,0c-3.2-1-5.4-4-5.3-7.4c0-3.7,0-7.1-3-8.2s-0.6-4.8-5.6-4.1s-4.3,4.2-7.3,4.1s-5.3-4.3-9.3-4.2
	s-5-0.4-10.7,0c-3.9,0.1-7.8-0.6-11.4-2.1c0,0,1,2.8,2.2,6.3s-1.9,4.2,0,7.2s4.6,4.7,4.2,7.5s-3.5,4.1-4.2,6s-0.2,4.8,0,8.2
	s1.6,6.3,1.6,9s-0.1,6-1.6,8.7s-6.1,2-6.8,6.7s0,10.3,0,14.7s-2.3,8.7-2,12.7s1.3,5.6,0,9.6s-5,6.9-4.3,9.8"/>
<path class="st3" d="M2150.9,13.8c0,0,1.8,3.2,0,8.2s-4.2,4.7-4.8,9.3s0.3,9-4,8.7s-11-1.3-11.3,3.7s-4.3,11.7-7.7,16.5
	s-1.7,9.9-10,10c-8.3,0.1-5.3-1.6-10.7,1.3s-7.7,7.2-10.7,4.2"/>
<path class="st3" d="M2145.2,38.3c0,0,4.1,5,8.4,4.6s6.9-3.6,9.9,0s1.3,6.1,5,6.9s18.3,0.4,22,1.8s13.1,0.4,18.1,2s11.6-0.7,13.9-2
	c2.3-1.3,14.3-2.3,26,2s17,5.3,21.3,9c4.3,3.7,5.6,5,7.5,3.5"/>
<path class="st3" d="M2210.6,58c0,0-1.8,0.7-2.2,3.7c-0.4,3-1.4,2.4-4.4,2.7c-3,0.3-7.3,4.6-9.7,5.8c-2.3,1.1-7.1,1.8-7.7,5.5
	s-0.1,5.3-4.4,7.3c-4.3,2-2.9,3-5.9,4s-11,1.3-10.7,4.3s-4,4.3-4,4.3"/>
<path class="st3" d="M2173.2,139.5c0,0,6.5,2,5.5,4.6s2.6,5.2,3.6,6.9c1.1,1.7,0.6,6,3.8,8c3.2,2,10.9,5.7,15.5,6s12.7,4.1,15,7.4
	s7.3,4.9,11,4.9s5.7-1.3,10.3,0s9,7.3,10.7,9.7s4.3,2.3,7.7,2.3s11.7,5.7,13,9s3.2,3,4.9,5c1.7,2,7.8,5.7,8.6,9.3l0.8,3.7"/>
<path class="st3" d="M2118.9,118.7c0,0,2.5,6.7,2.8,10.7c0.3,4-0.7,6,0,10.2c0.7,4.2,3.3,6.8,3.3,9.5s-2.3,5.3,0,8.7s6.3,8,5.7,11
	s1.5,12,0.1,15.7c-1.4,3.7,1.6,6,3,9.7s0.4,7.3,0,11c-0.3,3.1,1,6.2,3.3,8.3c1.7,1.3,4.7,3.7,4.7,3.7"/>
<path class="st3" d="M1969.5,207.8c0.6,1.5,2.2,2.4,3.8,2.2c2.8-0.3,7.2-1.9,9.5,0s5.7,0.7,8.7,1.8s10.3-0.9,13.3,2.1s0.7,5.3,6,5
	s14.3-3.8,16,2.4s12.3,2.6,14.7,3.9s10.7,6,15.7,6s3,3,9.7,3.7s12-1.3,15.7,0s9-2.3,16-2s8.7,1.7,13.3-0.3s1.9-2.8,7.2-4.7
	c5.3-1.9,8.3-1.3,11.4-1s9-4,14.9-2.7c5.9,1.3,10.2,2.3,12.6,5.3s4.7,3.7,8,3.7s5.7,0.7,9.3,3s11.3,2.7,15,2.3s10.3-2.7,14.7,0
	s13,3.7,15.3,8s4.7,5.9,6.3,11.3s2.3,7,7.7,7s14.7-3,17.3-2c1.4,0.5,2.8,1.2,4,2"/>
<path class="st3" d="M2417.1,216.3c-3.1,1.1-6.4,1.9-9.7,2.3c-5.3,0.7-7,2.3-10.7,0s-6.3-2-7-6s-1.7-5-2-7s-1-1-4.7,0s-8-1.5-10,2.1
	s-2,2.6-7.7,4.4s-8,4.1-15.7,4.1s-15,0.7-18.7,0s-10.7,0.3-15.7,0s-7.3,2.4-11.7,3.5s-14.7-4.5-15.7,0s-3,7.1-8.3,6.1
	s-11-5.5-16.3-4.6s-15.3,1.9-18.7,3.2s-2,6-7.3,10.3s-9,10.3-12.7,9.7c-2.1-0.4-4.3-0.4-6.4,0"/>
<path class="st3" d="M2283.7,233.7c-1.8,3.2-4,6.1-6.5,8.6c-3.8,3.7-0.8,3.7-4.5,9.3c-3.7,5.7-3.7,7.7-8.3,8.3s-11,6-11.7,9
	s-5,5.9-8.3,8.4s-12.3,7.2-14,11.2s-0.7,11.7-5.3,14s-13,8.3-22,8.7s-7.6-3.3-17.1,0c0,0-17.8,8-21.9,7.3"/>
<path class="st3" d="M2215.8,73.3c0,0,5.6,0,8.1,0s6.8-2,6.5,2.4s-2,5.3,0,8.3c2.1,3.5,3.3,7.6,3.3,11.7c0,4,0.3,13.3,3.3,15.3
	s6.3,4.7,6.3,9.3s2,13,5.7,14s9.3,0.7,12,5.2s4,5.8,7.3,12.2s3.3,13,8.8,14.3c5.5,1.3,5.8-0.3,10.2,2.7s10.3-4.4,16-3.9
	s10.6-0.8,14.3-1.4c3.7-0.7,8.4,1.4,8.4,1.4"/>
<path class="st3" d="M2300.7,82.3c0,0,1,11.2,1.3,15.4s5.3,23.2,8,27.9s9.7,13.8,10,21.9s0,15.7,0,15.7"/>
<path class="st3" d="M2264,144.1c3.4-1,6.9-1.8,10.4-2.4c4.4-0.7,12.4,2.5,18.4,2.4s12-2.2,15.7,0s10.3,0,15-2.5s6-8.2,12.3-7.2
	s26.7,4,30.7,3.3s7.7-0.2,12-3.4s5.3-3.7,15-2.8s17.3-3.7,22-0.4"/>
<path class="st3" d="M2296.7,189.8c2.1,0.3,4.2,0.9,6,2c3.7,1.9,4.1,2.6,7.7,2.9c3.6,0.3,1.8-0.6,7.2,2.1s6,3.6,10.4,5.1
	s7.9,3.8,12.1,7.5s8.2,7.3,10.2,10.7s1.3,4.2,6.3,4.6s4.3,1.4,9.3,6.1s7,6.7,17.7,8s13.7,3.2,18.7,3.9s6,3.1,6,3.1"/>
<line class="st3" x1="2327.4" y1="150.7" x2="2349.1" y2="172.4"/>
<path class="st3" d="M2339.7,207.8c0,0,1-7.3,4-11s3.7-4.1,3.7-9.4s-0.3-12.7,5.2-19.5s9.9-8.5,15.9-9.2s4.6-1.3,8.3-5
	c3.7-3.7,4.2-5,9.1-3c4,1.7,8.1,3.2,12.3,4.4c3.2,0.9,7.9,1.9,10.2,0.6c2.7-1.5,5.1-3.5,7-5.9"/>
<path class="st3" d="M2091.1,198.7c0,0-4,5.9-5.7,9.1c-1.7,3.2,0,6-1.3,10s-4.1,8.9-3.6,11.9c0.6,3,2.9,6.7,1.6,9
	c-1.3,2.3-4.7,6.3-3,9.7s1.2,9,1.6,11.7c0.4,2.7,2.4,8.7,2.4,13.3s3.3,7.7,13,14s10.3,7.6,10.3,7.6"/>
<path class="st3" d="M2104.4,313.6c0,0,3-5,2-10s-1.7-10.3,3.3-10.7s23.7-1.3,26.3-3.7s8.8-8.3,8.8-8.3"/>
<path class="st3" d="M2338.1,312.7c0,0,13.7,9.7,17.4,12c3.7,2.3,6.7-1.3,13,0s11.7,3.3,11.7,8.3s9,7.7,14,7.7s10.7,2.3,14.3,0
	c2.1-1.4,4.5-2.4,7-3"/>
<path class="st3" d="M1572.8,655.4c1.3-3,3.2-5.6,5.6-7.8c4.3-4,16.3-11,24.3-15s13.7-2.7,18.1-7.3c3.7-3.7,8.3-6.5,13.2-8.2
	c2.7-0.8,6-3.2,12-4.5s27-2,33.3-3.3s20.7-2.7,24.3-9s24.7-22.3,29.3-27s4.7-8,8.7-12.7s47.3-25.7,54-29.9s10.7-18.1,12.7-24.1
	c2-6-0.7-7.3,3-11s3.3-8.7,5.3-14s8.3-6.3,11.3-8.3s6-1,11-7.2s16.7-9.1,20.3-14.5s-1.3-13.7-1.3-17s2-17.3,4.3-24.3
	s-0.9-11.7-2.9-17.7s-1.3-8-1.3-11.7s2-5,0-11s-1.3-8.3,0-8.8s3.7-16.2,4.3-21.2s3.1-16.7,3.7-22.7s-1.4-27.6,0-29.9
	s14.9-21,14.9-21c0.2,3.3,2.5,6.1,5.7,7c5.5,1.5,6.9,0.1,9.1-3.1s2.1-7.9,0-12.3s-4.3-8.1-10.1-4.4c-5.8,3.7-8.2,4-8,7
	c0.2,3,1.3,4.4,2.8,4.4"/>
<path class="st3" d="M1564.4,666.2c0,0-7.7,2.5-12.3,8.1s-3.7,10-8.7,12.5s-12.7,0.8-17.7,0.5c0,0-40.3-7.7-44.8-10.7
	s-4.8-2.7-11.2-5.7s-6.9-3.7-15,4.3s-10.6,13.7-12.6,14.7s-11.8-5.3-19.2-7s-11.4-4.3-16.4-4.2s-13.3-2.2-18,0s-72.3,13.2-83.2,13.2
	s-22.2,1.7-23.7,3.7s3.3,2.3,2.9,6.7s-3.7,11.9-6.4,15.8s-6.2,9.4-15.3,4.5s-12.7-7-12.3-12s-0.3-6.3,8.3-9.7s20.7-6.3,23.3-4.7"/>
<path class="st3" d="M1566.7,654.7c0,0,0.6-1.7-3.5-5s-10.8-8.9-12.1-11.1s-2-8.9-3-16.7s-6-17.5-9.3-24.8s-2-4.9-3.7-12.9
	s-8-9-8.7-12.4s3.7-13.3,3.7-16.2s-2.5-6.2-3.7-13.8s-0.1-10,0-17.7s0.4-19.3-0.6-27.3s-2.7-15.4-1.3-19.5
	c1.7-5.7,2.8-11.5,3.3-17.5c0.7-6.7-0.3-7,0.7-13s-0.7-11.7,2-16s9.3-6.9,9-13.3s-2.3-13.1,2-18.7s6.7-9.7,6.7-14.7s6.7-15.3,10-21
	s8.3-23.7,11.7-27.7s4.7-6,6.3-4.3c1.3,1.4,2.4,2.9,3.3,4.5"/>
<path class="st3" d="M1497.8,336.2c0,0,3.3-1.4,7.3-5.8s7.1-6.9,7.4-13.1s-0.4-9.9,4.6-13.9s3-6.3,9.7-8.3s10.3-3.3,15.7-7.7
	s10.3-10.7,17-14s15-10.7,17.3-13.7s3.9-5.7,2.6-15s-2.8-16.1,0.5-20.9s3.2-7.8,3.2-7.8s2.3,0.7,7,0s8-5.5,5.7-8.2s-8.3-8.8-8-13.4
	s3-15.6,5-21.9s4.2-9.3,3.8-15.2s-3.8-3.1-4.4-9.6c-0.4-4.4-0.5-8.8-0.3-13.2c0-2.7,0.4-6.6,0.4-6.6"/>
<path class="st3" d="M1417.9,248c0,0,5.2,2.7,9.9,1.7s1.7-4,8.3-0.7s8.3,3.1,12,2.7s5.7,1.3,7,4.8c1.3,3.5,6.3,4.5,10.3,6.5
	s7,4.2,9.3,8.3s2.7,9.2,8,9.8s13.3,0.2,17.7,6.2s7.8,15.7,12,19.7s11.3,8.9,14.3,10.3s34.3,9.9,38,13.1s11,6.9,12.7,11.6
	s5.3,6,7.7,7s20,12,24.7,12.3s7.7-4.3,10.7,0s13,15,16,16s8.7,3.6,18,3.6s14.7-3.7,16-7.7s4.3-1.3,9-3.3s12-6.3,18-4.3s11,1,16.3,0
	s12.3-2.3,21.7-3.7s15.3-2.3,17.7-0.3s5.4,2.3,10.9,4s5.1,3.3,11.8,3.3s9.3,1,19-0.3s28-3.3,28-3.3"/>
<path class="st3" d="M1862.3,340c0,0-4.3-2.3-10.3,4.3s-9.7,8.3-16.7,12.7s-16.7,10-17.2,14.3s-10.2,3.7-13.5,6s-6.3,5-9.3,5.6
	s-0.3,1.7-4.7,5.4s-5.7,7.3-12.7,8.6s-11.7,3.7-19.3,6c-8.1,2.5-16.3,4.5-24.7,5.8c-10.7,1.8-11.3,1.5-14.3,6.3s-6,9.6-10,17
	s-20.7,18.2-25.3,23.2s-16.3,13-19.3,18s2,12,0,15.7s-9.7,15-13,17.7s-8.7,7.1-11.7,9.5c-4.8,4.2-9,9.1-12.3,14.5
	c-4.3,6.9-26.3,37.9-27.3,43.2s-2,12.7-5,17.7s-3.7,3.7-4.7,10.3s4.3,11.6,0,18.3s-3.7,13.8-8.3,18.2s-4.3,9.1-4.3,9.1"/>
<path class="st3" d="M1424.7,910.1c0,0,8.3-5.4,10.7-10.9s1.4-5.2,6.7-9.2s5-4.7,10-9.3s4.3-11.2,11.3-14.7s11.7-6.9,17.5-6.9
	s6.5-0.3,13.8,0s11.7-0.7,15-5.3s10.3-6.7,16.7-10s11.7-2.7,15.3-6s11.6-8.7,12.6-10.3s-1.7-2.1,1.3-8.2s6.3-15.8,10-21.1
	s14.3-13.3,17.7-16s14-8.1,13.8-13.9"/>
<path class="st3" d="M1388.4,929c0,0,3.6,10.7,9.8,14.7s15.5,12.9,18.9,15.8s5.6,5.5,5.8,10.5s2.5,10.3,3.8,14.8s-2.7,16.5-3.8,25.2
	s0.2,14.3,0,18.3s0,11,0,11"/>
<path class="st2" d="M1422.8,1026c0,0,6.6-0.3,9.9-2.3c3.3-2,3.7-1,8-5.8s12.7-11.8,17.3-16.8s3.7-9,7.7-12s11.7-12,17.3-8
	s6.3,8.3,11.3,9s11.8-3.7,16.6-1.7s3.7,3.4,10.1,3.7s23.3-12.7,28-12.1s23,6.3,27.7,8.7s5.3,6.8,9.3,5.7s4.7-0.6,7.3,0
	s9,5.3,12.7,5.9s15-6.2,21.7-5.9s19-1.6,26.7,0s16.7-0.1,20.3,1.6s10,3,14.3,2.3s17-0.3,24,2s19.7,6,25.7,10s6.3,5.7,14.3,5.3
	s20.7,0.3,22.7-1s3.3-3,7-1.7s6.7,3.7,8.7,11c2,7.3,2.3,9,9.3,12s11.7,5,15.7,5s30-0.7,35.3,0s17.9,13.1,17.9,13.1"/>
<path class="st2" d="M1855.8,1011.2c0,0,0.3-8.8,3-11.2s4.7-3.7,7.3-7.3s6.3-3.7,9.7-3.3s5,0.7,14.3-6.3s15-18,15-21.3
	s10-27.7,11.7-34s2-7.3,2.3-10s-8.7-8.6-10.3-18.4s-3.3-8.2-5-14.6s-7.7-19.3-7.5-22.8s3.5-6.8,3.2-11.8s-2.3-3.3-1-8s3.3-4,3-9
	s-1-10.3-1-10.3s-3-5.7-1.7-8.3s2.3-3.7,1.3-8.3s-1.7-5-1-9.3s1-11.3-1.3-16.5s-1.7-10.9-2.7-16.5s-4.7-7.4-7.7-12.7
	s-10.7-14.4-13.3-18.9s-6.2-3.8-4.4-10.1s3.6-12.3,0-20.3s-4.6-17.3-5.2-25.7s1.8-9-2.1-14.3s-6.6-9.7-6.6-18.7s-2-16.3-4-20.3
	s0.3-15-5.3-21s-11.7-8.3-12.3-15s0.7-7-1.7-13s-8.7-17-7.3-24.7s3.3-21.1,2.7-31.9s-1.7-10-0.7-16.2s-2.4-9.2-2.2-16.2
	s0.5-8.8,2.2-17.4s0-9.2-0.7-14.6s0.7-2.7,1.7-9.5s-1-10.2-3.2-16.8s-3.1-8-2.1-15s0-7.7,0-11.3s3.3,0.5,1.7-8.6
	c-1.1-6.1-0.4-12.4,2-18.1c0.7-1.3-3-8.6,0.4-10.9"/>
<path class="st2" d="M1898.7,503.7c0,0-0.7,1.7-2,6.4c-1.3,4.6-2.3,7.6-7,8.6s-10.3-1.7-13.3,2.7s-22.7,20.7-23.7,23.3s2,2.7-2,7.3
	s-3,7.7-9.7,10.3s-13.1,5-18.7,4.7s-13.9-1.9-20.6,0s-6.7,4.6-16,4.6s-9-1.3-21-1.3s-19.7,2-22.7-0.3c-4.3-3.4-9.6-5.2-15-5.2
	c-6.7,0.2-14.7-5.2-23-7.2s-11.3-0.7-17-6.3s-15.3-7.7-19.3-13.7s-17-9.3-24-11c-7-1.6-14-3.6-20.8-6c-7.6-2.7-9.6,2.4-27.9-4.5
	s-25.3-5.8-35-15.3s-18-12.9-25-18.6s-11.3-5.2-16-10.6c-5.3-6.3-10.3-12.9-15-19.7c-5.3-7.7-8-9-6.3-13"/>
<path class="st2" d="M1554.4,446c-1,2.3-1,5,0,7.3c1.7,4,10.3,11.3,12.7,15.3s0.3,7.3,2.3,10s5.3,3.3,9,3.3s9-1,11.3,2
	s5.7,11,10,13.3s9-0.9,13.7,3.6s10,13.3,14.3,16.2s8.1,0.4,10.3,4.6s4.3,9.3,7.3,14.7s8.3,24.7,14,28.5s11.9,4.5,13.1,9.8
	s7.9,26,5.2,30.7s-1.4,7.3,0.6,15s1.7,9.7-3,16.3s-8.4,16.8-8.4,16.8"/>
<path class="st2" d="M1609.3,766.1c2-3.4,4.4-6.5,7.3-9.1c4.8-4.3,5.8-10.3,11.5-17s11.7-10.5,14-15.4s5.7-14.2,11.7-16.2
	s10.7-3.7,14.7-10.7s7.3-8.7,15.3-10.8s23.3-8.5,34-5.8s28.6,2,32.8,7.3s5.9,8.3,10.2,11.7s12,1.7,17,3.3s10.3,7.8,17.3,7.7
	s14.1,0.3,19.4,3s6.6,2.3,12.3,4.3s11,3,18,1s17.4-5.3,24.9-4.3s11.1,4.5,16.4,8.2s23,6.4,30,7.1s30.3-5.2,37.7-5.8
	s19.3,2.9,24.3-1.3s13.3-12.6,13.3-12.6c5.7-4,11.6-7.6,17.7-11c7.7-4,15.3-6.3,15.3-11.3s3.7-10.3,8.9-13s18.8-1.7,23.8-2.7
	s15.3-4.3,21.3-8.3s1.2-1.7,11.4-5.3s12.6-2,20.2-9.7s10.3-10.7,19.7-14.7s17.3-4.7,22.7-8.3s19.7-10.3,26.3-7s10,8.7,17.7,9.3
	s6.9-0.3,13.5,5.7s8.5,9.2,16.9,10.3c8.4,1.1,14,5.5,15.3,10.8s4,12.6,9,16.6s10,4.3,18.7,8.3s19.3,8.7,21,15.3s4.7,9.7,9.7,9.7
	s16.7-5.7,22.7-8.7s17,0.7,26.7,1.3s9,0.3,19.3-0.7s10.3-7.7,22.8-7"/>
<path class="st2" d="M2420.1,618.4c0,0-9.3-0.6-11.3,0s-2,3.5-4.7,3.4s-6.7,0-6.7,0l-4,3.2h-3.7c-1.4,0.7-2.7,1.5-4,2.3
	c-1.3,1-4.3,3.7-6,4.7s-4.3,0.3-4.3,1.3s0,2-2.3,3s-4.7,5.7-8.3,6.3s-7.3-1.3-11,2.7c-3.6,3.8-7.6,7.2-12,10.1
	c-2.7,1.6-4.7-0.4-9,3.2c-4.1,3.4-8.4,6.4-13,9c-2,1-2.7,4.3-7,4.3s-7.7-0.3-10.3,5.3s-1.3,11.7-5,13c-2.5,1-5,2.3-7.2,3.8"/>
<path class="st2" d="M2269.7,680.3c0,0-14-1.7-18,3.3s-3,9.3-8.3,14.7s-11.3,4.3-15.3,9.7s-12.4,8.3-18.2,9.7
	c-5.8,1.3-15.5,0-20.1,0s-5.7,3.5-13.3,0.6s-8.7-2.7-14.7-2.5s-6.3,1.4-5,3.6s-1.3,5.9-0.6,8.6s3,5.7,4,8s-0.2,13.3-4.1,13.7
	c-3.9,0.3-8.9-2.7-14.9-3.3s-10.7-5-14.3-1.7s-2.4,3.7-6.4,7.7s-8.3,11.2-12.7,15.8s-6.7,7.2-13.3,7.2s-5.3,2.4-9.7,4.9
	s-3.7,5.1-12.7,9.5s-10.3,12-16,10.7s-7.7,4.2-7.7,4.2"/>
<path class="st2" d="M1999.2,705.5c0,0,4.2,3.5,4.2,7.2s1,18.3,2.3,22s-3.3,6.3,2.7,16.7s15.7,15,18.7,24.7s1.7,14,6.3,17
	s10,11.6,10,11.6"/>
<path class="st2" d="M2052.7,673.1c0,0-0.3,1.7,2,7s3.3,8.8,2.3,12.2s-2.3,6.4-2,13.2c0.3,6.8,7.7,50.2,7.7,54.5s-5.3,17.3-7,22.7
	s-11.7,22.7-12.3,28s-4.3,18-2.7,22.3s0.8,4.7-0.4,12s-4.2,16.7-2.2,22c1.2,3.5,1.8,7.1,1.6,10.8"/>
<path class="st2" d="M2287.9,939.2c0,0-4.8,2.8-7.5,0s0.5-1.8-6.1-6.2c-6.6-4.3-25.9-18-29.9-19.7c-4-1.6-8.2-2.5-12.5-2.7
	c-4.5-0.3-19.1-0.3-27.5,0s-8.3-2.7-9.7-7.3s-4-6.7-8-11s-13.7-6-17.7-6s-5.4-2.7-10-5s-13.3-10.7-19.6-13s-15.3-4.3-19.7-8.3
	s-4-3.7-11-5.7s-10.7-4.3-18-7.7s-2.7-3.3-16-3.3s-17.3,0.7-22.7,0c-3.7-0.6-7.4-1.5-10.9-2.8"/>
<path class="st2" d="M2224.2,827.7c0,0-0.5,3.6-2.1,4.6c-1.7,1-2.3,1.2-2.3,3.6c0,2.4,3,3,0,6s-6.6,3.3-5.3,6.3c1.3,3,0.4,4.3,0,6.7
	c-0.3,1.6-0.3,3.4,0,5c0.2,1.6,0.2,3.2,0,4.7c0,1.9-3.6,1.3,0,3.9c3.6,2.7,8,4.3,8.3,6.7s-0.8,0.7,1.4,4s1.2,3,2.2,5.7
	s1.7,4.3,2.7,5.5s3.3,0.9,2.8,4.2c-0.5,3.3,0.2,2.1,1.9,4.6s4.4,12.1,1.3,11.8"/>
<path class="st2" d="M2293.3,1020.4c0,0-3.9,4.6-6.9,7.6c-3,3-3,5-8.3,10.3s-5.3,3.7-5.8,10.3c-0.5,6.7-0.5,16.7-1.5,21s-1.7,7,0,11
	s9,11.3,9,16.7s-4,6-2.3,13.3s2.3,10.3,2.3,10.3"/>
<path class="st2" d="M2166.7,1018.4c-0.3,2.2,0.4,4.4,2,5.9c3.1,2.8,6.6,5.2,10.3,7c5.3,2.7,18,3,18,3c4.1-1.4,8.2-2.5,12.4-3.3
	c8.9-2,11.4-5.7,15.2-7c3.8-1.3,10.4-7.4,13.9-8.3"/>
<path class="st2" d="M1743,1062.1c0,0-1.3-1.4-1.6-6.4s3.7-7,5.7-10.3s-0.7-13.7,0-19.3c0.7-5.7,2.3-26.6-0.7-34s-7-19.7-7.3-30.4
	s-5.5-21.3-10.1-31s-20.1-22.3-20.1-22.3s-0.5-7.3,2.5-11.7s21.3-33.3,22.3-36s-1.7-15.1-1.7-21.5s-4.7-16.8,0-24.1s4.3-7,5.7-12.3
	s2.3-13.3,4-16.7s8.7-9,9.3-13.7s2-12,1.3-20.3s-3.4-15.7-1.9-19.9s2.9-1.2,5.9-11.2s6.5-22,6.2-26.6s0.6-7,0-11.3s-2.6-5.1-2.6-9.9
	s-0.8-40.5-0.3-43.4s0.3-6.7-2-13.3s-15-31-17.3-38.7s-7.3-21.3-15.8-31.3s-0.9-22.7,1.8-25.7s7.3-17.3,9.5-22s6.9-7,9.9-10.3
	s2.3,0,2.3,0"/>
<path class="st2" d="M1702.7,481.7c0,0,1,6.7,3.3,10.9s4,7.4,7,10.5s7,6.3,5,10.7c-1.7,3.5-3.5,6.8-5.7,10c-1.7,2.7-1.1,6.8-1.7,9.2
	s1.4,2.1-2.3,2.8s-10.5,3-10.4,5s-0.2,2.7-2.9,3.7s-4,1.3-4.7,3s-1.7,6.3-4.3,6s-4.7,0.7-4.7,2.2s0.6,8.2-1.8,9.3s-3.2,2.8-3.8,4.8
	s-2,4.7-6.3,8s-12.7,2.8-13.7,6.4s5.7,8.6,0,12.9s-8.5,4.6-10,10.4s-3.2,6.3-3.2,6.3"/>
<path class="st2" d="M1754.1,498.7c0,0-1.3-1.3,0-6.1c1.3-4.9,1.3-10,0-14.9c-1.3-4.3-10-13.3-9.7-19.7s2.7-7,2.7-12s-1.3-4.7,0-12
	s3-11.9,3.5-16.6s0.5-12.4-0.8-17.7s-0.7-6.3,2.3-10.7s3.3-6,1.3-11s-3.4-11.5-2.9-15.6s-0.8-7.5,2.2-12.8s3.7-6.9,2.3-13.5
	s-7-15.5-7.3-21.5s1.3-19.3,4.3-25.3s9.1-13,11.9-21.7s3.8-20.9,3.8-20.9s2.8-20.8-3.8-29.8s-7-11.3-7.6-18.3s2.7-9-3.6-14
	s-12.7-5.8-16.7-9.9s-5.6-4-5.1-18.2"/>
<path class="st2" d="M1574.8,207.8c0,0,1.3,8.2,8.3,8.2s8.3,0.5,10.2-1.2s3.3-5.5,3.3-5.5s3.8-3.5,6.2-1.6s5.7,1.6,9,1.6
	s8.8-2.1,11.2-1.6s7.4-0.7,10.8-0.6s8.1,0.5,10,2.1s9,6.1,13.6,6.7s15.1,3.3,15.1,3.3s10.6-1.3,14.6,0s28,7.3,29.7,8
	s13.7-0.1,20.3,4.6s9.3,1.7,13.5,2.4s10.2,10,15.2,10.3s7,2.6,12.7,2.8s8-1.1,20,2.5s16.1,3.4,16,6.5"/>
<path class="st2" d="M1689.7,134.3v6.7c0,3,0.7,5,0,9.3s0.7,6.5-1.3,12.9s-6.3,8.3-4.7,14.7s-0.4,11.9-0.4,18.8s3,15.9,3.3,19.3
	s0,2.9-3.3,5.4s-12,6.9-17,12.2s-8.7,5-11,7.3s-3.1,10-3.1,15.5c0.1,5.5,0.1,17.7-2.3,24.6s-4,10.3-1.3,16.3s4.4,22.5,2,27.9
	s-4.7,5.8-6,17.1s0.6,23.2-2.2,29.7s-7.1,6.7-9.1,12.7s-0.7,9.3-5.7,14.3s-7.2,5.3-11.1,8.3s-5.5-2.2-7.9,3.7s-5.7,12.3-6.7,15.6
	s-4.7,16.3-4,22s-2.3,14.6,2.3,17.5s10.7,6.9,12,11.5s0.8,8.1,4.2,13.2s8.1,3.8,9.5,12.1s7.7,24.5,9.3,27.7s-3.3,17.2-2,26.9
	s5,19.3,5.7,28.3s3,21-0.3,22"/>
<path class="st2" d="M1523.9,553.3c0,0,7.5,1.7,9.5,5s7.2,7.3,13.7,11.3s6.4,3.7,10.6,8s4.3,8.3,11.3,9.7s27.7,9.9,36.7,9.6
	s21.7,5.4,28,9s6,1.3,13,11.2s6,24.2,12,27.8s8,6.2,10,10.4s6.3,13.2,7.7,19.2s4,14.8,8.3,20.7s15,29.3,21.3,33.3s19.3,3.7,28,11.3
	c5.3,4.8,9.3,11,11.6,17.8"/>
<path class="st2" d="M1620.8,851.8l4.8-3.8c2.2-1.8,5.8-1.8,7.5-3.8s0-7.2,3-8.6s3.5-0.4,6.4-2.6s4.1-6.8,7.6-7.2s7.2-1.8,8.5-3.5
	c0.9-1.3,1.6-2.7,2.2-4.2"/>
<path class="st2" d="M1604.6,766.1c0,0,1.1,2.2,4.7,4.7s3.8,5.5,7.3,5.8s4.2,0.2,6.3,3.6s7.2,7.9,11.8,9.1s9.1,2,13.1,7
	s6.2,6.8,9.5,12s2.8,10.5,5.2,12.8s6.2,7.2,9.8,7.8s12.2,4.1,16.8,6.2s1.5,4.7,8.5,4.1s8-1.8,13.2,0.1s9,0.8,12.8,1.4
	s10.2-3.5,13.2,0s12.5,8,18.8,10s6,0.5,13.5,3.2s16.2,8.2,18.5,15.2s2,4.2,8.5,8.7s4.5,5,10.2,8.8l5.8,3.8"/>
<path class="st2" d="M1541.9-2.7c0,0,11.5,3.9,9.7,9.4s0.7,9.1,0,18.6s-1.7,7.3-1.7,14.7s13,27,16,29.4c3,2.4,11,13.5,12.5,19.5
	c1.5,5.9,10,25.8,5.5,28.3"/>
<path class="st2" d="M1867.5,189.8c-3.1,0-4.7,3.5-9.4,0s-5.7-4-13.7-4s-14,1.9-18.5,6s-10,5-15.5,4s-8-5.1-18-4s-15.7-1-24.1,0
	s-11.7,0-11.7,0"/>
<path class="st2" d="M1597.7,443.2c0,0-8.2-4.6-12.5-11s-38.8-27.4-49.3-35.4s-10.5-10.1-17.5-18.8s-13.8-13.2-20.7-19.2
	s-6.3-11.5-12.3-14.5s-24.5-4.4-20-13.9s0.5-16.6-3.5-25.1s-9.1-13.5-9.6-21.5s-6.9-15.8-14.4-18.8s-10.2-4.8-14.1-8.5
	c-2.8-2.8-5.2-5.9-7.4-9.2"/>
<path class="st2" d="M1554.9,276.2c0,0,6.6,6.1,11.1,4.9s6.3-1.8,8.9,2.2s3.6,14,3.6,14s1.9,15.9,1,19.9s-3.2,26.1-4.6,32.6
	s-0.4,18.3,3.6,25.2s9.5,19.9,15,28.1s9,11.4,16.5,12s20-3.7,27,2.5s23,5,23,5s15,5.8,23.5,8s22,5.2,33,5.7s11.4,3.3,19.5,2.7
	s9.5-4.6,18,0.1s16,2.1,27.5,6.9s11.5,5.8,16.5,11.8s6.3,14.8,14.2,13.9c4.7-0.5,9.5,0.5,13.7,2.8"/>
<path class="st2" d="M1855.4,485.7c-4.9-2.1-9.9-4-15-5.5c-8-2.3-20-11.3-37.5-3s-23.5,9.8-32,9.7s-22.6,3.1-40-5.2s-18-1.3-26-4.5
	s-20.2-6.3-24.3-7.8s-14.7-3.9-27.2-5s-20.2-2.5-33.1-8.5s-31.1-8.7-45.5-9.8s-20.9,0.7-27.7,0s-29.7-6.8-36.7-7s-17.5-0.2-25-3.2
	c-8.8-3.5-18.3-4.7-27.7-3.6c-11.3,1.1-20.3-1-24.3-3.4s3-11.4-7-19.9s-21.5-17.7-25.5-27.8s-0.3-21.2-7.6-28.7s-10.4,0-9.9-12.7
	c0.3-6.1,0.3-12.2,0-18.4"/>
<path class="st2" d="M1698,326.1c0,0,0.9,7.5,2.4,11.6s-1,6.2,0,11.7s-3,21.3,0.5,25.7s3.5,21.3,3,26.3s0.2,13.8,0.2,13.8
	s3.8,22,7.8,30.8s5,16,2.5,20.7s-11.3,16.8-16.4,19s-7.5,0.6-14.6,7l-7.1,6.4"/>
<path class="st2" d="M1718.1,513.7c0,0-5.2,1.2-23.4,3.4s-23.7,0.7-33.7,2.7s-35.5,4-47,8.5s-10.5,7-25.5,7s-26.5-0.5-34.7,4
	s-12.3,5.7-15.3,8.3s-25.2,7.3-31.3,13s-36.2,6.5-47.2,8.6s-28.5,2.7-39,5.6s-27.5,16.4-31.3,18.4s-28.7,16.7-34.2,23.8
	s-5.5,5.7-10.5,12.7s-15.9,31.2-28.9,36.4s-22.4,26-22.4,26"/>
<path class="st2" d="M1080.1,336.2c0,0,31.7,14.4,43.8,26.2s20,7,30,12.9s15,3.5,25.5,13s17.1,10.5,20.6,16s5.6,8.2,5.6,8.2"/>
<path class="st2" d="M1141.1,314.7c0,0,10.8,4.6,12.8,11.4s0.5,18.9,8.5,20.6s17.5,2.2,21,3.7s8,10.7,13.8,15.3s7.4,5.2,13.8,8.7
	s23,17.7,22.9,21.5"/>
<path class="st2" d="M1294.4,312.8c0,0,3.9-1.9,3.9-4.1s-0.4-3,0-6.6c0.3-3.4,1.2-6.6,2.7-9.7c1.5-3.6,2.2-7.4,2-11.2
	c0-3.8,2.1-5.8,2.7-7.8s4.8-17.3,6.5-22.3c1.7-5-3.4-21.7,0-28.3s3.5-9.7,3.6-14s-1.8-13.6,0-17.6s11.1-20,12.8-26.4s-0.7-6.7,0-13
	s-0.2-7.7,2.6-15.3s4.8-12.9,4.8-19.1s-4.8-7.9,0-10.2s8.7-3.3,10.7-8s7.3-4.7,7.3-8.7V79c0-4.7,2.3-9.3,4.7-14s1-10.7,2.7-14.3
	c1.6-3.3,3.4-6.4,5.6-9.3c2.1-3-1.4-9,0-16s3.4-8.7,4.1-14.7c0.4-3.9,0.4-7.8,0-11.7"/>
<path class="st2" d="M1303.1-1c0,0-3.3,9,0,11.3s4.3,4.3,3.3,7.7s1.1,9,0.4,13s-1.3,10.7-2.5,17s0.2,13.3,0,18.7s-5.8,16.2-5.8,16.2
	"/>
<path class="st2" d="M1336.1,314.2c1.3-1.7,2.4-3.6,3.3-5.6c1-2.6-1.7-5.6,0-10.3s5-18.3,7-26.3s2.3-13.7,4-19
	c1.7-5.3,6.7-25.8,6.7-29.2s-3-12.4,0-20.4c3.1-8.1,3.9-16.8,2.3-25.3c-1.7-9,2.2-16.9,7.6-22.1s7.1-8.2,6.8-14.2
	c-0.4-4.7-1.2-9.3-2.3-13.8"/>
<path class="st2" d="M1467.4,40c0,0-1-0.3-5-2s-7.7,0.3-14,0s-10,0.3-14.3,0s-6.9,2.7-10.3,2s-14.5-2-14.5-2s-9.9-1.3-13.6,0
	s-10.3,2.2-15,3s-23,2.8-25.8,1.9s-6.8-2.8-10.2-2.7s-8.7,0-8.7,0"/>
<path class="st2" d="M1322.4-1c0,0,2.2,7,4.1,12s1.9,10.7,2.9,14s0.1,4,1.9,6.3s6.8,13.4,6.8,14.9s3.9,8.7,1.3,11.1s-4,4-3.3,9.4
	s1.3,7.6,0,9.9c-0.9,1.5-1.9,2.9-3.2,4.1l-1.6,7.1"/>
<path class="st2" d="M1197.4,42.9c2.1,0.2,4.2,0.2,6.3,0c5.3-0.2,1,2.9,12.7,3.3s39.7-0.1,43,0s6,0,6,0s2.4,7.7,8.7,8.2
	s15.4,5.2,29.9,4.2"/>
<path class="st2" d="M1102.6,121.3c0,0,44.8,0.4,56.2,1.4s10.3,2.2,16.7,5.1c6.3,2.9,4.7,13.9,9,13.6s96.3,2.7,100,2.3s4-9.7,8-9.3
	s8.4-4,11.5-4.3s11.6-4.7,16.3-4.3s14,2.1,14,2.1"/>
<path class="st2" d="M1269.9,86.8c0,0,1.5,5.2,6.2,6.8s8.3,0.7,13.7,3.3s7.5,5,12.9,6s18-1,23.9,0s13.4,0.2,14.3,1.8"/>
<path class="st2" d="M1701.2,324.6c0,0-0.8,4.4,3.9,7.4s14.3,6.2,17.3,7.6c3.5,1.4,6.7,3.3,9.7,5.6c5,3.8,11.7,3.1,14,7.4
	c1.7,3.2,3.2,6.4,4.5,9.8"/>
<path class="st2" d="M1775.7,369c0,0-1.7,2.8,2.3,6.4s5.3,3.6,5.7,8.1c0.5,6,2.7,11.7,6.3,16.5c4,5,10,11.3,17,15.2s18,2,22.2,4.2
	s14.5,1.4,18.8,0s16.7-7.3,21.3-6.9s7.3,6.1,14.7,9.8s17,8.3,17,8.3"/>
<path class="st2" d="M1745.7,310c4,0.3,7.8,1.8,10.9,4.2c4.6,3.9,3.6,5.1,11.7,4.8s13.1,0.2,19.4,2.2s31.7-3.4,39.7,0
	s18.7,13.8,25.3,15s9.7,3.5,12,5.8s13.3,3.3,16.3,6s1.8,14.3,8,19.3s6.3,3.3,9.6,13.7s0,51.3,5,54.2s12.3,9.5,15.3,14.5
	s5.8,6.7,5.8,6.7"/>
<path class="st2" d="M2151.6,365.3c0,0,15.8,8.9,14.1,24.8c-1.7,15.9-2.7,24.7-1.7,27.3s0.3,10.6,0,13.3s0.9,4.7,1.8,8.3
	c0.9,3.7-0.5,4.3,0,11.3s-3,2.7,0.3,9.7s-0.4,17.7-0.4,17.7"/>
<path class="st2" d="M2089.9,370.9c2.5,1.2,4.8,2.7,6.9,4.5c3.7,3,7.3,5.3,11,5.6s7.7,2.3,12.3,3.7s11.4,4.7,13.7,8
	c2.5,3.9,6.5,6.5,11.1,7.2c5.6,0.8,20.2,4.7,22.6,8.2s3.9,9.5,9.9,9.4s8.7,0.3,20,1.9s15.7,2.3,22.3,5s16.7,4.7,20.7,4.7
	s2.7,1,10.7,3.7s10.7,2.7,15,1.7l4.3-1c0,0-2.7-0.7,5.3,3.7s6.7,10.3,12.7,6.1s8.3-5.8,8.3-5.8s-0.3-8.4,6.3-11s13-10.7,18.7-8.8
	s13.7,3.9,20.3,4s19.7-1.8,27,0s15.3,0,15.3,0s18-8.5,22-11.2s2.3-2.7,7.3-6l5-3.3"/>
<path class="st2" d="M2271.7,486.9c-3.2,1-5.7,3.6-6.7,6.8c-2,5.7-1,10.4-6.7,11.7s-12.3-2-21.3,0s-19.6-3.3-22.3,2
	c-2.7,5.3-4.4,6.3-4.9,14.7c-0.5,8.3-6.8,12.3-7.1,16.3c-0.3,4,1.3,10.3-3,16.3s-7.3,5.3-9,14.3s-5.4,3.3-8.4,12.3
	c-3,9-2.3,18.7-2.6,20.7s-1.6,15.3-6,16.2"/>
<path class="st2" d="M2153.1,548.7c0,0,3.3,4.3,3.3,12s-2,11,3.1,19.3c3.1,5.1,5.2,10.8,6.2,16.7l-1.7,23.9"/>
<path class="st2" d="M1986.1,712.7c-1.6-2.1-2.5-4.6-2.7-7.2c0-3.8,7.3-5.2,0-8.2s-5.3,0.5-9.7-5.1s-4-3.6-7.3-8.6s-6-4.5-9-10.6
	s-2.7-16.8-1.3-22.8s0.9-8-0.4-14.7c-0.8-4.6-1.4-9.2-1.6-13.9c0,0,5-10.5,3.3-15.1s0.3-8.3-6.7-14s-15.7-5.7-18.3-13
	s-8.8-10-5.5-18.7s-1.5-27.3,3.9-37.7c0,0,0.3-0.8,2.3-6.2c1.7-4.1,3.7-8,6.2-11.8"/>
<path class="st2" d="M2164.1,483.3c2.2,1.9,3.4,4.7,3.4,7.6c-0.1,4.8-3.4,7.1-5.8,12.1s-1.1,2.7-2.7,8.7c-1.6,6-3.3,5-4.3,12
	s2.7,7.3,0,12.7s-9.3,9.4-7.1,13.5"/>
<path class="st2" d="M2086.4,472.1c0,0-3.7,9.6,0,14.8s10.4,10.8,10.4,10.8s5,4,4.3,10.3s2.1,15.3,0.1,19.3s-2.7,14.7-4.7,20
	s-1.3,3-1.3,9.3s-6.8,5-14.4,10s-3.6,11.7-13.9,15.7c-10.3,4-12.8-0.3-18.4,5c-5.6,5.3-3.6,5-10.9,9.3s-8.3,5-19,6.7
	s-12.2,8.2-11,8.9"/>
<circle class="st4" cx="1145.7" cy="1011.7" r="6.2"/>
<circle class="st4" cx="1266.7" cy="710.7" r="6.1"/>
<circle class="st4" cx="1337.7" cy="421.7" r="7.1"/>
<circle class="st4" cx="1229.7" cy="426.7" r="6.6"/>
<circle class="st4" cx="747.7" cy="498.7" r="4"/>
<circle class="st4" cx="323.7" cy="229.7" r="5.8"/>
<circle class="st4" cx="118.7" cy="864.7" r="4"/>
<circle class="st4" cx="219.7" cy="641.7" r="4"/>
<circle class="st4" cx="1946.7" cy="481.7" r="4"/>
<circle class="st4" cx="1871.7" cy="1055.7" r="4"/>
<circle class="st4" cx="1622.7" cy="1127.3" r="4"/>
<circle class="st4" cx="1429.7" cy="926.7" r="5.7"/>
<circle class="st4" cx="996.7" cy="147.7" r="4"/>
<circle class="st4" cx="2161.7" cy="318.7" r="4"/>
<circle class="st4" cx="2296.7" cy="71.7" r="4"/>
<circle class="st4" cx="2207.9" cy="767.3" r="6.9"/>
<circle class="st4" cx="1633.7" cy="523.7" r="7.1"/>
<line class="st3" x1="2445.4" y1="885.3" x2="2439.8" y2="883.2"/>
<line class="st5" x1="2428.4" y1="879" x2="1817.7" y2="649.6"/>
<polyline class="st3" points="1812,647.5 1806.4,645.3 1806.4,639.3 "/>
<line class="st6" x1="1806.4" y1="627.3" x2="1806.4" y2="7.4"/>
<line class="st3" x1="1806.4" y1="1.3" x2="1806.4" y2="-4.7"/>
<line class="st3" x1="-45.6" y1="333.3" x2="-39.6" y2="333.3"/>
<line class="st7" x1="-27.5" y1="333.3" x2="813.4" y2="333.3"/>
<polyline class="st3" points="819.4,333.3 825.4,333.3 827.7,327.8 "/>
<line class="st8" x1="832.4" y1="316.5" x2="980.8" y2="-39.5"/>
<line class="st3" x1="983.1" y1="-45.1" x2="985.4" y2="-50.7"/>
</svg>
