<?xml version="1.0" encoding="utf-8"?>
<!-- Generator: Adobe Illustrator 18.1.0, SVG Export Plug-In . SVG Version: 6.00 Build 0)  -->
<svg version="1.1" id="Layer_1" xmlns="http://www.w3.org/2000/svg" xmlns:xlink="http://www.w3.org/1999/xlink" x="0px" y="0px"
	 viewBox="0 0 1280 800" enable-background="new 0 0 1280 800" xml:space="preserve">
<path fill="#02AAF3" d="M640,0C420,0,240,180,240,400s180,400,400,400s400-180,400-400S860,0,640,0z M813.3,316.7
	c6.7,120-83.3,250-240,250c-46.7,0-93.3-13.3-130-36.7c43.3,6.7,90-6.7,123.3-33.3c-36.7,0-66.7-26.7-80-60
	c13.3,3.3,26.7,3.3,36.7,0c-40-6.7-70-43.3-66.7-83.3c10,6.7,23.3,10,36.7,10c-36.7-26.7-46.7-73.3-26.7-113.3
	c40,50,103.3,83.3,173.3,86.7c-3.3-53.3,36.7-103.3,90-103.3c23.3,0,46.7,10,60,26.7c20-3.3,36.7-10,53.3-20
	c-6.7,20-20,36.7-36.7,46.7c16.7-3.3,33.3-6.7,46.7-13.3C846.7,290,830,303.3,813.3,316.7z"/>
</svg>
