<?xml version="1.0" encoding="utf-8"?>
<!-- Generator: Adobe Illustrator 18.1.0, SVG Export Plug-In . SVG Version: 6.00 Build 0)  -->
<svg version="1.1" id="Layer_1" xmlns="http://www.w3.org/2000/svg" xmlns:xlink="http://www.w3.org/1999/xlink" x="0px" y="0px"
	 viewBox="0 76.4 1280 647.3" enable-background="new 0 76.4 1280 647.3" xml:space="preserve">
<title>uship_logo_blue</title>
<polygon fill="#0083BB" points="756.9,434.7 661.2,434.7 661.2,351.4 575.8,351.4 575.8,628.7 661.2,628.7 661.2,520.1 756.9,520.1 
	756.9,628.7 842.3,628.7 842.3,350.9 756.9,350.9 "/>
<path fill="#0083BB" d="M608.7,206.8l74.1,26.8L609.1,76.4l-157.2,73.7l67.7,24.5l-0.5,1.2c-5.3,13.5-9.9,23.6-11.7,25.8
	c-2.7,3.1-6.3,7.4-26.9,8.8c-5,0.3-9.2,0.5-13.2,0.5h-9.1c-10.1,0.1-20.1,1-30.1,2.7c-29.3,4.2-51.4,14-71.8,31.6
	c-17,14.7-33.9,33.6-42.7,72.9c-6.2,27.8-2.1,55.5,12.3,82.1c9,16.7,29.6,42.5,76.4,71c21,12.8,35.5,22.7,42.4,32.8
	c4.6,6.8,6.6,14.1,5.4,20.2c-0.6,3.4-2.4,6.4-5.3,8.3c-5.4,3.5-15.9,6.4-27,9.5l-0.7,0.2c-17.1,4.8-38.2,10.5-55.2,21.6
	c-25.9,16.8-33.6,29.9-56.2,130l-1.3,5.9l84.9,24.2l1.6-6.5c8-32.3,14.4-51.3,18.8-56.4c5.1-5.9,8-8.3,20.8-12.2l7.9-2.4l3.3-1
	c19-5.2,37.4-12.2,55.1-20.8c32.2-15.7,54.9-54.4,59.4-101c4.8-49.5-13.1-76.4-33.1-98.1c-13.8-14.9-73.7-53.5-82.3-58.6
	c-10.6-6.3-22.9-16.8-22-32.1c0.8-12,13.7-17.3,17.1-18.1c2.6-0.6,7-1,14-1.7h0.7c9.7-0.9,24.5-2.4,45.4-5.4
	c40.1-5.9,61.7-25.3,69.1-33.4c18.5-19.9,33.2-43,43.5-68.1L608.7,206.8z"/>
<rect x="869.6" y="351.2" fill="#0083BB" width="85.4" height="277.8"/>
<path fill="#0083BB" d="M912.4,238.8c-27.2-0.3-49.6,21.6-49.9,48.8c0,0.3,0,0.7,0,1c0,27.5,22.3,49.9,49.8,49.9
	c27.5,0,49.9-22.3,49.9-49.8C962.3,261.2,940,238.8,912.4,238.8C912.5,238.8,912.5,238.8,912.4,238.8z"/>
<path fill="#0083BB" d="M1122.6,358.9c-18.3-0.1-36.3,3.7-53,11l-1.7,0.7v-19.4h-87.3v336.3h87.3v-69.6l1.7,0.7
	c16.7,7.4,34.8,11.1,53,11c75.8,0,137.3-59.6,137.3-135.4C1259.9,418.6,1198.4,357.1,1122.6,358.9z M1122.6,548.9
	c-30-0.4-54.3-24.6-54.7-54.7c0-29.1,25.6-54.6,54.7-54.6c29.1,0,54.6,25.6,54.6,54.6S1151.7,548.9,1122.6,548.9z"/>
<path fill="#0083BB" d="M202.7,486.7c0,31.4-26.9,57.9-58.6,57.9s-58.7-26.4-58.7-57.9V351.7H0v135.1c0,78.4,64.6,142.2,144,142.2
	s144-63.8,144-142.2V351.7h-85.3V486.7z"/>
<path fill="#0083BB" d="M1266.1,390.1l-1.2-1.2l1.6-0.7c0.6-0.3,1.2-0.7,1.7-1.2c0.9-0.9,1.4-2.2,1.3-3.5c0-1-0.3-2-0.8-2.9
	c-0.5-0.8-1.2-1.5-2.1-1.8c-1.2-0.4-2.6-0.6-3.9-0.5h-8.4v19h2.6v-8.4h2.9c0.5-0.1,0.9-0.1,1.4,0c0.4,0.1,0.8,0.3,1.1,0.5
	c0.5,0.4,0.9,0.8,1.2,1.3c0.5,0.6,1,1.4,1.8,2.6l2.5,4h3.2l-3.3-5.2C1267.2,391.3,1266.7,390.7,1266.1,390.1z M1262.3,386.8h-5.3
	v-6.2h5.9c1.1-0.1,2.2,0.2,3,0.8c0.6,0.5,1,1.3,1,2.2c0,0.6-0.2,1.2-0.5,1.7c-0.3,0.5-0.9,0.9-1.4,1.1
	C1264.1,386.7,1263.2,386.8,1262.3,386.8z"/>
<path fill="#0083BB" d="M1262.1,370.1c-9.9,0-17.9,8-17.9,17.9c0,9.9,8,17.9,17.9,17.9c9.9,0,17.9-8,17.9-17.9
	C1280,378.1,1272,370.1,1262.1,370.1z M1262.1,403.3c-8.5,0-15.4-6.9-15.4-15.3c0-8.5,6.9-15.4,15.3-15.4c8.5,0,15.4,6.9,15.4,15.3
	c0,0,0,0,0,0C1277.4,396.4,1270.6,403.3,1262.1,403.3L1262.1,403.3z"/>
</svg>
