<?xml version="1.0" encoding="utf-8"?>
<!-- Generator: Adobe Illustrator 18.1.0, SVG Export Plug-In . SVG Version: 6.00 Build 0)  -->
<svg version="1.1" id="Layer_1" xmlns="http://www.w3.org/2000/svg" xmlns:xlink="http://www.w3.org/1999/xlink" x="0px" y="0px"
	 viewBox="84.6 70.6 1110.4 661" enable-background="new 84.6 70.6 1110.4 661" xml:space="preserve">
<path fill="#FFFFFF" d="M369.9,731.6c-22,0-41.6-13.1-49.7-33.2L161,304.8c-11-27.4,2.3-58.6,29.9-69.8L587.6,74.6
	c6.4-2.7,13.3-3.9,20.4-3.9c22,0,41.6,13.1,49.7,33.2l159.2,393.4c11,27.4-2.3,58.6-29.9,69.8L390.2,727.5
	C383.8,730.4,376.9,731.6,369.9,731.6L369.9,731.6z M604.3,89.8c-5.6,0-11.2,1-16.4,3.1L203.6,248.5c-22.2,8.9-33,34.3-24.1,56.1
	l154.2,381.1c6.6,16.2,22.2,26.8,39.9,26.8c5.6,0,11.2-1,16.4-3.1L774.2,554c22.2-8.9,33-34.3,24.1-56.3l-154-381.1
	C637.7,100.4,622.1,89.8,604.3,89.8L604.3,89.8z"/>
<path fill="#FFFFFF" d="M607,137.4l-98.3,46.1l42.6,15.4l-2.5,6.2c-4.6,12.3-11,27.8-14.8,32.2c-4.6,5.4-10.4,10.4-31.8,11.8
	c-5.2,0.4-9.1,0.4-12.3,0.4h-7.9c-5.6,0-11.6,0.4-24.3,2.3c-23.3,3.3-40.1,10.8-56.1,24.5c-15.2,13.1-26.6,27.8-33,56.5
	c-4.8,21.2-1.7,42.2,9.6,62.5c7.1,13.1,23.5,33.7,61.7,56.9c20.2,12.3,33.2,21.4,40.5,31.8c5.8,8.7,8.3,18.3,6.4,26.8
	c-1.2,6.4-4.8,11.6-10,15c-6.4,4.2-16.2,6.9-27.4,10c-14.5,3.9-31.2,8.5-44.5,17c-17.9,11.6-23.7,18.3-42,98.9l50.3,14.3
	c7.1-27.2,12.3-41.6,17.2-47.2c6.4-7.5,11.6-10.6,23.7-14.3c3.3-1,6.4-1.9,9.6-2.9c14.3-4.4,26.8-7.9,46.1-17.2
	c24.1-11.6,41.1-41.6,44.5-77.7c3.9-39.9-11-59.8-25.4-75.4c-10-10.8-57.6-42-68.6-48.6c-17-10.2-26-24.1-24.9-39.1
	c1-15.8,15-24.5,24.3-26.8c3.1-0.6,7.3-1,13.7-1.7c8.3-0.8,21-1.9,39.3-4.6c31.8-4.6,48.2-20.4,52.6-25.1
	c26-28.3,35.7-55.7,37.4-60.9l2.1-6.4l48.2,17.5L607,137.4z"/>
<polygon fill="#FFFFFF" points="739.9,430.3 659.1,430.3 659.1,358.2 583.1,358.2 583.1,600.3 659.1,600.3 659.1,506.4 739.9,506.4 
	739.9,600.3 815.8,600.3 815.8,357.8 739.9,357.8 "/>
<path fill="#FFFFFF" d="M678.6,259.1l-65.2-139.4L474,185.1l60.1,21.6c-5,12.5-8.7,20.4-10,22c-2.1,2.5-5.2,6-22.6,7.3
	c-4.8,0.4-8.3,0.4-11.4,0.4h-7.9c-6,0-12.9,0.4-26.2,2.3c-25.6,3.7-44.9,12.3-62.8,27.6c-15,12.9-29.7,29.5-37.4,63.6
	c-5.4,24.3-1.9,48.4,10.8,71.7c7.9,14.5,25.8,37.2,66.5,61.9c18.1,11,30.5,19.5,36.4,28.1c3.7,5.6,5.4,11.6,4.6,16.6
	c-0.4,2.1-1.5,4.8-4.2,6.4c-4.6,3.1-13.9,5.6-23.7,8.3c-14.8,4.2-33.2,9.1-48.2,18.9c-22.6,14.8-29.5,26.2-49,113.2l-1.5,6
	l75.4,21.6l1.7-6.6c8.5-34.7,13.5-45.5,16-48.4c4.4-5,6.6-6.9,17.5-10.4c3.3-1,6.4-1.9,9.4-2.9c14.3-4.2,27.8-8.3,48-18.1
	c28.1-13.7,48-47.6,51.9-88.3c4.2-43.2-11.4-66.7-28.9-85.6c-12.1-13.1-64-46.5-71.5-50.9c-8.9-5.2-19.3-14.1-18.5-26.8
	c0.6-9.6,11.2-14.1,13.9-14.8c2.3-0.4,6.2-0.8,12.1-1.5c8.5-0.8,21.4-2.1,39.9-4.8c35.1-5.2,54-22.2,60.5-29.3
	c22-24.1,33-47.2,37.8-59.2L678.6,259.1z"/>
<rect x="837.4" y="358" fill="#FFFFFF" width="76.1" height="242.5"/>
<path fill="#FFFFFF" d="M875.6,260.8c-24.7,0-44.3,19.3-44.3,44.3c0,24.3,19.7,44.3,44.3,44.3c24.3,0,44.3-19.7,44.3-44.3
	C919.9,280.5,899.9,260.8,875.6,260.8z"/>
<path fill="#FFFFFF" d="M1057.7,364.7c-16.4,0-32,3.3-46.3,9.6V358h-77.7v293.2h77.7v-59.8c14.3,6.4,29.9,9.6,46.3,9.6
	c65.2,0,118.4-53.2,118.4-118.4C1176.1,417.7,1122.9,364.7,1057.7,364.7z M1103.8,482.9c0,24.7-21.6,46.3-46.3,46.3
	c-25.1,0-46.3-21.2-46.3-46.3c0-24.7,21.6-46.3,46.3-46.3C1082.2,436.6,1103.8,458.2,1103.8,482.9z"/>
<path fill="#FFFFFF" d="M259.9,476.5c0,26.6-22.9,49-49.7,49c-27,0-49.9-22.4-49.9-49v-118H84.6v118c0,68.4,56.5,124.1,125.7,124.1
	c69.4,0,125.7-55.7,125.7-124.1v-118h-76.1V476.5z"/>
<g>
	<path fill="#FFFFFF" d="M1187.9,400.2h-5.2l-2.5-3.9c-0.6-1-1-1.7-1.5-2.1s-0.6-0.6-0.8-0.8c-0.2-0.2-0.4-0.2-0.6-0.2
		c0,0-0.2,0-1,0h-1.5v7.3h-4.4v-18.5h8.3c1.7,0,2.9,0.2,3.7,0.4c1,0.4,1.7,1,2.3,2.1c0.6,0.8,0.8,1.9,0.8,3.1c0,1.5-0.4,2.7-1.5,3.7
		c-0.4,0.4-1,0.8-1.9,1.2c0.6,0.6,1,1.2,1.5,1.9L1187.9,400.2z M1174.9,388.8h3.5c1,0,1.7-0.2,1.9-0.2c0.4-0.2,0.6-0.2,0.8-0.6
		c0.2-0.2,0.2-0.6,0.2-0.8c0-0.4-0.2-0.8-0.4-1c-0.4-0.4-1-0.4-1.9-0.4h-4.2V388.8z"/>
	<path fill="#FFFFFF" d="M1178.4,407.5c-9.1,0-16.6-7.5-16.6-16.6c0-9.1,7.5-16.6,16.6-16.6c9.1,0,16.6,7.5,16.6,16.6
		C1194.8,400,1187.5,407.5,1178.4,407.5z M1178.4,378.6c-6.9,0-12.3,5.4-12.3,12.3c0,6.6,5.4,12.3,12.3,12.3
		c6.6,0,12.3-5.4,12.3-12.3C1190.6,384.2,1185,378.6,1178.4,378.6z"/>
</g>
</svg>
