<?xml version="1.0" standalone="no"?>
<!DOCTYPE svg PUBLIC "-//W3C//DTD SVG 20010904//EN"
 "http://www.w3.org/TR/2001/REC-SVG-20010904/DTD/svg10.dtd">
<svg version="1.0" xmlns="http://www.w3.org/2000/svg"
 width="700.000000pt" height="700.000000pt" viewBox="0 0 700.000000 700.000000"
 preserveAspectRatio="xMidYMid meet">
<metadata>
Created by potrace 1.11, written by Peter Selinger 2001-2013
</metadata>
<g transform="translate(0.000000,700.000000) scale(0.100000,-0.100000)"
fill="#000000" stroke="none">
<path d="M4715 6932 c-22 -1 -61 -7 -87 -12 -53 -11 -4264 -1686 -4343 -1728
-75 -39 -184 -154 -223 -234 -58 -119 -74 -236 -47 -361 13 -60 1616 -3990
1714 -4202 63 -136 187 -250 319 -296 86 -30 199 -41 279 -29 51 8 608 226
2203 862 1174 468 2157 862 2185 877 27 14 80 56 117 92 146 143 200 353 142
549 -20 69 -1688 4130 -1722 4195 -37 69 -154 183 -227 222 -92 48 -207 72
-310 65z"/>
</g>
</svg>
