<?xml version="1.0" standalone="no"?>
<!DOCTYPE svg PUBLIC "-//W3C//DTD SVG 20010904//EN"
 "http://www.w3.org/TR/2001/REC-SVG-20010904/DTD/svg10.dtd">
<svg version="1.0" xmlns="http://www.w3.org/2000/svg"
 width="1024.000000pt" height="1024.000000pt" viewBox="0 0 1024.000000 1024.000000"
 preserveAspectRatio="xMidYMid meet">
<metadata>
Created by potrace 1.11, written by Peter Selinger 2001-2013
</metadata>
<g transform="translate(0.000000,1024.000000) scale(0.100000,-0.100000)"
fill="#000000" stroke="none">
<path d="M6745 10111 c-38 -10 -92 -26 -120 -37 -27 -10 -52 -19 -55 -20 -3 0
-14 -4 -25 -9 -11 -4 -47 -19 -80 -32 -33 -13 -69 -28 -80 -32 -11 -5 -40 -17
-65 -27 -24 -11 -48 -20 -52 -20 -4 -1 -10 -3 -13 -4 -3 -1 -8 -3 -12 -5 -5
-1 -19 -6 -33 -12 -87 -37 -156 -65 -165 -67 -5 -2 -21 -8 -35 -13 -14 -6 -83
-34 -155 -62 -71 -29 -139 -56 -150 -60 -11 -5 -83 -34 -160 -65 -193 -76
-199 -79 -210 -82 -5 -1 -50 -19 -100 -39 -199 -81 -219 -88 -227 -87 -5 1 -8
-3 -8 -10 0 -6 -3 -9 -6 -6 -3 4 -24 -2 -47 -12 -41 -17 -77 -32 -87 -35 -12
-4 -67 -26 -85 -34 -17 -8 -48 -20 -65 -26 -11 -4 -47 -18 -87 -36 -24 -10
-43 -15 -43 -12 0 3 -6 1 -12 -5 -7 -5 -78 -35 -158 -66 -80 -31 -154 -61
-165 -66 -11 -5 -45 -19 -75 -30 -30 -11 -64 -25 -75 -30 -39 -18 -185 -71
-191 -70 -4 1 -10 -3 -13 -8 -5 -7 -92 -43 -136 -56 -5 -2 -28 -11 -50 -21
-22 -10 -46 -18 -52 -18 -7 0 -13 -4 -13 -9 0 -4 -3 -7 -7 -6 -5 0 -17 -2 -28
-7 -125 -50 -191 -75 -202 -75 -7 0 -13 -5 -13 -12 0 -6 -2 -9 -6 -6 -3 3 -53
-14 -111 -38 -59 -24 -112 -44 -120 -44 -7 0 -13 -4 -13 -10 0 -5 -3 -9 -7 -9
-5 1 -11 0 -15 -1 -5 -1 -11 -3 -15 -5 -5 -1 -21 -7 -38 -14 -16 -6 -70 -28
-120 -47 -49 -20 -103 -42 -120 -49 -37 -16 -198 -79 -205 -80 -3 0 -14 -6
-25 -12 -11 -6 -24 -12 -30 -13 -19 -5 -40 -12 -70 -25 -16 -7 -50 -21 -75
-31 -25 -9 -63 -25 -84 -35 -22 -10 -43 -16 -48 -13 -4 3 -8 0 -8 -6 0 -6 -4
-8 -10 -5 -5 3 -10 1 -10 -6 0 -7 -3 -9 -6 -6 -4 3 -16 1 -28 -5 -11 -7 -30
-13 -41 -15 -10 -2 -23 -9 -27 -16 -4 -6 -8 -9 -8 -5 0 7 -56 -14 -157 -58
-17 -8 -34 -14 -38 -14 -4 0 -21 -7 -38 -15 -18 -8 -68 -28 -112 -45 -44 -17
-89 -35 -100 -40 -11 -5 -63 -26 -115 -46 -52 -20 -115 -45 -140 -56 -24 -11
-49 -21 -55 -23 -5 -1 -23 -8 -40 -14 -16 -7 -34 -14 -40 -15 -5 -2 -23 -8
-40 -16 -58 -25 -71 -30 -150 -60 -44 -17 -93 -37 -110 -45 -16 -7 -42 -17
-58 -20 -15 -4 -30 -11 -33 -16 -3 -5 -12 -9 -20 -9 -8 0 -33 -9 -57 -19 -23
-11 -71 -31 -107 -45 -36 -14 -78 -30 -95 -37 -16 -7 -34 -13 -40 -14 -26 -7
-183 -80 -207 -97 -16 -11 -28 -16 -28 -11 0 4 -4 3 -8 -2 -4 -6 -25 -23 -47
-39 -85 -63 -235 -243 -235 -283 0 -7 -3 -13 -7 -13 -9 0 -33 -58 -58 -136
-14 -42 -16 -88 -13 -250 l3 -199 43 -105 c24 -58 44 -109 45 -115 1 -5 4 -12
7 -15 8 -7 80 -181 85 -204 2 -10 9 -24 16 -32 6 -8 8 -14 5 -14 -4 0 -1 -10
6 -22 7 -13 11 -26 10 -30 -1 -5 2 -8 8 -8 6 0 9 -3 8 -7 -1 -8 5 -28 27 -78
7 -16 29 -70 49 -120 49 -120 50 -124 71 -170 10 -22 20 -43 21 -47 1 -5 3
-10 4 -13 1 -3 3 -8 4 -12 1 -5 12 -30 24 -57 12 -27 22 -51 22 -54 0 -4 30
-77 71 -169 10 -23 24 -60 31 -82 7 -23 16 -41 20 -41 5 0 8 -6 8 -13 0 -8 18
-55 40 -106 22 -50 40 -99 40 -107 0 -7 5 -14 12 -14 6 0 8 -3 5 -6 -3 -4 -1
-16 5 -28 7 -11 13 -24 14 -28 1 -5 3 -11 4 -15 1 -5 2 -11 1 -15 0 -5 3 -8 9
-8 6 0 9 -3 8 -7 -1 -5 3 -18 10 -30 7 -13 10 -23 6 -23 -3 0 -1 -6 5 -13 6
-8 8 -17 4 -20 -3 -4 -1 -7 5 -7 7 0 12 -8 12 -18 0 -10 7 -27 15 -38 8 -12
11 -24 8 -28 -3 -3 -1 -6 5 -6 7 0 12 -7 12 -16 0 -8 9 -34 19 -57 11 -24 23
-55 26 -70 4 -15 11 -27 16 -27 5 0 6 -7 3 -15 -4 -8 -2 -15 4 -15 5 0 13 -12
17 -27 3 -16 13 -41 20 -58 8 -16 37 -86 65 -155 28 -69 55 -135 60 -147 6
-13 14 -33 19 -45 5 -13 16 -39 24 -58 41 -95 65 -160 59 -160 -4 0 -2 -4 4
-8 12 -8 84 -178 84 -199 0 -7 5 -13 10 -13 6 0 10 -6 10 -14 0 -12 41 -117
70 -181 5 -11 18 -42 29 -70 11 -27 27 -68 37 -90 10 -22 18 -44 20 -50 1 -5
11 -30 22 -55 29 -64 212 -508 212 -514 0 -3 12 -31 26 -63 14 -32 31 -69 36
-83 6 -14 18 -38 26 -55 9 -16 15 -31 13 -33 -2 -2 17 -52 74 -187 6 -16 22
-55 35 -85 12 -30 26 -64 31 -75 5 -11 29 -72 55 -135 25 -63 52 -128 59 -145
25 -55 115 -275 115 -280 0 -2 11 -28 24 -57 21 -45 51 -119 98 -238 5 -14 9
-27 10 -30 0 -3 6 -16 13 -30 21 -41 80 -179 80 -190 1 -3 11 -27 23 -54 12
-27 22 -50 22 -52 0 -1 5 -15 12 -31 6 -15 12 -30 13 -33 1 -3 9 -23 19 -45
10 -22 27 -62 38 -90 74 -187 164 -325 265 -405 56 -45 90 -68 111 -74 12 -4
22 -11 22 -16 0 -4 8 -10 18 -13 9 -4 42 -16 72 -27 107 -41 209 -58 326 -53
151 6 164 7 164 16 0 4 8 7 18 7 20 0 162 44 207 65 17 7 86 36 155 63 69 27
134 53 145 57 11 5 22 9 25 10 6 2 16 6 135 55 50 20 93 38 97 39 17 4 84 32
100 41 10 6 23 10 30 10 7 0 24 6 38 13 14 7 54 24 90 37 36 13 74 28 85 34
11 6 22 11 25 11 10 1 105 39 115 45 6 4 33 14 60 24 28 10 59 22 70 26 100
45 138 59 146 54 5 -3 9 0 9 5 0 6 6 11 13 11 8 0 27 6 43 14 39 20 87 40 99
41 9 2 21 7 93 37 15 6 29 12 32 12 6 1 62 24 115 46 61 26 159 65 165 65 3 0
15 6 26 13 12 6 24 8 28 5 3 -3 6 -1 6 5 0 7 3 11 8 10 9 -3 169 59 279 108
17 8 35 14 40 14 5 0 28 9 51 20 22 11 48 20 57 20 8 0 15 4 15 8 0 5 6 9 13
9 12 0 242 90 307 120 19 9 41 16 48 16 6 0 12 4 12 9 0 5 4 7 8 4 5 -3 24 3
43 13 19 10 39 19 44 21 32 8 169 63 180 72 5 4 16 8 25 8 8 1 33 9 55 20 22
11 43 19 46 20 4 0 23 7 43 15 20 8 37 14 38 13 2 -1 14 5 28 12 14 8 27 15
30 15 6 0 62 22 105 41 17 7 140 56 275 109 135 53 260 103 277 111 60 27 111
43 119 36 4 -4 5 -2 1 3 -3 6 21 19 54 30 33 10 62 22 65 27 3 4 14 8 25 8 10
0 19 5 19 10 0 6 3 9 8 8 7 -3 85 24 139 48 17 8 36 14 42 14 6 0 11 4 11 8 0
5 6 9 14 9 12 0 66 20 141 53 11 5 52 20 90 35 39 15 89 35 112 46 24 10 49
19 57 19 8 0 17 4 20 9 3 5 18 12 33 16 16 3 42 13 58 20 98 44 224 92 229 87
3 -3 6 0 6 7 0 6 6 11 13 9 6 -1 28 5 47 14 75 34 216 88 228 88 6 0 12 4 12
8 0 5 6 9 13 9 6 0 68 23 137 51 69 27 179 71 245 97 137 54 284 122 303 142
7 7 17 13 22 13 5 0 41 33 82 73 71 70 126 132 118 132 -2 0 8 18 22 40 64
104 106 261 106 403 1 140 -25 245 -108 437 -36 84 -105 250 -105 255 -1 3 -9
22 -18 44 -9 21 -17 40 -17 43 0 2 -10 25 -22 51 -12 26 -23 52 -24 57 -3 13
-79 196 -105 252 -10 24 -19 46 -19 49 0 3 -7 20 -14 37 -8 18 -31 73 -51 122
-37 94 -43 107 -68 165 -9 19 -23 55 -33 80 -9 25 -21 49 -26 55 -4 5 -8 19
-8 31 0 13 -4 25 -9 28 -10 6 -91 206 -91 224 0 7 -5 12 -11 12 -5 0 -7 5 -4
10 3 6 2 10 -3 10 -5 0 -9 6 -9 13 0 6 -11 39 -26 72 -31 71 -213 511 -237
575 -22 56 -127 308 -140 335 -15 32 -51 134 -50 141 1 4 -2 10 -7 13 -5 3
-24 44 -43 91 -18 47 -37 90 -42 96 -4 6 -5 14 -1 17 3 4 2 7 -4 7 -5 0 -10 6
-10 13 0 6 -7 28 -16 47 -9 19 -43 103 -77 185 -33 83 -65 159 -70 170 -4 11
-31 76 -60 145 -28 69 -59 145 -70 170 -75 178 -87 209 -82 214 3 3 0 6 -6 6
-7 0 -12 8 -12 17 0 9 -8 35 -19 57 -42 93 -60 134 -77 184 -10 28 -22 52 -27
52 -4 0 -6 4 -2 9 3 5 -4 26 -16 45 -11 20 -18 36 -14 36 4 0 2 6 -4 13 -6 8
-8 17 -4 20 3 4 1 7 -5 7 -7 0 -12 6 -12 13 0 8 -6 27 -14 43 -7 16 -48 115
-91 219 -42 105 -83 204 -90 220 -31 69 -45 103 -45 109 0 3 -13 35 -30 71
-16 36 -30 71 -30 78 0 7 -4 17 -8 23 -5 5 -20 36 -32 69 -13 33 -30 71 -37
85 -7 14 -13 30 -13 36 0 5 -10 30 -21 54 -12 24 -23 49 -24 54 -10 37 -18 56
-24 56 -4 0 -8 6 -8 13 0 6 -7 28 -15 47 -9 19 -25 60 -37 90 -12 30 -26 64
-31 75 -5 11 -26 61 -46 110 -20 50 -41 94 -46 99 -4 6 -8 16 -8 23 0 22 -85
147 -144 211 -107 115 -265 209 -406 242 -30 7 -67 16 -82 20 -47 15 -248 8
-323 -9z m325 -765 c0 -3 30 -67 66 -143 37 -76 88 -183 114 -238 26 -55 68
-143 94 -195 25 -52 46 -100 46 -107 0 -7 4 -13 9 -13 5 0 12 -10 16 -22 9
-28 8 -26 26 -63 7 -16 16 -32 19 -35 3 -3 6 -9 7 -15 1 -5 43 -95 93 -200 51
-104 107 -221 125 -260 18 -38 63 -133 100 -210 37 -77 92 -192 122 -255 31
-63 77 -160 104 -215 26 -55 46 -101 44 -103 -2 -3 -12 -1 -22 3 -10 5 -25 9
-33 11 -9 2 -41 15 -73 28 -31 14 -57 23 -57 20 0 -4 -6 -2 -12 3 -7 5 -42 20
-78 32 -36 12 -74 26 -85 31 -11 4 -47 18 -80 30 -33 12 -71 27 -85 33 -14 5
-29 12 -35 13 -20 6 -101 35 -120 43 -11 5 -47 19 -80 31 -33 12 -69 26 -80
30 -11 4 -54 21 -96 37 l-76 29 -66 -135 c-36 -75 -84 -165 -106 -201 -22 -36
-48 -79 -56 -96 -9 -17 -25 -41 -35 -52 -11 -12 -20 -24 -20 -27 0 -9 -97
-142 -150 -204 -8 -10 -26 -33 -40 -51 -66 -86 -141 -165 -221 -234 -54 -45
-155 -116 -168 -116 -6 0 -11 -4 -11 -10 0 -19 -286 -148 -369 -166 -14 -3
-28 -7 -32 -9 -4 -3 -24 -7 -45 -11 -22 -3 -45 -11 -51 -16 -9 -7 -13 -7 -13
1 0 7 -5 9 -10 6 -6 -4 -20 -8 -33 -10 -72 -12 -107 -17 -152 -21 -27 -2 -63
-6 -80 -9 -16 -2 -55 -7 -85 -10 -30 -3 -65 -8 -78 -10 -13 -2 -53 -7 -90 -10
-37 -4 -83 -8 -102 -11 -19 -2 -82 -6 -140 -8 -105 -3 -129 -9 -224 -58 -82
-43 -143 -122 -150 -196 -4 -36 6 -102 22 -142 3 -8 6 -17 7 -20 16 -61 130
-189 201 -225 21 -11 100 -57 176 -102 75 -46 141 -83 147 -83 5 0 11 -4 13
-8 4 -10 157 -112 168 -112 4 0 15 -9 25 -20 10 -11 23 -20 30 -20 7 0 20 -9
30 -20 10 -11 22 -20 26 -20 5 0 17 -7 26 -15 10 -8 83 -63 163 -122 80 -59
150 -112 156 -118 7 -5 31 -26 55 -45 57 -45 269 -257 269 -269 0 -5 6 -16 13
-23 25 -26 93 -135 138 -224 51 -97 97 -220 122 -324 16 -64 20 -85 34 -171
14 -92 6 -425 -13 -534 -3 -16 -7 -43 -10 -60 -4 -38 -24 -125 -31 -145 -4 -8
-6 -18 -5 -22 2 -10 -55 -172 -84 -238 -46 -105 -97 -194 -162 -287 -47 -68
-64 -90 -112 -143 -14 -15 -32 -36 -41 -46 -30 -35 -134 -130 -174 -159 -22
-16 -44 -34 -50 -40 -33 -37 -326 -187 -383 -196 -4 0 -11 -4 -17 -9 -13 -10
-118 -45 -127 -42 -5 1 -8 -2 -8 -8 0 -6 -3 -9 -7 -8 -13 3 -97 -23 -110 -34
-7 -6 -13 -8 -13 -4 0 4 -13 0 -30 -9 -16 -9 -30 -13 -30 -10 0 3 -13 -1 -30
-10 -16 -9 -30 -13 -30 -9 0 4 -6 2 -12 -4 -11 -9 -56 -23 -123 -39 -11 -2
-36 -7 -55 -9 -47 -6 -135 -39 -189 -71 -44 -25 -111 -90 -111 -106 0 -5 -7
-15 -15 -24 -8 -8 -13 -19 -10 -24 4 -5 2 -9 -3 -9 -5 0 -12 -8 -15 -18 -3 -9
-22 -57 -42 -107 -21 -49 -38 -94 -40 -100 -1 -5 -7 -22 -13 -36 -6 -15 -16
-46 -22 -70 -6 -24 -20 -71 -30 -104 -11 -33 -21 -71 -24 -85 -8 -47 -47 -185
-60 -210 -10 -21 -17 -25 -51 -22 -22 2 -42 7 -45 10 -5 7 -14 10 -50 15 -11
2 -23 6 -26 10 -4 4 -19 7 -34 7 -15 0 -30 3 -34 7 -3 4 -17 8 -29 10 -12 2
-33 8 -47 13 -26 11 -60 19 -97 25 -12 2 -27 6 -32 10 -6 3 -19 8 -28 10 -21
4 -63 16 -293 80 -91 26 -183 51 -205 56 -22 5 -56 16 -75 23 -19 8 -38 14
-43 14 -4 0 -21 4 -38 7 -25 6 -30 11 -26 29 3 11 21 84 41 161 20 77 36 148
36 158 0 9 3 17 8 17 4 0 7 12 8 28 0 15 3 38 7 52 5 22 51 209 61 250 2 8 11
40 20 71 9 31 19 67 22 80 9 40 51 183 61 209 4 8 7 18 8 23 2 4 3 8 4 10 2 1
4 12 6 23 3 12 10 34 16 50 7 16 11 35 10 42 -1 6 3 12 9 12 6 0 9 3 6 8 -2 4
3 23 12 42 8 19 16 37 16 40 4 17 91 186 98 188 4 2 6 8 2 13 -3 5 0 9 5 9 6
0 11 7 11 15 0 8 5 15 10 15 6 0 10 5 10 11 0 7 11 22 26 35 14 13 22 24 19
24 -9 0 90 95 132 127 21 15 40 30 43 33 30 30 223 134 360 192 78 33 311 116
349 123 9 2 41 10 72 19 31 9 67 19 80 22 39 8 54 12 57 14 1 2 7 4 12 5 6 1
11 3 13 4 1 2 13 4 25 7 49 9 178 69 207 96 17 15 33 28 37 28 21 0 27 135 7
172 -9 16 -8 19 3 12 10 -6 11 -5 2 7 -6 8 -17 32 -24 54 -16 48 -38 84 -66
107 -12 10 -37 32 -55 50 -19 19 -59 53 -89 78 -30 25 -57 47 -60 50 -3 3 -27
21 -55 39 -27 19 -52 37 -55 40 -7 8 -48 31 -160 90 -137 72 -227 124 -248
141 -9 8 -30 21 -44 29 -15 8 -37 22 -47 33 -11 10 -23 18 -26 18 -6 0 -84 58
-95 71 -3 3 -14 12 -26 20 -88 60 -413 387 -414 416 0 6 -4 13 -8 15 -11 4
-90 111 -144 193 -81 125 -177 339 -194 430 -1 6 -7 35 -13 65 -6 30 -14 73
-18 95 -10 51 -10 334 0 403 7 54 10 70 47 227 19 80 50 182 67 225 3 8 5 18
5 23 -1 4 3 7 8 7 6 0 10 6 10 13 0 19 75 161 120 227 22 32 40 63 40 69 0 5
3 11 8 13 4 2 25 26 47 53 57 71 255 265 271 265 4 0 28 18 54 40 26 22 51 40
55 40 9 0 99 62 107 74 4 6 8 7 8 3 0 -5 12 0 28 10 15 11 50 30 77 44 28 13
52 26 55 29 8 9 112 50 126 50 8 0 14 4 14 9 0 5 17 13 38 19 20 6 62 18 92
27 30 9 64 18 75 20 82 18 112 24 160 30 22 2 65 9 95 15 90 17 161 21 455 25
154 2 291 6 305 8 14 3 43 8 65 12 72 10 160 36 193 57 26 16 45 45 88 137 30
64 64 134 75 155 24 48 25 46 -96 87 -44 15 -172 59 -285 99 -113 39 -257 88
-320 110 -63 21 -134 46 -157 55 l-42 17 112 56 c62 30 114 56 117 57 3 0 23
10 45 22 22 11 101 50 175 87 74 36 142 70 150 75 39 24 226 114 233 113 4 -1
7 2 7 7 0 5 10 12 23 16 12 4 24 8 27 9 3 1 34 17 70 36 36 19 67 34 70 35 3
1 25 11 50 24 100 52 140 71 149 71 5 0 14 7 21 15 7 8 20 15 29 15 9 0 23 6
30 13 6 6 15 12 19 13 7 1 147 69 172 84 8 5 69 36 135 68 67 32 134 67 150
78 16 10 30 18 32 16 2 -1 40 17 86 40 45 23 84 42 87 43 17 4 101 49 106 57
5 8 44 -42 44 -56z"/>
</g>
</svg>
