<?xml version="1.0" standalone="no"?>
<!DOCTYPE svg PUBLIC "-//W3C//DTD SVG 20010904//EN"
 "http://www.w3.org/TR/2001/REC-SVG-20010904/DTD/svg10.dtd">
<svg version="1.0" xmlns="http://www.w3.org/2000/svg"
 width="700.000000pt" height="700.000000pt" viewBox="0 0 700.000000 700.000000"
 preserveAspectRatio="xMidYMid meet">
<metadata>
Created by potrace 1.11, written by Peter Selinger 2001-2013
</metadata>
<g transform="translate(0.000000,700.000000) scale(0.100000,-0.100000)"
fill="#000000" stroke="none">
<path d="M4715 6913 c-84 -7 -181 -41 -650 -228 -830 -330 -1541 -614 -1572
-627 -15 -6 -30 -12 -33 -12 -8 -2 -722 -287 -757 -302 -17 -8 -34 -14 -37
-14 -3 0 -30 -11 -60 -25 -30 -14 -59 -25 -64 -25 -5 0 -22 -6 -38 -14 -16 -8
-83 -35 -149 -61 -66 -26 -129 -51 -140 -55 -11 -5 -213 -86 -450 -180 -247
-99 -453 -187 -485 -207 -113 -74 -198 -190 -236 -318 -22 -75 -23 -221 -2
-290 9 -27 115 -293 237 -590 122 -297 242 -589 267 -650 25 -60 49 -119 54
-130 5 -11 30 -72 56 -135 25 -63 52 -128 59 -145 7 -16 43 -104 80 -195 75
-185 83 -205 113 -275 12 -27 96 -232 187 -455 91 -223 181 -443 201 -490 35
-85 89 -218 104 -255 4 -11 15 -36 23 -55 9 -19 23 -55 33 -80 9 -25 21 -49
26 -54 4 -6 8 -16 8 -24 0 -7 9 -32 19 -55 10 -23 35 -82 56 -132 20 -49 43
-103 50 -120 7 -16 23 -57 35 -90 13 -33 26 -64 30 -70 4 -5 19 -42 34 -81 91
-242 290 -385 538 -386 87 0 151 14 253 58 28 12 263 105 930 369 149 58 279
110 290 115 11 5 247 100 525 210 278 110 514 204 525 210 11 5 74 30 139 55
66 25 133 52 150 59 17 8 114 46 216 86 102 40 199 79 215 86 17 7 129 52 250
99 121 47 229 90 240 95 11 5 56 23 100 40 44 17 98 39 120 49 22 10 51 22 65
26 14 4 39 13 55 20 17 8 103 43 193 79 89 36 183 79 208 96 168 116 256 289
248 488 -3 78 -16 127 -64 247 -28 71 -39 97 -71 170 -5 11 -24 58 -42 105
-65 163 -289 705 -313 758 -13 29 -24 56 -24 60 0 4 -26 71 -59 147 -32 77
-141 340 -241 585 -100 245 -188 459 -195 475 -7 17 -63 152 -123 300 -109
266 -373 910 -518 1260 -80 193 -107 242 -177 314 -104 106 -286 175 -432 164z
m115 -565 c13 -29 64 -135 112 -236 48 -101 88 -185 88 -186 0 -2 45 -97 100
-211 55 -113 100 -208 100 -209 0 -2 37 -79 81 -172 135 -281 170 -356 166
-360 -2 -2 -111 35 -243 82 -384 138 -435 156 -438 152 -2 -1 -22 -43 -45 -92
-124 -258 -331 -525 -490 -629 -201 -133 -352 -177 -756 -222 -27 -3 -63 -7
-80 -9 -16 -2 -63 -7 -102 -11 -98 -9 -92 -8 -145 -34 -70 -34 -93 -71 -93
-151 1 -72 15 -105 68 -161 36 -38 58 -53 272 -189 271 -171 521 -354 604
-440 66 -68 152 -187 193 -265 41 -79 83 -210 97 -300 9 -61 8 -329 -2 -375
-3 -14 -8 -43 -12 -64 -24 -163 -119 -384 -226 -526 -143 -190 -294 -277 -718
-416 -284 -93 -287 -95 -335 -138 -57 -52 -101 -164 -171 -436 -21 -80 -41
-148 -44 -152 -3 -4 -29 -1 -56 7 -28 8 -203 57 -390 110 -187 53 -341 98
-343 100 -2 2 8 50 21 107 14 57 28 114 31 128 6 27 34 146 40 170 138 536
209 676 415 812 125 82 263 139 481 198 241 66 290 85 317 126 36 56 9 170
-59 244 -44 48 -274 220 -293 220 -3 0 -71 44 -152 98 -81 53 -154 102 -162
107 -9 6 -18 12 -21 15 -3 3 -41 35 -85 72 -166 138 -285 281 -359 431 -43 86
-87 212 -101 289 -11 58 -14 261 -5 313 19 114 32 164 62 250 146 421 538 723
1013 781 28 3 61 8 75 10 14 3 84 7 155 9 246 9 326 16 390 34 50 14 66 26 96
76 26 41 92 195 87 200 -2 2 -57 22 -123 44 -66 23 -142 51 -170 61 -27 10
-111 40 -185 66 -74 26 -137 48 -139 50 -2 2 29 19 70 38 41 18 110 51 154 71
44 21 82 39 85 40 3 0 37 16 75 34 39 18 93 44 120 56 28 13 95 44 150 70 55
26 144 67 197 91 53 24 143 65 200 92 57 27 141 67 188 88 46 21 109 51 140
66 30 14 60 27 65 27 6 1 21 -23 35 -51z"/>
</g>
</svg>
