<svg version="1.1" xmlns="http://www.w3.org/2000/svg" xmlns:xlink="http://www.w3.org/1999/xlink" x="0px" y="0px" viewBox="0 0 38 38" style="enable-background:new 0 0 38 38;" xml:space="preserve"><path d="M33.5,11.5H32h-0.8H27c-0.8,0-1.5-0.7-1.5-1.5s0.7-1.5,1.5-1.5h2.6C27.2,5.2,23.4,3,19,3C11.8,3,6,8.8,6,16c0,0.8-0.7,1.5-1.5,1.5S3,16.8,3,16l0,0C3,7.2,10.2,0,19,0c5.4,0,10.1,2.6,13,6.7V4c0-0.8,0.7-1.5,1.5-1.5C34.3,2.5,35,3.2,35,4v6C35,10.8,34.3,11.5,33.5,11.5z M4.5,20.5H11c0.8,0,1.5,0.7,1.5,1.5c0,0.8-0.7,1.5-1.5,1.5H8.4C10.7,26.8,14.6,29,19,29c7.2,0,13-5.8,13-13c0-0.8,0.7-1.5,1.5-1.5c0.8,0,1.5,0.7,1.5,1.5l0,0c0,8.8-7.2,16-16,16c-5.4,0-10.1-2.7-13-6.7V28c0,0.8-0.7,1.5-1.5,1.5S3,28.8,3,28v-6C3,21.2,3.7,20.5,4.5,20.5z" fill-rule="evenodd" clip-rule="evenodd"/></svg>