<svg version="1.1" xmlns="http://www.w3.org/2000/svg" xmlns:xlink="http://www.w3.org/1999/xlink" x="0px" y="0px" viewBox="0 0 38 38" style="enable-background:new 0 0 38 38;" xml:space="preserve"><g><path d="M31.7,1H6.8C6.1,1,5.6,1.5,5.6,2.2V18c0,0.6,0.5,1.1,1.1,1.1l0,0c0.6,0,1.1-0.5,1.1-1.1V6.7c0-0.6,0.5-1.1,1.1-1.1h20.4c0.6,0,1.1,0.5,1.1,1.1l0,11.3c0,0.6,0.5,1.1,1.1,1.1c0.6,0,1.1-0.5,1.1-1.1V2.2C32.8,1.5,32.3,1,31.7,1z"/><path d="M31.7,20.3h-3.4V9c0-0.6-0.4-1.1-1-1.1H11.1c-0.5,0-1,0.5-1,1.1v11.3H6.8c-0.6,0-1.1,0.5-1.1,1.1v6.8c0,0.6,0.5,1.1,1.1,1.1h1.1v2.7c0,0.4,0.3,0.7,0.7,0.7h3.2c0.4,0,0.7-0.3,0.7-0.7v-2.7H26v2.7c0,0.4,0.3,0.7,0.7,0.7h3.2c0.4,0,0.7-0.3,0.7-0.7v-2.7h1.1c0.6,0,1.1-0.5,1.1-1.1v-6.8C32.8,20.8,32.3,20.3,31.7,20.3z M12.4,11.2c0-0.6,0.5-1.1,1.1-1.1h11.3c0.6,0,1.1,0.5,1.1,1.1V18c0,0.6-0.5,1.1-1.1,1.1H13.6c-0.6,0-1.1-0.5-1.1-1.1V11.2z M9.6,21.4c0.9,0,1.7,0.8,1.7,1.7c0,0.9-0.8,1.7-1.7,1.7s-1.7-0.8-1.7-1.7C7.9,22.2,8.7,21.4,9.6,21.4z M21.5,27.1H17l-1.1-2.3h6.8L21.5,27.1z M22.6,23.7h-6.8l-1.1-2.3h9.1L22.6,23.7z M28.9,24.8c-0.9,0-1.7-0.8-1.7-1.7c0-0.9,0.8-1.7,1.7-1.7s1.7,0.8,1.7,1.7C30.6,24.1,29.8,24.8,28.9,24.8z"/></g></svg>
