<svg xmlns="http://www.w3.org/2000/svg" viewBox="0 0 40 40" style="enable-background:new 0 0 40 40;"><path d="M10.8,1L8.7,7.5H1.9l5.5,4L5.3,18l5.5-4l5.5,4l-2.1-6.5l5.5-4h-6.8L10.8,1z M24.6,18l5.5-4l5.5,4l-2.1-6.5l5.5-4h-6.8L30.1,1L28,7.5h-6.8l5.5,4L24.6,18z M12.9,28.3l-2.1-6.5l-2.1,6.5H1.9l5.5,4l-2.1,6.5l5.5-4l5.5,4l-2.1-6.5l5.5-4C19.7,28.3,12.9,28.3,12.9,28.3z M39,28.3h-6.8l-2.1-6.5L28,28.3h-6.8l5.5,4l-2.1,6.5l5.5-4l5.5,4l-2.1-6.5L39,28.3z M34.1,36.7l-3.6-2.5c-0.3-0.2-0.6-0.2-0.9,0l-3.6,2.5l1.3-4.2c0.1-0.3,0-0.7-0.3-0.8l-3.6-2.5H28c0.3,0,0.6-0.2,0.8-0.5l1.3-4.2l1.3,4.2c0.1,0.3,0.4,0.5,0.8,0.5h4.4L33,31.7c-0.3,0.2-0.4,0.5-0.3,0.8L34.1,36.7z"/></svg>