<svg xmlns="http://www.w3.org/2000/svg" viewBox="0 0 40 40" style="enable-background:new 0 0 40 40;"><path d="M28.7,1.9H12.3c-1.3,0-2.4,1.1-2.4,2.4v32.2c0,1.3,1.1,2.4,2.4,2.4h16.4c1.3,0,2.4-1.1,2.4-2.4V4.4C31.2,3,30.1,1.9,28.7,1.9z M18.4,4.4c0-0.2,0.2-0.4,0.3-0.4l0,0h4.9c0.2,0,0.4,0.2,0.4,0.3c0,0,0,0,0,0.1v0.2c0,0.2-0.2,0.4-0.3,0.4l0,0h-4.9c-0.2,0-0.4-0.2-0.4-0.3c0,0,0,0,0-0.1C18.4,4.6,18.4,4.4,18.4,4.4z M16.9,4.4c0-0.2,0.2-0.4,0.3-0.4l0,0h0.3C17.8,4,18,4.2,18,4.3c0,0,0,0,0,0.1v0.2C18,4.9,17.8,5,17.7,5l0,0h-0.3c-0.2,0-0.4-0.2-0.4-0.3c0,0,0,0,0-0.1V4.4z M20.5,38.1c-0.8,0-1.4-0.6-1.4-1.4s0.6-1.4,1.4-1.4c0.8,0,1.4,0.6,1.4,1.4l0,0l0,0C21.9,37.4,21.3,38.1,20.5,38.1z M29.2,33.2c0,0.6-0.6,1.2-1.2,1.2H13c-0.6,0-1.2-0.6-1.2-1.2V7.9c0-0.6,0.5-1.2,1.1-1.2l0,0H28c0.6,0,1.2,0.6,1.2,1.2V33.2z"/></svg>