<svg version="1.1" xmlns="http://www.w3.org/2000/svg" xmlns:xlink="http://www.w3.org/1999/xlink" x="0px" y="0px" viewBox="0 0 38 38" style="enable-background:new 0 0 38 38;" xml:space="preserve"><g><path d="M21,13.5c-1.8,0-3.2-1.4-3.2-3.2V7.2V1.4H9.3C8.5,1.4,7.7,2.1,7.7,3v27.5c0,0.9,0.7,1.6,1.6,1.6h20.1c0.9,0,1.6-0.7,1.6-1.6v-4.2V13.5h-6.9H21z M20.8,28.6h-2.3h-6.8c-0.4,0-0.7-0.3-0.7-0.7c0-0.4,0.3-0.7,0.7-0.7h3.9h3h2.3c0.4,0,0.7,0.3,0.7,0.7C21.5,28.3,21.2,28.6,20.8,28.6z M24.9,25H11.7c-0.4,0-0.7-0.3-0.7-0.7c0-0.4,0.3-0.7,0.7-0.7h13.2c0.4,0,0.7,0.3,0.7,0.7C25.6,24.7,25.3,25,24.9,25z M11,20.7c0-0.4,0.3-0.7,0.7-0.7h3.9h3h0.7h3c0.4,0,0.7,0.3,0.7,0.7c0,0.4-0.3,0.7-0.7,0.7h-1.4c0,0,0,0,0,0h-5.2h-3.9C11.4,21.3,11,21,11,20.7z M25.6,17c0,0.4-0.3,0.7-0.7,0.7H11.7c-0.4,0-0.7-0.3-0.7-0.7c0-0.4,0.3-0.7,0.7-0.7h13.2C25.3,16.3,25.6,16.6,25.6,17z"/><path d="M21,12h3.2H31L19.4,1.4v5.8v3.2C19.4,11.2,20.1,12,21,12z"/></g></svg>
